<?xml version="1.0" encoding="UTF-8" standalone="no"?>
<!DOCTYPE svg PUBLIC "-//W3C//DTD SVG 1.1//EN"
 "http://www.w3.org/Graphics/SVG/1.1/DTD/svg11.dtd">
<!-- Generated by graphviz version 2.47.3 (20210619.1520)
 -->
<!-- Title: machine_learning::kohonen_som Pages: 1 -->
<svg width="484pt" height="218pt"
 viewBox="0.00 0.00 484.00 218.00" xmlns="http://www.w3.org/2000/svg" xmlns:xlink="http://www.w3.org/1999/xlink">
<g id="graph0" class="graph" transform="scale(1 1) rotate(0) translate(4 214)">
<title>machine_learning::kohonen_som</title>
<polygon fill="white" stroke="transparent" points="-4,4 -4,-214 480,-214 480,4 -4,4"/>
<!-- Node1 -->
<g id="node1" class="node">
<title>Node1</title>
<g id="a_node1"><a xlink:title=" ">
<polygon fill="#bfbfbf" stroke="black" points="0,-95.5 0,-114.5 159,-114.5 159,-95.5 0,-95.5"/>
<text text-anchor="middle" x="79.5" y="-102.5" font-family="Helvetica,sans-Serif" font-size="10.00">machine_learning::kohonen_som</text>
</a>
</g>
</g>
<!-- Node2 -->
<g id="node2" class="node">
<title>Node2</title>
<g id="a_node2"><a xlink:href="../../d8/d77/namespacemachine__learning.html#ac4010fe3a52a74e8b5b1aaadfe38b46f" target="_top" xlink:title=" ">
<polygon fill="white" stroke="black" points="195,-90 195,-120 323,-120 323,-90 195,-90"/>
<text text-anchor="start" x="203" y="-108" font-family="Helvetica,sans-Serif" font-size="10.00">machine_learning::update</text>
<text text-anchor="middle" x="259" y="-97" font-family="Helvetica,sans-Serif" font-size="10.00">_weights</text>
</a>
</g>
</g>
<!-- Node1&#45;&gt;Node2 -->
<g id="edge1" class="edge">
<title>Node1&#45;&gt;Node2</title>
<path fill="none" stroke="midnightblue" d="M159.13,-105C167.63,-105 176.26,-105 184.7,-105"/>
<polygon fill="midnightblue" stroke="midnightblue" points="184.88,-108.5 194.88,-105 184.88,-101.5 184.88,-108.5"/>
</g>
<!-- Node3 -->
<g id="node3" class="node">
<title>Node3</title>
<g id="a_node3"><a target="_blank" xlink:href="http://en.cppreference.com/w/cpp/numeric/math/exp.html#" xlink:title=" ">
<polygon fill="white" stroke="black" points="391.5,-190.5 391.5,-209.5 443.5,-209.5 443.5,-190.5 391.5,-190.5"/>
<text text-anchor="middle" x="417.5" y="-197.5" font-family="Helvetica,sans-Serif" font-size="10.00">std::exp</text>
</a>
</g>
</g>
<!-- Node2&#45;&gt;Node3 -->
<g id="edge2" class="edge">
<title>Node2&#45;&gt;Node3</title>
<path fill="none" stroke="midnightblue" d="M275.98,-120.03C294.63,-136.89 327.02,-164.07 359,-181 366.12,-184.77 374.13,-187.99 381.86,-190.64"/>
<polygon fill="midnightblue" stroke="midnightblue" points="380.82,-193.98 391.41,-193.7 382.96,-187.32 380.82,-193.98"/>
</g>
<!-- Node4 -->
<g id="node4" class="node">
<title>Node4</title>
<g id="a_node4"><a xlink:href="../../d9/d66/group__machine__learning.html#gab53c14440b2b2dd3172c66afc5c2f63f" target="_top" xlink:title=" ">
<polygon fill="white" stroke="black" points="384,-152.5 384,-171.5 451,-171.5 451,-152.5 384,-152.5"/>
<text text-anchor="middle" x="417.5" y="-159.5" font-family="Helvetica,sans-Serif" font-size="10.00">get_min_2d</text>
</a>
</g>
</g>
<!-- Node2&#45;&gt;Node4 -->
<g id="edge3" class="edge">
<title>Node2&#45;&gt;Node4</title>
<path fill="none" stroke="midnightblue" d="M297.92,-120.04C316.29,-127.2 338.71,-135.76 359,-143 364.71,-145.04 370.76,-147.12 376.72,-149.13"/>
<polygon fill="midnightblue" stroke="midnightblue" points="375.97,-152.57 386.56,-152.41 378.18,-145.93 375.97,-152.57"/>
</g>
<!-- Node5 -->
<g id="node5" class="node">
<title>Node5</title>
<g id="a_node5"><a target="_blank" xlink:href="http://en.cppreference.com/w/cpp/algorithm/max.html#" xlink:title=" ">
<polygon fill="white" stroke="black" points="390,-114.5 390,-133.5 445,-133.5 445,-114.5 390,-114.5"/>
<text text-anchor="middle" x="417.5" y="-121.5" font-family="Helvetica,sans-Serif" font-size="10.00">std::max</text>
</a>
</g>
</g>
<!-- Node2&#45;&gt;Node5 -->
<g id="edge4" class="edge">
<title>Node2&#45;&gt;Node5</title>
<path fill="none" stroke="midnightblue" d="M323.2,-112.67C342.45,-115.01 362.96,-117.5 379.84,-119.55"/>
<polygon fill="midnightblue" stroke="midnightblue" points="379.48,-123.03 389.83,-120.76 380.33,-116.08 379.48,-123.03"/>
</g>
<!-- Node6 -->
<g id="node6" class="node">
<title>Node6</title>
<g id="a_node6"><a target="_blank" xlink:href="http://en.cppreference.com/w/cpp/algorithm/min.html#" xlink:title=" ">
<polygon fill="white" stroke="black" points="391.5,-76.5 391.5,-95.5 443.5,-95.5 443.5,-76.5 391.5,-76.5"/>
<text text-anchor="middle" x="417.5" y="-83.5" font-family="Helvetica,sans-Serif" font-size="10.00">std::min</text>
</a>
</g>
</g>
<!-- Node2&#45;&gt;Node6 -->
<g id="edge5" class="edge">
<title>Node2&#45;&gt;Node6</title>
<path fill="none" stroke="midnightblue" d="M323.2,-97.33C343.01,-94.92 364.16,-92.35 381.31,-90.27"/>
<polygon fill="midnightblue" stroke="midnightblue" points="381.91,-93.73 391.42,-89.05 381.07,-86.78 381.91,-93.73"/>
</g>
<!-- Node7 -->
<g id="node7" class="node">
<title>Node7</title>
<g id="a_node7"><a target="_blank" xlink:href="http://en.cppreference.com/w/cpp/numeric/math/sqrt.html#" xlink:title=" ">
<polygon fill="white" stroke="black" points="391,-38.5 391,-57.5 444,-57.5 444,-38.5 391,-38.5"/>
<text text-anchor="middle" x="417.5" y="-45.5" font-family="Helvetica,sans-Serif" font-size="10.00">std::sqrt</text>
</a>
</g>
</g>
<!-- Node2&#45;&gt;Node7 -->
<g id="edge6" class="edge">
<title>Node2&#45;&gt;Node7</title>
<path fill="none" stroke="midnightblue" d="M297.92,-89.96C316.29,-82.8 338.71,-74.24 359,-67 366.15,-64.45 373.84,-61.83 381.19,-59.37"/>
<polygon fill="midnightblue" stroke="midnightblue" points="382.54,-62.62 390.94,-56.16 380.34,-55.97 382.54,-62.62"/>
</g>
<!-- Node8 -->
<g id="node8" class="node">
<title>Node8</title>
<g id="a_node8"><a xlink:href="../../d8/d77/namespacemachine__learning.html#a5305cc18d11943d3dc0d66e70d7e9c44" target="_top" xlink:title=" ">
<polygon fill="white" stroke="black" points="359,-0.5 359,-19.5 476,-19.5 476,-0.5 359,-0.5"/>
<text text-anchor="middle" x="417.5" y="-7.5" font-family="Helvetica,sans-Serif" font-size="10.00">machine_learning::sum</text>
</a>
</g>
</g>
<!-- Node2&#45;&gt;Node8 -->
<g id="edge7" class="edge">
<title>Node2&#45;&gt;Node8</title>
<path fill="none" stroke="midnightblue" d="M275.98,-89.97C294.63,-73.11 327.02,-45.93 359,-29 363.03,-26.87 367.34,-24.91 371.73,-23.13"/>
<polygon fill="midnightblue" stroke="midnightblue" points="373.22,-26.31 381.36,-19.53 370.77,-19.76 373.22,-26.31"/>
</g>
</g>
</svg>
