<?xml version="1.0" encoding="UTF-8" standalone="no"?>
<!DOCTYPE svg PUBLIC "-//W3C//DTD SVG 1.1//EN"
 "http://www.w3.org/Graphics/SVG/1.1/DTD/svg11.dtd">
<!-- Generated by graphviz version 2.44.0 (20200408.0750)
 -->
<!-- Title: machine_learning::update_weights Pages: 1 -->
<svg width="239pt" height="180pt"
 viewBox="0.00 0.00 239.00 180.00" xmlns="http://www.w3.org/2000/svg" xmlns:xlink="http://www.w3.org/1999/xlink">
<g id="graph0" class="graph" transform="scale(1 1) rotate(0) translate(4 176)">
<title>machine_learning::update_weights</title>
<polygon fill="white" stroke="transparent" points="-4,4 -4,-176 235,-176 235,4 -4,4"/>
<!-- Node1 -->
<g id="node1" class="node">
<title>Node1</title>
<g id="a_node1"><a xlink:title=" ">
<polygon fill="#bfbfbf" stroke="black" points="0,-71 0,-101 128,-101 128,-71 0,-71"/>
<text text-anchor="start" x="8" y="-89" font-family="Helvetica,sans-Serif" font-size="10.00">machine_learning::update</text>
<text text-anchor="middle" x="64" y="-78" font-family="Helvetica,sans-Serif" font-size="10.00">_weights</text>
</a>
</g>
</g>
<!-- Node2 -->
<g id="node2" class="node">
<title>Node2</title>
<g id="a_node2"><a target="_blank" xlink:href="http://en.cppreference.com/w/cpp/numeric/math/exp.html#" xlink:title=" ">
<polygon fill="white" stroke="black" points="171.5,-152.5 171.5,-171.5 223.5,-171.5 223.5,-152.5 171.5,-152.5"/>
<text text-anchor="middle" x="197.5" y="-159.5" font-family="Helvetica,sans-Serif" font-size="10.00">std::exp</text>
</a>
</g>
</g>
<!-- Node1&#45;&gt;Node2 -->
<g id="edge1" class="edge">
<title>Node1&#45;&gt;Node2</title>
<path fill="none" stroke="midnightblue" d="M90.98,-101.02C114.14,-114.4 147.84,-133.87 170.88,-147.19"/>
<polygon fill="midnightblue" stroke="midnightblue" points="169.34,-150.34 179.75,-152.32 172.84,-144.28 169.34,-150.34"/>
</g>
<!-- Node3 -->
<g id="node3" class="node">
<title>Node3</title>
<g id="a_node3"><a xlink:href="../../d9/d66/group__machine__learning.html#gab53c14440b2b2dd3172c66afc5c2f63f" target="_top" xlink:title=" ">
<polygon fill="white" stroke="black" points="164,-114.5 164,-133.5 231,-133.5 231,-114.5 164,-114.5"/>
<text text-anchor="middle" x="197.5" y="-121.5" font-family="Helvetica,sans-Serif" font-size="10.00">get_min_2d</text>
</a>
</g>
</g>
<!-- Node1&#45;&gt;Node3 -->
<g id="edge2" class="edge">
<title>Node1&#45;&gt;Node3</title>
<path fill="none" stroke="midnightblue" d="M116.97,-101.02C129.31,-104.58 142.33,-108.35 154.18,-111.77"/>
<polygon fill="midnightblue" stroke="midnightblue" points="153.24,-115.14 163.81,-114.55 155.18,-108.42 153.24,-115.14"/>
</g>
<!-- Node4 -->
<g id="node4" class="node">
<title>Node4</title>
<g id="a_node4"><a target="_blank" xlink:href="http://en.cppreference.com/w/cpp/algorithm/max.html#" xlink:title=" ">
<polygon fill="white" stroke="black" points="170,-76.5 170,-95.5 225,-95.5 225,-76.5 170,-76.5"/>
<text text-anchor="middle" x="197.5" y="-83.5" font-family="Helvetica,sans-Serif" font-size="10.00">std::max</text>
</a>
</g>
</g>
<!-- Node1&#45;&gt;Node4 -->
<g id="edge3" class="edge">
<title>Node1&#45;&gt;Node4</title>
<path fill="none" stroke="midnightblue" d="M128.05,-86C138.9,-86 149.84,-86 159.69,-86"/>
<polygon fill="midnightblue" stroke="midnightblue" points="159.91,-89.5 169.91,-86 159.91,-82.5 159.91,-89.5"/>
</g>
<!-- Node5 -->
<g id="node5" class="node">
<title>Node5</title>
<g id="a_node5"><a target="_blank" xlink:href="http://en.cppreference.com/w/cpp/algorithm/min.html#" xlink:title=" ">
<polygon fill="white" stroke="black" points="171.5,-38.5 171.5,-57.5 223.5,-57.5 223.5,-38.5 171.5,-38.5"/>
<text text-anchor="middle" x="197.5" y="-45.5" font-family="Helvetica,sans-Serif" font-size="10.00">std::min</text>
</a>
</g>
</g>
<!-- Node1&#45;&gt;Node5 -->
<g id="edge4" class="edge">
<title>Node1&#45;&gt;Node5</title>
<path fill="none" stroke="midnightblue" d="M116.97,-70.98C131.85,-66.68 147.71,-62.1 161.32,-58.17"/>
<polygon fill="midnightblue" stroke="midnightblue" points="162.6,-61.44 171.23,-55.3 160.65,-54.72 162.6,-61.44"/>
</g>
<!-- Node6 -->
<g id="node6" class="node">
<title>Node6</title>
<g id="a_node6"><a target="_blank" xlink:href="http://en.cppreference.com/w/cpp/numeric/math/sqrt.html#" xlink:title=" ">
<polygon fill="white" stroke="black" points="171,-0.5 171,-19.5 224,-19.5 224,-0.5 171,-0.5"/>
<text text-anchor="middle" x="197.5" y="-7.5" font-family="Helvetica,sans-Serif" font-size="10.00">std::sqrt</text>
</a>
</g>
</g>
<!-- Node1&#45;&gt;Node6 -->
<g id="edge5" class="edge">
<title>Node1&#45;&gt;Node6</title>
<path fill="none" stroke="midnightblue" d="M90.98,-70.98C114.14,-57.6 147.84,-38.13 170.88,-24.81"/>
<polygon fill="midnightblue" stroke="midnightblue" points="172.84,-27.72 179.75,-19.68 169.34,-21.66 172.84,-27.72"/>
</g>
</g>
</svg>
