<?xml version="1.0" encoding="UTF-8" standalone="no"?>
<!DOCTYPE svg PUBLIC "-//W3C//DTD SVG 1.1//EN"
 "http://www.w3.org/Graphics/SVG/1.1/DTD/svg11.dtd">
<!-- Generated by graphviz version 2.44.1 (20200629.0846)
 -->
<!-- Title: main Pages: 1 -->
<svg width="675pt" height="366pt"
 viewBox="0.00 0.00 675.00 366.00" xmlns="http://www.w3.org/2000/svg" xmlns:xlink="http://www.w3.org/1999/xlink">
<g id="graph0" class="graph" transform="scale(1 1) rotate(0) translate(4 362)">
<title>main</title>
<polygon fill="white" stroke="transparent" points="-4,4 -4,-362 671,-362 671,4 -4,4"/>
<!-- Node1 -->
<g id="node1" class="node">
<title>Node1</title>
<g id="a_node1"><a xlink:title="Main function.">
<polygon fill="#bfbfbf" stroke="black" points="0,-207.5 0,-226.5 38,-226.5 38,-207.5 0,-207.5"/>
<text text-anchor="middle" x="19" y="-214.5" font-family="Helvetica,sans-Serif" font-size="10.00">main</text>
</a>
</g>
</g>
<!-- Node2 -->
<g id="node2" class="node">
<title>Node2</title>
<g id="a_node2"><a xlink:href="../../d5/d83/lcm__sum_8cpp.html#aa8dca7b867074164d5f45b0f3851269d" target="_top" xlink:title=" ">
<polygon fill="white" stroke="black" points="74,-207.5 74,-226.5 107,-226.5 107,-207.5 74,-207.5"/>
<text text-anchor="middle" x="90.5" y="-214.5" font-family="Helvetica,sans-Serif" font-size="10.00">test</text>
</a>
</g>
</g>
<!-- Node1&#45;&gt;Node2 -->
<g id="edge1" class="edge">
<title>Node1&#45;&gt;Node2</title>
<path fill="none" stroke="midnightblue" d="M38.26,-217C46.07,-217 55.31,-217 63.79,-217"/>
<polygon fill="midnightblue" stroke="midnightblue" points="63.95,-220.5 73.95,-217 63.95,-213.5 63.95,-220.5"/>
</g>
<!-- Node3 -->
<g id="node3" class="node">
<title>Node3</title>
<g id="a_node3"><a target="_blank" xlink:href="http://en.cppreference.com/w/cpp/io/manip/endl.html#" xlink:title=" ">
<polygon fill="white" stroke="black" points="156,-283.5 156,-302.5 210,-302.5 210,-283.5 156,-283.5"/>
<text text-anchor="middle" x="183" y="-290.5" font-family="Helvetica,sans-Serif" font-size="10.00">std::endl</text>
</a>
</g>
</g>
<!-- Node2&#45;&gt;Node3 -->
<g id="edge2" class="edge">
<title>Node2&#45;&gt;Node3</title>
<path fill="none" stroke="midnightblue" d="M98.26,-226.51C107.33,-238.73 124.45,-260.05 143,-274 145.05,-275.54 147.25,-277.01 149.52,-278.4"/>
<polygon fill="midnightblue" stroke="midnightblue" points="148.02,-281.57 158.47,-283.34 151.4,-275.44 148.02,-281.57"/>
</g>
<!-- Node4 -->
<g id="node4" class="node">
<title>Node4</title>
<g id="a_node4"><a xlink:href="../../dd/d47/namespacemath.html#a04065193d190d605e1f0d0d93a87e244" target="_top" xlink:title=" ">
<polygon fill="white" stroke="black" points="143,-245.5 143,-264.5 223,-264.5 223,-245.5 143,-245.5"/>
<text text-anchor="middle" x="183" y="-252.5" font-family="Helvetica,sans-Serif" font-size="10.00">math::lcmSum</text>
</a>
</g>
</g>
<!-- Node2&#45;&gt;Node4 -->
<g id="edge3" class="edge">
<title>Node2&#45;&gt;Node4</title>
<path fill="none" stroke="midnightblue" d="M107.26,-223.62C118.95,-228.53 135.28,-235.38 149.7,-241.44"/>
<polygon fill="midnightblue" stroke="midnightblue" points="148.72,-244.82 159.29,-245.47 151.43,-238.37 148.72,-244.82"/>
</g>
<!-- Node5 -->
<g id="node5" class="node">
<title>Node5</title>
<g id="a_node5"><a xlink:href="../../d2/de9/heavy__light__decomposition_8cpp.html#a34b8683a2b429de5cce57e6d733ec817" target="_top" xlink:title=" ">
<polygon fill="white" stroke="black" points="161,-207.5 161,-226.5 205,-226.5 205,-207.5 161,-207.5"/>
<text text-anchor="middle" x="183" y="-214.5" font-family="Helvetica,sans-Serif" font-size="10.00">test_1</text>
</a>
</g>
</g>
<!-- Node2&#45;&gt;Node5 -->
<g id="edge4" class="edge">
<title>Node2&#45;&gt;Node5</title>
<path fill="none" stroke="midnightblue" d="M107.26,-217C119.24,-217 136.11,-217 150.79,-217"/>
<polygon fill="midnightblue" stroke="midnightblue" points="150.99,-220.5 160.99,-217 150.99,-213.5 150.99,-220.5"/>
</g>
<!-- Node18 -->
<g id="node18" class="node">
<title>Node18</title>
<g id="a_node18"><a xlink:href="../../d2/de9/heavy__light__decomposition_8cpp.html#a458410412185a5f09199deaff7157a8d" target="_top" xlink:title=" ">
<polygon fill="white" stroke="black" points="161,-169.5 161,-188.5 205,-188.5 205,-169.5 161,-169.5"/>
<text text-anchor="middle" x="183" y="-176.5" font-family="Helvetica,sans-Serif" font-size="10.00">test_2</text>
</a>
</g>
</g>
<!-- Node2&#45;&gt;Node18 -->
<g id="edge17" class="edge">
<title>Node2&#45;&gt;Node18</title>
<path fill="none" stroke="midnightblue" d="M107.26,-210.38C119.48,-205.25 136.77,-197.99 151.64,-191.75"/>
<polygon fill="midnightblue" stroke="midnightblue" points="153.12,-194.92 160.99,-187.82 150.41,-188.47 153.12,-194.92"/>
</g>
<!-- Node19 -->
<g id="node19" class="node">
<title>Node19</title>
<g id="a_node19"><a xlink:href="../../d2/de9/heavy__light__decomposition_8cpp.html#af31ec5409537703d9c8a47350386b32a" target="_top" xlink:title=" ">
<polygon fill="white" stroke="black" points="161,-131.5 161,-150.5 205,-150.5 205,-131.5 161,-131.5"/>
<text text-anchor="middle" x="183" y="-138.5" font-family="Helvetica,sans-Serif" font-size="10.00">test_3</text>
</a>
</g>
</g>
<!-- Node2&#45;&gt;Node19 -->
<g id="edge21" class="edge">
<title>Node2&#45;&gt;Node19</title>
<path fill="none" stroke="midnightblue" d="M98.26,-207.49C107.33,-195.27 124.45,-173.95 143,-160 145.79,-157.9 148.86,-155.94 152,-154.13"/>
<polygon fill="midnightblue" stroke="midnightblue" points="153.67,-157.21 160.91,-149.47 150.42,-151 153.67,-157.21"/>
</g>
<!-- Node6 -->
<g id="node6" class="node">
<title>Node6</title>
<g id="a_node6"><a xlink:href="../../d1/d51/classrange__queries_1_1heavy__light__decomposition_1_1_tree.html#a79ab4601c4a95c0902ac04e779e5f54d" target="_top" xlink:title="Adds an undirected edge from node u to node v in the tree.">
<polygon fill="white" stroke="black" points="259,-218.5 259,-259.5 369,-259.5 369,-218.5 259,-218.5"/>
<text text-anchor="start" x="267" y="-247.5" font-family="Helvetica,sans-Serif" font-size="10.00">range_queries::heavy</text>
<text text-anchor="start" x="267" y="-236.5" font-family="Helvetica,sans-Serif" font-size="10.00">_light_decomposition</text>
<text text-anchor="middle" x="314" y="-225.5" font-family="Helvetica,sans-Serif" font-size="10.00">::Tree::add_edge</text>
</a>
</g>
</g>
<!-- Node5&#45;&gt;Node6 -->
<g id="edge5" class="edge">
<title>Node5&#45;&gt;Node6</title>
<path fill="none" stroke="midnightblue" d="M205.01,-220.58C217.13,-222.65 233.09,-225.37 249,-228.09"/>
<polygon fill="midnightblue" stroke="midnightblue" points="248.43,-231.54 258.87,-229.77 249.6,-224.64 248.43,-231.54"/>
</g>
<!-- Node8 -->
<g id="node8" class="node">
<title>Node8</title>
<g id="a_node8"><a xlink:href="../../d2/d8a/classrange__queries_1_1heavy__light__decomposition_1_1_h_l_d.html#ae9e979edd69678b85665c01e2ee97828" target="_top" xlink:title="This function must be called after the tree adjacency list and node values are populated The function...">
<polygon fill="white" stroke="black" points="259,-158.5 259,-199.5 369,-199.5 369,-158.5 259,-158.5"/>
<text text-anchor="start" x="267" y="-187.5" font-family="Helvetica,sans-Serif" font-size="10.00">range_queries::heavy</text>
<text text-anchor="start" x="267" y="-176.5" font-family="Helvetica,sans-Serif" font-size="10.00">_light_decomposition</text>
<text text-anchor="middle" x="314" y="-165.5" font-family="Helvetica,sans-Serif" font-size="10.00">::HLD::init</text>
</a>
</g>
</g>
<!-- Node5&#45;&gt;Node8 -->
<g id="edge7" class="edge">
<title>Node5&#45;&gt;Node8</title>
<path fill="none" stroke="midnightblue" d="M205.01,-210.81C217.13,-207.24 233.09,-202.54 249,-197.85"/>
<polygon fill="midnightblue" stroke="midnightblue" points="250.27,-201.13 258.87,-194.94 248.29,-194.41 250.27,-201.13"/>
</g>
<!-- Node16 -->
<g id="node16" class="node">
<title>Node16</title>
<g id="a_node16"><a xlink:href="../../d1/d51/classrange__queries_1_1heavy__light__decomposition_1_1_tree.html#a04cd96efaba147b19d3afc769b90ff70" target="_top" xlink:title="Set the values for all the nodes.">
<polygon fill="white" stroke="black" points="259,-98.5 259,-139.5 369,-139.5 369,-98.5 259,-98.5"/>
<text text-anchor="start" x="267" y="-127.5" font-family="Helvetica,sans-Serif" font-size="10.00">range_queries::heavy</text>
<text text-anchor="start" x="267" y="-116.5" font-family="Helvetica,sans-Serif" font-size="10.00">_light_decomposition</text>
<text text-anchor="middle" x="314" y="-105.5" font-family="Helvetica,sans-Serif" font-size="10.00">::Tree::set_node_val</text>
</a>
</g>
</g>
<!-- Node5&#45;&gt;Node16 -->
<g id="edge15" class="edge">
<title>Node5&#45;&gt;Node16</title>
<path fill="none" stroke="midnightblue" d="M205.36,-208.87C211.43,-205.98 217.79,-202.34 223,-198 243.75,-180.69 238.72,-166.86 259,-149 260.3,-147.85 261.65,-146.73 263.04,-145.64"/>
<polygon fill="midnightblue" stroke="midnightblue" points="265.27,-148.35 271.36,-139.68 261.19,-142.66 265.27,-148.35"/>
</g>
<!-- Node7 -->
<g id="node7" class="node">
<title>Node7</title>
<g id="a_node7"><a target="_blank" xlink:href="http://en.cppreference.com/w/cpp/container/vector/push_back.html#" xlink:title=" ">
<polygon fill="white" stroke="black" points="405,-338.5 405,-357.5 521,-357.5 521,-338.5 405,-338.5"/>
<text text-anchor="middle" x="463" y="-345.5" font-family="Helvetica,sans-Serif" font-size="10.00">std::vector::push_back</text>
</a>
</g>
</g>
<!-- Node6&#45;&gt;Node7 -->
<g id="edge6" class="edge">
<title>Node6&#45;&gt;Node7</title>
<path fill="none" stroke="midnightblue" d="M330.79,-259.64C347.29,-279.9 374.92,-310.41 405,-329 408.35,-331.07 411.95,-332.94 415.65,-334.63"/>
<polygon fill="midnightblue" stroke="midnightblue" points="414.41,-337.9 424.99,-338.45 417.06,-331.43 414.41,-337.9"/>
</g>
<!-- Node9 -->
<g id="node9" class="node">
<title>Node9</title>
<g id="a_node9"><a xlink:href="../../d9/d35/classrange__queries_1_1heavy__light__decomposition_1_1_s_g.html#a41c733f5f5e262b308f7cb95c88c1e74" target="_top" xlink:title="Function that specifies the type of operation involved when segments are combined.">
<polygon fill="white" stroke="black" points="408,-218.5 408,-259.5 518,-259.5 518,-218.5 408,-218.5"/>
<text text-anchor="start" x="416" y="-247.5" font-family="Helvetica,sans-Serif" font-size="10.00">range_queries::heavy</text>
<text text-anchor="start" x="416" y="-236.5" font-family="Helvetica,sans-Serif" font-size="10.00">_light_decomposition</text>
<text text-anchor="middle" x="463" y="-225.5" font-family="Helvetica,sans-Serif" font-size="10.00">::SG::combine</text>
</a>
</g>
</g>
<!-- Node8&#45;&gt;Node9 -->
<g id="edge8" class="edge">
<title>Node8&#45;&gt;Node9</title>
<path fill="none" stroke="midnightblue" d="M365.59,-199.65C377.25,-204.41 389.77,-209.52 401.8,-214.43"/>
<polygon fill="midnightblue" stroke="midnightblue" points="400.74,-217.77 411.32,-218.31 403.38,-211.29 400.74,-217.77"/>
</g>
<!-- Node10 -->
<g id="node10" class="node">
<title>Node10</title>
<g id="a_node10"><a xlink:href="../../d2/d8a/classrange__queries_1_1heavy__light__decomposition_1_1_h_l_d.html#af64848d6630c39d0f09ce2359cc7c4f8" target="_top" xlink:title="Utility function to assign heavy child to each node (&#45;1 for a leaf node)">
<polygon fill="white" stroke="black" points="408,-158.5 408,-199.5 518,-199.5 518,-158.5 408,-158.5"/>
<text text-anchor="start" x="416" y="-187.5" font-family="Helvetica,sans-Serif" font-size="10.00">range_queries::heavy</text>
<text text-anchor="start" x="416" y="-176.5" font-family="Helvetica,sans-Serif" font-size="10.00">_light_decomposition</text>
<text text-anchor="middle" x="463" y="-165.5" font-family="Helvetica,sans-Serif" font-size="10.00">::HLD::dfs_hc</text>
</a>
</g>
</g>
<!-- Node8&#45;&gt;Node10 -->
<g id="edge9" class="edge">
<title>Node8&#45;&gt;Node10</title>
<path fill="none" stroke="midnightblue" d="M369.32,-179C378.57,-179 388.25,-179 397.73,-179"/>
<polygon fill="midnightblue" stroke="midnightblue" points="397.9,-182.5 407.9,-179 397.9,-175.5 397.9,-182.5"/>
</g>
<!-- Node11 -->
<g id="node11" class="node">
<title>Node11</title>
<g id="a_node11"><a xlink:href="../../d2/d8a/classrange__queries_1_1heavy__light__decomposition_1_1_h_l_d.html#a0579062b384e54b611b80c6337c7f2c8" target="_top" xlink:title="Utility function to lable the nodes so that heavy chains have a contigous lable.">
<polygon fill="white" stroke="black" points="408,-98.5 408,-139.5 518,-139.5 518,-98.5 408,-98.5"/>
<text text-anchor="start" x="416" y="-127.5" font-family="Helvetica,sans-Serif" font-size="10.00">range_queries::heavy</text>
<text text-anchor="start" x="416" y="-116.5" font-family="Helvetica,sans-Serif" font-size="10.00">_light_decomposition</text>
<text text-anchor="middle" x="463" y="-105.5" font-family="Helvetica,sans-Serif" font-size="10.00">::HLD::dfs_labels</text>
</a>
</g>
</g>
<!-- Node8&#45;&gt;Node11 -->
<g id="edge10" class="edge">
<title>Node8&#45;&gt;Node11</title>
<path fill="none" stroke="midnightblue" d="M365.59,-158.35C377.25,-153.59 389.77,-148.48 401.8,-143.57"/>
<polygon fill="midnightblue" stroke="midnightblue" points="403.38,-146.71 411.32,-139.69 400.74,-140.23 403.38,-146.71"/>
</g>
<!-- Node12 -->
<g id="node12" class="node">
<title>Node12</title>
<g id="a_node12"><a xlink:href="../../d2/d8a/classrange__queries_1_1heavy__light__decomposition_1_1_h_l_d.html#a2dfbda148aad0bfaba2ebfda9ebc915a" target="_top" xlink:title="Utility function to assign highest parent that can be reached though heavy chains.">
<polygon fill="white" stroke="black" points="408,-38.5 408,-79.5 518,-79.5 518,-38.5 408,-38.5"/>
<text text-anchor="start" x="416" y="-67.5" font-family="Helvetica,sans-Serif" font-size="10.00">range_queries::heavy</text>
<text text-anchor="start" x="416" y="-56.5" font-family="Helvetica,sans-Serif" font-size="10.00">_light_decomposition</text>
<text text-anchor="middle" x="463" y="-45.5" font-family="Helvetica,sans-Serif" font-size="10.00">::HLD::dfs_par</text>
</a>
</g>
</g>
<!-- Node8&#45;&gt;Node12 -->
<g id="edge11" class="edge">
<title>Node8&#45;&gt;Node12</title>
<path fill="none" stroke="midnightblue" d="M357.24,-158.48C361.44,-155.6 365.45,-152.43 369,-149 391.35,-127.38 382.4,-110.37 405,-89 406.12,-87.94 407.28,-86.91 408.48,-85.91"/>
<polygon fill="midnightblue" stroke="midnightblue" points="410.9,-88.47 416.83,-79.69 406.72,-82.86 410.9,-88.47"/>
</g>
<!-- Node13 -->
<g id="node13" class="node">
<title>Node13</title>
<g id="a_node13"><a xlink:href="../../d1/d51/classrange__queries_1_1heavy__light__decomposition_1_1_tree.html#ad22d760a5a33545a70e7ea5e1786c8dc" target="_top" xlink:title="This function must be called after the tree adjacency list and node values are populated The function...">
<polygon fill="white" stroke="black" points="408,-278.5 408,-319.5 518,-319.5 518,-278.5 408,-278.5"/>
<text text-anchor="start" x="416" y="-307.5" font-family="Helvetica,sans-Serif" font-size="10.00">range_queries::heavy</text>
<text text-anchor="start" x="416" y="-296.5" font-family="Helvetica,sans-Serif" font-size="10.00">_light_decomposition</text>
<text text-anchor="middle" x="463" y="-285.5" font-family="Helvetica,sans-Serif" font-size="10.00">::Tree::init</text>
</a>
</g>
</g>
<!-- Node8&#45;&gt;Node13 -->
<g id="edge12" class="edge">
<title>Node8&#45;&gt;Node13</title>
<path fill="none" stroke="midnightblue" d="M357.24,-199.52C361.44,-202.4 365.45,-205.57 369,-209 391.35,-230.62 382.4,-247.63 405,-269 406.12,-270.06 407.28,-271.09 408.48,-272.09"/>
<polygon fill="midnightblue" stroke="midnightblue" points="406.72,-275.14 416.83,-278.31 410.9,-269.53 406.72,-275.14"/>
</g>
<!-- Node14 -->
<g id="node14" class="node">
<title>Node14</title>
<g id="a_node14"><a xlink:href="../../d1/d51/classrange__queries_1_1heavy__light__decomposition_1_1_tree.html#ae8de7aefcb6635d3dacdd174cd4890c4" target="_top" xlink:title="Utility function to populate the t_par vector.">
<polygon fill="white" stroke="black" points="557,-308.5 557,-349.5 667,-349.5 667,-308.5 557,-308.5"/>
<text text-anchor="start" x="565" y="-337.5" font-family="Helvetica,sans-Serif" font-size="10.00">range_queries::heavy</text>
<text text-anchor="start" x="565" y="-326.5" font-family="Helvetica,sans-Serif" font-size="10.00">_light_decomposition</text>
<text text-anchor="middle" x="612" y="-315.5" font-family="Helvetica,sans-Serif" font-size="10.00">::Tree::dfs_lca</text>
</a>
</g>
</g>
<!-- Node13&#45;&gt;Node14 -->
<g id="edge13" class="edge">
<title>Node13&#45;&gt;Node14</title>
<path fill="none" stroke="midnightblue" d="M518.32,-310.09C527.67,-311.99 537.46,-313.99 547.03,-315.95"/>
<polygon fill="midnightblue" stroke="midnightblue" points="546.41,-319.39 556.9,-317.96 547.81,-312.53 546.41,-319.39"/>
</g>
<!-- Node15 -->
<g id="node15" class="node">
<title>Node15</title>
<g id="a_node15"><a xlink:href="../../d1/d51/classrange__queries_1_1heavy__light__decomposition_1_1_tree.html#aa339c31ec74cd86a4842a8b09653d460" target="_top" xlink:title="Utility function to compute sub&#45;tree sizes.">
<polygon fill="white" stroke="black" points="557,-248.5 557,-289.5 667,-289.5 667,-248.5 557,-248.5"/>
<text text-anchor="start" x="565" y="-277.5" font-family="Helvetica,sans-Serif" font-size="10.00">range_queries::heavy</text>
<text text-anchor="start" x="565" y="-266.5" font-family="Helvetica,sans-Serif" font-size="10.00">_light_decomposition</text>
<text text-anchor="middle" x="612" y="-255.5" font-family="Helvetica,sans-Serif" font-size="10.00">::Tree::dfs_size</text>
</a>
</g>
</g>
<!-- Node13&#45;&gt;Node15 -->
<g id="edge14" class="edge">
<title>Node13&#45;&gt;Node15</title>
<path fill="none" stroke="midnightblue" d="M518.32,-287.91C527.67,-286.01 537.46,-284.01 547.03,-282.05"/>
<polygon fill="midnightblue" stroke="midnightblue" points="547.81,-285.47 556.9,-280.04 546.41,-278.61 547.81,-285.47"/>
</g>
<!-- Node17 -->
<g id="node17" class="node">
<title>Node17</title>
<g id="a_node17"><a target="_blank" xlink:href="http://en.cppreference.com/w/cpp/container/vector/size.html#" xlink:title=" ">
<polygon fill="white" stroke="black" points="419.5,-0.5 419.5,-19.5 506.5,-19.5 506.5,-0.5 419.5,-0.5"/>
<text text-anchor="middle" x="463" y="-7.5" font-family="Helvetica,sans-Serif" font-size="10.00">std::vector::size</text>
</a>
</g>
</g>
<!-- Node16&#45;&gt;Node17 -->
<g id="edge16" class="edge">
<title>Node16&#45;&gt;Node17</title>
<path fill="none" stroke="midnightblue" d="M330.79,-98.36C347.29,-78.1 374.92,-47.59 405,-29 408.35,-26.93 411.95,-25.06 415.65,-23.37"/>
<polygon fill="midnightblue" stroke="midnightblue" points="417.06,-26.57 424.99,-19.55 414.41,-20.1 417.06,-26.57"/>
</g>
<!-- Node18&#45;&gt;Node6 -->
<g id="edge18" class="edge">
<title>Node18&#45;&gt;Node6</title>
<path fill="none" stroke="midnightblue" d="M204.44,-188.51C219.34,-195.44 240.26,-205.17 259.76,-214.24"/>
<polygon fill="midnightblue" stroke="midnightblue" points="258.34,-217.44 268.89,-218.48 261.29,-211.09 258.34,-217.44"/>
</g>
<!-- Node18&#45;&gt;Node8 -->
<g id="edge19" class="edge">
<title>Node18&#45;&gt;Node8</title>
<path fill="none" stroke="midnightblue" d="M205.01,-179C217.02,-179 232.79,-179 248.55,-179"/>
<polygon fill="midnightblue" stroke="midnightblue" points="248.87,-182.5 258.87,-179 248.87,-175.5 248.87,-182.5"/>
</g>
<!-- Node18&#45;&gt;Node16 -->
<g id="edge20" class="edge">
<title>Node18&#45;&gt;Node16</title>
<path fill="none" stroke="midnightblue" d="M204.44,-169.49C219.34,-162.56 240.26,-152.83 259.76,-143.76"/>
<polygon fill="midnightblue" stroke="midnightblue" points="261.29,-146.91 268.89,-139.52 258.34,-140.56 261.29,-146.91"/>
</g>
<!-- Node19&#45;&gt;Node6 -->
<g id="edge22" class="edge">
<title>Node19&#45;&gt;Node6</title>
<path fill="none" stroke="midnightblue" d="M205.36,-149.13C211.43,-152.02 217.79,-155.66 223,-160 243.75,-177.31 238.72,-191.14 259,-209 260.3,-210.15 261.65,-211.27 263.04,-212.36"/>
<polygon fill="midnightblue" stroke="midnightblue" points="261.19,-215.34 271.36,-218.32 265.27,-209.65 261.19,-215.34"/>
</g>
<!-- Node19&#45;&gt;Node8 -->
<g id="edge23" class="edge">
<title>Node19&#45;&gt;Node8</title>
<path fill="none" stroke="midnightblue" d="M205.01,-147.19C217.13,-150.76 233.09,-155.46 249,-160.15"/>
<polygon fill="midnightblue" stroke="midnightblue" points="248.29,-163.59 258.87,-163.06 250.27,-156.87 248.29,-163.59"/>
</g>
<!-- Node19&#45;&gt;Node16 -->
<g id="edge24" class="edge">
<title>Node19&#45;&gt;Node16</title>
<path fill="none" stroke="midnightblue" d="M205.01,-137.42C217.13,-135.35 233.09,-132.63 249,-129.91"/>
<polygon fill="midnightblue" stroke="midnightblue" points="249.6,-133.36 258.87,-128.23 248.43,-126.46 249.6,-133.36"/>
</g>
</g>
</svg>
