<?xml version="1.0" encoding="UTF-8" standalone="no"?>
<!DOCTYPE svg PUBLIC "-//W3C//DTD SVG 1.1//EN"
 "http://www.w3.org/Graphics/SVG/1.1/DTD/svg11.dtd">
<!-- Generated by graphviz version 2.47.3 (20210619.1520)
 -->
<!-- Title: test Pages: 1 -->
<svg width="601pt" height="366pt"
 viewBox="0.00 0.00 601.00 366.00" xmlns="http://www.w3.org/2000/svg" xmlns:xlink="http://www.w3.org/1999/xlink">
<g id="graph0" class="graph" transform="scale(1 1) rotate(0) translate(4 362)">
<title>test</title>
<polygon fill="white" stroke="transparent" points="-4,4 -4,-362 597,-362 597,4 -4,4"/>
<!-- Node1 -->
<g id="node1" class="node">
<title>Node1</title>
<g id="a_node1"><a xlink:title=" ">
<polygon fill="#bfbfbf" stroke="black" points="0,-207.5 0,-226.5 33,-226.5 33,-207.5 0,-207.5"/>
<text text-anchor="middle" x="16.5" y="-214.5" font-family="Helvetica,sans-Serif" font-size="10.00">test</text>
</a>
</g>
</g>
<!-- Node2 -->
<g id="node2" class="node">
<title>Node2</title>
<g id="a_node2"><a target="_blank" xlink:href="http://en.cppreference.com/w/cpp/io/manip/endl.html#" xlink:title=" ">
<polygon fill="white" stroke="black" points="82,-283.5 82,-302.5 136,-302.5 136,-283.5 82,-283.5"/>
<text text-anchor="middle" x="109" y="-290.5" font-family="Helvetica,sans-Serif" font-size="10.00">std::endl</text>
</a>
</g>
</g>
<!-- Node1&#45;&gt;Node2 -->
<g id="edge1" class="edge">
<title>Node1&#45;&gt;Node2</title>
<path fill="none" stroke="midnightblue" d="M24.26,-226.51C33.33,-238.73 50.45,-260.05 69,-274 71.05,-275.54 73.25,-277.01 75.52,-278.4"/>
<polygon fill="midnightblue" stroke="midnightblue" points="74.02,-281.57 84.47,-283.34 77.4,-275.44 74.02,-281.57"/>
</g>
<!-- Node3 -->
<g id="node3" class="node">
<title>Node3</title>
<g id="a_node3"><a xlink:href="../../dd/d47/namespacemath.html#a04065193d190d605e1f0d0d93a87e244" target="_top" xlink:title=" ">
<polygon fill="white" stroke="black" points="69,-245.5 69,-264.5 149,-264.5 149,-245.5 69,-245.5"/>
<text text-anchor="middle" x="109" y="-252.5" font-family="Helvetica,sans-Serif" font-size="10.00">math::lcmSum</text>
</a>
</g>
</g>
<!-- Node1&#45;&gt;Node3 -->
<g id="edge2" class="edge">
<title>Node1&#45;&gt;Node3</title>
<path fill="none" stroke="midnightblue" d="M33.26,-223.62C44.95,-228.53 61.28,-235.38 75.7,-241.44"/>
<polygon fill="midnightblue" stroke="midnightblue" points="74.72,-244.82 85.29,-245.47 77.43,-238.37 74.72,-244.82"/>
</g>
<!-- Node4 -->
<g id="node4" class="node">
<title>Node4</title>
<g id="a_node4"><a xlink:href="../../d2/de9/heavy__light__decomposition_8cpp.html#a34b8683a2b429de5cce57e6d733ec817" target="_top" xlink:title=" ">
<polygon fill="white" stroke="black" points="87,-207.5 87,-226.5 131,-226.5 131,-207.5 87,-207.5"/>
<text text-anchor="middle" x="109" y="-214.5" font-family="Helvetica,sans-Serif" font-size="10.00">test_1</text>
</a>
</g>
</g>
<!-- Node1&#45;&gt;Node4 -->
<g id="edge3" class="edge">
<title>Node1&#45;&gt;Node4</title>
<path fill="none" stroke="midnightblue" d="M33.26,-217C45.24,-217 62.11,-217 76.79,-217"/>
<polygon fill="midnightblue" stroke="midnightblue" points="76.99,-220.5 86.99,-217 76.99,-213.5 76.99,-220.5"/>
</g>
<!-- Node17 -->
<g id="node17" class="node">
<title>Node17</title>
<g id="a_node17"><a xlink:href="../../d2/de9/heavy__light__decomposition_8cpp.html#a458410412185a5f09199deaff7157a8d" target="_top" xlink:title=" ">
<polygon fill="white" stroke="black" points="87,-169.5 87,-188.5 131,-188.5 131,-169.5 87,-169.5"/>
<text text-anchor="middle" x="109" y="-176.5" font-family="Helvetica,sans-Serif" font-size="10.00">test_2</text>
</a>
</g>
</g>
<!-- Node1&#45;&gt;Node17 -->
<g id="edge16" class="edge">
<title>Node1&#45;&gt;Node17</title>
<path fill="none" stroke="midnightblue" d="M33.26,-210.38C45.48,-205.25 62.77,-197.99 77.64,-191.75"/>
<polygon fill="midnightblue" stroke="midnightblue" points="79.12,-194.92 86.99,-187.82 76.41,-188.47 79.12,-194.92"/>
</g>
<!-- Node18 -->
<g id="node18" class="node">
<title>Node18</title>
<g id="a_node18"><a xlink:href="../../d2/de9/heavy__light__decomposition_8cpp.html#af31ec5409537703d9c8a47350386b32a" target="_top" xlink:title=" ">
<polygon fill="white" stroke="black" points="87,-131.5 87,-150.5 131,-150.5 131,-131.5 87,-131.5"/>
<text text-anchor="middle" x="109" y="-138.5" font-family="Helvetica,sans-Serif" font-size="10.00">test_3</text>
</a>
</g>
</g>
<!-- Node1&#45;&gt;Node18 -->
<g id="edge20" class="edge">
<title>Node1&#45;&gt;Node18</title>
<path fill="none" stroke="midnightblue" d="M24.26,-207.49C33.33,-195.27 50.45,-173.95 69,-160 71.79,-157.9 74.86,-155.94 78,-154.13"/>
<polygon fill="midnightblue" stroke="midnightblue" points="79.67,-157.21 86.91,-149.47 76.42,-151 79.67,-157.21"/>
</g>
<!-- Node5 -->
<g id="node5" class="node">
<title>Node5</title>
<g id="a_node5"><a xlink:href="../../d1/d51/classrange__queries_1_1heavy__light__decomposition_1_1_tree.html#a79ab4601c4a95c0902ac04e779e5f54d" target="_top" xlink:title="Adds an undirected edge from node u to node v in the tree.">
<polygon fill="white" stroke="black" points="185,-218.5 185,-259.5 295,-259.5 295,-218.5 185,-218.5"/>
<text text-anchor="start" x="193" y="-247.5" font-family="Helvetica,sans-Serif" font-size="10.00">range_queries::heavy</text>
<text text-anchor="start" x="193" y="-236.5" font-family="Helvetica,sans-Serif" font-size="10.00">_light_decomposition</text>
<text text-anchor="middle" x="240" y="-225.5" font-family="Helvetica,sans-Serif" font-size="10.00">::Tree::add_edge</text>
</a>
</g>
</g>
<!-- Node4&#45;&gt;Node5 -->
<g id="edge4" class="edge">
<title>Node4&#45;&gt;Node5</title>
<path fill="none" stroke="midnightblue" d="M131.01,-220.58C143.13,-222.65 159.09,-225.37 175,-228.09"/>
<polygon fill="midnightblue" stroke="midnightblue" points="174.43,-231.54 184.87,-229.77 175.6,-224.64 174.43,-231.54"/>
</g>
<!-- Node7 -->
<g id="node7" class="node">
<title>Node7</title>
<g id="a_node7"><a xlink:href="../../d2/d8a/classrange__queries_1_1heavy__light__decomposition_1_1_h_l_d.html#ae9e979edd69678b85665c01e2ee97828" target="_top" xlink:title="This function must be called after the tree adjacency list and node values are populated The function...">
<polygon fill="white" stroke="black" points="185,-158.5 185,-199.5 295,-199.5 295,-158.5 185,-158.5"/>
<text text-anchor="start" x="193" y="-187.5" font-family="Helvetica,sans-Serif" font-size="10.00">range_queries::heavy</text>
<text text-anchor="start" x="193" y="-176.5" font-family="Helvetica,sans-Serif" font-size="10.00">_light_decomposition</text>
<text text-anchor="middle" x="240" y="-165.5" font-family="Helvetica,sans-Serif" font-size="10.00">::HLD::init</text>
</a>
</g>
</g>
<!-- Node4&#45;&gt;Node7 -->
<g id="edge6" class="edge">
<title>Node4&#45;&gt;Node7</title>
<path fill="none" stroke="midnightblue" d="M131.01,-210.81C143.13,-207.24 159.09,-202.54 175,-197.85"/>
<polygon fill="midnightblue" stroke="midnightblue" points="176.27,-201.13 184.87,-194.94 174.29,-194.41 176.27,-201.13"/>
</g>
<!-- Node15 -->
<g id="node15" class="node">
<title>Node15</title>
<g id="a_node15"><a xlink:href="../../d1/d51/classrange__queries_1_1heavy__light__decomposition_1_1_tree.html#a04cd96efaba147b19d3afc769b90ff70" target="_top" xlink:title="Set the values for all the nodes.">
<polygon fill="white" stroke="black" points="185,-98.5 185,-139.5 295,-139.5 295,-98.5 185,-98.5"/>
<text text-anchor="start" x="193" y="-127.5" font-family="Helvetica,sans-Serif" font-size="10.00">range_queries::heavy</text>
<text text-anchor="start" x="193" y="-116.5" font-family="Helvetica,sans-Serif" font-size="10.00">_light_decomposition</text>
<text text-anchor="middle" x="240" y="-105.5" font-family="Helvetica,sans-Serif" font-size="10.00">::Tree::set_node_val</text>
</a>
</g>
</g>
<!-- Node4&#45;&gt;Node15 -->
<g id="edge14" class="edge">
<title>Node4&#45;&gt;Node15</title>
<path fill="none" stroke="midnightblue" d="M131.36,-208.87C137.43,-205.98 143.79,-202.34 149,-198 169.75,-180.69 164.72,-166.86 185,-149 186.3,-147.85 187.65,-146.73 189.04,-145.64"/>
<polygon fill="midnightblue" stroke="midnightblue" points="191.27,-148.35 197.36,-139.68 187.19,-142.66 191.27,-148.35"/>
</g>
<!-- Node6 -->
<g id="node6" class="node">
<title>Node6</title>
<g id="a_node6"><a target="_blank" xlink:href="http://en.cppreference.com/w/cpp/container/vector/push_back.html#" xlink:title=" ">
<polygon fill="white" stroke="black" points="331,-338.5 331,-357.5 447,-357.5 447,-338.5 331,-338.5"/>
<text text-anchor="middle" x="389" y="-345.5" font-family="Helvetica,sans-Serif" font-size="10.00">std::vector::push_back</text>
</a>
</g>
</g>
<!-- Node5&#45;&gt;Node6 -->
<g id="edge5" class="edge">
<title>Node5&#45;&gt;Node6</title>
<path fill="none" stroke="midnightblue" d="M256.79,-259.64C273.29,-279.9 300.92,-310.41 331,-329 334.35,-331.07 337.95,-332.94 341.65,-334.63"/>
<polygon fill="midnightblue" stroke="midnightblue" points="340.41,-337.9 350.99,-338.45 343.06,-331.43 340.41,-337.9"/>
</g>
<!-- Node8 -->
<g id="node8" class="node">
<title>Node8</title>
<g id="a_node8"><a xlink:href="../../d9/d35/classrange__queries_1_1heavy__light__decomposition_1_1_s_g.html#a41c733f5f5e262b308f7cb95c88c1e74" target="_top" xlink:title="Function that specifies the type of operation involved when segments are combined.">
<polygon fill="white" stroke="black" points="334,-218.5 334,-259.5 444,-259.5 444,-218.5 334,-218.5"/>
<text text-anchor="start" x="342" y="-247.5" font-family="Helvetica,sans-Serif" font-size="10.00">range_queries::heavy</text>
<text text-anchor="start" x="342" y="-236.5" font-family="Helvetica,sans-Serif" font-size="10.00">_light_decomposition</text>
<text text-anchor="middle" x="389" y="-225.5" font-family="Helvetica,sans-Serif" font-size="10.00">::SG::combine</text>
</a>
</g>
</g>
<!-- Node7&#45;&gt;Node8 -->
<g id="edge7" class="edge">
<title>Node7&#45;&gt;Node8</title>
<path fill="none" stroke="midnightblue" d="M291.59,-199.65C303.25,-204.41 315.77,-209.52 327.8,-214.43"/>
<polygon fill="midnightblue" stroke="midnightblue" points="326.74,-217.77 337.32,-218.31 329.38,-211.29 326.74,-217.77"/>
</g>
<!-- Node9 -->
<g id="node9" class="node">
<title>Node9</title>
<g id="a_node9"><a xlink:href="../../d2/d8a/classrange__queries_1_1heavy__light__decomposition_1_1_h_l_d.html#af64848d6630c39d0f09ce2359cc7c4f8" target="_top" xlink:title="Utility function to assign heavy child to each node (&#45;1 for a leaf node)">
<polygon fill="white" stroke="black" points="334,-158.5 334,-199.5 444,-199.5 444,-158.5 334,-158.5"/>
<text text-anchor="start" x="342" y="-187.5" font-family="Helvetica,sans-Serif" font-size="10.00">range_queries::heavy</text>
<text text-anchor="start" x="342" y="-176.5" font-family="Helvetica,sans-Serif" font-size="10.00">_light_decomposition</text>
<text text-anchor="middle" x="389" y="-165.5" font-family="Helvetica,sans-Serif" font-size="10.00">::HLD::dfs_hc</text>
</a>
</g>
</g>
<!-- Node7&#45;&gt;Node9 -->
<g id="edge8" class="edge">
<title>Node7&#45;&gt;Node9</title>
<path fill="none" stroke="midnightblue" d="M295.32,-179C304.57,-179 314.25,-179 323.73,-179"/>
<polygon fill="midnightblue" stroke="midnightblue" points="323.9,-182.5 333.9,-179 323.9,-175.5 323.9,-182.5"/>
</g>
<!-- Node10 -->
<g id="node10" class="node">
<title>Node10</title>
<g id="a_node10"><a xlink:href="../../d2/d8a/classrange__queries_1_1heavy__light__decomposition_1_1_h_l_d.html#a0579062b384e54b611b80c6337c7f2c8" target="_top" xlink:title="Utility function to lable the nodes so that heavy chains have a contigous lable.">
<polygon fill="white" stroke="black" points="334,-98.5 334,-139.5 444,-139.5 444,-98.5 334,-98.5"/>
<text text-anchor="start" x="342" y="-127.5" font-family="Helvetica,sans-Serif" font-size="10.00">range_queries::heavy</text>
<text text-anchor="start" x="342" y="-116.5" font-family="Helvetica,sans-Serif" font-size="10.00">_light_decomposition</text>
<text text-anchor="middle" x="389" y="-105.5" font-family="Helvetica,sans-Serif" font-size="10.00">::HLD::dfs_labels</text>
</a>
</g>
</g>
<!-- Node7&#45;&gt;Node10 -->
<g id="edge9" class="edge">
<title>Node7&#45;&gt;Node10</title>
<path fill="none" stroke="midnightblue" d="M291.59,-158.35C303.25,-153.59 315.77,-148.48 327.8,-143.57"/>
<polygon fill="midnightblue" stroke="midnightblue" points="329.38,-146.71 337.32,-139.69 326.74,-140.23 329.38,-146.71"/>
</g>
<!-- Node11 -->
<g id="node11" class="node">
<title>Node11</title>
<g id="a_node11"><a xlink:href="../../d2/d8a/classrange__queries_1_1heavy__light__decomposition_1_1_h_l_d.html#a2dfbda148aad0bfaba2ebfda9ebc915a" target="_top" xlink:title="Utility function to assign highest parent that can be reached though heavy chains.">
<polygon fill="white" stroke="black" points="334,-38.5 334,-79.5 444,-79.5 444,-38.5 334,-38.5"/>
<text text-anchor="start" x="342" y="-67.5" font-family="Helvetica,sans-Serif" font-size="10.00">range_queries::heavy</text>
<text text-anchor="start" x="342" y="-56.5" font-family="Helvetica,sans-Serif" font-size="10.00">_light_decomposition</text>
<text text-anchor="middle" x="389" y="-45.5" font-family="Helvetica,sans-Serif" font-size="10.00">::HLD::dfs_par</text>
</a>
</g>
</g>
<!-- Node7&#45;&gt;Node11 -->
<g id="edge10" class="edge">
<title>Node7&#45;&gt;Node11</title>
<path fill="none" stroke="midnightblue" d="M283.24,-158.48C287.44,-155.6 291.45,-152.43 295,-149 317.35,-127.38 308.4,-110.37 331,-89 332.12,-87.94 333.28,-86.91 334.48,-85.91"/>
<polygon fill="midnightblue" stroke="midnightblue" points="336.9,-88.47 342.83,-79.69 332.72,-82.86 336.9,-88.47"/>
</g>
<!-- Node12 -->
<g id="node12" class="node">
<title>Node12</title>
<g id="a_node12"><a xlink:href="../../d1/d51/classrange__queries_1_1heavy__light__decomposition_1_1_tree.html#ad22d760a5a33545a70e7ea5e1786c8dc" target="_top" xlink:title="This function must be called after the tree adjacency list and node values are populated The function...">
<polygon fill="white" stroke="black" points="334,-278.5 334,-319.5 444,-319.5 444,-278.5 334,-278.5"/>
<text text-anchor="start" x="342" y="-307.5" font-family="Helvetica,sans-Serif" font-size="10.00">range_queries::heavy</text>
<text text-anchor="start" x="342" y="-296.5" font-family="Helvetica,sans-Serif" font-size="10.00">_light_decomposition</text>
<text text-anchor="middle" x="389" y="-285.5" font-family="Helvetica,sans-Serif" font-size="10.00">::Tree::init</text>
</a>
</g>
</g>
<!-- Node7&#45;&gt;Node12 -->
<g id="edge11" class="edge">
<title>Node7&#45;&gt;Node12</title>
<path fill="none" stroke="midnightblue" d="M283.24,-199.52C287.44,-202.4 291.45,-205.57 295,-209 317.35,-230.62 308.4,-247.63 331,-269 332.12,-270.06 333.28,-271.09 334.48,-272.09"/>
<polygon fill="midnightblue" stroke="midnightblue" points="332.72,-275.14 342.83,-278.31 336.9,-269.53 332.72,-275.14"/>
</g>
<!-- Node13 -->
<g id="node13" class="node">
<title>Node13</title>
<g id="a_node13"><a xlink:href="../../d1/d51/classrange__queries_1_1heavy__light__decomposition_1_1_tree.html#ae8de7aefcb6635d3dacdd174cd4890c4" target="_top" xlink:title="Utility function to populate the t_par vector.">
<polygon fill="white" stroke="black" points="483,-308.5 483,-349.5 593,-349.5 593,-308.5 483,-308.5"/>
<text text-anchor="start" x="491" y="-337.5" font-family="Helvetica,sans-Serif" font-size="10.00">range_queries::heavy</text>
<text text-anchor="start" x="491" y="-326.5" font-family="Helvetica,sans-Serif" font-size="10.00">_light_decomposition</text>
<text text-anchor="middle" x="538" y="-315.5" font-family="Helvetica,sans-Serif" font-size="10.00">::Tree::dfs_lca</text>
</a>
</g>
</g>
<!-- Node12&#45;&gt;Node13 -->
<g id="edge12" class="edge">
<title>Node12&#45;&gt;Node13</title>
<path fill="none" stroke="midnightblue" d="M444.32,-310.09C453.67,-311.99 463.46,-313.99 473.03,-315.95"/>
<polygon fill="midnightblue" stroke="midnightblue" points="472.41,-319.39 482.9,-317.96 473.81,-312.53 472.41,-319.39"/>
</g>
<!-- Node14 -->
<g id="node14" class="node">
<title>Node14</title>
<g id="a_node14"><a xlink:href="../../d1/d51/classrange__queries_1_1heavy__light__decomposition_1_1_tree.html#aa339c31ec74cd86a4842a8b09653d460" target="_top" xlink:title="Utility function to compute sub&#45;tree sizes.">
<polygon fill="white" stroke="black" points="483,-248.5 483,-289.5 593,-289.5 593,-248.5 483,-248.5"/>
<text text-anchor="start" x="491" y="-277.5" font-family="Helvetica,sans-Serif" font-size="10.00">range_queries::heavy</text>
<text text-anchor="start" x="491" y="-266.5" font-family="Helvetica,sans-Serif" font-size="10.00">_light_decomposition</text>
<text text-anchor="middle" x="538" y="-255.5" font-family="Helvetica,sans-Serif" font-size="10.00">::Tree::dfs_size</text>
</a>
</g>
</g>
<!-- Node12&#45;&gt;Node14 -->
<g id="edge13" class="edge">
<title>Node12&#45;&gt;Node14</title>
<path fill="none" stroke="midnightblue" d="M444.32,-287.91C453.67,-286.01 463.46,-284.01 473.03,-282.05"/>
<polygon fill="midnightblue" stroke="midnightblue" points="473.81,-285.47 482.9,-280.04 472.41,-278.61 473.81,-285.47"/>
</g>
<!-- Node16 -->
<g id="node16" class="node">
<title>Node16</title>
<g id="a_node16"><a target="_blank" xlink:href="http://en.cppreference.com/w/cpp/container/vector/size.html#" xlink:title=" ">
<polygon fill="white" stroke="black" points="345.5,-0.5 345.5,-19.5 432.5,-19.5 432.5,-0.5 345.5,-0.5"/>
<text text-anchor="middle" x="389" y="-7.5" font-family="Helvetica,sans-Serif" font-size="10.00">std::vector::size</text>
</a>
</g>
</g>
<!-- Node15&#45;&gt;Node16 -->
<g id="edge15" class="edge">
<title>Node15&#45;&gt;Node16</title>
<path fill="none" stroke="midnightblue" d="M256.79,-98.36C273.29,-78.1 300.92,-47.59 331,-29 334.35,-26.93 337.95,-25.06 341.65,-23.37"/>
<polygon fill="midnightblue" stroke="midnightblue" points="343.06,-26.57 350.99,-19.55 340.41,-20.1 343.06,-26.57"/>
</g>
<!-- Node17&#45;&gt;Node5 -->
<g id="edge17" class="edge">
<title>Node17&#45;&gt;Node5</title>
<path fill="none" stroke="midnightblue" d="M130.44,-188.51C145.34,-195.44 166.26,-205.17 185.76,-214.24"/>
<polygon fill="midnightblue" stroke="midnightblue" points="184.34,-217.44 194.89,-218.48 187.29,-211.09 184.34,-217.44"/>
</g>
<!-- Node17&#45;&gt;Node7 -->
<g id="edge18" class="edge">
<title>Node17&#45;&gt;Node7</title>
<path fill="none" stroke="midnightblue" d="M131.01,-179C143.02,-179 158.79,-179 174.55,-179"/>
<polygon fill="midnightblue" stroke="midnightblue" points="174.87,-182.5 184.87,-179 174.87,-175.5 174.87,-182.5"/>
</g>
<!-- Node17&#45;&gt;Node15 -->
<g id="edge19" class="edge">
<title>Node17&#45;&gt;Node15</title>
<path fill="none" stroke="midnightblue" d="M130.44,-169.49C145.34,-162.56 166.26,-152.83 185.76,-143.76"/>
<polygon fill="midnightblue" stroke="midnightblue" points="187.29,-146.91 194.89,-139.52 184.34,-140.56 187.29,-146.91"/>
</g>
<!-- Node18&#45;&gt;Node5 -->
<g id="edge21" class="edge">
<title>Node18&#45;&gt;Node5</title>
<path fill="none" stroke="midnightblue" d="M131.36,-149.13C137.43,-152.02 143.79,-155.66 149,-160 169.75,-177.31 164.72,-191.14 185,-209 186.3,-210.15 187.65,-211.27 189.04,-212.36"/>
<polygon fill="midnightblue" stroke="midnightblue" points="187.19,-215.34 197.36,-218.32 191.27,-209.65 187.19,-215.34"/>
</g>
<!-- Node18&#45;&gt;Node7 -->
<g id="edge22" class="edge">
<title>Node18&#45;&gt;Node7</title>
<path fill="none" stroke="midnightblue" d="M131.01,-147.19C143.13,-150.76 159.09,-155.46 175,-160.15"/>
<polygon fill="midnightblue" stroke="midnightblue" points="174.29,-163.59 184.87,-163.06 176.27,-156.87 174.29,-163.59"/>
</g>
<!-- Node18&#45;&gt;Node15 -->
<g id="edge23" class="edge">
<title>Node18&#45;&gt;Node15</title>
<path fill="none" stroke="midnightblue" d="M131.01,-137.42C143.13,-135.35 159.09,-132.63 175,-129.91"/>
<polygon fill="midnightblue" stroke="midnightblue" points="175.6,-133.36 184.87,-128.23 174.43,-126.46 175.6,-133.36"/>
</g>
</g>
</svg>
