<?xml version="1.0" encoding="UTF-8" standalone="no"?>
<!DOCTYPE svg PUBLIC "-//W3C//DTD SVG 1.1//EN"
 "http://www.w3.org/Graphics/SVG/1.1/DTD/svg11.dtd">
<!-- Generated by graphviz version 2.44.0 (20200408.0750)
 -->
<!-- Title: main Pages: 1 -->
<svg width="467pt" height="256pt"
 viewBox="0.00 0.00 467.00 256.00" xmlns="http://www.w3.org/2000/svg" xmlns:xlink="http://www.w3.org/1999/xlink">
<g id="graph0" class="graph" transform="scale(1 1) rotate(0) translate(4 252)">
<title>main</title>
<polygon fill="white" stroke="transparent" points="-4,4 -4,-252 463,-252 463,4 -4,4"/>
<!-- Node1 -->
<g id="node1" class="node">
<title>Node1</title>
<g id="a_node1"><a xlink:title=" ">
<polygon fill="#bfbfbf" stroke="black" points="0,-114.5 0,-133.5 38,-133.5 38,-114.5 0,-114.5"/>
<text text-anchor="middle" x="19" y="-121.5" font-family="Helvetica,sans-Serif" font-size="10.00">main</text>
</a>
</g>
</g>
<!-- Node2 -->
<g id="node2" class="node">
<title>Node2</title>
<g id="a_node2"><a target="_blank" xlink:href="http://en.cppreference.com/w/cpp/chrono/c/clock.html#" xlink:title=" ">
<polygon fill="white" stroke="black" points="93.5,-228.5 93.5,-247.5 152.5,-247.5 152.5,-228.5 93.5,-228.5"/>
<text text-anchor="middle" x="123" y="-235.5" font-family="Helvetica,sans-Serif" font-size="10.00">std::clock</text>
</a>
</g>
</g>
<!-- Node1&#45;&gt;Node2 -->
<g id="edge1" class="edge">
<title>Node1&#45;&gt;Node2</title>
<path fill="none" stroke="midnightblue" d="M23.08,-133.77C29.53,-152.75 46.22,-194.86 74,-219 77.03,-221.64 80.48,-223.93 84.09,-225.93"/>
<polygon fill="midnightblue" stroke="midnightblue" points="82.77,-229.17 93.31,-230.28 85.76,-222.84 82.77,-229.17"/>
</g>
<!-- Node3 -->
<g id="node3" class="node">
<title>Node3</title>
<g id="a_node3"><a target="_blank" xlink:href="http://en.cppreference.com/w/cpp/io/manip/endl.html#" xlink:title=" ">
<polygon fill="white" stroke="black" points="245,-133.5 245,-152.5 299,-152.5 299,-133.5 245,-133.5"/>
<text text-anchor="middle" x="272" y="-140.5" font-family="Helvetica,sans-Serif" font-size="10.00">std::endl</text>
</a>
</g>
</g>
<!-- Node1&#45;&gt;Node3 -->
<g id="edge2" class="edge">
<title>Node1&#45;&gt;Node3</title>
<path fill="none" stroke="midnightblue" d="M38.08,-132.09C48.38,-136.26 61.66,-140.89 74,-143 129.55,-152.49 195.21,-149.76 234.94,-146.61"/>
<polygon fill="midnightblue" stroke="midnightblue" points="235.28,-150.1 244.95,-145.77 234.69,-143.12 235.28,-150.1"/>
</g>
<!-- Node4 -->
<g id="node4" class="node">
<title>Node4</title>
<g id="a_node4"><a xlink:href="../../db/d82/classlarge__number.html#ac09a05ec4aafb4d9e0b4440d6f0e2a93" target="_top" xlink:title=" ">
<polygon fill="white" stroke="black" points="208,-76.5 208,-95.5 336,-95.5 336,-76.5 208,-76.5"/>
<text text-anchor="middle" x="272" y="-83.5" font-family="Helvetica,sans-Serif" font-size="10.00">large_number::num_digits</text>
</a>
</g>
</g>
<!-- Node1&#45;&gt;Node4 -->
<g id="edge3" class="edge">
<title>Node1&#45;&gt;Node4</title>
<path fill="none" stroke="midnightblue" d="M25.49,-114.48C33.92,-100.94 51.46,-76.7 74,-67 127.54,-43.97 196.62,-59.8 237.14,-73.11"/>
<polygon fill="midnightblue" stroke="midnightblue" points="236.2,-76.48 246.8,-76.41 238.47,-69.86 236.2,-76.48"/>
</g>
<!-- Node6 -->
<g id="node6" class="node">
<title>Node6</title>
<g id="a_node6"><a target="_blank" xlink:href="http://en.cppreference.com/w/cpp/io/manip/fixed.html#" xlink:title=" ">
<polygon fill="white" stroke="black" points="85.5,-0.5 85.5,-19.5 160.5,-19.5 160.5,-0.5 85.5,-0.5"/>
<text text-anchor="middle" x="123" y="-7.5" font-family="Helvetica,sans-Serif" font-size="10.00">std::scientific</text>
</a>
</g>
</g>
<!-- Node1&#45;&gt;Node6 -->
<g id="edge5" class="edge">
<title>Node1&#45;&gt;Node6</title>
<path fill="none" stroke="midnightblue" d="M23.62,-114.39C30.79,-96.51 48.33,-57.77 74,-34 77.92,-30.37 82.48,-27.17 87.21,-24.38"/>
<polygon fill="midnightblue" stroke="midnightblue" points="89.18,-27.29 96.38,-19.52 85.91,-21.11 89.18,-27.29"/>
</g>
<!-- Node7 -->
<g id="node7" class="node">
<title>Node7</title>
<g id="a_node7"><a xlink:href="../../db/d82/classlarge__number.html#a959c5c1a982949bbf98e1ea0f9afe6a9" target="_top" xlink:title=" ">
<polygon fill="white" stroke="black" points="74,-190.5 74,-209.5 172,-209.5 172,-190.5 74,-190.5"/>
<text text-anchor="middle" x="123" y="-197.5" font-family="Helvetica,sans-Serif" font-size="10.00">large_number::test</text>
</a>
</g>
</g>
<!-- Node1&#45;&gt;Node7 -->
<g id="edge6" class="edge">
<title>Node1&#45;&gt;Node7</title>
<path fill="none" stroke="midnightblue" d="M28.43,-133.74C38.47,-144.93 56.14,-163.38 74,-176 78.97,-179.51 84.53,-182.8 90.06,-185.74"/>
<polygon fill="midnightblue" stroke="midnightblue" points="88.71,-188.98 99.21,-190.35 91.86,-182.72 88.71,-188.98"/>
</g>
<!-- Node8 -->
<g id="node8" class="node">
<title>Node8</title>
<g id="a_node8"><a xlink:href="../../d6/d9d/large__factorial_8cpp.html#a3f93b60e229b6683e24c4754a7106ee8" target="_top" xlink:title=" ">
<polygon fill="white" stroke="black" points="104,-76.5 104,-95.5 142,-95.5 142,-76.5 104,-76.5"/>
<text text-anchor="middle" x="123" y="-83.5" font-family="Helvetica,sans-Serif" font-size="10.00">test1</text>
</a>
</g>
</g>
<!-- Node1&#45;&gt;Node8 -->
<g id="edge8" class="edge">
<title>Node1&#45;&gt;Node8</title>
<path fill="none" stroke="midnightblue" d="M38.24,-117.21C53.83,-111.4 76.51,-102.95 94.33,-96.31"/>
<polygon fill="midnightblue" stroke="midnightblue" points="95.77,-99.51 103.92,-92.73 93.33,-92.95 95.77,-99.51"/>
</g>
<!-- Node9 -->
<g id="node9" class="node">
<title>Node9</title>
<g id="a_node9"><a xlink:href="../../d6/d9d/large__factorial_8cpp.html#a76aae4778fbe89a3d59fd61fbc050cfa" target="_top" xlink:title=" ">
<polygon fill="white" stroke="black" points="104,-114.5 104,-133.5 142,-133.5 142,-114.5 104,-114.5"/>
<text text-anchor="middle" x="123" y="-121.5" font-family="Helvetica,sans-Serif" font-size="10.00">test2</text>
</a>
</g>
</g>
<!-- Node1&#45;&gt;Node9 -->
<g id="edge11" class="edge">
<title>Node1&#45;&gt;Node9</title>
<path fill="none" stroke="midnightblue" d="M38.24,-124C53.68,-124 76.09,-124 93.84,-124"/>
<polygon fill="midnightblue" stroke="midnightblue" points="93.92,-127.5 103.92,-124 93.92,-120.5 93.92,-127.5"/>
</g>
<!-- Node5 -->
<g id="node5" class="node">
<title>Node5</title>
<g id="a_node5"><a target="_blank" xlink:href="http://en.cppreference.com/w/cpp/container/vector/size.html#" xlink:title=" ">
<polygon fill="white" stroke="black" points="372,-76.5 372,-95.5 459,-95.5 459,-76.5 372,-76.5"/>
<text text-anchor="middle" x="415.5" y="-83.5" font-family="Helvetica,sans-Serif" font-size="10.00">std::vector::size</text>
</a>
</g>
</g>
<!-- Node4&#45;&gt;Node5 -->
<g id="edge4" class="edge">
<title>Node4&#45;&gt;Node5</title>
<path fill="none" stroke="midnightblue" d="M336.3,-86C344.79,-86 353.42,-86 361.69,-86"/>
<polygon fill="midnightblue" stroke="midnightblue" points="361.96,-89.5 371.96,-86 361.96,-82.5 361.96,-89.5"/>
</g>
<!-- Node7&#45;&gt;Node3 -->
<g id="edge7" class="edge">
<title>Node7&#45;&gt;Node3</title>
<path fill="none" stroke="midnightblue" d="M148.6,-190.46C172.77,-181.09 209.85,-166.71 236.86,-156.24"/>
<polygon fill="midnightblue" stroke="midnightblue" points="238.26,-159.45 246.32,-152.57 235.73,-152.92 238.26,-159.45"/>
</g>
<!-- Node8&#45;&gt;Node3 -->
<g id="edge9" class="edge">
<title>Node8&#45;&gt;Node3</title>
<path fill="none" stroke="midnightblue" d="M142.03,-92.99C165.58,-102.12 207.32,-118.31 236.92,-129.79"/>
<polygon fill="midnightblue" stroke="midnightblue" points="235.87,-133.13 246.46,-133.48 238.4,-126.6 235.87,-133.13"/>
</g>
<!-- Node8&#45;&gt;Node4 -->
<g id="edge10" class="edge">
<title>Node8&#45;&gt;Node4</title>
<path fill="none" stroke="midnightblue" d="M142.03,-86C156.19,-86 176.93,-86 197.65,-86"/>
<polygon fill="midnightblue" stroke="midnightblue" points="197.79,-89.5 207.79,-86 197.79,-82.5 197.79,-89.5"/>
</g>
<!-- Node9&#45;&gt;Node3 -->
<g id="edge12" class="edge">
<title>Node9&#45;&gt;Node3</title>
<path fill="none" stroke="midnightblue" d="M142.03,-126.33C165.07,-129.31 205.5,-134.53 234.97,-138.34"/>
<polygon fill="midnightblue" stroke="midnightblue" points="234.52,-141.81 244.89,-139.63 235.42,-134.87 234.52,-141.81"/>
</g>
<!-- Node9&#45;&gt;Node4 -->
<g id="edge13" class="edge">
<title>Node9&#45;&gt;Node4</title>
<path fill="none" stroke="midnightblue" d="M142.03,-119.34C162.37,-114.08 196.28,-105.31 224.23,-98.09"/>
<polygon fill="midnightblue" stroke="midnightblue" points="225.41,-101.4 234.21,-95.51 223.66,-94.62 225.41,-101.4"/>
</g>
</g>
</svg>
