<?xml version="1.0" encoding="UTF-8" standalone="no"?>
<!DOCTYPE svg PUBLIC "-//W3C//DTD SVG 1.1//EN"
 "http://www.w3.org/Graphics/SVG/1.1/DTD/svg11.dtd">
<!-- Generated by graphviz version 2.44.0 (20200408.0750)
 -->
<!-- Title: main Pages: 1 -->
<svg width="184pt" height="154pt"
 viewBox="0.00 0.00 184.00 154.00" xmlns="http://www.w3.org/2000/svg" xmlns:xlink="http://www.w3.org/1999/xlink">
<g id="graph0" class="graph" transform="scale(1 1) rotate(0) translate(4 150)">
<title>main</title>
<polygon fill="white" stroke="transparent" points="-4,4 -4,-150 180,-150 180,4 -4,4"/>
<!-- Node1 -->
<g id="node1" class="node">
<title>Node1</title>
<g id="a_node1"><a xlink:title=" ">
<polygon fill="#bfbfbf" stroke="black" points="0,-66.5 0,-85.5 38,-85.5 38,-66.5 0,-66.5"/>
<text text-anchor="middle" x="19" y="-73.5" font-family="Helvetica,sans-Serif" font-size="10.00">main</text>
</a>
</g>
</g>
<!-- Node2 -->
<g id="node2" class="node">
<title>Node2</title>
<g id="a_node2"><a target="_blank" xlink:href="http://en.cppreference.com/w/cpp/io/manip/endl.html#" xlink:title=" ">
<polygon fill="white" stroke="black" points="98,-126.5 98,-145.5 152,-145.5 152,-126.5 98,-126.5"/>
<text text-anchor="middle" x="125" y="-133.5" font-family="Helvetica,sans-Serif" font-size="10.00">std::endl</text>
</a>
</g>
</g>
<!-- Node1&#45;&gt;Node2 -->
<g id="edge1" class="edge">
<title>Node1&#45;&gt;Node2</title>
<path fill="none" stroke="midnightblue" d="M30.93,-85.8C41.4,-94.82 57.94,-108.1 74,-117 78.55,-119.52 83.51,-121.85 88.48,-123.95"/>
<polygon fill="midnightblue" stroke="midnightblue" points="87.34,-127.27 97.93,-127.7 89.92,-120.76 87.34,-127.27"/>
</g>
<!-- Node3 -->
<g id="node3" class="node">
<title>Node3</title>
<g id="a_node3"><a target="_blank" xlink:href="http://en.cppreference.com/w/cpp/numeric/random/srand.html#" xlink:title=" ">
<polygon fill="white" stroke="black" points="95,-88.5 95,-107.5 155,-107.5 155,-88.5 95,-88.5"/>
<text text-anchor="middle" x="125" y="-95.5" font-family="Helvetica,sans-Serif" font-size="10.00">std::srand</text>
</a>
</g>
</g>
<!-- Node1&#45;&gt;Node3 -->
<g id="edge2" class="edge">
<title>Node1&#45;&gt;Node3</title>
<path fill="none" stroke="midnightblue" d="M38.12,-79.83C50.91,-82.54 68.55,-86.27 84.52,-89.65"/>
<polygon fill="midnightblue" stroke="midnightblue" points="84.19,-93.16 94.7,-91.8 85.64,-86.31 84.19,-93.16"/>
</g>
<!-- Node4 -->
<g id="node4" class="node">
<title>Node4</title>
<g id="a_node4"><a target="_blank" xlink:href="http://en.cppreference.com/w/cpp/io/ios_base/sync_with_stdio.html#" xlink:title=" ">
<polygon fill="white" stroke="black" points="74,-39 74,-69 176,-69 176,-39 74,-39"/>
<text text-anchor="start" x="82" y="-57" font-family="Helvetica,sans-Serif" font-size="10.00">std::ios_base::sync</text>
<text text-anchor="middle" x="125" y="-46" font-family="Helvetica,sans-Serif" font-size="10.00">_with_stdio</text>
</a>
</g>
</g>
<!-- Node1&#45;&gt;Node4 -->
<g id="edge3" class="edge">
<title>Node1&#45;&gt;Node4</title>
<path fill="none" stroke="midnightblue" d="M38.12,-72.17C45.54,-70.6 54.61,-68.68 64.03,-66.69"/>
<polygon fill="midnightblue" stroke="midnightblue" points="64.86,-70.09 73.92,-64.59 63.42,-63.24 64.86,-70.09"/>
</g>
<!-- Node5 -->
<g id="node5" class="node">
<title>Node5</title>
<g id="a_node5"><a target="_blank" xlink:href="http://en.cppreference.com/w/cpp/chrono/c/time.html#" xlink:title=" ">
<polygon fill="white" stroke="black" points="97.5,-0.5 97.5,-19.5 152.5,-19.5 152.5,-0.5 97.5,-0.5"/>
<text text-anchor="middle" x="125" y="-7.5" font-family="Helvetica,sans-Serif" font-size="10.00">std::time</text>
</a>
</g>
</g>
<!-- Node1&#45;&gt;Node5 -->
<g id="edge4" class="edge">
<title>Node1&#45;&gt;Node5</title>
<path fill="none" stroke="midnightblue" d="M29.21,-66.49C39.41,-56.38 56.71,-40.44 74,-30 78.39,-27.35 83.19,-24.92 88.03,-22.73"/>
<polygon fill="midnightblue" stroke="midnightblue" points="89.42,-25.94 97.28,-18.84 86.71,-19.49 89.42,-25.94"/>
</g>
</g>
</svg>
