<?xml version="1.0" encoding="UTF-8" standalone="no"?>
<!DOCTYPE svg PUBLIC "-//W3C//DTD SVG 1.1//EN"
 "http://www.w3.org/Graphics/SVG/1.1/DTD/svg11.dtd">
<!-- Generated by graphviz version 2.47.3 (20210619.1520)
 -->
<!-- Title: main Pages: 1 -->
<svg width="649pt" height="366pt"
 viewBox="0.00 0.00 649.00 366.00" xmlns="http://www.w3.org/2000/svg" xmlns:xlink="http://www.w3.org/1999/xlink">
<g id="graph0" class="graph" transform="scale(1 1) rotate(0) translate(4 362)">
<title>main</title>
<polygon fill="white" stroke="transparent" points="-4,4 -4,-362 645,-362 645,4 -4,4"/>
<!-- Node1 -->
<g id="node1" class="node">
<title>Node1</title>
<g id="a_node1"><a xlink:title="Main function.">
<polygon fill="#bfbfbf" stroke="black" points="0,-188.5 0,-207.5 38,-207.5 38,-188.5 0,-188.5"/>
<text text-anchor="middle" x="19" y="-195.5" font-family="Helvetica,sans-Serif" font-size="10.00">main</text>
</a>
</g>
</g>
<!-- Node2 -->
<g id="node2" class="node">
<title>Node2</title>
<g id="a_node2"><a xlink:href="../../de/dc3/fibonacci__sum_8cpp.html#aa8dca7b867074164d5f45b0f3851269d" target="_top" xlink:title=" ">
<polygon fill="white" stroke="black" points="74,-188.5 74,-207.5 107,-207.5 107,-188.5 74,-188.5"/>
<text text-anchor="middle" x="90.5" y="-195.5" font-family="Helvetica,sans-Serif" font-size="10.00">test</text>
</a>
</g>
</g>
<!-- Node1&#45;&gt;Node2 -->
<g id="edge1" class="edge">
<title>Node1&#45;&gt;Node2</title>
<path fill="none" stroke="midnightblue" d="M38.26,-198C46.07,-198 55.31,-198 63.79,-198"/>
<polygon fill="midnightblue" stroke="midnightblue" points="63.95,-201.5 73.95,-198 63.95,-194.5 63.95,-201.5"/>
</g>
<!-- Node3 -->
<g id="node3" class="node">
<title>Node3</title>
<g id="a_node3"><a target="_blank" xlink:href="http://en.cppreference.com/w/cpp/io/manip/endl.html#" xlink:title=" ">
<polygon fill="white" stroke="black" points="143,-245.5 143,-264.5 197,-264.5 197,-245.5 143,-245.5"/>
<text text-anchor="middle" x="170" y="-252.5" font-family="Helvetica,sans-Serif" font-size="10.00">std::endl</text>
</a>
</g>
</g>
<!-- Node2&#45;&gt;Node3 -->
<g id="edge2" class="edge">
<title>Node2&#45;&gt;Node3</title>
<path fill="none" stroke="midnightblue" d="M104.61,-207.7C115.01,-215.39 129.92,-226.4 143,-236 144.43,-237.05 145.89,-238.12 147.38,-239.21"/>
<polygon fill="midnightblue" stroke="midnightblue" points="145.63,-242.27 155.76,-245.35 149.76,-236.62 145.63,-242.27"/>
</g>
<!-- Node4 -->
<g id="node4" class="node">
<title>Node4</title>
<g id="a_node4"><a xlink:href="../../d2/de9/heavy__light__decomposition_8cpp.html#a34b8683a2b429de5cce57e6d733ec817" target="_top" xlink:title=" ">
<polygon fill="white" stroke="black" points="148,-207.5 148,-226.5 192,-226.5 192,-207.5 148,-207.5"/>
<text text-anchor="middle" x="170" y="-214.5" font-family="Helvetica,sans-Serif" font-size="10.00">test_1</text>
</a>
</g>
</g>
<!-- Node2&#45;&gt;Node4 -->
<g id="edge3" class="edge">
<title>Node2&#45;&gt;Node4</title>
<path fill="none" stroke="midnightblue" d="M107.18,-201.84C116.03,-204.01 127.4,-206.8 137.98,-209.39"/>
<polygon fill="midnightblue" stroke="midnightblue" points="137.21,-212.81 147.76,-211.79 138.88,-206.01 137.21,-212.81"/>
</g>
<!-- Node17 -->
<g id="node17" class="node">
<title>Node17</title>
<g id="a_node17"><a xlink:href="../../d2/de9/heavy__light__decomposition_8cpp.html#a458410412185a5f09199deaff7157a8d" target="_top" xlink:title=" ">
<polygon fill="white" stroke="black" points="148,-169.5 148,-188.5 192,-188.5 192,-169.5 148,-169.5"/>
<text text-anchor="middle" x="170" y="-176.5" font-family="Helvetica,sans-Serif" font-size="10.00">test_2</text>
</a>
</g>
</g>
<!-- Node2&#45;&gt;Node17 -->
<g id="edge16" class="edge">
<title>Node2&#45;&gt;Node17</title>
<path fill="none" stroke="midnightblue" d="M107.18,-194.16C116.03,-191.99 127.4,-189.2 137.98,-186.61"/>
<polygon fill="midnightblue" stroke="midnightblue" points="138.88,-189.99 147.76,-184.21 137.21,-183.19 138.88,-189.99"/>
</g>
<!-- Node18 -->
<g id="node18" class="node">
<title>Node18</title>
<g id="a_node18"><a xlink:href="../../d2/de9/heavy__light__decomposition_8cpp.html#af31ec5409537703d9c8a47350386b32a" target="_top" xlink:title=" ">
<polygon fill="white" stroke="black" points="148,-131.5 148,-150.5 192,-150.5 192,-131.5 148,-131.5"/>
<text text-anchor="middle" x="170" y="-138.5" font-family="Helvetica,sans-Serif" font-size="10.00">test_3</text>
</a>
</g>
</g>
<!-- Node2&#45;&gt;Node18 -->
<g id="edge20" class="edge">
<title>Node2&#45;&gt;Node18</title>
<path fill="none" stroke="midnightblue" d="M104.61,-188.3C115.01,-180.61 129.92,-169.6 143,-160 144.43,-158.95 145.89,-157.88 147.38,-156.79"/>
<polygon fill="midnightblue" stroke="midnightblue" points="149.76,-159.38 155.76,-150.65 145.63,-153.73 149.76,-159.38"/>
</g>
<!-- Node5 -->
<g id="node5" class="node">
<title>Node5</title>
<g id="a_node5"><a xlink:href="../../d1/d51/classrange__queries_1_1heavy__light__decomposition_1_1_tree.html#a79ab4601c4a95c0902ac04e779e5f54d" target="_top" xlink:title="Adds an undirected edge from node u to node v in the tree.">
<polygon fill="white" stroke="black" points="233,-218.5 233,-259.5 343,-259.5 343,-218.5 233,-218.5"/>
<text text-anchor="start" x="241" y="-247.5" font-family="Helvetica,sans-Serif" font-size="10.00">range_queries::heavy</text>
<text text-anchor="start" x="241" y="-236.5" font-family="Helvetica,sans-Serif" font-size="10.00">_light_decomposition</text>
<text text-anchor="middle" x="288" y="-225.5" font-family="Helvetica,sans-Serif" font-size="10.00">::Tree::add_edge</text>
</a>
</g>
</g>
<!-- Node4&#45;&gt;Node5 -->
<g id="edge4" class="edge">
<title>Node4&#45;&gt;Node5</title>
<path fill="none" stroke="midnightblue" d="M192.01,-220.98C200.89,-222.67 211.77,-224.73 222.95,-226.85"/>
<polygon fill="midnightblue" stroke="midnightblue" points="222.33,-230.3 232.81,-228.72 223.64,-223.42 222.33,-230.3"/>
</g>
<!-- Node7 -->
<g id="node7" class="node">
<title>Node7</title>
<g id="a_node7"><a xlink:href="../../d2/d8a/classrange__queries_1_1heavy__light__decomposition_1_1_h_l_d.html#ae9e979edd69678b85665c01e2ee97828" target="_top" xlink:title="This function must be called after the tree adjacency list and node values are populated The function...">
<polygon fill="white" stroke="black" points="233,-158.5 233,-199.5 343,-199.5 343,-158.5 233,-158.5"/>
<text text-anchor="start" x="241" y="-187.5" font-family="Helvetica,sans-Serif" font-size="10.00">range_queries::heavy</text>
<text text-anchor="start" x="241" y="-176.5" font-family="Helvetica,sans-Serif" font-size="10.00">_light_decomposition</text>
<text text-anchor="middle" x="288" y="-165.5" font-family="Helvetica,sans-Serif" font-size="10.00">::HLD::init</text>
</a>
</g>
</g>
<!-- Node4&#45;&gt;Node7 -->
<g id="edge6" class="edge">
<title>Node4&#45;&gt;Node7</title>
<path fill="none" stroke="midnightblue" d="M192.01,-210.12C200.98,-207.18 211.99,-203.57 223.29,-199.87"/>
<polygon fill="midnightblue" stroke="midnightblue" points="224.4,-203.19 232.81,-196.75 222.22,-196.54 224.4,-203.19"/>
</g>
<!-- Node15 -->
<g id="node15" class="node">
<title>Node15</title>
<g id="a_node15"><a xlink:href="../../d1/d51/classrange__queries_1_1heavy__light__decomposition_1_1_tree.html#a04cd96efaba147b19d3afc769b90ff70" target="_top" xlink:title="Set the values for all the nodes.">
<polygon fill="white" stroke="black" points="233,-98.5 233,-139.5 343,-139.5 343,-98.5 233,-98.5"/>
<text text-anchor="start" x="241" y="-127.5" font-family="Helvetica,sans-Serif" font-size="10.00">range_queries::heavy</text>
<text text-anchor="start" x="241" y="-116.5" font-family="Helvetica,sans-Serif" font-size="10.00">_light_decomposition</text>
<text text-anchor="middle" x="288" y="-105.5" font-family="Helvetica,sans-Serif" font-size="10.00">::Tree::set_node_val</text>
</a>
</g>
</g>
<!-- Node4&#45;&gt;Node15 -->
<g id="edge14" class="edge">
<title>Node4&#45;&gt;Node15</title>
<path fill="none" stroke="midnightblue" d="M185.67,-207.48C189.54,-204.65 193.6,-201.4 197,-198 216.13,-178.92 212.72,-166.86 233,-149 234.3,-147.85 235.65,-146.73 237.04,-145.64"/>
<polygon fill="midnightblue" stroke="midnightblue" points="239.27,-148.35 245.36,-139.68 235.19,-142.66 239.27,-148.35"/>
</g>
<!-- Node6 -->
<g id="node6" class="node">
<title>Node6</title>
<g id="a_node6"><a target="_blank" xlink:href="http://en.cppreference.com/w/cpp/container/vector/push_back.html#" xlink:title=" ">
<polygon fill="white" stroke="black" points="379,-338.5 379,-357.5 495,-357.5 495,-338.5 379,-338.5"/>
<text text-anchor="middle" x="437" y="-345.5" font-family="Helvetica,sans-Serif" font-size="10.00">std::vector::push_back</text>
</a>
</g>
</g>
<!-- Node5&#45;&gt;Node6 -->
<g id="edge5" class="edge">
<title>Node5&#45;&gt;Node6</title>
<path fill="none" stroke="midnightblue" d="M304.79,-259.64C321.29,-279.9 348.92,-310.41 379,-329 382.35,-331.07 385.95,-332.94 389.65,-334.63"/>
<polygon fill="midnightblue" stroke="midnightblue" points="388.41,-337.9 398.99,-338.45 391.06,-331.43 388.41,-337.9"/>
</g>
<!-- Node8 -->
<g id="node8" class="node">
<title>Node8</title>
<g id="a_node8"><a xlink:href="../../d9/d35/classrange__queries_1_1heavy__light__decomposition_1_1_s_g.html#a41c733f5f5e262b308f7cb95c88c1e74" target="_top" xlink:title="Function that specifies the type of operation involved when segments are combined.">
<polygon fill="white" stroke="black" points="382,-218.5 382,-259.5 492,-259.5 492,-218.5 382,-218.5"/>
<text text-anchor="start" x="390" y="-247.5" font-family="Helvetica,sans-Serif" font-size="10.00">range_queries::heavy</text>
<text text-anchor="start" x="390" y="-236.5" font-family="Helvetica,sans-Serif" font-size="10.00">_light_decomposition</text>
<text text-anchor="middle" x="437" y="-225.5" font-family="Helvetica,sans-Serif" font-size="10.00">::SG::combine</text>
</a>
</g>
</g>
<!-- Node7&#45;&gt;Node8 -->
<g id="edge7" class="edge">
<title>Node7&#45;&gt;Node8</title>
<path fill="none" stroke="midnightblue" d="M339.59,-199.65C351.25,-204.41 363.77,-209.52 375.8,-214.43"/>
<polygon fill="midnightblue" stroke="midnightblue" points="374.74,-217.77 385.32,-218.31 377.38,-211.29 374.74,-217.77"/>
</g>
<!-- Node9 -->
<g id="node9" class="node">
<title>Node9</title>
<g id="a_node9"><a xlink:href="../../d2/d8a/classrange__queries_1_1heavy__light__decomposition_1_1_h_l_d.html#af64848d6630c39d0f09ce2359cc7c4f8" target="_top" xlink:title="Utility function to assign heavy child to each node (&#45;1 for a leaf node)">
<polygon fill="white" stroke="black" points="382,-158.5 382,-199.5 492,-199.5 492,-158.5 382,-158.5"/>
<text text-anchor="start" x="390" y="-187.5" font-family="Helvetica,sans-Serif" font-size="10.00">range_queries::heavy</text>
<text text-anchor="start" x="390" y="-176.5" font-family="Helvetica,sans-Serif" font-size="10.00">_light_decomposition</text>
<text text-anchor="middle" x="437" y="-165.5" font-family="Helvetica,sans-Serif" font-size="10.00">::HLD::dfs_hc</text>
</a>
</g>
</g>
<!-- Node7&#45;&gt;Node9 -->
<g id="edge8" class="edge">
<title>Node7&#45;&gt;Node9</title>
<path fill="none" stroke="midnightblue" d="M343.32,-179C352.57,-179 362.25,-179 371.73,-179"/>
<polygon fill="midnightblue" stroke="midnightblue" points="371.9,-182.5 381.9,-179 371.9,-175.5 371.9,-182.5"/>
</g>
<!-- Node10 -->
<g id="node10" class="node">
<title>Node10</title>
<g id="a_node10"><a xlink:href="../../d2/d8a/classrange__queries_1_1heavy__light__decomposition_1_1_h_l_d.html#a0579062b384e54b611b80c6337c7f2c8" target="_top" xlink:title="Utility function to lable the nodes so that heavy chains have a contigous lable.">
<polygon fill="white" stroke="black" points="382,-98.5 382,-139.5 492,-139.5 492,-98.5 382,-98.5"/>
<text text-anchor="start" x="390" y="-127.5" font-family="Helvetica,sans-Serif" font-size="10.00">range_queries::heavy</text>
<text text-anchor="start" x="390" y="-116.5" font-family="Helvetica,sans-Serif" font-size="10.00">_light_decomposition</text>
<text text-anchor="middle" x="437" y="-105.5" font-family="Helvetica,sans-Serif" font-size="10.00">::HLD::dfs_labels</text>
</a>
</g>
</g>
<!-- Node7&#45;&gt;Node10 -->
<g id="edge9" class="edge">
<title>Node7&#45;&gt;Node10</title>
<path fill="none" stroke="midnightblue" d="M339.59,-158.35C351.25,-153.59 363.77,-148.48 375.8,-143.57"/>
<polygon fill="midnightblue" stroke="midnightblue" points="377.38,-146.71 385.32,-139.69 374.74,-140.23 377.38,-146.71"/>
</g>
<!-- Node11 -->
<g id="node11" class="node">
<title>Node11</title>
<g id="a_node11"><a xlink:href="../../d2/d8a/classrange__queries_1_1heavy__light__decomposition_1_1_h_l_d.html#a2dfbda148aad0bfaba2ebfda9ebc915a" target="_top" xlink:title="Utility function to assign highest parent that can be reached though heavy chains.">
<polygon fill="white" stroke="black" points="382,-38.5 382,-79.5 492,-79.5 492,-38.5 382,-38.5"/>
<text text-anchor="start" x="390" y="-67.5" font-family="Helvetica,sans-Serif" font-size="10.00">range_queries::heavy</text>
<text text-anchor="start" x="390" y="-56.5" font-family="Helvetica,sans-Serif" font-size="10.00">_light_decomposition</text>
<text text-anchor="middle" x="437" y="-45.5" font-family="Helvetica,sans-Serif" font-size="10.00">::HLD::dfs_par</text>
</a>
</g>
</g>
<!-- Node7&#45;&gt;Node11 -->
<g id="edge10" class="edge">
<title>Node7&#45;&gt;Node11</title>
<path fill="none" stroke="midnightblue" d="M331.24,-158.48C335.44,-155.6 339.45,-152.43 343,-149 365.35,-127.38 356.4,-110.37 379,-89 380.12,-87.94 381.28,-86.91 382.48,-85.91"/>
<polygon fill="midnightblue" stroke="midnightblue" points="384.9,-88.47 390.83,-79.69 380.72,-82.86 384.9,-88.47"/>
</g>
<!-- Node12 -->
<g id="node12" class="node">
<title>Node12</title>
<g id="a_node12"><a xlink:href="../../d1/d51/classrange__queries_1_1heavy__light__decomposition_1_1_tree.html#ad22d760a5a33545a70e7ea5e1786c8dc" target="_top" xlink:title="This function must be called after the tree adjacency list and node values are populated The function...">
<polygon fill="white" stroke="black" points="382,-278.5 382,-319.5 492,-319.5 492,-278.5 382,-278.5"/>
<text text-anchor="start" x="390" y="-307.5" font-family="Helvetica,sans-Serif" font-size="10.00">range_queries::heavy</text>
<text text-anchor="start" x="390" y="-296.5" font-family="Helvetica,sans-Serif" font-size="10.00">_light_decomposition</text>
<text text-anchor="middle" x="437" y="-285.5" font-family="Helvetica,sans-Serif" font-size="10.00">::Tree::init</text>
</a>
</g>
</g>
<!-- Node7&#45;&gt;Node12 -->
<g id="edge11" class="edge">
<title>Node7&#45;&gt;Node12</title>
<path fill="none" stroke="midnightblue" d="M331.24,-199.52C335.44,-202.4 339.45,-205.57 343,-209 365.35,-230.62 356.4,-247.63 379,-269 380.12,-270.06 381.28,-271.09 382.48,-272.09"/>
<polygon fill="midnightblue" stroke="midnightblue" points="380.72,-275.14 390.83,-278.31 384.9,-269.53 380.72,-275.14"/>
</g>
<!-- Node13 -->
<g id="node13" class="node">
<title>Node13</title>
<g id="a_node13"><a xlink:href="../../d1/d51/classrange__queries_1_1heavy__light__decomposition_1_1_tree.html#ae8de7aefcb6635d3dacdd174cd4890c4" target="_top" xlink:title="Utility function to populate the t_par vector.">
<polygon fill="white" stroke="black" points="531,-308.5 531,-349.5 641,-349.5 641,-308.5 531,-308.5"/>
<text text-anchor="start" x="539" y="-337.5" font-family="Helvetica,sans-Serif" font-size="10.00">range_queries::heavy</text>
<text text-anchor="start" x="539" y="-326.5" font-family="Helvetica,sans-Serif" font-size="10.00">_light_decomposition</text>
<text text-anchor="middle" x="586" y="-315.5" font-family="Helvetica,sans-Serif" font-size="10.00">::Tree::dfs_lca</text>
</a>
</g>
</g>
<!-- Node12&#45;&gt;Node13 -->
<g id="edge12" class="edge">
<title>Node12&#45;&gt;Node13</title>
<path fill="none" stroke="midnightblue" d="M492.32,-310.09C501.67,-311.99 511.46,-313.99 521.03,-315.95"/>
<polygon fill="midnightblue" stroke="midnightblue" points="520.41,-319.39 530.9,-317.96 521.81,-312.53 520.41,-319.39"/>
</g>
<!-- Node14 -->
<g id="node14" class="node">
<title>Node14</title>
<g id="a_node14"><a xlink:href="../../d1/d51/classrange__queries_1_1heavy__light__decomposition_1_1_tree.html#aa339c31ec74cd86a4842a8b09653d460" target="_top" xlink:title="Utility function to compute sub&#45;tree sizes.">
<polygon fill="white" stroke="black" points="531,-248.5 531,-289.5 641,-289.5 641,-248.5 531,-248.5"/>
<text text-anchor="start" x="539" y="-277.5" font-family="Helvetica,sans-Serif" font-size="10.00">range_queries::heavy</text>
<text text-anchor="start" x="539" y="-266.5" font-family="Helvetica,sans-Serif" font-size="10.00">_light_decomposition</text>
<text text-anchor="middle" x="586" y="-255.5" font-family="Helvetica,sans-Serif" font-size="10.00">::Tree::dfs_size</text>
</a>
</g>
</g>
<!-- Node12&#45;&gt;Node14 -->
<g id="edge13" class="edge">
<title>Node12&#45;&gt;Node14</title>
<path fill="none" stroke="midnightblue" d="M492.32,-287.91C501.67,-286.01 511.46,-284.01 521.03,-282.05"/>
<polygon fill="midnightblue" stroke="midnightblue" points="521.81,-285.47 530.9,-280.04 520.41,-278.61 521.81,-285.47"/>
</g>
<!-- Node16 -->
<g id="node16" class="node">
<title>Node16</title>
<g id="a_node16"><a target="_blank" xlink:href="http://en.cppreference.com/w/cpp/container/vector/size.html#" xlink:title=" ">
<polygon fill="white" stroke="black" points="393.5,-0.5 393.5,-19.5 480.5,-19.5 480.5,-0.5 393.5,-0.5"/>
<text text-anchor="middle" x="437" y="-7.5" font-family="Helvetica,sans-Serif" font-size="10.00">std::vector::size</text>
</a>
</g>
</g>
<!-- Node15&#45;&gt;Node16 -->
<g id="edge15" class="edge">
<title>Node15&#45;&gt;Node16</title>
<path fill="none" stroke="midnightblue" d="M304.79,-98.36C321.29,-78.1 348.92,-47.59 379,-29 382.35,-26.93 385.95,-25.06 389.65,-23.37"/>
<polygon fill="midnightblue" stroke="midnightblue" points="391.06,-26.57 398.99,-19.55 388.41,-20.1 391.06,-26.57"/>
</g>
<!-- Node17&#45;&gt;Node5 -->
<g id="edge17" class="edge">
<title>Node17&#45;&gt;Node5</title>
<path fill="none" stroke="midnightblue" d="M189.38,-188.51C202.55,-195.32 220.93,-204.82 238.19,-213.76"/>
<polygon fill="midnightblue" stroke="midnightblue" points="236.6,-216.87 247.09,-218.36 239.81,-210.65 236.6,-216.87"/>
</g>
<!-- Node17&#45;&gt;Node7 -->
<g id="edge18" class="edge">
<title>Node17&#45;&gt;Node7</title>
<path fill="none" stroke="midnightblue" d="M192.01,-179C200.8,-179 211.55,-179 222.61,-179"/>
<polygon fill="midnightblue" stroke="midnightblue" points="222.81,-182.5 232.81,-179 222.81,-175.5 222.81,-182.5"/>
</g>
<!-- Node17&#45;&gt;Node15 -->
<g id="edge19" class="edge">
<title>Node17&#45;&gt;Node15</title>
<path fill="none" stroke="midnightblue" d="M189.38,-169.49C202.55,-162.68 220.93,-153.18 238.19,-144.24"/>
<polygon fill="midnightblue" stroke="midnightblue" points="239.81,-147.35 247.09,-139.64 236.6,-141.13 239.81,-147.35"/>
</g>
<!-- Node18&#45;&gt;Node5 -->
<g id="edge21" class="edge">
<title>Node18&#45;&gt;Node5</title>
<path fill="none" stroke="midnightblue" d="M185.67,-150.52C189.54,-153.35 193.6,-156.6 197,-160 216.13,-179.08 212.72,-191.14 233,-209 234.3,-210.15 235.65,-211.27 237.04,-212.36"/>
<polygon fill="midnightblue" stroke="midnightblue" points="235.19,-215.34 245.36,-218.32 239.27,-209.65 235.19,-215.34"/>
</g>
<!-- Node18&#45;&gt;Node7 -->
<g id="edge22" class="edge">
<title>Node18&#45;&gt;Node7</title>
<path fill="none" stroke="midnightblue" d="M192.01,-147.88C200.98,-150.82 211.99,-154.43 223.29,-158.13"/>
<polygon fill="midnightblue" stroke="midnightblue" points="222.22,-161.46 232.81,-161.25 224.4,-154.81 222.22,-161.46"/>
</g>
<!-- Node18&#45;&gt;Node15 -->
<g id="edge23" class="edge">
<title>Node18&#45;&gt;Node15</title>
<path fill="none" stroke="midnightblue" d="M192.01,-137.02C200.89,-135.33 211.77,-133.27 222.95,-131.15"/>
<polygon fill="midnightblue" stroke="midnightblue" points="223.64,-134.58 232.81,-129.28 222.33,-127.7 223.64,-134.58"/>
</g>
</g>
</svg>
