<?xml version="1.0" encoding="UTF-8" standalone="no"?>
<!DOCTYPE svg PUBLIC "-//W3C//DTD SVG 1.1//EN"
 "http://www.w3.org/Graphics/SVG/1.1/DTD/svg11.dtd">
<!-- Generated by graphviz version 2.47.3 (20210619.1520)
 -->
<!-- Title: machine_learning::neural_network::NeuralNetwork::fit_from_csv Pages: 1 -->
<svg width="824pt" height="1174pt"
 viewBox="0.00 0.00 824.00 1174.00" xmlns="http://www.w3.org/2000/svg" xmlns:xlink="http://www.w3.org/1999/xlink">
<g id="graph0" class="graph" transform="scale(1 1) rotate(0) translate(4 1170)">
<title>machine_learning::neural_network::NeuralNetwork::fit_from_csv</title>
<polygon fill="white" stroke="transparent" points="-4,4 -4,-1170 820,-1170 820,4 -4,4"/>
<!-- Node1 -->
<g id="node1" class="node">
<title>Node1</title>
<g id="a_node1"><a xlink:title=" ">
<polygon fill="#bfbfbf" stroke="black" points="0,-405.5 0,-446.5 128,-446.5 128,-405.5 0,-405.5"/>
<text text-anchor="start" x="8" y="-434.5" font-family="Helvetica,sans-Serif" font-size="10.00">machine_learning::neural</text>
<text text-anchor="start" x="8" y="-423.5" font-family="Helvetica,sans-Serif" font-size="10.00">_network::NeuralNetwork</text>
<text text-anchor="middle" x="64" y="-412.5" font-family="Helvetica,sans-Serif" font-size="10.00">::fit_from_csv</text>
</a>
</g>
</g>
<!-- Node2 -->
<g id="node2" class="node">
<title>Node2</title>
<g id="a_node2"><a xlink:href="../../d4/df4/classmachine__learning_1_1neural__network_1_1_neural_network.html#a8f8eb4423c57a00b0ab46de226bc6509" target="_top" xlink:title=" ">
<polygon fill="white" stroke="black" points="164,-784 164,-814 306,-814 306,-784 164,-784"/>
<text text-anchor="start" x="172" y="-802" font-family="Helvetica,sans-Serif" font-size="10.00">machine_learning::neural</text>
<text text-anchor="middle" x="235" y="-791" font-family="Helvetica,sans-Serif" font-size="10.00">_network::NeuralNetwork::fit</text>
</a>
</g>
</g>
<!-- Node1&#45;&gt;Node2 -->
<g id="edge1" class="edge">
<title>Node1&#45;&gt;Node2</title>
<path fill="none" stroke="midnightblue" d="M74.33,-446.59C103.28,-510.49 191.55,-705.31 222.85,-774.39"/>
<polygon fill="midnightblue" stroke="midnightblue" points="219.73,-775.98 227.04,-783.64 226.1,-773.09 219.73,-775.98"/>
</g>
<!-- Node25 -->
<g id="node25" class="node">
<title>Node25</title>
<g id="a_node25"><a xlink:href="../../d5/d91/namespacesorting.html#aedfb88e2d6fff1871f038221fe5870fe" target="_top" xlink:title=" ">
<polygon fill="white" stroke="black" points="374,-0.5 374,-19.5 455,-19.5 455,-0.5 374,-0.5"/>
<text text-anchor="middle" x="414.5" y="-7.5" font-family="Helvetica,sans-Serif" font-size="10.00">sorting::shuffle</text>
</a>
</g>
</g>
<!-- Node1&#45;&gt;Node25 -->
<g id="edge67" class="edge">
<title>Node1&#45;&gt;Node25</title>
<path fill="none" stroke="midnightblue" d="M73.97,-405.05C102.86,-340.03 199.94,-139.71 342,-34 348.65,-29.05 356.38,-25.09 364.25,-21.92"/>
<polygon fill="midnightblue" stroke="midnightblue" points="365.64,-25.13 373.85,-18.43 363.26,-18.55 365.64,-25.13"/>
</g>
<!-- Node30 -->
<g id="node30" class="node">
<title>Node30</title>
<g id="a_node30"><a xlink:href="../../d4/df4/classmachine__learning_1_1neural__network_1_1_neural_network.html#a8d983ebb3225a9901b713a0f05b44aba" target="_top" xlink:title=" ">
<polygon fill="white" stroke="black" points="350.5,-405.5 350.5,-446.5 478.5,-446.5 478.5,-405.5 350.5,-405.5"/>
<text text-anchor="start" x="358.5" y="-434.5" font-family="Helvetica,sans-Serif" font-size="10.00">machine_learning::neural</text>
<text text-anchor="start" x="358.5" y="-423.5" font-family="Helvetica,sans-Serif" font-size="10.00">_network::NeuralNetwork</text>
<text text-anchor="middle" x="414.5" y="-412.5" font-family="Helvetica,sans-Serif" font-size="10.00">::get_XY_from_csv</text>
</a>
</g>
</g>
<!-- Node1&#45;&gt;Node30 -->
<g id="edge45" class="edge">
<title>Node1&#45;&gt;Node30</title>
<path fill="none" stroke="midnightblue" d="M128.11,-426C187.75,-426 277.21,-426 340.04,-426"/>
<polygon fill="midnightblue" stroke="midnightblue" points="340.27,-429.5 350.27,-426 340.27,-422.5 340.27,-429.5"/>
</g>
<!-- Node3 -->
<g id="node3" class="node">
<title>Node3</title>
<g id="a_node3"><a xlink:href="../../d4/df4/classmachine__learning_1_1neural__network_1_1_neural_network.html#acd397b51fcf8f690b03e406ada8c9d13" target="_top" xlink:title=" ">
<polygon fill="white" stroke="black" points="342,-1048.5 342,-1089.5 487,-1089.5 487,-1048.5 342,-1048.5"/>
<text text-anchor="start" x="350" y="-1077.5" font-family="Helvetica,sans-Serif" font-size="10.00">machine_learning::neural</text>
<text text-anchor="start" x="350" y="-1066.5" font-family="Helvetica,sans-Serif" font-size="10.00">_network::NeuralNetwork</text>
<text text-anchor="middle" x="414.5" y="-1055.5" font-family="Helvetica,sans-Serif" font-size="10.00">::__detailed_single_prediction</text>
</a>
</g>
</g>
<!-- Node2&#45;&gt;Node3 -->
<g id="edge2" class="edge">
<title>Node2&#45;&gt;Node3</title>
<path fill="none" stroke="midnightblue" d="M239.08,-814.22C248.01,-854.88 277.53,-967.47 342,-1034 345.11,-1037.21 348.58,-1040.17 352.27,-1042.89"/>
<polygon fill="midnightblue" stroke="midnightblue" points="350.37,-1045.83 360.63,-1048.47 354.25,-1040.01 350.37,-1045.83"/>
</g>
<!-- Node4 -->
<g id="node4" class="node">
<title>Node4</title>
<g id="a_node4"><a xlink:href="../../d8/d77/namespacemachine__learning.html#a8b3b06a63bd16b91237c85a295309774" target="_top" xlink:title=" ">
<polygon fill="white" stroke="black" points="532.5,-1101 532.5,-1131 654.5,-1131 654.5,-1101 532.5,-1101"/>
<text text-anchor="start" x="540.5" y="-1119" font-family="Helvetica,sans-Serif" font-size="10.00">machine_learning::apply</text>
<text text-anchor="middle" x="593.5" y="-1108" font-family="Helvetica,sans-Serif" font-size="10.00">_function</text>
</a>
</g>
</g>
<!-- Node2&#45;&gt;Node4 -->
<g id="edge10" class="edge">
<title>Node2&#45;&gt;Node4</title>
<path fill="none" stroke="midnightblue" d="M236.01,-814.09C236.94,-864.39 247.42,-1027.18 342,-1099 392.98,-1137.71 467.91,-1137.6 522.53,-1130.47"/>
<polygon fill="midnightblue" stroke="midnightblue" points="523.07,-1133.93 532.48,-1129.07 522.09,-1127 523.07,-1133.93"/>
</g>
<!-- Node6 -->
<g id="node6" class="node">
<title>Node6</title>
<g id="a_node6"><a xlink:href="../../d8/d77/namespacemachine__learning.html#a7491744dcfc8844338d55065d0cd0c79" target="_top" xlink:title=" ">
<polygon fill="white" stroke="black" points="527.5,-896.5 527.5,-915.5 659.5,-915.5 659.5,-896.5 527.5,-896.5"/>
<text text-anchor="middle" x="593.5" y="-903.5" font-family="Helvetica,sans-Serif" font-size="10.00">machine_learning::multiply</text>
</a>
</g>
</g>
<!-- Node2&#45;&gt;Node6 -->
<g id="edge35" class="edge">
<title>Node2&#45;&gt;Node6</title>
<path fill="none" stroke="midnightblue" d="M248.53,-814.08C266.7,-834.73 302.53,-871.04 342,-887 397.72,-909.53 466.05,-913.31 517.25,-912"/>
<polygon fill="midnightblue" stroke="midnightblue" points="517.38,-915.5 527.26,-911.67 517.15,-908.5 517.38,-915.5"/>
</g>
<!-- Node7 -->
<g id="node7" class="node">
<title>Node7</title>
<g id="a_node7"><a target="_blank" xlink:href="http://en.cppreference.com/w/cpp/io/manip/endl.html#" xlink:title=" ">
<polygon fill="white" stroke="black" points="731,-846.5 731,-865.5 785,-865.5 785,-846.5 731,-846.5"/>
<text text-anchor="middle" x="758" y="-853.5" font-family="Helvetica,sans-Serif" font-size="10.00">std::endl</text>
</a>
</g>
</g>
<!-- Node2&#45;&gt;Node7 -->
<g id="edge19" class="edge">
<title>Node2&#45;&gt;Node7</title>
<path fill="none" stroke="midnightblue" d="M306.21,-799.95C356.62,-801.16 426.13,-803.87 487,-810 566.24,-817.98 585.56,-824.21 664,-838 682.78,-841.3 703.62,-845.3 720.81,-848.7"/>
<polygon fill="midnightblue" stroke="midnightblue" points="720.5,-852.2 730.99,-850.72 721.86,-845.34 720.5,-852.2"/>
</g>
<!-- Node8 -->
<g id="node8" class="node">
<title>Node8</title>
<g id="a_node8"><a target="_blank" xlink:href="http://en.cppreference.com/w/cpp/utility/program/exit.html#" xlink:title=" ">
<polygon fill="white" stroke="black" points="732,-656.5 732,-675.5 784,-675.5 784,-656.5 732,-656.5"/>
<text text-anchor="middle" x="758" y="-663.5" font-family="Helvetica,sans-Serif" font-size="10.00">std::exit</text>
</a>
</g>
</g>
<!-- Node2&#45;&gt;Node8 -->
<g id="edge27" class="edge">
<title>Node2&#45;&gt;Node8</title>
<path fill="none" stroke="midnightblue" d="M259.47,-783.93C280.35,-771.19 312.12,-753.39 342,-743 412.68,-718.42 634.71,-684.05 721.62,-671.16"/>
<polygon fill="midnightblue" stroke="midnightblue" points="722.39,-674.58 731.77,-669.66 721.37,-667.66 722.39,-674.58"/>
</g>
<!-- Node9 -->
<g id="node9" class="node">
<title>Node9</title>
<g id="a_node9"><a xlink:href="../../d8/d77/namespacemachine__learning.html#abe6b58ec16abe0f6f8ac195e04aa8abd" target="_top" xlink:title=" ">
<polygon fill="white" stroke="black" points="702,-888 702,-918 814,-918 814,-888 702,-888"/>
<text text-anchor="start" x="710" y="-906" font-family="Helvetica,sans-Serif" font-size="10.00">machine_learning::get</text>
<text text-anchor="middle" x="758" y="-895" font-family="Helvetica,sans-Serif" font-size="10.00">_shape</text>
</a>
</g>
</g>
<!-- Node2&#45;&gt;Node9 -->
<g id="edge28" class="edge">
<title>Node2&#45;&gt;Node9</title>
<path fill="none" stroke="midnightblue" d="M244.75,-814.24C260.46,-839.93 296.12,-891.18 342,-913 457.86,-968.11 613.25,-941.74 697.18,-920.56"/>
<polygon fill="midnightblue" stroke="midnightblue" points="698.25,-923.9 707.05,-918.01 696.5,-917.12 698.25,-923.9"/>
</g>
<!-- Node11 -->
<g id="node11" class="node">
<title>Node11</title>
<g id="a_node11"><a xlink:href="../../d8/d77/namespacemachine__learning.html#a1b42d24ad7bedbfa8e5b59fe96987a44" target="_top" xlink:title=" ">
<polygon fill="white" stroke="black" points="528,-732.5 528,-751.5 659,-751.5 659,-732.5 528,-732.5"/>
<text text-anchor="middle" x="593.5" y="-739.5" font-family="Helvetica,sans-Serif" font-size="10.00">machine_learning::argmax</text>
</a>
</g>
</g>
<!-- Node2&#45;&gt;Node11 -->
<g id="edge11" class="edge">
<title>Node2&#45;&gt;Node11</title>
<path fill="none" stroke="midnightblue" d="M277.27,-783.98C296.67,-777.48 320.27,-770.37 342,-766 400.4,-754.24 467.66,-748.2 517.77,-745.12"/>
<polygon fill="midnightblue" stroke="midnightblue" points="518.09,-748.61 527.87,-744.53 517.68,-741.62 518.09,-748.61"/>
</g>
<!-- Node16 -->
<g id="node16" class="node">
<title>Node16</title>
<g id="a_node16"><a xlink:href="../../d8/d77/namespacemachine__learning.html#a62a418f243cd52b49f59015dddff188e" target="_top" xlink:title=" ">
<polygon fill="white" stroke="black" points="532.5,-607 532.5,-637 654.5,-637 654.5,-607 532.5,-607"/>
<text text-anchor="start" x="540.5" y="-625" font-family="Helvetica,sans-Serif" font-size="10.00">machine_learning::equal</text>
<text text-anchor="middle" x="593.5" y="-614" font-family="Helvetica,sans-Serif" font-size="10.00">_shuffle</text>
</a>
</g>
</g>
<!-- Node2&#45;&gt;Node16 -->
<g id="edge20" class="edge">
<title>Node2&#45;&gt;Node16</title>
<path fill="none" stroke="midnightblue" d="M246.51,-783.83C263.7,-760.17 300.15,-714.65 342,-690 397.81,-657.13 469.92,-639.74 522.43,-630.8"/>
<polygon fill="midnightblue" stroke="midnightblue" points="523.03,-634.25 532.33,-629.17 521.9,-627.34 523.03,-634.25"/>
</g>
<!-- Node21 -->
<g id="node21" class="node">
<title>Node21</title>
<g id="a_node21"><a xlink:href="../../d8/d77/namespacemachine__learning.html#a6ef38e5947aef609f908bfbfeaf11d75" target="_top" xlink:title=" ">
<polygon fill="white" stroke="black" points="523,-847 523,-877 664,-877 664,-847 523,-847"/>
<text text-anchor="start" x="531" y="-865" font-family="Helvetica,sans-Serif" font-size="10.00">machine_learning::hadamard</text>
<text text-anchor="middle" x="593.5" y="-854" font-family="Helvetica,sans-Serif" font-size="10.00">_product</text>
</a>
</g>
</g>
<!-- Node2&#45;&gt;Node21 -->
<g id="edge29" class="edge">
<title>Node2&#45;&gt;Node21</title>
<path fill="none" stroke="midnightblue" d="M306.01,-808.55C356.48,-815.75 426.14,-826.36 487,-838 497.59,-840.03 508.74,-842.35 519.67,-844.74"/>
<polygon fill="midnightblue" stroke="midnightblue" points="519.09,-848.19 529.61,-846.94 520.61,-841.36 519.09,-848.19"/>
</g>
<!-- Node22 -->
<g id="node22" class="node">
<title>Node22</title>
<g id="a_node22"><a target="_blank" xlink:href="http://en.cppreference.com/w/cpp/algorithm/min.html#" xlink:title=" ">
<polygon fill="white" stroke="black" points="732,-204.5 732,-223.5 784,-223.5 784,-204.5 732,-204.5"/>
<text text-anchor="middle" x="758" y="-211.5" font-family="Helvetica,sans-Serif" font-size="10.00">std::min</text>
</a>
</g>
</g>
<!-- Node2&#45;&gt;Node22 -->
<g id="edge34" class="edge">
<title>Node2&#45;&gt;Node22</title>
<path fill="none" stroke="midnightblue" d="M236.16,-783.77C238.04,-695.74 260.59,-250.81 523,-105 577.78,-74.56 607.1,-78.75 664,-105 704.28,-123.58 733.57,-169.17 747.64,-195.12"/>
<polygon fill="midnightblue" stroke="midnightblue" points="744.7,-197.05 752.42,-204.31 750.91,-193.82 744.7,-197.05"/>
</g>
<!-- Node23 -->
<g id="node23" class="node">
<title>Node23</title>
<g id="a_node23"><a target="_blank" xlink:href="http://en.cppreference.com/w/cpp/chrono/high_resolution_clock/now.html#" xlink:title=" ">
<polygon fill="white" stroke="black" points="346,-77 346,-107 483,-107 483,-77 346,-77"/>
<text text-anchor="start" x="354" y="-95" font-family="Helvetica,sans-Serif" font-size="10.00">std::chrono::high_resolution</text>
<text text-anchor="middle" x="414.5" y="-84" font-family="Helvetica,sans-Serif" font-size="10.00">_clock::now</text>
</a>
</g>
</g>
<!-- Node2&#45;&gt;Node23 -->
<g id="edge36" class="edge">
<title>Node2&#45;&gt;Node23</title>
<path fill="none" stroke="midnightblue" d="M237.5,-783.7C246.97,-688.2 299.45,-176.32 342,-122 344.71,-118.54 347.89,-115.48 351.37,-112.77"/>
<polygon fill="midnightblue" stroke="midnightblue" points="353.59,-115.49 359.99,-107.05 349.72,-109.66 353.59,-115.49"/>
</g>
<!-- Node24 -->
<g id="node24" class="node">
<title>Node24</title>
<g id="a_node24"><a target="_blank" xlink:href="http://en.cppreference.com/w/cpp/container/vector/resize.html#" xlink:title=" ">
<polygon fill="white" stroke="black" points="367,-1146.5 367,-1165.5 462,-1165.5 462,-1146.5 367,-1146.5"/>
<text text-anchor="middle" x="414.5" y="-1153.5" font-family="Helvetica,sans-Serif" font-size="10.00">std::vector::resize</text>
</a>
</g>
</g>
<!-- Node2&#45;&gt;Node24 -->
<g id="edge37" class="edge">
<title>Node2&#45;&gt;Node24</title>
<path fill="none" stroke="midnightblue" d="M236.22,-814.01C237.81,-865.75 250.06,-1038.61 342,-1132 346.46,-1136.53 351.8,-1140.21 357.53,-1143.19"/>
<polygon fill="midnightblue" stroke="midnightblue" points="356.22,-1146.44 366.78,-1147.33 359.08,-1140.05 356.22,-1146.44"/>
</g>
<!-- Node2&#45;&gt;Node25 -->
<g id="edge38" class="edge">
<title>Node2&#45;&gt;Node25</title>
<path fill="none" stroke="midnightblue" d="M237.66,-783.69C249.13,-678.35 316.97,-64.19 342,-34 347.77,-27.04 355.62,-22.09 364.02,-18.57"/>
<polygon fill="midnightblue" stroke="midnightblue" points="365.39,-21.8 373.65,-15.18 363.06,-15.2 365.39,-21.8"/>
</g>
<!-- Node26 -->
<g id="node26" class="node">
<title>Node26</title>
<g id="a_node26"><a target="_blank" xlink:href="http://en.cppreference.com/w/cpp/container/vector/size.html#" xlink:title=" ">
<polygon fill="white" stroke="black" points="714.5,-81.5 714.5,-100.5 801.5,-100.5 801.5,-81.5 714.5,-81.5"/>
<text text-anchor="middle" x="758" y="-88.5" font-family="Helvetica,sans-Serif" font-size="10.00">std::vector::size</text>
</a>
</g>
</g>
<!-- Node2&#45;&gt;Node26 -->
<g id="edge39" class="edge">
<title>Node2&#45;&gt;Node26</title>
<path fill="none" stroke="midnightblue" d="M237.02,-783.85C243.94,-683.39 285.39,-116.01 342,-67 394.89,-21.22 605.62,-58.53 704.84,-79.35"/>
<polygon fill="midnightblue" stroke="midnightblue" points="704.15,-82.78 714.65,-81.43 705.6,-75.93 704.15,-82.78"/>
</g>
<!-- Node27 -->
<g id="node27" class="node">
<title>Node27</title>
<g id="a_node27"><a xlink:href="../../d8/d77/namespacemachine__learning.html#a5305cc18d11943d3dc0d66e70d7e9c44" target="_top" xlink:title=" ">
<polygon fill="white" stroke="black" points="356,-972.5 356,-991.5 473,-991.5 473,-972.5 356,-972.5"/>
<text text-anchor="middle" x="414.5" y="-979.5" font-family="Helvetica,sans-Serif" font-size="10.00">machine_learning::sum</text>
</a>
</g>
</g>
<!-- Node2&#45;&gt;Node27 -->
<g id="edge40" class="edge">
<title>Node2&#45;&gt;Node27</title>
<path fill="none" stroke="midnightblue" d="M242.03,-814.11C255.31,-845.53 290.1,-918.27 342,-958 347.52,-962.22 353.82,-965.73 360.35,-968.63"/>
<polygon fill="midnightblue" stroke="midnightblue" points="359.42,-972.03 370,-972.46 362,-965.52 359.42,-972.03"/>
</g>
<!-- Node28 -->
<g id="node28" class="node">
<title>Node28</title>
<g id="a_node28"><a xlink:href="../../d8/d77/namespacemachine__learning.html#ac7d9b358f1ef2ba2a1d475a5452ec41f" target="_top" xlink:title=" ">
<polygon fill="white" stroke="black" points="523,-972.5 523,-991.5 664,-991.5 664,-972.5 523,-972.5"/>
<text text-anchor="middle" x="593.5" y="-979.5" font-family="Helvetica,sans-Serif" font-size="10.00">machine_learning::transpose</text>
</a>
</g>
</g>
<!-- Node2&#45;&gt;Node28 -->
<g id="edge41" class="edge">
<title>Node2&#45;&gt;Node28</title>
<path fill="none" stroke="midnightblue" d="M238.56,-814.28C246.09,-853.71 272.18,-958.79 342,-1001 411.11,-1042.78 511.29,-1014.18 561.44,-995.16"/>
<polygon fill="midnightblue" stroke="midnightblue" points="562.75,-998.41 570.78,-991.5 560.2,-991.89 562.75,-998.41"/>
</g>
<!-- Node29 -->
<g id="node29" class="node">
<title>Node29</title>
<g id="a_node29"><a xlink:href="../../d8/d77/namespacemachine__learning.html#a4d136cbf20e3126ed9b934ab2d03f18b" target="_top" xlink:title=" ">
<polygon fill="white" stroke="black" points="350.5,-847 350.5,-877 478.5,-877 478.5,-847 350.5,-847"/>
<text text-anchor="start" x="358.5" y="-865" font-family="Helvetica,sans-Serif" font-size="10.00">machine_learning::zeroes</text>
<text text-anchor="middle" x="414.5" y="-854" font-family="Helvetica,sans-Serif" font-size="10.00">_initialization</text>
</a>
</g>
</g>
<!-- Node2&#45;&gt;Node29 -->
<g id="edge44" class="edge">
<title>Node2&#45;&gt;Node29</title>
<path fill="none" stroke="midnightblue" d="M278.52,-814.09C303.45,-822.94 335.15,-834.19 361.56,-843.56"/>
<polygon fill="midnightblue" stroke="midnightblue" points="360.43,-846.88 371.02,-846.92 362.77,-840.28 360.43,-846.88"/>
</g>
<!-- Node3&#45;&gt;Node4 -->
<g id="edge3" class="edge">
<title>Node3&#45;&gt;Node4</title>
<path fill="none" stroke="midnightblue" d="M487.24,-1088.05C500.02,-1091.44 513.28,-1094.96 525.91,-1098.32"/>
<polygon fill="midnightblue" stroke="midnightblue" points="525.31,-1101.78 535.88,-1100.96 527.11,-1095.02 525.31,-1101.78"/>
</g>
<!-- Node5 -->
<g id="node5" class="node">
<title>Node5</title>
<g id="a_node5"><a target="_blank" xlink:href="http://en.cppreference.com/w/cpp/container/vector/emplace_back.html#" xlink:title=" ">
<polygon fill="white" stroke="black" points="527.5,-1059.5 527.5,-1078.5 659.5,-1078.5 659.5,-1059.5 527.5,-1059.5"/>
<text text-anchor="middle" x="593.5" y="-1066.5" font-family="Helvetica,sans-Serif" font-size="10.00">std::vector::emplace_back</text>
</a>
</g>
</g>
<!-- Node3&#45;&gt;Node5 -->
<g id="edge4" class="edge">
<title>Node3&#45;&gt;Node5</title>
<path fill="none" stroke="midnightblue" d="M487.24,-1069C497.05,-1069 507.15,-1069 517.03,-1069"/>
<polygon fill="midnightblue" stroke="midnightblue" points="517.23,-1072.5 527.23,-1069 517.23,-1065.5 517.23,-1072.5"/>
</g>
<!-- Node3&#45;&gt;Node6 -->
<g id="edge5" class="edge">
<title>Node3&#45;&gt;Node6</title>
<path fill="none" stroke="midnightblue" d="M437.69,-1048.46C451.95,-1035.12 470.78,-1017.25 487,-1001 503.43,-984.53 505.97,-978.85 523,-963 538.7,-948.38 557.58,-933.03 571.7,-921.94"/>
<polygon fill="midnightblue" stroke="midnightblue" points="574.06,-924.54 579.8,-915.64 569.76,-919.02 574.06,-924.54"/>
</g>
<!-- Node6&#45;&gt;Node7 -->
<g id="edge6" class="edge">
<title>Node6&#45;&gt;Node7</title>
<path fill="none" stroke="midnightblue" d="M631.04,-896.42C641.7,-893.51 653.35,-890.23 664,-887 682.93,-881.26 703.83,-874.35 721.02,-868.51"/>
<polygon fill="midnightblue" stroke="midnightblue" points="722.34,-871.75 730.67,-865.21 720.07,-865.13 722.34,-871.75"/>
</g>
<!-- Node6&#45;&gt;Node8 -->
<g id="edge7" class="edge">
<title>Node6&#45;&gt;Node8</title>
<path fill="none" stroke="midnightblue" d="M651.57,-896.5C656.21,-894 660.46,-890.88 664,-887 725.5,-819.67 640.37,-754 700,-685 705.74,-678.36 713.85,-674.04 722.17,-671.22"/>
<polygon fill="midnightblue" stroke="midnightblue" points="723.17,-674.57 731.89,-668.55 721.32,-667.82 723.17,-674.57"/>
</g>
<!-- Node6&#45;&gt;Node9 -->
<g id="edge8" class="edge">
<title>Node6&#45;&gt;Node9</title>
<path fill="none" stroke="midnightblue" d="M659.66,-904.8C670.12,-904.6 680.96,-904.4 691.43,-904.21"/>
<polygon fill="midnightblue" stroke="midnightblue" points="691.82,-907.7 701.75,-904.02 691.69,-900.71 691.82,-907.7"/>
</g>
<!-- Node10 -->
<g id="node10" class="node">
<title>Node10</title>
<g id="a_node10"><a target="_blank" xlink:href="http://en.cppreference.com/w/cpp/container/vector/push_back.html#" xlink:title=" ">
<polygon fill="white" stroke="black" points="700,-954.5 700,-973.5 816,-973.5 816,-954.5 700,-954.5"/>
<text text-anchor="middle" x="758" y="-961.5" font-family="Helvetica,sans-Serif" font-size="10.00">std::vector::push_back</text>
</a>
</g>
</g>
<!-- Node6&#45;&gt;Node10 -->
<g id="edge9" class="edge">
<title>Node6&#45;&gt;Node10</title>
<path fill="none" stroke="midnightblue" d="M621.33,-915.58C648.38,-925.23 690.33,-940.2 720.42,-950.94"/>
<polygon fill="midnightblue" stroke="midnightblue" points="719.53,-954.34 730.13,-954.41 721.89,-947.75 719.53,-954.34"/>
</g>
<!-- Node11&#45;&gt;Node7 -->
<g id="edge15" class="edge">
<title>Node11&#45;&gt;Node7</title>
<path fill="none" stroke="midnightblue" d="M638.78,-751.59C647.83,-755.04 656.78,-759.71 664,-766 690.67,-789.25 673.21,-813.89 700,-837 705.99,-842.16 713.42,-845.93 720.93,-848.69"/>
<polygon fill="midnightblue" stroke="midnightblue" points="720.13,-852.1 730.72,-851.75 722.22,-845.42 720.13,-852.1"/>
</g>
<!-- Node11&#45;&gt;Node8 -->
<g id="edge16" class="edge">
<title>Node11&#45;&gt;Node8</title>
<path fill="none" stroke="midnightblue" d="M631.1,-732.47C642.1,-728.8 653.91,-724.01 664,-718 682.65,-706.89 681.29,-696.01 700,-685 706.81,-680.99 714.59,-677.69 722.16,-675.03"/>
<polygon fill="midnightblue" stroke="midnightblue" points="723.45,-678.29 731.89,-671.9 721.3,-671.63 723.45,-678.29"/>
</g>
<!-- Node11&#45;&gt;Node9 -->
<g id="edge17" class="edge">
<title>Node11&#45;&gt;Node9</title>
<path fill="none" stroke="midnightblue" d="M601.44,-751.85C620.88,-779.26 676.02,-855.67 700,-875 703.52,-877.84 707.38,-880.49 711.38,-882.94"/>
<polygon fill="midnightblue" stroke="midnightblue" points="709.84,-886.09 720.27,-887.96 713.29,-879.99 709.84,-886.09"/>
</g>
<!-- Node12 -->
<g id="node12" class="node">
<title>Node12</title>
<g id="a_node12"><a target="_blank" xlink:href="http://en.cppreference.com/w/cpp/iterator/begin.html#" xlink:title=" ">
<polygon fill="white" stroke="black" points="728.5,-694.5 728.5,-713.5 787.5,-713.5 787.5,-694.5 728.5,-694.5"/>
<text text-anchor="middle" x="758" y="-701.5" font-family="Helvetica,sans-Serif" font-size="10.00">std::begin</text>
</a>
</g>
</g>
<!-- Node11&#45;&gt;Node12 -->
<g id="edge12" class="edge">
<title>Node11&#45;&gt;Node12</title>
<path fill="none" stroke="midnightblue" d="M635.51,-732.41C660.96,-726.46 693.46,-718.86 718.44,-713.02"/>
<polygon fill="midnightblue" stroke="midnightblue" points="719.36,-716.4 728.3,-710.71 717.76,-709.58 719.36,-716.4"/>
</g>
<!-- Node13 -->
<g id="node13" class="node">
<title>Node13</title>
<g id="a_node13"><a target="_blank" xlink:href="http://en.cppreference.com/w/cpp/iterator/distance.html#" xlink:title=" ">
<polygon fill="white" stroke="black" points="721.5,-808.5 721.5,-827.5 794.5,-827.5 794.5,-808.5 721.5,-808.5"/>
<text text-anchor="middle" x="758" y="-815.5" font-family="Helvetica,sans-Serif" font-size="10.00">std::distance</text>
</a>
</g>
</g>
<!-- Node11&#45;&gt;Node13 -->
<g id="edge13" class="edge">
<title>Node11&#45;&gt;Node13</title>
<path fill="none" stroke="midnightblue" d="M631.1,-751.53C642.1,-755.2 653.91,-759.99 664,-766 682.65,-777.11 681.29,-787.99 700,-799 703.69,-801.17 707.67,-803.14 711.74,-804.9"/>
<polygon fill="midnightblue" stroke="midnightblue" points="710.74,-808.27 721.32,-808.67 713.3,-801.76 710.74,-808.27"/>
</g>
<!-- Node14 -->
<g id="node14" class="node">
<title>Node14</title>
<g id="a_node14"><a target="_blank" xlink:href="http://en.cppreference.com/w/cpp/iterator/end.html#" xlink:title=" ">
<polygon fill="white" stroke="black" points="732,-770.5 732,-789.5 784,-789.5 784,-770.5 732,-770.5"/>
<text text-anchor="middle" x="758" y="-777.5" font-family="Helvetica,sans-Serif" font-size="10.00">std::end</text>
</a>
</g>
</g>
<!-- Node11&#45;&gt;Node14 -->
<g id="edge14" class="edge">
<title>Node11&#45;&gt;Node14</title>
<path fill="none" stroke="midnightblue" d="M635.51,-751.59C662.11,-757.81 696.43,-765.84 721.8,-771.77"/>
<polygon fill="midnightblue" stroke="midnightblue" points="721.2,-775.22 731.73,-774.09 722.79,-768.41 721.2,-775.22"/>
</g>
<!-- Node15 -->
<g id="node15" class="node">
<title>Node15</title>
<g id="a_node15"><a target="_blank" xlink:href="http://en.cppreference.com/w/cpp/algorithm/max_element.html#" xlink:title=" ">
<polygon fill="white" stroke="black" points="710.5,-732.5 710.5,-751.5 805.5,-751.5 805.5,-732.5 710.5,-732.5"/>
<text text-anchor="middle" x="758" y="-739.5" font-family="Helvetica,sans-Serif" font-size="10.00">std::max_element</text>
</a>
</g>
</g>
<!-- Node11&#45;&gt;Node15 -->
<g id="edge18" class="edge">
<title>Node11&#45;&gt;Node15</title>
<path fill="none" stroke="midnightblue" d="M659.19,-742C672.6,-742 686.64,-742 699.76,-742"/>
<polygon fill="midnightblue" stroke="midnightblue" points="700.05,-745.5 710.05,-742 700.05,-738.5 700.05,-745.5"/>
</g>
<!-- Node16&#45;&gt;Node7 -->
<g id="edge21" class="edge">
<title>Node16&#45;&gt;Node7</title>
<path fill="none" stroke="midnightblue" d="M607.12,-637.19C622.38,-656.22 648.03,-690.29 664,-723 687.32,-770.74 662.73,-799.13 700,-837 705.76,-842.85 713.37,-846.9 721.15,-849.71"/>
<polygon fill="midnightblue" stroke="midnightblue" points="720.38,-853.13 730.96,-852.63 722.38,-846.42 720.38,-853.13"/>
</g>
<!-- Node16&#45;&gt;Node8 -->
<g id="edge22" class="edge">
<title>Node16&#45;&gt;Node8</title>
<path fill="none" stroke="midnightblue" d="M649.97,-637.02C673.83,-643.48 701,-650.84 722,-656.52"/>
<polygon fill="midnightblue" stroke="midnightblue" points="721.2,-659.93 731.77,-659.17 723.03,-653.18 721.2,-659.93"/>
</g>
<!-- Node17 -->
<g id="node17" class="node">
<title>Node17</title>
<g id="a_node17"><a target="_blank" xlink:href="http://en.cppreference.com/w/cpp/chrono/system_clock/now.html#" xlink:title=" ">
<polygon fill="white" stroke="black" points="706,-607 706,-637 810,-637 810,-607 706,-607"/>
<text text-anchor="start" x="714" y="-625" font-family="Helvetica,sans-Serif" font-size="10.00">std::chrono::system</text>
<text text-anchor="middle" x="758" y="-614" font-family="Helvetica,sans-Serif" font-size="10.00">_clock::now</text>
</a>
</g>
</g>
<!-- Node16&#45;&gt;Node17 -->
<g id="edge23" class="edge">
<title>Node16&#45;&gt;Node17</title>
<path fill="none" stroke="midnightblue" d="M654.55,-622C667.95,-622 682.18,-622 695.63,-622"/>
<polygon fill="midnightblue" stroke="midnightblue" points="695.74,-625.5 705.74,-622 695.74,-618.5 695.74,-625.5"/>
</g>
<!-- Node18 -->
<g id="node18" class="node">
<title>Node18</title>
<g id="a_node18"><a target="_blank" xlink:href="http://en.cppreference.com/w/cpp/numeric/random/rand.html#" xlink:title=" ">
<polygon fill="white" stroke="black" points="730.5,-568.5 730.5,-587.5 785.5,-587.5 785.5,-568.5 730.5,-568.5"/>
<text text-anchor="middle" x="758" y="-575.5" font-family="Helvetica,sans-Serif" font-size="10.00">std::rand</text>
</a>
</g>
</g>
<!-- Node16&#45;&gt;Node18 -->
<g id="edge24" class="edge">
<title>Node16&#45;&gt;Node18</title>
<path fill="none" stroke="midnightblue" d="M649.97,-606.98C673.36,-600.65 699.92,-593.45 720.74,-587.82"/>
<polygon fill="midnightblue" stroke="midnightblue" points="721.72,-591.18 730.46,-585.19 719.89,-584.42 721.72,-591.18"/>
</g>
<!-- Node19 -->
<g id="node19" class="node">
<title>Node19</title>
<g id="a_node19"><a target="_blank" xlink:href="http://en.cppreference.com/w/cpp/numeric/random/srand.html#" xlink:title=" ">
<polygon fill="white" stroke="black" points="728,-530.5 728,-549.5 788,-549.5 788,-530.5 728,-530.5"/>
<text text-anchor="middle" x="758" y="-537.5" font-family="Helvetica,sans-Serif" font-size="10.00">std::srand</text>
</a>
</g>
</g>
<!-- Node16&#45;&gt;Node19 -->
<g id="edge25" class="edge">
<title>Node16&#45;&gt;Node19</title>
<path fill="none" stroke="midnightblue" d="M645.2,-606.94C651.76,-604.09 658.2,-600.79 664,-597 683.47,-584.27 680.38,-571.5 700,-559 705.54,-555.47 711.81,-552.53 718.11,-550.1"/>
<polygon fill="midnightblue" stroke="midnightblue" points="719.63,-553.27 727.93,-546.68 717.34,-546.66 719.63,-553.27"/>
</g>
<!-- Node20 -->
<g id="node20" class="node">
<title>Node20</title>
<g id="a_node20"><a target="_blank" xlink:href="http://en.cppreference.com/w/cpp/algorithm/swap.html#" xlink:title=" ">
<polygon fill="white" stroke="black" points="728.5,-492.5 728.5,-511.5 787.5,-511.5 787.5,-492.5 728.5,-492.5"/>
<text text-anchor="middle" x="758" y="-499.5" font-family="Helvetica,sans-Serif" font-size="10.00">std::swap</text>
</a>
</g>
</g>
<!-- Node16&#45;&gt;Node20 -->
<g id="edge26" class="edge">
<title>Node16&#45;&gt;Node20</title>
<path fill="none" stroke="midnightblue" d="M649.6,-606.95C654.81,-604.16 659.73,-600.88 664,-597 691.68,-571.88 672.03,-545.79 700,-521 705.3,-516.31 711.79,-512.76 718.48,-510.1"/>
<polygon fill="midnightblue" stroke="midnightblue" points="719.94,-513.3 728.29,-506.78 717.69,-506.67 719.94,-513.3"/>
</g>
<!-- Node21&#45;&gt;Node7 -->
<g id="edge30" class="edge">
<title>Node21&#45;&gt;Node7</title>
<path fill="none" stroke="midnightblue" d="M664.36,-859.42C683.69,-858.71 703.91,-857.96 720.5,-857.35"/>
<polygon fill="midnightblue" stroke="midnightblue" points="720.97,-860.83 730.84,-856.97 720.71,-853.84 720.97,-860.83"/>
</g>
<!-- Node21&#45;&gt;Node8 -->
<g id="edge31" class="edge">
<title>Node21&#45;&gt;Node8</title>
<path fill="none" stroke="midnightblue" d="M606.14,-846.76C620.64,-827.41 645.73,-792.72 664,-761 682.65,-728.61 672.03,-709.79 700,-685 706.27,-679.44 714.22,-675.5 722.18,-672.71"/>
<polygon fill="midnightblue" stroke="midnightblue" points="723.19,-676.06 731.77,-669.84 721.19,-669.35 723.19,-676.06"/>
</g>
<!-- Node21&#45;&gt;Node9 -->
<g id="edge32" class="edge">
<title>Node21&#45;&gt;Node9</title>
<path fill="none" stroke="midnightblue" d="M654.09,-877.03C666.38,-880.14 679.39,-883.42 691.87,-886.57"/>
<polygon fill="midnightblue" stroke="midnightblue" points="691.18,-890 701.74,-889.06 692.9,-883.22 691.18,-890"/>
</g>
<!-- Node21&#45;&gt;Node10 -->
<g id="edge33" class="edge">
<title>Node21&#45;&gt;Node10</title>
<path fill="none" stroke="midnightblue" d="M645.7,-877.01C652.11,-879.86 658.38,-883.18 664,-887 684.04,-900.65 681.56,-912.25 700,-928 709.27,-935.91 720.43,-943.35 730.4,-949.38"/>
<polygon fill="midnightblue" stroke="midnightblue" points="728.75,-952.47 739.15,-954.5 732.29,-946.43 728.75,-952.47"/>
</g>
<!-- Node28&#45;&gt;Node9 -->
<g id="edge42" class="edge">
<title>Node28&#45;&gt;Node9</title>
<path fill="none" stroke="midnightblue" d="M626.51,-972.44C638.49,-968.48 652.07,-963.52 664,-958 685.31,-948.14 708.02,-934.77 725.66,-923.69"/>
<polygon fill="midnightblue" stroke="midnightblue" points="727.83,-926.45 734.39,-918.13 724.07,-920.55 727.83,-926.45"/>
</g>
<!-- Node28&#45;&gt;Node10 -->
<g id="edge43" class="edge">
<title>Node28&#45;&gt;Node10</title>
<path fill="none" stroke="midnightblue" d="M664.36,-974.26C672.8,-973.33 681.4,-972.37 689.8,-971.44"/>
<polygon fill="midnightblue" stroke="midnightblue" points="690.37,-974.9 699.92,-970.32 689.6,-967.94 690.37,-974.9"/>
</g>
<!-- Node30&#45;&gt;Node7 -->
<g id="edge49" class="edge">
<title>Node30&#45;&gt;Node7</title>
<path fill="none" stroke="midnightblue" d="M415.85,-446.67C417.96,-504.81 432.08,-671.39 523,-761 569.66,-806.99 607.11,-771.5 664,-804 682.85,-814.77 681.29,-825.99 700,-837 706.49,-840.82 713.85,-843.99 721.08,-846.59"/>
<polygon fill="midnightblue" stroke="midnightblue" points="720.16,-849.97 730.75,-849.76 722.35,-843.32 720.16,-849.97"/>
</g>
<!-- Node30&#45;&gt;Node8 -->
<g id="edge51" class="edge">
<title>Node30&#45;&gt;Node8</title>
<path fill="none" stroke="midnightblue" d="M418.63,-446.52C426.7,-491.59 452.73,-598.97 523,-647 582.88,-687.92 672.57,-681.14 721.7,-673.19"/>
<polygon fill="midnightblue" stroke="midnightblue" points="722.58,-676.59 731.83,-671.44 721.38,-669.7 722.58,-676.59"/>
</g>
<!-- Node30&#45;&gt;Node10 -->
<g id="edge65" class="edge">
<title>Node30&#45;&gt;Node10</title>
<path fill="none" stroke="midnightblue" d="M419.01,-446.78C436.3,-548.77 511.94,-991.82 523,-1001 584.28,-1051.88 686.75,-1004.61 733.03,-978.57"/>
<polygon fill="midnightblue" stroke="midnightblue" points="734.85,-981.56 741.76,-973.53 731.35,-975.49 734.85,-981.56"/>
</g>
<!-- Node31 -->
<g id="node31" class="node">
<title>Node31</title>
<g id="a_node31"><a target="_blank" xlink:href="http://en.cppreference.com/w/cpp/container/vector/back.html#" xlink:title=" ">
<polygon fill="white" stroke="black" points="548.5,-568.5 548.5,-587.5 638.5,-587.5 638.5,-568.5 548.5,-568.5"/>
<text text-anchor="middle" x="593.5" y="-575.5" font-family="Helvetica,sans-Serif" font-size="10.00">std::vector::back</text>
</a>
</g>
</g>
<!-- Node30&#45;&gt;Node31 -->
<g id="edge46" class="edge">
<title>Node30&#45;&gt;Node31</title>
<path fill="none" stroke="midnightblue" d="M426.75,-446.97C443.68,-476.48 478.52,-529.92 523,-559 527.9,-562.2 533.32,-564.87 538.92,-567.08"/>
<polygon fill="midnightblue" stroke="midnightblue" points="537.85,-570.42 548.45,-570.41 540.16,-563.81 537.85,-570.42"/>
</g>
<!-- Node32 -->
<g id="node32" class="node">
<title>Node32</title>
<g id="a_node32"><a target="_blank" xlink:href="http://en.cppreference.com/w/cpp/string/basic_string/c_str.html#" xlink:title=" ">
<polygon fill="white" stroke="black" points="549.5,-530.5 549.5,-549.5 637.5,-549.5 637.5,-530.5 549.5,-530.5"/>
<text text-anchor="middle" x="593.5" y="-537.5" font-family="Helvetica,sans-Serif" font-size="10.00">std::string::c_str</text>
</a>
</g>
</g>
<!-- Node30&#45;&gt;Node32 -->
<g id="edge47" class="edge">
<title>Node30&#45;&gt;Node32</title>
<path fill="none" stroke="midnightblue" d="M433.61,-446.86C453.47,-468.47 487.28,-501.7 523,-521 528.22,-523.82 533.89,-526.24 539.66,-528.33"/>
<polygon fill="midnightblue" stroke="midnightblue" points="538.82,-531.74 549.41,-531.52 541,-525.08 538.82,-531.74"/>
</g>
<!-- Node33 -->
<g id="node33" class="node">
<title>Node33</title>
<g id="a_node33"><a target="_blank" xlink:href="http://en.cppreference.com/w/cpp/io/basic_ifstream/close.html#" xlink:title=" ">
<polygon fill="white" stroke="black" points="543,-492.5 543,-511.5 644,-511.5 644,-492.5 543,-492.5"/>
<text text-anchor="middle" x="593.5" y="-499.5" font-family="Helvetica,sans-Serif" font-size="10.00">std::ifstream::close</text>
</a>
</g>
</g>
<!-- Node30&#45;&gt;Node33 -->
<g id="edge48" class="edge">
<title>Node30&#45;&gt;Node33</title>
<path fill="none" stroke="midnightblue" d="M449.91,-446.76C470.57,-458.57 497.67,-472.96 523,-483 528.95,-485.36 535.3,-487.53 541.66,-489.5"/>
<polygon fill="midnightblue" stroke="midnightblue" points="541,-492.96 551.58,-492.43 542.98,-486.24 541,-492.96"/>
</g>
<!-- Node34 -->
<g id="node34" class="node">
<title>Node34</title>
<g id="a_node34"><a target="_blank" xlink:href="http://en.cppreference.com/w/cpp/io/basic_ios/eof.html#" xlink:title=" ">
<polygon fill="white" stroke="black" points="548,-454.5 548,-473.5 639,-473.5 639,-454.5 548,-454.5"/>
<text text-anchor="middle" x="593.5" y="-461.5" font-family="Helvetica,sans-Serif" font-size="10.00">std::ifstream::eof</text>
</a>
</g>
</g>
<!-- Node30&#45;&gt;Node34 -->
<g id="edge50" class="edge">
<title>Node30&#45;&gt;Node34</title>
<path fill="none" stroke="midnightblue" d="M478.9,-439.61C498.32,-443.78 519.51,-448.33 538.26,-452.36"/>
<polygon fill="midnightblue" stroke="midnightblue" points="537.6,-455.79 548.11,-454.47 539.07,-448.95 537.6,-455.79"/>
</g>
<!-- Node35 -->
<g id="node35" class="node">
<title>Node35</title>
<g id="a_node35"><a target="_blank" xlink:href="http://en.cppreference.com/w/cpp/string/basic_string/getline.html#" xlink:title=" ">
<polygon fill="white" stroke="black" points="561,-416.5 561,-435.5 626,-435.5 626,-416.5 561,-416.5"/>
<text text-anchor="middle" x="593.5" y="-423.5" font-family="Helvetica,sans-Serif" font-size="10.00">std::getline</text>
</a>
</g>
</g>
<!-- Node30&#45;&gt;Node35 -->
<g id="edge52" class="edge">
<title>Node30&#45;&gt;Node35</title>
<path fill="none" stroke="midnightblue" d="M478.9,-426C502.77,-426 529.29,-426 550.71,-426"/>
<polygon fill="midnightblue" stroke="midnightblue" points="550.77,-429.5 560.77,-426 550.77,-422.5 550.77,-429.5"/>
</g>
<!-- Node36 -->
<g id="node36" class="node">
<title>Node36</title>
<g id="a_node36"><a xlink:href="../../d8/d77/namespacemachine__learning.html#a725d4ccceda4f32c96348ba1d593cd3c" target="_top" xlink:title=" ">
<polygon fill="white" stroke="black" points="532.5,-367 532.5,-397 654.5,-397 654.5,-367 532.5,-367"/>
<text text-anchor="start" x="540.5" y="-385" font-family="Helvetica,sans-Serif" font-size="10.00">machine_learning::insert</text>
<text text-anchor="middle" x="593.5" y="-374" font-family="Helvetica,sans-Serif" font-size="10.00">_element</text>
</a>
</g>
</g>
<!-- Node30&#45;&gt;Node36 -->
<g id="edge53" class="edge">
<title>Node30&#45;&gt;Node36</title>
<path fill="none" stroke="midnightblue" d="M478.9,-410.24C493.09,-406.71 508.21,-402.95 522.64,-399.37"/>
<polygon fill="midnightblue" stroke="midnightblue" points="523.64,-402.72 532.5,-396.92 521.95,-395.93 523.64,-402.72"/>
</g>
<!-- Node37 -->
<g id="node37" class="node">
<title>Node37</title>
<g id="a_node37"><a target="_blank" xlink:href="http://en.cppreference.com/w/cpp/io/basic_ifstream/is_open.html#" xlink:title=" ">
<polygon fill="white" stroke="black" points="538,-328.5 538,-347.5 649,-347.5 649,-328.5 538,-328.5"/>
<text text-anchor="middle" x="593.5" y="-335.5" font-family="Helvetica,sans-Serif" font-size="10.00">std::ifstream::is_open</text>
</a>
</g>
</g>
<!-- Node30&#45;&gt;Node37 -->
<g id="edge54" class="edge">
<title>Node30&#45;&gt;Node37</title>
<path fill="none" stroke="midnightblue" d="M442.47,-405.39C463.46,-390.19 493.82,-369.99 523,-357 528.34,-354.62 534.06,-352.48 539.82,-350.56"/>
<polygon fill="midnightblue" stroke="midnightblue" points="541.01,-353.86 549.52,-347.55 538.93,-347.17 541.01,-353.86"/>
</g>
<!-- Node38 -->
<g id="node38" class="node">
<title>Node38</title>
<g id="a_node38"><a xlink:href="../../d8/d77/namespacemachine__learning.html#a05b9445c6ab65053b9bf9897a96af82d" target="_top" xlink:title=" ">
<polygon fill="white" stroke="black" points="527,-279 527,-309 660,-309 660,-279 527,-279"/>
<text text-anchor="start" x="535" y="-297" font-family="Helvetica,sans-Serif" font-size="10.00">machine_learning::minmax</text>
<text text-anchor="middle" x="593.5" y="-286" font-family="Helvetica,sans-Serif" font-size="10.00">_scaler</text>
</a>
</g>
</g>
<!-- Node30&#45;&gt;Node38 -->
<g id="edge55" class="edge">
<title>Node30&#45;&gt;Node38</title>
<path fill="none" stroke="midnightblue" d="M431.62,-405.15C451,-381.34 485.62,-342.66 523,-319 526.17,-317 529.51,-315.12 532.96,-313.38"/>
<polygon fill="midnightblue" stroke="midnightblue" points="534.67,-316.45 542.27,-309.06 531.72,-310.1 534.67,-316.45"/>
</g>
<!-- Node40 -->
<g id="node40" class="node">
<title>Node40</title>
<g id="a_node40"><a target="_blank" xlink:href="http://en.cppreference.com/w/cpp/io/basic_ifstream/open.html#" xlink:title=" ">
<polygon fill="white" stroke="black" points="544.5,-240.5 544.5,-259.5 642.5,-259.5 642.5,-240.5 544.5,-240.5"/>
<text text-anchor="middle" x="593.5" y="-247.5" font-family="Helvetica,sans-Serif" font-size="10.00">std::ifstream::open</text>
</a>
</g>
</g>
<!-- Node30&#45;&gt;Node40 -->
<g id="edge62" class="edge">
<title>Node30&#45;&gt;Node40</title>
<path fill="none" stroke="midnightblue" d="M423.87,-405.47C438.69,-371.72 472.81,-304.73 523,-269 526.65,-266.4 530.64,-264.16 534.81,-262.22"/>
<polygon fill="midnightblue" stroke="midnightblue" points="536.18,-265.44 544.14,-258.45 533.56,-258.95 536.18,-265.44"/>
</g>
<!-- Node41 -->
<g id="node41" class="node">
<title>Node41</title>
<g id="a_node41"><a xlink:href="../../d8/d77/namespacemachine__learning.html#a4dd9a9df9f8f05327bcf7b58b0a86576" target="_top" xlink:title=" ">
<polygon fill="white" stroke="black" points="523.5,-202.5 523.5,-221.5 663.5,-221.5 663.5,-202.5 523.5,-202.5"/>
<text text-anchor="middle" x="593.5" y="-209.5" font-family="Helvetica,sans-Serif" font-size="10.00">machine_learning::pop_back</text>
</a>
</g>
</g>
<!-- Node30&#45;&gt;Node41 -->
<g id="edge63" class="edge">
<title>Node30&#45;&gt;Node41</title>
<path fill="none" stroke="midnightblue" d="M420.99,-405.39C432.72,-365.45 464.07,-277.39 523,-231 525.3,-229.19 527.77,-227.55 530.34,-226.06"/>
<polygon fill="midnightblue" stroke="midnightblue" points="532.02,-229.14 539.46,-221.59 528.94,-222.85 532.02,-229.14"/>
</g>
<!-- Node42 -->
<g id="node42" class="node">
<title>Node42</title>
<g id="a_node42"><a xlink:href="../../d8/d77/namespacemachine__learning.html#ad9d119e7520fa5c2d2428433f578c0bc" target="_top" xlink:title=" ">
<polygon fill="white" stroke="black" points="536.5,-153 536.5,-183 650.5,-183 650.5,-153 536.5,-153"/>
<text text-anchor="start" x="544.5" y="-171" font-family="Helvetica,sans-Serif" font-size="10.00">machine_learning::pop</text>
<text text-anchor="middle" x="593.5" y="-160" font-family="Helvetica,sans-Serif" font-size="10.00">_front</text>
</a>
</g>
</g>
<!-- Node30&#45;&gt;Node42 -->
<g id="edge64" class="edge">
<title>Node30&#45;&gt;Node42</title>
<path fill="none" stroke="midnightblue" d="M419.4,-405.4C428.94,-360.47 457.65,-252.9 523,-193 524.73,-191.42 526.56,-189.93 528.48,-188.54"/>
<polygon fill="midnightblue" stroke="midnightblue" points="530.72,-191.27 537.36,-183.01 527.02,-185.33 530.72,-191.27"/>
</g>
<!-- Node43 -->
<g id="node43" class="node">
<title>Node43</title>
<g id="a_node43"><a target="_blank" xlink:href="http://en.cppreference.com/w/cpp/string/basic_string/stof.html#" xlink:title=" ">
<polygon fill="white" stroke="black" points="566,-114.5 566,-133.5 621,-133.5 621,-114.5 566,-114.5"/>
<text text-anchor="middle" x="593.5" y="-121.5" font-family="Helvetica,sans-Serif" font-size="10.00">std::stod</text>
</a>
</g>
</g>
<!-- Node30&#45;&gt;Node43 -->
<g id="edge66" class="edge">
<title>Node30&#45;&gt;Node43</title>
<path fill="none" stroke="midnightblue" d="M417.1,-405.4C422.29,-353.33 443.24,-215.44 523,-143 532.02,-134.8 544.25,-130.1 555.93,-127.41"/>
<polygon fill="midnightblue" stroke="midnightblue" points="556.78,-130.81 565.96,-125.53 555.49,-123.93 556.78,-130.81"/>
</g>
<!-- Node38&#45;&gt;Node7 -->
<g id="edge56" class="edge">
<title>Node38&#45;&gt;Node7</title>
<path fill="none" stroke="midnightblue" d="M653.47,-309.06C657.46,-311.83 661.06,-315.11 664,-319 733.6,-411.04 629.32,-745.79 700,-837 705.22,-843.74 712.92,-848.11 720.99,-850.94"/>
<polygon fill="midnightblue" stroke="midnightblue" points="720.29,-854.38 730.86,-853.69 722.16,-847.64 720.29,-854.38"/>
</g>
<!-- Node38&#45;&gt;Node8 -->
<g id="edge57" class="edge">
<title>Node38&#45;&gt;Node8</title>
<path fill="none" stroke="midnightblue" d="M653.3,-309.19C657.33,-311.93 660.98,-315.17 664,-319 754.77,-434.19 607.88,-532.89 700,-647 705.56,-653.88 713.69,-658.29 722.08,-661.11"/>
<polygon fill="midnightblue" stroke="midnightblue" points="721.34,-664.53 731.91,-663.74 723.15,-657.77 721.34,-664.53"/>
</g>
<!-- Node38&#45;&gt;Node9 -->
<g id="edge58" class="edge">
<title>Node38&#45;&gt;Node9</title>
<path fill="none" stroke="midnightblue" d="M653.49,-309.04C657.48,-311.82 661.07,-315.11 664,-319 738.44,-417.93 631.17,-772.08 700,-875 701.5,-877.25 703.24,-879.32 705.15,-881.23"/>
<polygon fill="midnightblue" stroke="midnightblue" points="703.31,-884.24 713.27,-887.83 707.72,-878.81 703.31,-884.24"/>
</g>
<!-- Node38&#45;&gt;Node22 -->
<g id="edge60" class="edge">
<title>Node38&#45;&gt;Node22</title>
<path fill="none" stroke="midnightblue" d="M640.24,-278.94C648.27,-275.91 656.46,-272.55 664,-269 688.83,-257.32 715.65,-241.03 734.08,-229.21"/>
<polygon fill="midnightblue" stroke="midnightblue" points="736.17,-232.03 742.65,-223.65 732.36,-226.16 736.17,-232.03"/>
</g>
<!-- Node38&#45;&gt;Node26 -->
<g id="edge61" class="edge">
<title>Node38&#45;&gt;Node26</title>
<path fill="none" stroke="midnightblue" d="M649.56,-278.9C654.77,-276.13 659.71,-272.86 664,-269 691.21,-244.56 683.21,-227.49 700,-195 715.6,-164.82 734.77,-130.34 746.43,-109.64"/>
<polygon fill="midnightblue" stroke="midnightblue" points="749.63,-111.09 751.5,-100.67 743.53,-107.65 749.63,-111.09"/>
</g>
<!-- Node39 -->
<g id="node39" class="node">
<title>Node39</title>
<g id="a_node39"><a target="_blank" xlink:href="http://en.cppreference.com/w/cpp/algorithm/max.html#" xlink:title=" ">
<polygon fill="white" stroke="black" points="730.5,-284.5 730.5,-303.5 785.5,-303.5 785.5,-284.5 730.5,-284.5"/>
<text text-anchor="middle" x="758" y="-291.5" font-family="Helvetica,sans-Serif" font-size="10.00">std::max</text>
</a>
</g>
</g>
<!-- Node38&#45;&gt;Node39 -->
<g id="edge59" class="edge">
<title>Node38&#45;&gt;Node39</title>
<path fill="none" stroke="midnightblue" d="M660.13,-294C680.41,-294 702.03,-294 719.7,-294"/>
<polygon fill="midnightblue" stroke="midnightblue" points="720.14,-297.5 730.14,-294 720.14,-290.5 720.14,-297.5"/>
</g>
</g>
</svg>
