<?xml version="1.0" encoding="UTF-8" standalone="no"?>
<!DOCTYPE svg PUBLIC "-//W3C//DTD SVG 1.1//EN"
 "http://www.w3.org/Graphics/SVG/1.1/DTD/svg11.dtd">
<!-- Generated by graphviz version 2.47.3 (20210619.1520)
 -->
<!-- Title: machine_learning::neural_network::NeuralNetwork::fit Pages: 1 -->
<svg width="660pt" height="694pt"
 viewBox="0.00 0.00 660.00 694.17" xmlns="http://www.w3.org/2000/svg" xmlns:xlink="http://www.w3.org/1999/xlink">
<g id="graph0" class="graph" transform="scale(1 1) rotate(0) translate(4 690.17)">
<title>machine_learning::neural_network::NeuralNetwork::fit</title>
<polygon fill="white" stroke="transparent" points="-4,4 -4,-690.17 656,-690.17 656,4 -4,4"/>
<!-- Node1 -->
<g id="node1" class="node">
<title>Node1</title>
<g id="a_node1"><a xlink:title=" ">
<polygon fill="#bfbfbf" stroke="black" points="0,-322.5 0,-352.5 142,-352.5 142,-322.5 0,-322.5"/>
<text text-anchor="start" x="8" y="-340.5" font-family="Helvetica,sans-Serif" font-size="10.00">machine_learning::neural</text>
<text text-anchor="middle" x="71" y="-329.5" font-family="Helvetica,sans-Serif" font-size="10.00">_network::NeuralNetwork::fit</text>
</a>
</g>
</g>
<!-- Node2 -->
<g id="node2" class="node">
<title>Node2</title>
<g id="a_node2"><a xlink:href="../../d4/df4/classmachine__learning_1_1neural__network_1_1_neural_network.html#acd397b51fcf8f690b03e406ada8c9d13" target="_top" xlink:title=" ">
<polygon fill="white" stroke="black" points="178,-600 178,-641 323,-641 323,-600 178,-600"/>
<text text-anchor="start" x="186" y="-629" font-family="Helvetica,sans-Serif" font-size="10.00">machine_learning::neural</text>
<text text-anchor="start" x="186" y="-618" font-family="Helvetica,sans-Serif" font-size="10.00">_network::NeuralNetwork</text>
<text text-anchor="middle" x="250.5" y="-607" font-family="Helvetica,sans-Serif" font-size="10.00">::__detailed_single_prediction</text>
</a>
</g>
</g>
<!-- Node1&#45;&gt;Node2 -->
<g id="edge1" class="edge">
<title>Node1&#45;&gt;Node2</title>
<path fill="none" stroke="midnightblue" d="M74.65,-352.64C82.73,-394.73 110.76,-514.72 178,-585.5 180.94,-588.6 184.22,-591.46 187.71,-594.1"/>
<polygon fill="midnightblue" stroke="midnightblue" points="185.93,-597.12 196.17,-599.84 189.86,-591.33 185.93,-597.12"/>
</g>
<!-- Node3 -->
<g id="node3" class="node">
<title>Node3</title>
<g id="a_node3"><a xlink:href="../../d8/d77/namespacemachine__learning.html#a8b3b06a63bd16b91237c85a295309774" target="_top" xlink:title=" ">
<polygon fill="white" stroke="black" points="368.5,-652.5 368.5,-682.5 490.5,-682.5 490.5,-652.5 368.5,-652.5"/>
<text text-anchor="start" x="376.5" y="-670.5" font-family="Helvetica,sans-Serif" font-size="10.00">machine_learning::apply</text>
<text text-anchor="middle" x="429.5" y="-659.5" font-family="Helvetica,sans-Serif" font-size="10.00">_function</text>
</a>
</g>
</g>
<!-- Node1&#45;&gt;Node3 -->
<g id="edge9" class="edge">
<title>Node1&#45;&gt;Node3</title>
<path fill="none" stroke="midnightblue" d="M71.76,-352.5C71.85,-404.05 79.8,-574.91 178,-650.5 228.73,-689.55 303.69,-689.39 358.39,-682.16"/>
<polygon fill="midnightblue" stroke="midnightblue" points="358.95,-685.61 368.36,-680.73 357.96,-678.68 358.95,-685.61"/>
</g>
<!-- Node5 -->
<g id="node5" class="node">
<title>Node5</title>
<g id="a_node5"><a xlink:href="../../d8/d77/namespacemachine__learning.html#a7491744dcfc8844338d55065d0cd0c79" target="_top" xlink:title=" ">
<polygon fill="white" stroke="black" points="363.5,-448 363.5,-467 495.5,-467 495.5,-448 363.5,-448"/>
<text text-anchor="middle" x="429.5" y="-455" font-family="Helvetica,sans-Serif" font-size="10.00">machine_learning::multiply</text>
</a>
</g>
</g>
<!-- Node1&#45;&gt;Node5 -->
<g id="edge34" class="edge">
<title>Node1&#45;&gt;Node5</title>
<path fill="none" stroke="midnightblue" d="M94.24,-352.54C115.08,-366.03 147.5,-385.49 178,-397.5 236.91,-420.69 307.26,-436.58 358.39,-446.15"/>
<polygon fill="midnightblue" stroke="midnightblue" points="357.89,-449.62 368.36,-447.98 359.15,-442.73 357.89,-449.62"/>
</g>
<!-- Node6 -->
<g id="node6" class="node">
<title>Node6</title>
<g id="a_node6"><a target="_blank" xlink:href="http://en.cppreference.com/w/cpp/io/manip/endl.html#" xlink:title=" ">
<polygon fill="white" stroke="black" points="567,-485 567,-504 621,-504 621,-485 567,-485"/>
<text text-anchor="middle" x="594" y="-492" font-family="Helvetica,sans-Serif" font-size="10.00">std::endl</text>
</a>
</g>
</g>
<!-- Node1&#45;&gt;Node6 -->
<g id="edge18" class="edge">
<title>Node1&#45;&gt;Node6</title>
<path fill="none" stroke="midnightblue" d="M79.06,-352.71C93.25,-381.42 128.22,-443.22 178,-471.5 301.74,-541.8 481.13,-517.43 556.98,-502.54"/>
<polygon fill="midnightblue" stroke="midnightblue" points="557.88,-505.93 566.98,-500.51 556.49,-499.07 557.88,-505.93"/>
</g>
<!-- Node7 -->
<g id="node7" class="node">
<title>Node7</title>
<g id="a_node7"><a target="_blank" xlink:href="http://en.cppreference.com/w/cpp/utility/program/exit.html#" xlink:title=" ">
<polygon fill="white" stroke="black" points="568,-447 568,-466 620,-466 620,-447 568,-447"/>
<text text-anchor="middle" x="594" y="-454" font-family="Helvetica,sans-Serif" font-size="10.00">std::exit</text>
</a>
</g>
</g>
<!-- Node1&#45;&gt;Node7 -->
<g id="edge26" class="edge">
<title>Node1&#45;&gt;Node7</title>
<path fill="none" stroke="midnightblue" d="M84.74,-352.68C103.15,-373.63 139.26,-411.11 178,-431.5 305.87,-498.81 356.31,-491.78 500,-476.5 519.49,-474.43 540.91,-469.98 558.26,-465.8"/>
<polygon fill="midnightblue" stroke="midnightblue" points="559.11,-469.2 567.97,-463.39 557.42,-462.4 559.11,-469.2"/>
</g>
<!-- Node8 -->
<g id="node8" class="node">
<title>Node8</title>
<g id="a_node8"><a xlink:href="../../d8/d77/namespacemachine__learning.html#abe6b58ec16abe0f6f8ac195e04aa8abd" target="_top" xlink:title=" ">
<polygon fill="white" stroke="black" points="538,-356.5 538,-386.5 650,-386.5 650,-356.5 538,-356.5"/>
<text text-anchor="start" x="546" y="-374.5" font-family="Helvetica,sans-Serif" font-size="10.00">machine_learning::get</text>
<text text-anchor="middle" x="594" y="-363.5" font-family="Helvetica,sans-Serif" font-size="10.00">_shape</text>
</a>
</g>
</g>
<!-- Node1&#45;&gt;Node8 -->
<g id="edge27" class="edge">
<title>Node1&#45;&gt;Node8</title>
<path fill="none" stroke="midnightblue" d="M142.01,-335.53C227.03,-334.08 374.63,-334.59 500,-350.5 509.04,-351.65 518.5,-353.27 527.78,-355.12"/>
<polygon fill="midnightblue" stroke="midnightblue" points="527.24,-358.58 537.74,-357.19 528.66,-351.73 527.24,-358.58"/>
</g>
<!-- Node10 -->
<g id="node10" class="node">
<title>Node10</title>
<g id="a_node10"><a xlink:href="../../d8/d77/namespacemachine__learning.html#a1b42d24ad7bedbfa8e5b59fe96987a44" target="_top" xlink:title=" ">
<polygon fill="white" stroke="black" points="364,-284 364,-303 495,-303 495,-284 364,-284"/>
<text text-anchor="middle" x="429.5" y="-291" font-family="Helvetica,sans-Serif" font-size="10.00">machine_learning::argmax</text>
</a>
</g>
</g>
<!-- Node1&#45;&gt;Node10 -->
<g id="edge10" class="edge">
<title>Node1&#45;&gt;Node10</title>
<path fill="none" stroke="midnightblue" d="M142.12,-328.12C154.09,-326.55 166.4,-324.96 178,-323.5 237.05,-316.06 304,-308.07 353.81,-302.2"/>
<polygon fill="midnightblue" stroke="midnightblue" points="354.33,-305.67 363.86,-301.02 353.52,-298.72 354.33,-305.67"/>
</g>
<!-- Node15 -->
<g id="node15" class="node">
<title>Node15</title>
<g id="a_node15"><a xlink:href="../../d8/d77/namespacemachine__learning.html#a62a418f243cd52b49f59015dddff188e" target="_top" xlink:title=" ">
<polygon fill="white" stroke="black" points="368.5,-562.5 368.5,-592.5 490.5,-592.5 490.5,-562.5 368.5,-562.5"/>
<text text-anchor="start" x="376.5" y="-580.5" font-family="Helvetica,sans-Serif" font-size="10.00">machine_learning::equal</text>
<text text-anchor="middle" x="429.5" y="-569.5" font-family="Helvetica,sans-Serif" font-size="10.00">_shuffle</text>
</a>
</g>
</g>
<!-- Node1&#45;&gt;Node15 -->
<g id="edge19" class="edge">
<title>Node1&#45;&gt;Node15</title>
<path fill="none" stroke="midnightblue" d="M74.61,-352.59C82.32,-392.14 108.94,-499.1 178,-547.5 230.23,-584.1 304.09,-588.77 358.07,-585.99"/>
<polygon fill="midnightblue" stroke="midnightblue" points="358.49,-589.48 368.25,-585.37 358.06,-582.49 358.49,-589.48"/>
</g>
<!-- Node20 -->
<g id="node20" class="node">
<title>Node20</title>
<g id="a_node20"><a xlink:href="../../d8/d77/namespacemachine__learning.html#a6ef38e5947aef609f908bfbfeaf11d75" target="_top" xlink:title=" ">
<polygon fill="white" stroke="black" points="359,-398.5 359,-428.5 500,-428.5 500,-398.5 359,-398.5"/>
<text text-anchor="start" x="367" y="-416.5" font-family="Helvetica,sans-Serif" font-size="10.00">machine_learning::hadamard</text>
<text text-anchor="middle" x="429.5" y="-405.5" font-family="Helvetica,sans-Serif" font-size="10.00">_product</text>
</a>
</g>
</g>
<!-- Node1&#45;&gt;Node20 -->
<g id="edge28" class="edge">
<title>Node1&#45;&gt;Node20</title>
<path fill="none" stroke="midnightblue" d="M115.73,-352.54C134.71,-358.69 157.29,-365.52 178,-370.5 234.59,-384.1 299.38,-395.11 348.88,-402.57"/>
<polygon fill="midnightblue" stroke="midnightblue" points="348.48,-406.05 358.89,-404.07 349.51,-399.13 348.48,-406.05"/>
</g>
<!-- Node21 -->
<g id="node21" class="node">
<title>Node21</title>
<g id="a_node21"><a target="_blank" xlink:href="http://en.cppreference.com/w/cpp/algorithm/min.html#" xlink:title=" ">
<polygon fill="white" stroke="black" points="224.5,-252 224.5,-271 276.5,-271 276.5,-252 224.5,-252"/>
<text text-anchor="middle" x="250.5" y="-259" font-family="Helvetica,sans-Serif" font-size="10.00">std::min</text>
</a>
</g>
</g>
<!-- Node1&#45;&gt;Node21 -->
<g id="edge33" class="edge">
<title>Node1&#45;&gt;Node21</title>
<path fill="none" stroke="midnightblue" d="M100.32,-322.33C121.41,-311.35 151.08,-296.57 178,-285.5 189.83,-280.64 203.04,-275.99 214.85,-272.11"/>
<polygon fill="midnightblue" stroke="midnightblue" points="215.94,-275.43 224.39,-269.03 213.79,-268.77 215.94,-275.43"/>
</g>
<!-- Node22 -->
<g id="node22" class="node">
<title>Node22</title>
<g id="a_node22"><a target="_blank" xlink:href="http://en.cppreference.com/w/cpp/chrono/high_resolution_clock/now.html#" xlink:title=" ">
<polygon fill="white" stroke="black" points="182,-202.5 182,-232.5 319,-232.5 319,-202.5 182,-202.5"/>
<text text-anchor="start" x="190" y="-220.5" font-family="Helvetica,sans-Serif" font-size="10.00">std::chrono::high_resolution</text>
<text text-anchor="middle" x="250.5" y="-209.5" font-family="Helvetica,sans-Serif" font-size="10.00">_clock::now</text>
</a>
</g>
</g>
<!-- Node1&#45;&gt;Node22 -->
<g id="edge35" class="edge">
<title>Node1&#45;&gt;Node22</title>
<path fill="none" stroke="midnightblue" d="M85.29,-322.3C104.08,-301.64 140.34,-264.75 178,-242.5 181.57,-240.39 185.34,-238.43 189.21,-236.6"/>
<polygon fill="midnightblue" stroke="midnightblue" points="190.62,-239.8 198.38,-232.58 187.81,-233.39 190.62,-239.8"/>
</g>
<!-- Node23 -->
<g id="node23" class="node">
<title>Node23</title>
<g id="a_node23"><a target="_blank" xlink:href="http://en.cppreference.com/w/cpp/container/vector/resize.html#" xlink:title=" ">
<polygon fill="white" stroke="black" points="203,-164 203,-183 298,-183 298,-164 203,-164"/>
<text text-anchor="middle" x="250.5" y="-171" font-family="Helvetica,sans-Serif" font-size="10.00">std::vector::resize</text>
</a>
</g>
</g>
<!-- Node1&#45;&gt;Node23 -->
<g id="edge36" class="edge">
<title>Node1&#45;&gt;Node23</title>
<path fill="none" stroke="midnightblue" d="M78.85,-322.11C92.94,-292.31 128.06,-226.64 178,-192.5 182.64,-189.33 187.78,-186.69 193.12,-184.49"/>
<polygon fill="midnightblue" stroke="midnightblue" points="194.64,-187.66 202.87,-180.98 192.27,-181.07 194.64,-187.66"/>
</g>
<!-- Node24 -->
<g id="node24" class="node">
<title>Node24</title>
<g id="a_node24"><a xlink:href="../../d5/d91/namespacesorting.html#aedfb88e2d6fff1871f038221fe5870fe" target="_top" xlink:title=" ">
<polygon fill="white" stroke="black" points="210,-126 210,-145 291,-145 291,-126 210,-126"/>
<text text-anchor="middle" x="250.5" y="-133" font-family="Helvetica,sans-Serif" font-size="10.00">sorting::shuffle</text>
</a>
</g>
</g>
<!-- Node1&#45;&gt;Node24 -->
<g id="edge37" class="edge">
<title>Node1&#45;&gt;Node24</title>
<path fill="none" stroke="midnightblue" d="M76.38,-322.26C87.3,-287.01 119.23,-199.44 178,-154.5 184.53,-149.51 192.26,-145.83 200.19,-143.11"/>
<polygon fill="midnightblue" stroke="midnightblue" points="201.28,-146.43 209.88,-140.25 199.3,-139.72 201.28,-146.43"/>
</g>
<!-- Node25 -->
<g id="node25" class="node">
<title>Node25</title>
<g id="a_node25"><a target="_blank" xlink:href="http://en.cppreference.com/w/cpp/container/vector/size.html#" xlink:title=" ">
<polygon fill="white" stroke="black" points="207,-88 207,-107 294,-107 294,-88 207,-88"/>
<text text-anchor="middle" x="250.5" y="-95" font-family="Helvetica,sans-Serif" font-size="10.00">std::vector::size</text>
</a>
</g>
</g>
<!-- Node1&#45;&gt;Node25 -->
<g id="edge38" class="edge">
<title>Node1&#45;&gt;Node25</title>
<path fill="none" stroke="midnightblue" d="M74.71,-322.48C82.72,-282.5 110.16,-172.68 178,-116.5 183.64,-111.83 190.33,-108.29 197.3,-105.62"/>
<polygon fill="midnightblue" stroke="midnightblue" points="198.5,-108.91 206.92,-102.49 196.33,-102.25 198.5,-108.91"/>
</g>
<!-- Node26 -->
<g id="node26" class="node">
<title>Node26</title>
<g id="a_node26"><a xlink:href="../../d8/d77/namespacemachine__learning.html#a5305cc18d11943d3dc0d66e70d7e9c44" target="_top" xlink:title=" ">
<polygon fill="white" stroke="black" points="192,-50 192,-69 309,-69 309,-50 192,-50"/>
<text text-anchor="middle" x="250.5" y="-57" font-family="Helvetica,sans-Serif" font-size="10.00">machine_learning::sum</text>
</a>
</g>
</g>
<!-- Node1&#45;&gt;Node26 -->
<g id="edge39" class="edge">
<title>Node1&#45;&gt;Node26</title>
<path fill="none" stroke="midnightblue" d="M73.58,-322.26C79.02,-277.62 101.18,-146.02 178,-78.5 179.94,-76.79 182.02,-75.24 184.2,-73.82"/>
<polygon fill="midnightblue" stroke="midnightblue" points="185.94,-76.86 193.05,-69.01 182.6,-70.71 185.94,-76.86"/>
</g>
<!-- Node27 -->
<g id="node27" class="node">
<title>Node27</title>
<g id="a_node27"><a xlink:href="../../d8/d77/namespacemachine__learning.html#ac7d9b358f1ef2ba2a1d475a5452ec41f" target="_top" xlink:title=" ">
<polygon fill="white" stroke="black" points="359,-360 359,-379 500,-379 500,-360 359,-360"/>
<text text-anchor="middle" x="429.5" y="-367" font-family="Helvetica,sans-Serif" font-size="10.00">machine_learning::transpose</text>
</a>
</g>
</g>
<!-- Node1&#45;&gt;Node27 -->
<g id="edge40" class="edge">
<title>Node1&#45;&gt;Node27</title>
<path fill="none" stroke="midnightblue" d="M142.06,-347.35C154.04,-348.87 166.37,-350.31 178,-351.5 234.9,-357.3 299.25,-361.88 348.49,-364.97"/>
<polygon fill="midnightblue" stroke="midnightblue" points="348.56,-368.48 358.76,-365.61 348.99,-361.49 348.56,-368.48"/>
</g>
<!-- Node28 -->
<g id="node28" class="node">
<title>Node28</title>
<g id="a_node28"><a xlink:href="../../d8/d77/namespacemachine__learning.html#a4d136cbf20e3126ed9b934ab2d03f18b" target="_top" xlink:title=" ">
<polygon fill="white" stroke="black" points="186.5,-0.5 186.5,-30.5 314.5,-30.5 314.5,-0.5 186.5,-0.5"/>
<text text-anchor="start" x="194.5" y="-18.5" font-family="Helvetica,sans-Serif" font-size="10.00">machine_learning::zeroes</text>
<text text-anchor="middle" x="250.5" y="-7.5" font-family="Helvetica,sans-Serif" font-size="10.00">_initialization</text>
</a>
</g>
</g>
<!-- Node1&#45;&gt;Node28 -->
<g id="edge43" class="edge">
<title>Node1&#45;&gt;Node28</title>
<path fill="none" stroke="midnightblue" d="M72.94,-322.47C76.74,-274.43 95.08,-122.88 178,-40.5 179.47,-39.04 181.03,-37.67 182.66,-36.37"/>
<polygon fill="midnightblue" stroke="midnightblue" points="185,-39.02 191.36,-30.54 181.1,-33.2 185,-39.02"/>
</g>
<!-- Node2&#45;&gt;Node3 -->
<g id="edge2" class="edge">
<title>Node2&#45;&gt;Node3</title>
<path fill="none" stroke="midnightblue" d="M323.24,-639.55C336.02,-642.94 349.28,-646.46 361.91,-649.82"/>
<polygon fill="midnightblue" stroke="midnightblue" points="361.31,-653.28 371.88,-652.46 363.11,-646.52 361.31,-653.28"/>
</g>
<!-- Node4 -->
<g id="node4" class="node">
<title>Node4</title>
<g id="a_node4"><a target="_blank" xlink:href="http://en.cppreference.com/w/cpp/container/vector/emplace_back.html#" xlink:title=" ">
<polygon fill="white" stroke="black" points="363.5,-612 363.5,-631 495.5,-631 495.5,-612 363.5,-612"/>
<text text-anchor="middle" x="429.5" y="-619" font-family="Helvetica,sans-Serif" font-size="10.00">std::vector::emplace_back</text>
</a>
</g>
</g>
<!-- Node2&#45;&gt;Node4 -->
<g id="edge3" class="edge">
<title>Node2&#45;&gt;Node4</title>
<path fill="none" stroke="midnightblue" d="M323.24,-620.91C333.05,-620.96 343.15,-621.02 353.03,-621.07"/>
<polygon fill="midnightblue" stroke="midnightblue" points="353.21,-624.57 363.23,-621.13 353.25,-617.57 353.21,-624.57"/>
</g>
<!-- Node2&#45;&gt;Node5 -->
<g id="edge4" class="edge">
<title>Node2&#45;&gt;Node5</title>
<path fill="none" stroke="midnightblue" d="M273.92,-599.86C309.42,-567.16 377.89,-504.11 410.45,-474.12"/>
<polygon fill="midnightblue" stroke="midnightblue" points="412.93,-476.6 417.91,-467.25 408.18,-471.45 412.93,-476.6"/>
</g>
<!-- Node5&#45;&gt;Node6 -->
<g id="edge5" class="edge">
<title>Node5&#45;&gt;Node6</title>
<path fill="none" stroke="midnightblue" d="M472.35,-467.03C498.47,-472.98 531.75,-480.55 556.74,-486.24"/>
<polygon fill="midnightblue" stroke="midnightblue" points="556.03,-489.67 566.56,-488.48 557.58,-482.85 556.03,-489.67"/>
</g>
<!-- Node5&#45;&gt;Node7 -->
<g id="edge6" class="edge">
<title>Node5&#45;&gt;Node7</title>
<path fill="none" stroke="midnightblue" d="M495.66,-457.1C516.77,-456.97 539.39,-456.83 557.51,-456.72"/>
<polygon fill="midnightblue" stroke="midnightblue" points="557.63,-460.22 567.61,-456.66 557.59,-453.22 557.63,-460.22"/>
</g>
<!-- Node5&#45;&gt;Node8 -->
<g id="edge7" class="edge">
<title>Node5&#45;&gt;Node8</title>
<path fill="none" stroke="midnightblue" d="M479.91,-447.95C486.95,-445.48 493.87,-442.38 500,-438.5 520.77,-425.35 516.25,-411.14 536,-396.5 538.44,-394.69 541.03,-392.98 543.71,-391.37"/>
<polygon fill="midnightblue" stroke="midnightblue" points="545.41,-394.42 552.49,-386.54 542.04,-388.29 545.41,-394.42"/>
</g>
<!-- Node9 -->
<g id="node9" class="node">
<title>Node9</title>
<g id="a_node9"><a target="_blank" xlink:href="http://en.cppreference.com/w/cpp/container/vector/push_back.html#" xlink:title=" ">
<polygon fill="white" stroke="black" points="536,-406 536,-425 652,-425 652,-406 536,-406"/>
<text text-anchor="middle" x="594" y="-413" font-family="Helvetica,sans-Serif" font-size="10.00">std::vector::push_back</text>
</a>
</g>
</g>
<!-- Node5&#45;&gt;Node9 -->
<g id="edge8" class="edge">
<title>Node5&#45;&gt;Node9</title>
<path fill="none" stroke="midnightblue" d="M467.37,-447.97C490.67,-441.95 520.97,-434.12 545.99,-427.65"/>
<polygon fill="midnightblue" stroke="midnightblue" points="547.19,-430.96 555.99,-425.07 545.43,-424.18 547.19,-430.96"/>
</g>
<!-- Node10&#45;&gt;Node6 -->
<g id="edge14" class="edge">
<title>Node10&#45;&gt;Node6</title>
<path fill="none" stroke="midnightblue" d="M447.3,-303.11C463.15,-313.02 486.44,-329.91 500,-350.5 531.79,-398.79 495.97,-433.78 536,-475.5 541.69,-481.43 549.27,-485.51 557.04,-488.31"/>
<polygon fill="midnightblue" stroke="midnightblue" points="556.28,-491.74 566.86,-491.23 558.27,-485.03 556.28,-491.74"/>
</g>
<!-- Node10&#45;&gt;Node7 -->
<g id="edge15" class="edge">
<title>Node10&#45;&gt;Node7</title>
<path fill="none" stroke="midnightblue" d="M446.16,-303.11C461.6,-313.26 485,-330.54 500,-350.5 524.4,-382.97 506.76,-406.31 536,-434.5 542.19,-440.47 550.17,-444.86 558.19,-448.08"/>
<polygon fill="midnightblue" stroke="midnightblue" points="557.28,-451.47 567.88,-451.45 559.58,-444.86 557.28,-451.47"/>
</g>
<!-- Node10&#45;&gt;Node8 -->
<g id="edge16" class="edge">
<title>Node10&#45;&gt;Node8</title>
<path fill="none" stroke="midnightblue" d="M465.8,-303.07C477.08,-306.81 489.39,-311.63 500,-317.5 517.98,-327.45 518.44,-335.84 536,-346.5 539.14,-348.41 542.45,-350.25 545.83,-352.01"/>
<polygon fill="midnightblue" stroke="midnightblue" points="544.36,-355.19 554.88,-356.46 547.46,-348.91 544.36,-355.19"/>
</g>
<!-- Node11 -->
<g id="node11" class="node">
<title>Node11</title>
<g id="a_node11"><a target="_blank" xlink:href="http://en.cppreference.com/w/cpp/iterator/begin.html#" xlink:title=" ">
<polygon fill="white" stroke="black" points="564.5,-242 564.5,-261 623.5,-261 623.5,-242 564.5,-242"/>
<text text-anchor="middle" x="594" y="-249" font-family="Helvetica,sans-Serif" font-size="10.00">std::begin</text>
</a>
</g>
</g>
<!-- Node10&#45;&gt;Node11 -->
<g id="edge11" class="edge">
<title>Node10&#45;&gt;Node11</title>
<path fill="none" stroke="midnightblue" d="M467.37,-283.97C493.33,-277.26 528.01,-268.3 554.35,-261.49"/>
<polygon fill="midnightblue" stroke="midnightblue" points="555.55,-264.79 564.36,-258.9 553.8,-258.02 555.55,-264.79"/>
</g>
<!-- Node12 -->
<g id="node12" class="node">
<title>Node12</title>
<g id="a_node12"><a target="_blank" xlink:href="http://en.cppreference.com/w/cpp/iterator/distance.html#" xlink:title=" ">
<polygon fill="white" stroke="black" points="557.5,-204 557.5,-223 630.5,-223 630.5,-204 557.5,-204"/>
<text text-anchor="middle" x="594" y="-211" font-family="Helvetica,sans-Serif" font-size="10.00">std::distance</text>
</a>
</g>
</g>
<!-- Node10&#45;&gt;Node12 -->
<g id="edge12" class="edge">
<title>Node10&#45;&gt;Node12</title>
<path fill="none" stroke="midnightblue" d="M445.02,-283.83C464.91,-270.89 502.05,-247.79 536,-232.5 540.75,-230.36 545.82,-228.33 550.9,-226.45"/>
<polygon fill="midnightblue" stroke="midnightblue" points="552.34,-229.66 560.61,-223.03 550.01,-223.06 552.34,-229.66"/>
</g>
<!-- Node13 -->
<g id="node13" class="node">
<title>Node13</title>
<g id="a_node13"><a target="_blank" xlink:href="http://en.cppreference.com/w/cpp/iterator/end.html#" xlink:title=" ">
<polygon fill="white" stroke="black" points="568,-318 568,-337 620,-337 620,-318 568,-318"/>
<text text-anchor="middle" x="594" y="-325" font-family="Helvetica,sans-Serif" font-size="10.00">std::end</text>
</a>
</g>
</g>
<!-- Node10&#45;&gt;Node13 -->
<g id="edge13" class="edge">
<title>Node10&#45;&gt;Node13</title>
<path fill="none" stroke="midnightblue" d="M476.2,-303.06C502.04,-308.47 533.85,-315.12 557.75,-320.13"/>
<polygon fill="midnightblue" stroke="midnightblue" points="557.29,-323.6 567.8,-322.23 558.72,-316.75 557.29,-323.6"/>
</g>
<!-- Node14 -->
<g id="node14" class="node">
<title>Node14</title>
<g id="a_node14"><a target="_blank" xlink:href="http://en.cppreference.com/w/cpp/algorithm/max_element.html#" xlink:title=" ">
<polygon fill="white" stroke="black" points="546.5,-280 546.5,-299 641.5,-299 641.5,-280 546.5,-280"/>
<text text-anchor="middle" x="594" y="-287" font-family="Helvetica,sans-Serif" font-size="10.00">std::max_element</text>
</a>
</g>
</g>
<!-- Node10&#45;&gt;Node14 -->
<g id="edge17" class="edge">
<title>Node10&#45;&gt;Node14</title>
<path fill="none" stroke="midnightblue" d="M495.19,-291.91C508.6,-291.58 522.64,-291.23 535.76,-290.91"/>
<polygon fill="midnightblue" stroke="midnightblue" points="536.14,-294.4 546.05,-290.66 535.97,-287.4 536.14,-294.4"/>
</g>
<!-- Node15&#45;&gt;Node6 -->
<g id="edge20" class="edge">
<title>Node15&#45;&gt;Node6</title>
<path fill="none" stroke="midnightblue" d="M470.82,-562.42C480.64,-558.12 490.93,-553.07 500,-547.5 517.74,-536.59 518.13,-528.19 536,-517.5 542.61,-513.55 550.03,-509.99 557.26,-506.93"/>
<polygon fill="midnightblue" stroke="midnightblue" points="558.95,-510.02 566.94,-503.06 556.35,-503.52 558.95,-510.02"/>
</g>
<!-- Node15&#45;&gt;Node7 -->
<g id="edge21" class="edge">
<title>Node15&#45;&gt;Node7</title>
<path fill="none" stroke="midnightblue" d="M446.05,-562.3C474.74,-534.26 533.37,-477.09 536,-475.5 542.76,-471.4 550.51,-468.06 558.08,-465.4"/>
<polygon fill="midnightblue" stroke="midnightblue" points="559.37,-468.66 567.82,-462.27 557.23,-461.99 559.37,-468.66"/>
</g>
<!-- Node16 -->
<g id="node16" class="node">
<title>Node16</title>
<g id="a_node16"><a target="_blank" xlink:href="http://en.cppreference.com/w/cpp/chrono/system_clock/now.html#" xlink:title=" ">
<polygon fill="white" stroke="black" points="542,-641.5 542,-671.5 646,-671.5 646,-641.5 542,-641.5"/>
<text text-anchor="start" x="550" y="-659.5" font-family="Helvetica,sans-Serif" font-size="10.00">std::chrono::system</text>
<text text-anchor="middle" x="594" y="-648.5" font-family="Helvetica,sans-Serif" font-size="10.00">_clock::now</text>
</a>
</g>
</g>
<!-- Node15&#45;&gt;Node16 -->
<g id="edge22" class="edge">
<title>Node15&#45;&gt;Node16</title>
<path fill="none" stroke="midnightblue" d="M478.91,-592.55C486.16,-595.47 493.4,-598.8 500,-602.5 517.91,-612.56 518.44,-620.84 536,-631.5 539.14,-633.41 542.45,-635.25 545.83,-637.01"/>
<polygon fill="midnightblue" stroke="midnightblue" points="544.36,-640.19 554.88,-641.46 547.46,-633.91 544.36,-640.19"/>
</g>
<!-- Node17 -->
<g id="node17" class="node">
<title>Node17</title>
<g id="a_node17"><a target="_blank" xlink:href="http://en.cppreference.com/w/cpp/numeric/random/rand.html#" xlink:title=" ">
<polygon fill="white" stroke="black" points="566.5,-603 566.5,-622 621.5,-622 621.5,-603 566.5,-603"/>
<text text-anchor="middle" x="594" y="-610" font-family="Helvetica,sans-Serif" font-size="10.00">std::rand</text>
</a>
</g>
</g>
<!-- Node15&#45;&gt;Node17 -->
<g id="edge23" class="edge">
<title>Node15&#45;&gt;Node17</title>
<path fill="none" stroke="midnightblue" d="M490.55,-590.43C512.62,-595.19 536.93,-600.42 556.34,-604.6"/>
<polygon fill="midnightblue" stroke="midnightblue" points="555.77,-608.06 566.28,-606.74 557.24,-601.22 555.77,-608.06"/>
</g>
<!-- Node18 -->
<g id="node18" class="node">
<title>Node18</title>
<g id="a_node18"><a target="_blank" xlink:href="http://en.cppreference.com/w/cpp/numeric/random/srand.html#" xlink:title=" ">
<polygon fill="white" stroke="black" points="564,-565 564,-584 624,-584 624,-565 564,-565"/>
<text text-anchor="middle" x="594" y="-572" font-family="Helvetica,sans-Serif" font-size="10.00">std::srand</text>
</a>
</g>
</g>
<!-- Node15&#45;&gt;Node18 -->
<g id="edge24" class="edge">
<title>Node15&#45;&gt;Node18</title>
<path fill="none" stroke="midnightblue" d="M490.55,-576.39C511.6,-576 534.7,-575.58 553.62,-575.23"/>
<polygon fill="midnightblue" stroke="midnightblue" points="553.74,-578.73 563.67,-575.04 553.61,-571.73 553.74,-578.73"/>
</g>
<!-- Node19 -->
<g id="node19" class="node">
<title>Node19</title>
<g id="a_node19"><a target="_blank" xlink:href="http://en.cppreference.com/w/cpp/algorithm/swap.html#" xlink:title=" ">
<polygon fill="white" stroke="black" points="564.5,-527 564.5,-546 623.5,-546 623.5,-527 564.5,-527"/>
<text text-anchor="middle" x="594" y="-534" font-family="Helvetica,sans-Serif" font-size="10.00">std::swap</text>
</a>
</g>
</g>
<!-- Node15&#45;&gt;Node19 -->
<g id="edge25" class="edge">
<title>Node15&#45;&gt;Node19</title>
<path fill="none" stroke="midnightblue" d="M490.09,-562.47C511.59,-557.04 535.27,-551.07 554.49,-546.22"/>
<polygon fill="midnightblue" stroke="midnightblue" points="555.54,-549.56 564.38,-543.72 553.83,-542.77 555.54,-549.56"/>
</g>
<!-- Node20&#45;&gt;Node6 -->
<g id="edge29" class="edge">
<title>Node20&#45;&gt;Node6</title>
<path fill="none" stroke="midnightblue" d="M481.15,-428.63C487.72,-431.47 494.18,-434.75 500,-438.5 519.29,-450.92 516.57,-463.3 536,-475.5 542.44,-479.54 549.83,-482.82 557.11,-485.45"/>
<polygon fill="midnightblue" stroke="midnightblue" points="556.28,-488.85 566.87,-488.63 558.45,-482.2 556.28,-488.85"/>
</g>
<!-- Node20&#45;&gt;Node7 -->
<g id="edge30" class="edge">
<title>Node20&#45;&gt;Node7</title>
<path fill="none" stroke="midnightblue" d="M487.33,-428.54C510.82,-434.75 537.31,-441.76 557.89,-447.21"/>
<polygon fill="midnightblue" stroke="midnightblue" points="557.21,-450.65 567.78,-449.83 559,-443.88 557.21,-450.65"/>
</g>
<!-- Node20&#45;&gt;Node8 -->
<g id="edge31" class="edge">
<title>Node20&#45;&gt;Node8</title>
<path fill="none" stroke="midnightblue" d="M488.71,-398.46C501.48,-395.15 515.08,-391.64 528.1,-388.27"/>
<polygon fill="midnightblue" stroke="midnightblue" points="529.11,-391.63 537.91,-385.74 527.36,-384.85 529.11,-391.63"/>
</g>
<!-- Node20&#45;&gt;Node9 -->
<g id="edge32" class="edge">
<title>Node20&#45;&gt;Node9</title>
<path fill="none" stroke="midnightblue" d="M500.36,-414.36C508.8,-414.46 517.4,-414.57 525.8,-414.67"/>
<polygon fill="midnightblue" stroke="midnightblue" points="525.88,-418.17 535.92,-414.8 525.97,-411.17 525.88,-418.17"/>
</g>
<!-- Node27&#45;&gt;Node8 -->
<g id="edge41" class="edge">
<title>Node27&#45;&gt;Node8</title>
<path fill="none" stroke="midnightblue" d="M500.36,-370.36C509.48,-370.47 518.8,-370.59 527.85,-370.7"/>
<polygon fill="midnightblue" stroke="midnightblue" points="527.87,-374.2 537.91,-370.82 527.96,-367.2 527.87,-374.2"/>
</g>
<!-- Node27&#45;&gt;Node9 -->
<g id="edge42" class="edge">
<title>Node27&#45;&gt;Node9</title>
<path fill="none" stroke="midnightblue" d="M464.17,-379.03C488.9,-386.03 522.71,-395.6 549.49,-403.18"/>
<polygon fill="midnightblue" stroke="midnightblue" points="548.8,-406.62 559.37,-405.98 550.7,-399.89 548.8,-406.62"/>
</g>
</g>
</svg>
