<?xml version="1.0" encoding="UTF-8" standalone="no"?>
<!DOCTYPE svg PUBLIC "-//W3C//DTD SVG 1.1//EN"
 "http://www.w3.org/Graphics/SVG/1.1/DTD/svg11.dtd">
<!-- Generated by graphviz version 2.47.3 (20210619.1520)
 -->
<!-- Title: test Pages: 1 -->
<svg width="218pt" height="78pt"
 viewBox="0.00 0.00 218.00 77.50" xmlns="http://www.w3.org/2000/svg" xmlns:xlink="http://www.w3.org/1999/xlink">
<g id="graph0" class="graph" transform="scale(1 1) rotate(0) translate(4 73.5)">
<title>test</title>
<polygon fill="white" stroke="transparent" points="-4,4 -4,-73.5 214,-73.5 214,4 -4,4"/>
<!-- Node1 -->
<g id="node1" class="node">
<title>Node1</title>
<g id="a_node1"><a xlink:title=" ">
<polygon fill="#bfbfbf" stroke="black" points="0,-22.5 0,-41.5 33,-41.5 33,-22.5 0,-22.5"/>
<text text-anchor="middle" x="16.5" y="-29.5" font-family="Helvetica,sans-Serif" font-size="10.00">test</text>
</a>
</g>
</g>
<!-- Node2 -->
<g id="node2" class="node">
<title>Node2</title>
<g id="a_node2"><a xlink:href="../../d4/dde/classgeometry_1_1jarvis_1_1_convexhull.html#a878952f2eb3d1fae79d58c994fc10ab1" target="_top" xlink:title=" ">
<polygon fill="white" stroke="black" points="69,-39 69,-69 210,-69 210,-39 69,-39"/>
<text text-anchor="start" x="77" y="-57" font-family="Helvetica,sans-Serif" font-size="10.00">geometry::jarvis::Convexhull</text>
<text text-anchor="middle" x="139.5" y="-46" font-family="Helvetica,sans-Serif" font-size="10.00">::getConvexHull</text>
</a>
</g>
</g>
<!-- Node1&#45;&gt;Node2 -->
<g id="edge1" class="edge">
<title>Node1&#45;&gt;Node2</title>
<path fill="none" stroke="midnightblue" d="M33.32,-34.88C40.43,-36.17 49.4,-37.8 59.09,-39.56"/>
<polygon fill="midnightblue" stroke="midnightblue" points="58.51,-43.01 68.98,-41.36 59.77,-36.13 58.51,-43.01"/>
</g>
<!-- Node3 -->
<g id="node3" class="node">
<title>Node3</title>
<g id="a_node3"><a target="_blank" xlink:href="http://en.cppreference.com/w/cpp/container/vector/size.html#" xlink:title=" ">
<polygon fill="white" stroke="black" points="96,-0.5 96,-19.5 183,-19.5 183,-0.5 96,-0.5"/>
<text text-anchor="middle" x="139.5" y="-7.5" font-family="Helvetica,sans-Serif" font-size="10.00">std::vector::size</text>
</a>
</g>
</g>
<!-- Node1&#45;&gt;Node3 -->
<g id="edge2" class="edge">
<title>Node1&#45;&gt;Node3</title>
<path fill="none" stroke="midnightblue" d="M33.32,-29.12C46.73,-26.69 66.76,-23.04 85.76,-19.59"/>
<polygon fill="midnightblue" stroke="midnightblue" points="86.64,-22.99 95.85,-17.75 85.39,-16.1 86.64,-22.99"/>
</g>
</g>
</svg>
