<?xml version="1.0" encoding="UTF-8" standalone="no"?>
<!DOCTYPE svg PUBLIC "-//W3C//DTD SVG 1.1//EN"
 "http://www.w3.org/Graphics/SVG/1.1/DTD/svg11.dtd">
<!-- Generated by graphviz version 2.44.0 (20200408.0750)
 -->
<!-- Title: main Pages: 1 -->
<svg width="159pt" height="256pt"
 viewBox="0.00 0.00 159.00 256.00" xmlns="http://www.w3.org/2000/svg" xmlns:xlink="http://www.w3.org/1999/xlink">
<g id="graph0" class="graph" transform="scale(1 1) rotate(0) translate(4 252)">
<title>main</title>
<polygon fill="white" stroke="transparent" points="-4,4 -4,-252 155,-252 155,4 -4,4"/>
<!-- Node1 -->
<g id="node1" class="node">
<title>Node1</title>
<g id="a_node1"><a xlink:title=" ">
<polygon fill="#bfbfbf" stroke="black" points="0,-114.5 0,-133.5 38,-133.5 38,-114.5 0,-114.5"/>
<text text-anchor="middle" x="19" y="-121.5" font-family="Helvetica,sans-Serif" font-size="10.00">main</text>
</a>
</g>
</g>
<!-- Node2 -->
<g id="node2" class="node">
<title>Node2</title>
<g id="a_node2"><a target="_blank" xlink:href="http://en.cppreference.com/w/cpp/chrono/c/clock.html#" xlink:title=" ">
<polygon fill="white" stroke="black" points="83,-228.5 83,-247.5 142,-247.5 142,-228.5 83,-228.5"/>
<text text-anchor="middle" x="112.5" y="-235.5" font-family="Helvetica,sans-Serif" font-size="10.00">std::clock</text>
</a>
</g>
</g>
<!-- Node1&#45;&gt;Node2 -->
<g id="edge1" class="edge">
<title>Node1&#45;&gt;Node2</title>
<path fill="none" stroke="midnightblue" d="M23.28,-133.55C30.08,-152.14 47.36,-193.61 74,-219 75.47,-220.4 77.05,-221.72 78.72,-222.95"/>
<polygon fill="midnightblue" stroke="midnightblue" points="77.19,-226.13 87.52,-228.5 80.92,-220.2 77.19,-226.13"/>
</g>
<!-- Node3 -->
<g id="node3" class="node">
<title>Node3</title>
<g id="a_node3"><a xlink:href="../../d4/def/kohonen__som__topology_8cpp.html#a2256c10b16edba377b64a44b6c656908" target="_top" xlink:title=" ">
<polygon fill="white" stroke="black" points="74,-190.5 74,-209.5 151,-209.5 151,-190.5 74,-190.5"/>
<text text-anchor="middle" x="112.5" y="-197.5" font-family="Helvetica,sans-Serif" font-size="10.00">get_clock_diff</text>
</a>
</g>
</g>
<!-- Node1&#45;&gt;Node3 -->
<g id="edge2" class="edge">
<title>Node1&#45;&gt;Node3</title>
<path fill="none" stroke="midnightblue" d="M27.56,-133.86C37.29,-146.07 55.2,-166.99 74,-181 76.05,-182.53 78.24,-183.99 80.49,-185.38"/>
<polygon fill="midnightblue" stroke="midnightblue" points="78.9,-188.51 89.33,-190.36 82.33,-182.4 78.9,-188.51"/>
</g>
<!-- Node4 -->
<g id="node4" class="node">
<title>Node4</title>
<g id="a_node4"><a target="_blank" xlink:href="http://en.cppreference.com/w/cpp/numeric/random/srand.html#" xlink:title=" ">
<polygon fill="white" stroke="black" points="82.5,-152.5 82.5,-171.5 142.5,-171.5 142.5,-152.5 82.5,-152.5"/>
<text text-anchor="middle" x="112.5" y="-159.5" font-family="Helvetica,sans-Serif" font-size="10.00">std::srand</text>
</a>
</g>
</g>
<!-- Node1&#45;&gt;Node4 -->
<g id="edge3" class="edge">
<title>Node1&#45;&gt;Node4</title>
<path fill="none" stroke="midnightblue" d="M38.08,-131.51C49.73,-136.35 65.21,-142.78 78.96,-148.49"/>
<polygon fill="midnightblue" stroke="midnightblue" points="78,-151.88 88.58,-152.48 80.69,-145.41 78,-151.88"/>
</g>
<!-- Node5 -->
<g id="node5" class="node">
<title>Node5</title>
<g id="a_node5"><a xlink:href="../../d4/def/kohonen__som__topology_8cpp.html#a1440a7779ac56f47a3f355ce4a8c7da0" target="_top" xlink:title=" ">
<polygon fill="white" stroke="black" points="93.5,-114.5 93.5,-133.5 131.5,-133.5 131.5,-114.5 93.5,-114.5"/>
<text text-anchor="middle" x="112.5" y="-121.5" font-family="Helvetica,sans-Serif" font-size="10.00">test1</text>
</a>
</g>
</g>
<!-- Node1&#45;&gt;Node5 -->
<g id="edge4" class="edge">
<title>Node1&#45;&gt;Node5</title>
<path fill="none" stroke="midnightblue" d="M38.08,-124C50.99,-124 68.6,-124 83.34,-124"/>
<polygon fill="midnightblue" stroke="midnightblue" points="83.46,-127.5 93.46,-124 83.46,-120.5 83.46,-127.5"/>
</g>
<!-- Node6 -->
<g id="node6" class="node">
<title>Node6</title>
<g id="a_node6"><a xlink:href="../../d4/def/kohonen__som__topology_8cpp.html#a0283886819c7c140a023582b7269e2d0" target="_top" xlink:title=" ">
<polygon fill="white" stroke="black" points="93.5,-76.5 93.5,-95.5 131.5,-95.5 131.5,-76.5 93.5,-76.5"/>
<text text-anchor="middle" x="112.5" y="-83.5" font-family="Helvetica,sans-Serif" font-size="10.00">test2</text>
</a>
</g>
</g>
<!-- Node1&#45;&gt;Node6 -->
<g id="edge5" class="edge">
<title>Node1&#45;&gt;Node6</title>
<path fill="none" stroke="midnightblue" d="M38.08,-116.49C51.24,-111.03 69.29,-103.53 84.2,-97.34"/>
<polygon fill="midnightblue" stroke="midnightblue" points="85.57,-100.56 93.46,-93.49 82.88,-94.1 85.57,-100.56"/>
</g>
<!-- Node7 -->
<g id="node7" class="node">
<title>Node7</title>
<g id="a_node7"><a xlink:href="../../d4/def/kohonen__som__topology_8cpp.html#a6d0455dd5c30adda100e95f0423c786e" target="_top" xlink:title=" ">
<polygon fill="white" stroke="black" points="93.5,-38.5 93.5,-57.5 131.5,-57.5 131.5,-38.5 93.5,-38.5"/>
<text text-anchor="middle" x="112.5" y="-45.5" font-family="Helvetica,sans-Serif" font-size="10.00">test3</text>
</a>
</g>
</g>
<!-- Node1&#45;&gt;Node7 -->
<g id="edge6" class="edge">
<title>Node1&#45;&gt;Node7</title>
<path fill="none" stroke="midnightblue" d="M27.56,-114.14C37.29,-101.93 55.2,-81.01 74,-67 77.2,-64.61 80.74,-62.38 84.34,-60.34"/>
<polygon fill="midnightblue" stroke="midnightblue" points="85.97,-63.44 93.21,-55.71 82.73,-57.24 85.97,-63.44"/>
</g>
<!-- Node8 -->
<g id="node8" class="node">
<title>Node8</title>
<g id="a_node8"><a target="_blank" xlink:href="http://en.cppreference.com/w/cpp/chrono/c/time.html#" xlink:title=" ">
<polygon fill="white" stroke="black" points="85,-0.5 85,-19.5 140,-19.5 140,-0.5 85,-0.5"/>
<text text-anchor="middle" x="112.5" y="-7.5" font-family="Helvetica,sans-Serif" font-size="10.00">std::time</text>
</a>
</g>
</g>
<!-- Node1&#45;&gt;Node8 -->
<g id="edge7" class="edge">
<title>Node1&#45;&gt;Node8</title>
<path fill="none" stroke="midnightblue" d="M23.28,-114.45C30.08,-95.86 47.36,-54.39 74,-29 75.47,-27.6 77.05,-26.28 78.72,-25.05"/>
<polygon fill="midnightblue" stroke="midnightblue" points="80.92,-27.8 87.52,-19.5 77.19,-21.87 80.92,-27.8"/>
</g>
</g>
</svg>
