<?xml version="1.0" encoding="UTF-8" standalone="no"?>
<!DOCTYPE svg PUBLIC "-//W3C//DTD SVG 1.1//EN"
 "http://www.w3.org/Graphics/SVG/1.1/DTD/svg11.dtd">
<!-- Generated by graphviz version 2.44.0 (20200408.0750)
 -->
<!-- Title: ciphers::HillCipher::generate_keys Pages: 1 -->
<svg width="678pt" height="394pt"
 viewBox="0.00 0.00 678.00 393.50" xmlns="http://www.w3.org/2000/svg" xmlns:xlink="http://www.w3.org/1999/xlink">
<g id="graph0" class="graph" transform="scale(1 1) rotate(0) translate(4 389.5)">
<title>ciphers::HillCipher::generate_keys</title>
<polygon fill="white" stroke="transparent" points="-4,4 -4,-389.5 674,-389.5 674,4 -4,4"/>
<!-- Node1 -->
<g id="node1" class="node">
<title>Node1</title>
<g id="a_node1"><a xlink:title="Generate encryption and decryption key pair.">
<polygon fill="#bfbfbf" stroke="black" points="0,-161.5 0,-191.5 97,-191.5 97,-161.5 0,-161.5"/>
<text text-anchor="start" x="8" y="-179.5" font-family="Helvetica,sans-Serif" font-size="10.00">ciphers::HillCipher</text>
<text text-anchor="middle" x="48.5" y="-168.5" font-family="Helvetica,sans-Serif" font-size="10.00">::generate_keys</text>
</a>
</g>
</g>
<!-- Node2 -->
<g id="node2" class="node">
<title>Node2</title>
<g id="a_node2"><a xlink:href="../../d1/dbe/lu__decomposition_8h.html#a3108d43bd32c6fb3b3c158476c51ba7f" target="_top" xlink:title=" ">
<polygon fill="white" stroke="black" points="319.5,-328 319.5,-347 399.5,-347 399.5,-328 319.5,-328"/>
<text text-anchor="middle" x="359.5" y="-335" font-family="Helvetica,sans-Serif" font-size="10.00">determinant_lu</text>
</a>
</g>
</g>
<!-- Node1&#45;&gt;Node2 -->
<g id="edge1" class="edge">
<title>Node1&#45;&gt;Node2</title>
<path fill="none" stroke="midnightblue" d="M65.8,-191.56C81.97,-205.95 107.89,-227.6 133,-242.5 194.61,-279.05 272.9,-308.67 319.16,-324.63"/>
<polygon fill="midnightblue" stroke="midnightblue" points="318.21,-328 328.8,-327.92 320.47,-321.38 318.21,-328"/>
</g>
<!-- Node5 -->
<g id="node5" class="node">
<title>Node5</title>
<g id="a_node5"><a xlink:href="../../d6/d26/classciphers_1_1_hill_cipher.html#abb2c4dc2b8a59d3dfe0fa22c2adc086b" target="_top" xlink:title="Generate decryption matrix from an encryption matrix key.">
<polygon fill="white" stroke="black" points="133,-202.5 133,-232.5 264,-232.5 264,-202.5 133,-202.5"/>
<text text-anchor="start" x="141" y="-220.5" font-family="Helvetica,sans-Serif" font-size="10.00">ciphers::HillCipher</text>
<text text-anchor="middle" x="198.5" y="-209.5" font-family="Helvetica,sans-Serif" font-size="10.00">::generate_decryption_key</text>
</a>
</g>
</g>
<!-- Node1&#45;&gt;Node5 -->
<g id="edge5" class="edge">
<title>Node1&#45;&gt;Node5</title>
<path fill="none" stroke="midnightblue" d="M97.14,-189.7C108.74,-192.91 121.34,-196.4 133.56,-199.79"/>
<polygon fill="midnightblue" stroke="midnightblue" points="132.69,-203.18 143.26,-202.47 134.56,-196.43 132.69,-203.18"/>
</g>
<!-- Node10 -->
<g id="node10" class="node">
<title>Node10</title>
<g id="a_node10"><a xlink:href="../../d6/d26/classciphers_1_1_hill_cipher.html#a7ca10cd1a0e8e3732391e0427d2d0213" target="_top" xlink:title="Generate encryption matrix of a given size. Larger size matrices are difficult to generate but provid...">
<polygon fill="white" stroke="black" points="133,-101.5 133,-131.5 264,-131.5 264,-101.5 133,-101.5"/>
<text text-anchor="start" x="141" y="-119.5" font-family="Helvetica,sans-Serif" font-size="10.00">ciphers::HillCipher</text>
<text text-anchor="middle" x="198.5" y="-108.5" font-family="Helvetica,sans-Serif" font-size="10.00">::generate_encryption_key</text>
</a>
</g>
</g>
<!-- Node1&#45;&gt;Node10 -->
<g id="edge12" class="edge">
<title>Node1&#45;&gt;Node10</title>
<path fill="none" stroke="midnightblue" d="M86.85,-161.36C106.29,-153.48 130.25,-143.76 150.89,-135.39"/>
<polygon fill="midnightblue" stroke="midnightblue" points="152.47,-138.53 160.42,-131.53 149.84,-132.05 152.47,-138.53"/>
</g>
<!-- Node14 -->
<g id="node14" class="node">
<title>Node14</title>
<g id="a_node14"><a target="_blank" xlink:href="http://en.cppreference.com/w/cpp/utility/pair/make_pair.html#" xlink:title=" ">
<polygon fill="white" stroke="black" points="158,-63 158,-82 239,-82 239,-63 158,-63"/>
<text text-anchor="middle" x="198.5" y="-70" font-family="Helvetica,sans-Serif" font-size="10.00">std::make_pair</text>
</a>
</g>
</g>
<!-- Node1&#45;&gt;Node14 -->
<g id="edge17" class="edge">
<title>Node1&#45;&gt;Node14</title>
<path fill="none" stroke="midnightblue" d="M60.8,-161.22C75.45,-142.44 102.75,-110.82 133,-92.5 137.76,-89.62 142.98,-87.11 148.32,-84.95"/>
<polygon fill="midnightblue" stroke="midnightblue" points="149.79,-88.14 157.98,-81.41 147.39,-81.56 149.79,-88.14"/>
</g>
<!-- Node3 -->
<g id="node3" class="node">
<title>Node3</title>
<g id="a_node3"><a xlink:href="../../d1/dbe/lu__decomposition_8h.html#a75b8a228c6419ecda6077255d6d60509" target="_top" xlink:title=" ">
<polygon fill="white" stroke="black" points="455,-366 455,-385 547,-385 547,-366 455,-366"/>
<text text-anchor="middle" x="501" y="-373" font-family="Helvetica,sans-Serif" font-size="10.00">lu_decomposition</text>
</a>
</g>
</g>
<!-- Node2&#45;&gt;Node3 -->
<g id="edge2" class="edge">
<title>Node2&#45;&gt;Node3</title>
<path fill="none" stroke="midnightblue" d="M395.7,-347.09C413.71,-351.99 435.83,-358.02 455.06,-363.26"/>
<polygon fill="midnightblue" stroke="midnightblue" points="454.24,-366.66 464.81,-365.91 456.08,-359.91 454.24,-366.66"/>
</g>
<!-- Node4 -->
<g id="node4" class="node">
<title>Node4</title>
<g id="a_node4"><a target="_blank" xlink:href="http://en.cppreference.com/w/cpp/container/vector/size.html#" xlink:title=" ">
<polygon fill="white" stroke="black" points="583,-328 583,-347 670,-347 670,-328 583,-328"/>
<text text-anchor="middle" x="626.5" y="-335" font-family="Helvetica,sans-Serif" font-size="10.00">std::vector::size</text>
</a>
</g>
</g>
<!-- Node2&#45;&gt;Node4 -->
<g id="edge4" class="edge">
<title>Node2&#45;&gt;Node4</title>
<path fill="none" stroke="midnightblue" d="M399.6,-337.5C445.4,-337.5 521.48,-337.5 572.54,-337.5"/>
<polygon fill="midnightblue" stroke="midnightblue" points="572.72,-341 582.72,-337.5 572.72,-334 572.72,-341"/>
</g>
<!-- Node3&#45;&gt;Node4 -->
<g id="edge3" class="edge">
<title>Node3&#45;&gt;Node4</title>
<path fill="none" stroke="midnightblue" d="M533.16,-365.91C548.81,-361.1 567.97,-355.2 584.77,-350.03"/>
<polygon fill="midnightblue" stroke="midnightblue" points="585.82,-353.37 594.35,-347.09 583.76,-346.68 585.82,-353.37"/>
</g>
<!-- Node5&#45;&gt;Node2 -->
<g id="edge6" class="edge">
<title>Node5&#45;&gt;Node2</title>
<path fill="none" stroke="midnightblue" d="M214.08,-232.75C237.13,-256.62 281.28,-301.34 300,-313.5 306.14,-317.49 313.05,-321.03 319.91,-324.08"/>
<polygon fill="midnightblue" stroke="midnightblue" points="318.59,-327.32 329.17,-327.94 321.28,-320.86 318.59,-327.32"/>
</g>
<!-- Node5&#45;&gt;Node4 -->
<g id="edge10" class="edge">
<title>Node5&#45;&gt;Node4</title>
<path fill="none" stroke="midnightblue" d="M253.7,-232.63C257.3,-234.39 260.77,-236.34 264,-238.5 284.45,-252.15 278.64,-268.33 300,-280.5 345.62,-306.49 492.4,-324.45 572.36,-332.58"/>
<polygon fill="midnightblue" stroke="midnightblue" points="572.41,-336.1 582.71,-333.62 573.11,-329.14 572.41,-336.1"/>
</g>
<!-- Node6 -->
<g id="node6" class="node">
<title>Node6</title>
<g id="a_node6"><a target="_blank" xlink:href="http://en.cppreference.com/w/cpp/utility/program/exit.html#" xlink:title=" ">
<polygon fill="white" stroke="black" points="333.5,-252 333.5,-271 385.5,-271 385.5,-252 333.5,-252"/>
<text text-anchor="middle" x="359.5" y="-259" font-family="Helvetica,sans-Serif" font-size="10.00">std::exit</text>
</a>
</g>
</g>
<!-- Node5&#45;&gt;Node6 -->
<g id="edge7" class="edge">
<title>Node5&#45;&gt;Node6</title>
<path fill="none" stroke="midnightblue" d="M253.77,-232.52C276.86,-238.91 303.12,-246.17 323.56,-251.83"/>
<polygon fill="midnightblue" stroke="midnightblue" points="322.81,-255.26 333.39,-254.55 324.68,-248.51 322.81,-255.26"/>
</g>
<!-- Node7 -->
<g id="node7" class="node">
<title>Node7</title>
<g id="a_node7"><a xlink:href="../../d6/d26/classciphers_1_1_hill_cipher.html#a5a4cdbd4d4dad9efe2ed309bd466dd4b" target="_top" xlink:title=" ">
<polygon fill="white" stroke="black" points="311,-202.5 311,-232.5 408,-232.5 408,-202.5 311,-202.5"/>
<text text-anchor="start" x="319" y="-220.5" font-family="Helvetica,sans-Serif" font-size="10.00">ciphers::HillCipher</text>
<text text-anchor="middle" x="359.5" y="-209.5" font-family="Helvetica,sans-Serif" font-size="10.00">::get_inverse</text>
</a>
</g>
</g>
<!-- Node5&#45;&gt;Node7 -->
<g id="edge8" class="edge">
<title>Node5&#45;&gt;Node7</title>
<path fill="none" stroke="midnightblue" d="M264.17,-217.5C276.27,-217.5 288.85,-217.5 300.73,-217.5"/>
<polygon fill="midnightblue" stroke="midnightblue" points="300.96,-221 310.96,-217.5 300.96,-214 300.96,-221"/>
</g>
<!-- Node8 -->
<g id="node8" class="node">
<title>Node8</title>
<g id="a_node8"><a target="_blank" xlink:href="http://en.cppreference.com/w/cpp/numeric/math/round.html#" xlink:title=" ">
<polygon fill="white" stroke="black" points="329.5,-164 329.5,-183 389.5,-183 389.5,-164 329.5,-164"/>
<text text-anchor="middle" x="359.5" y="-171" font-family="Helvetica,sans-Serif" font-size="10.00">std::round</text>
</a>
</g>
</g>
<!-- Node5&#45;&gt;Node8 -->
<g id="edge9" class="edge">
<title>Node5&#45;&gt;Node8</title>
<path fill="none" stroke="midnightblue" d="M253.77,-202.48C275.38,-196.5 299.75,-189.76 319.55,-184.28"/>
<polygon fill="midnightblue" stroke="midnightblue" points="320.74,-187.58 329.45,-181.54 318.87,-180.83 320.74,-187.58"/>
</g>
<!-- Node9 -->
<g id="node9" class="node">
<title>Node9</title>
<g id="a_node9"><a target="_blank" xlink:href="http://en.cppreference.com/w/cpp/string/byte/strlen.html#" xlink:title=" ">
<polygon fill="white" stroke="black" points="329.5,-126 329.5,-145 389.5,-145 389.5,-126 329.5,-126"/>
<text text-anchor="middle" x="359.5" y="-133" font-family="Helvetica,sans-Serif" font-size="10.00">std::strlen</text>
</a>
</g>
</g>
<!-- Node5&#45;&gt;Node9 -->
<g id="edge11" class="edge">
<title>Node5&#45;&gt;Node9</title>
<path fill="none" stroke="midnightblue" d="M220.2,-202.39C239.94,-188.52 270.89,-168.1 300,-154.5 306.24,-151.59 313.05,-148.93 319.75,-146.6"/>
<polygon fill="midnightblue" stroke="midnightblue" points="321,-149.87 329.39,-143.4 318.8,-143.22 321,-149.87"/>
</g>
<!-- Node10&#45;&gt;Node9 -->
<g id="edge16" class="edge">
<title>Node10&#45;&gt;Node9</title>
<path fill="none" stroke="midnightblue" d="M264.17,-124.23C282.65,-126.44 302.24,-128.78 318.74,-130.75"/>
<polygon fill="midnightblue" stroke="midnightblue" points="318.76,-134.28 329.11,-131.99 319.59,-127.33 318.76,-134.28"/>
</g>
<!-- Node11 -->
<g id="node11" class="node">
<title>Node11</title>
<g id="a_node11"><a xlink:href="../../d6/d26/classciphers_1_1_hill_cipher.html#a7760f3665651a0a37937c79c62f219c0" target="_top" xlink:title="Compute GCD of two integers using Euler&#39;s algorithm.">
<polygon fill="white" stroke="black" points="300,-88 300,-107 419,-107 419,-88 300,-88"/>
<text text-anchor="middle" x="359.5" y="-95" font-family="Helvetica,sans-Serif" font-size="10.00">ciphers::HillCipher::gcd</text>
</a>
</g>
</g>
<!-- Node10&#45;&gt;Node11 -->
<g id="edge13" class="edge">
<title>Node10&#45;&gt;Node11</title>
<path fill="none" stroke="midnightblue" d="M264.17,-108.77C272.55,-107.77 281.15,-106.74 289.59,-105.73"/>
<polygon fill="midnightblue" stroke="midnightblue" points="290.26,-109.18 299.77,-104.52 289.43,-102.23 290.26,-109.18"/>
</g>
<!-- Node12 -->
<g id="node12" class="node">
<title>Node12</title>
<g id="a_node12"><a target="_blank" xlink:href="http://en.cppreference.com/w/cpp/numeric/math/isfinite.html#" xlink:title=" ">
<polygon fill="white" stroke="black" points="327,-50 327,-69 392,-69 392,-50 327,-50"/>
<text text-anchor="middle" x="359.5" y="-57" font-family="Helvetica,sans-Serif" font-size="10.00">std::isfinite</text>
</a>
</g>
</g>
<!-- Node10&#45;&gt;Node12 -->
<g id="edge14" class="edge">
<title>Node10&#45;&gt;Node12</title>
<path fill="none" stroke="midnightblue" d="M238,-101.45C256.65,-94.29 279.41,-85.73 300,-78.5 305.95,-76.41 312.27,-74.27 318.47,-72.22"/>
<polygon fill="midnightblue" stroke="midnightblue" points="319.63,-75.53 328.05,-69.09 317.45,-68.87 319.63,-75.53"/>
</g>
<!-- Node13 -->
<g id="node13" class="node">
<title>Node13</title>
<g id="a_node13"><a xlink:href="../../d6/d26/classciphers_1_1_hill_cipher.html#a629be41c1ab78850963e4ce14e1d11d9" target="_top" xlink:title="Function to generate a random integer in a given interval.">
<polygon fill="white" stroke="black" points="311,-0.5 311,-30.5 408,-30.5 408,-0.5 311,-0.5"/>
<text text-anchor="start" x="319" y="-18.5" font-family="Helvetica,sans-Serif" font-size="10.00">ciphers::HillCipher</text>
<text text-anchor="middle" x="359.5" y="-7.5" font-family="Helvetica,sans-Serif" font-size="10.00">::rand_range</text>
</a>
</g>
</g>
<!-- Node10&#45;&gt;Node13 -->
<g id="edge15" class="edge">
<title>Node10&#45;&gt;Node13</title>
<path fill="none" stroke="midnightblue" d="M247.72,-101.5C253.49,-98.66 259.08,-95.34 264,-91.5 285.87,-74.42 278.43,-57.95 300,-40.5 302.03,-38.86 304.18,-37.31 306.42,-35.84"/>
<polygon fill="midnightblue" stroke="midnightblue" points="308.49,-38.69 315.37,-30.63 304.97,-32.64 308.49,-38.69"/>
</g>
</g>
</svg>
