<?xml version="1.0" encoding="UTF-8" standalone="no"?>
<!DOCTYPE svg PUBLIC "-//W3C//DTD SVG 1.1//EN"
 "http://www.w3.org/Graphics/SVG/1.1/DTD/svg11.dtd">
<!-- Generated by graphviz version 2.44.0 (20200408.0750)
 -->
<!-- Title: ciphers::HillCipher::generate_decryption_key Pages: 1 -->
<svg width="523pt" height="268pt"
 viewBox="0.00 0.00 523.00 268.00" xmlns="http://www.w3.org/2000/svg" xmlns:xlink="http://www.w3.org/1999/xlink">
<g id="graph0" class="graph" transform="scale(1 1) rotate(0) translate(4 264)">
<title>ciphers::HillCipher::generate_decryption_key</title>
<polygon fill="white" stroke="transparent" points="-4,4 -4,-264 519,-264 519,4 -4,4"/>
<!-- Node1 -->
<g id="node1" class="node">
<title>Node1</title>
<g id="a_node1"><a xlink:title="Generate decryption matrix from an encryption matrix key.">
<polygon fill="#bfbfbf" stroke="black" points="0,-99 0,-129 131,-129 131,-99 0,-99"/>
<text text-anchor="start" x="8" y="-117" font-family="Helvetica,sans-Serif" font-size="10.00">ciphers::HillCipher</text>
<text text-anchor="middle" x="65.5" y="-106" font-family="Helvetica,sans-Serif" font-size="10.00">::generate_decryption_key</text>
</a>
</g>
</g>
<!-- Node2 -->
<g id="node2" class="node">
<title>Node2</title>
<g id="a_node2"><a xlink:href="../../d1/dbe/lu__decomposition_8h.html#a3108d43bd32c6fb3b3c158476c51ba7f" target="_top" xlink:title=" ">
<polygon fill="white" stroke="black" points="175.5,-202.5 175.5,-221.5 255.5,-221.5 255.5,-202.5 175.5,-202.5"/>
<text text-anchor="middle" x="215.5" y="-209.5" font-family="Helvetica,sans-Serif" font-size="10.00">determinant_lu</text>
</a>
</g>
</g>
<!-- Node1&#45;&gt;Node2 -->
<g id="edge1" class="edge">
<title>Node1&#45;&gt;Node2</title>
<path fill="none" stroke="midnightblue" d="M85.1,-129.17C104.8,-144.87 137.1,-169.62 167,-188 172.58,-191.43 178.71,-194.8 184.66,-197.88"/>
<polygon fill="midnightblue" stroke="midnightblue" points="183.25,-201.09 193.75,-202.45 186.39,-194.83 183.25,-201.09"/>
</g>
<!-- Node4 -->
<g id="node4" class="node">
<title>Node4</title>
<g id="a_node4"><a target="_blank" xlink:href="http://en.cppreference.com/w/cpp/container/vector/size.html#" xlink:title=" ">
<polygon fill="white" stroke="black" points="428,-202.5 428,-221.5 515,-221.5 515,-202.5 428,-202.5"/>
<text text-anchor="middle" x="471.5" y="-209.5" font-family="Helvetica,sans-Serif" font-size="10.00">std::vector::size</text>
</a>
</g>
</g>
<!-- Node1&#45;&gt;Node4 -->
<g id="edge8" class="edge">
<title>Node1&#45;&gt;Node4</title>
<path fill="none" stroke="midnightblue" d="M98.94,-129.19C118.35,-137.77 143.68,-148.13 167,-155 253.17,-180.39 356.56,-196.96 417.71,-205.38"/>
<polygon fill="midnightblue" stroke="midnightblue" points="417.51,-208.89 427.89,-206.76 418.45,-201.95 417.51,-208.89"/>
</g>
<!-- Node5 -->
<g id="node5" class="node">
<title>Node5</title>
<g id="a_node5"><a target="_blank" xlink:href="http://en.cppreference.com/w/cpp/utility/program/exit.html#" xlink:title=" ">
<polygon fill="white" stroke="black" points="189.5,-126.5 189.5,-145.5 241.5,-145.5 241.5,-126.5 189.5,-126.5"/>
<text text-anchor="middle" x="215.5" y="-133.5" font-family="Helvetica,sans-Serif" font-size="10.00">std::exit</text>
</a>
</g>
</g>
<!-- Node1&#45;&gt;Node5 -->
<g id="edge5" class="edge">
<title>Node1&#45;&gt;Node5</title>
<path fill="none" stroke="midnightblue" d="M131.41,-123.65C147.91,-126.1 165.03,-128.65 179.4,-130.78"/>
<polygon fill="midnightblue" stroke="midnightblue" points="178.93,-134.25 189.34,-132.26 179.96,-127.33 178.93,-134.25"/>
</g>
<!-- Node6 -->
<g id="node6" class="node">
<title>Node6</title>
<g id="a_node6"><a xlink:href="../../d6/d26/classciphers_1_1_hill_cipher.html#a5a4cdbd4d4dad9efe2ed309bd466dd4b" target="_top" xlink:title=" ">
<polygon fill="white" stroke="black" points="167,-77 167,-107 264,-107 264,-77 167,-77"/>
<text text-anchor="start" x="175" y="-95" font-family="Helvetica,sans-Serif" font-size="10.00">ciphers::HillCipher</text>
<text text-anchor="middle" x="215.5" y="-84" font-family="Helvetica,sans-Serif" font-size="10.00">::get_inverse</text>
</a>
</g>
</g>
<!-- Node1&#45;&gt;Node6 -->
<g id="edge6" class="edge">
<title>Node1&#45;&gt;Node6</title>
<path fill="none" stroke="midnightblue" d="M131.41,-104.35C139.92,-103.09 148.58,-101.8 156.95,-100.55"/>
<polygon fill="midnightblue" stroke="midnightblue" points="157.61,-104 166.99,-99.06 156.58,-97.07 157.61,-104"/>
</g>
<!-- Node7 -->
<g id="node7" class="node">
<title>Node7</title>
<g id="a_node7"><a target="_blank" xlink:href="http://en.cppreference.com/w/cpp/numeric/math/round.html#" xlink:title=" ">
<polygon fill="white" stroke="black" points="185.5,-38.5 185.5,-57.5 245.5,-57.5 245.5,-38.5 185.5,-38.5"/>
<text text-anchor="middle" x="215.5" y="-45.5" font-family="Helvetica,sans-Serif" font-size="10.00">std::round</text>
</a>
</g>
</g>
<!-- Node1&#45;&gt;Node7 -->
<g id="edge7" class="edge">
<title>Node1&#45;&gt;Node7</title>
<path fill="none" stroke="midnightblue" d="M97.53,-98.93C117.29,-89.48 143.49,-77.19 167,-67 171.24,-65.16 175.72,-63.29 180.16,-61.46"/>
<polygon fill="midnightblue" stroke="midnightblue" points="181.78,-64.59 189.74,-57.6 179.15,-58.1 181.78,-64.59"/>
</g>
<!-- Node8 -->
<g id="node8" class="node">
<title>Node8</title>
<g id="a_node8"><a target="_blank" xlink:href="http://en.cppreference.com/w/cpp/string/byte/strlen.html#" xlink:title=" ">
<polygon fill="white" stroke="black" points="185.5,-0.5 185.5,-19.5 245.5,-19.5 245.5,-0.5 185.5,-0.5"/>
<text text-anchor="middle" x="215.5" y="-7.5" font-family="Helvetica,sans-Serif" font-size="10.00">std::strlen</text>
</a>
</g>
</g>
<!-- Node1&#45;&gt;Node8 -->
<g id="edge9" class="edge">
<title>Node1&#45;&gt;Node8</title>
<path fill="none" stroke="midnightblue" d="M81.3,-98.77C99.92,-80.3 133.51,-49.13 167,-29 170.15,-27.1 173.53,-25.32 176.98,-23.67"/>
<polygon fill="midnightblue" stroke="midnightblue" points="178.43,-26.86 186.15,-19.61 175.59,-20.46 178.43,-26.86"/>
</g>
<!-- Node3 -->
<g id="node3" class="node">
<title>Node3</title>
<g id="a_node3"><a xlink:href="../../d1/dbe/lu__decomposition_8h.html#a75b8a228c6419ecda6077255d6d60509" target="_top" xlink:title=" ">
<polygon fill="white" stroke="black" points="300,-240.5 300,-259.5 392,-259.5 392,-240.5 300,-240.5"/>
<text text-anchor="middle" x="346" y="-247.5" font-family="Helvetica,sans-Serif" font-size="10.00">lu_decomposition</text>
</a>
</g>
</g>
<!-- Node2&#45;&gt;Node3 -->
<g id="edge2" class="edge">
<title>Node2&#45;&gt;Node3</title>
<path fill="none" stroke="midnightblue" d="M248.93,-221.59C265.21,-226.4 285.14,-232.3 302.62,-237.47"/>
<polygon fill="midnightblue" stroke="midnightblue" points="302,-240.93 312.58,-240.41 303.99,-234.22 302,-240.93"/>
</g>
<!-- Node2&#45;&gt;Node4 -->
<g id="edge4" class="edge">
<title>Node2&#45;&gt;Node4</title>
<path fill="none" stroke="midnightblue" d="M255.63,-212C299.06,-212 369.38,-212 417.68,-212"/>
<polygon fill="midnightblue" stroke="midnightblue" points="417.93,-215.5 427.93,-212 417.93,-208.5 417.93,-215.5"/>
</g>
<!-- Node3&#45;&gt;Node4 -->
<g id="edge3" class="edge">
<title>Node3&#45;&gt;Node4</title>
<path fill="none" stroke="midnightblue" d="M378.16,-240.41C393.81,-235.6 412.97,-229.7 429.77,-224.53"/>
<polygon fill="midnightblue" stroke="midnightblue" points="430.82,-227.87 439.35,-221.59 428.76,-221.18 430.82,-227.87"/>
</g>
</g>
</svg>
