<?xml version="1.0" encoding="UTF-8" standalone="no"?>
<!DOCTYPE svg PUBLIC "-//W3C//DTD SVG 1.1//EN"
 "http://www.w3.org/Graphics/SVG/1.1/DTD/svg11.dtd">
<!-- Generated by graphviz version 2.47.3 (20210619.1520)
 -->
<!-- Title: main Pages: 1 -->
<!--zoomable 329 -->
<svg id="main" version="1.1" xmlns="http://www.w3.org/2000/svg" xmlns:xlink="http://www.w3.org/1999/xlink" xml:space="preserve" onload="init(evt)">
<style type="text/css"><![CDATA[
.edge:hover path { stroke: red; }
.edge:hover polygon { stroke: red; fill: red; }
]]></style>
<script type="text/javascript"><![CDATA[
var edges = document.getElementsByTagName('g');
if (edges && edges.length) {
  for (var i=0;i<edges.length;i++) {
    if (edges[i].id.substr(0,4)=='edge') {
      edges[i].setAttribute('class','edge');
    }
  }
}
]]></script>
        <defs>
                <circle id="rim" cx="0" cy="0" r="7"/>
                <circle id="rim2" cx="0" cy="0" r="3.5"/>
                <g id="zoomPlus">
                        <use xlink:href="#rim" fill="#404040">
                                <set attributeName="fill" to="#808080" begin="zoomplus.mouseover" end="zoomplus.mouseout"/>
                        </use>
                        <path d="M-4,0h8M0,-4v8" fill="none" stroke="white" stroke-width="1.5" pointer-events="none"/>
                </g>
                <g id="zoomMin">
                        <use xlink:href="#rim" fill="#404040">
                                <set attributeName="fill" to="#808080" begin="zoomminus.mouseover" end="zoomminus.mouseout"/>
                        </use>
                        <path d="M-4,0h8" fill="none" stroke="white" stroke-width="1.5" pointer-events="none"/>
                </g>
                <g id="dirArrow">
                        <path fill="none" stroke="white" stroke-width="1.5" d="M0,-3.0v7 M-2.5,-0.5L0,-3.0L2.5,-0.5"/>
                </g>
               <g id="resetDef">
                       <use xlink:href="#rim2" fill="#404040">
                               <set attributeName="fill" to="#808080" begin="reset.mouseover" end="reset.mouseout"/>
                       </use>
               </g>
        </defs>

<script type="text/javascript">
var viewWidth = 695;
var viewHeight = 329;
var sectionId = 'dynsection-1';
</script>
<script xlink:href="../../svgpan.js"/>
<svg id="graph" class="graph">
<g id="viewport">
<title>main</title>
<polygon fill="white" stroke="transparent" points="-4,4 -4,-324.5 691,-324.5 691,4 -4,4"/>
<!-- Node1 -->
<g id="node1" class="node">
<title>Node1</title>
<g id="a_node1"><a xlink:title=" ">
<polygon fill="#bfbfbf" stroke="black" points="0,-167 0,-186 38,-186 38,-167 0,-167"/>
<text text-anchor="middle" x="19" y="-174" font-family="Helvetica,sans-Serif" font-size="10.00">main</text>
</a>
</g>
</g>
<!-- Node2 -->
<g id="node2" class="node">
<title>Node2</title>
<g id="a_node2"><a xlink:href="../../da/dd3/namespacespirograph.html#a8e83a64e8443fff1e5ffdc1c299c1e99" target="_top" xlink:title="Test function to save resulting points to a CSV file.">
<polygon fill="white" stroke="black" points="74,-186 74,-205 158,-205 158,-186 74,-186"/>
<text text-anchor="middle" x="116" y="-193" font-family="Helvetica,sans-Serif" font-size="10.00">spirograph::test</text>
</a>
</g>
</g>
<!-- Node1&#45;&gt;Node2 -->
<g id="edge1" class="edge">
<title>Node1&#45;&gt;Node2</title>
<path fill="none" stroke="midnightblue" d="M38.32,-180.16C45.76,-181.65 54.77,-183.45 63.95,-185.29"/>
<polygon fill="midnightblue" stroke="midnightblue" points="63.43,-188.75 73.92,-187.28 64.8,-181.89 63.43,-188.75"/>
</g>
<!-- Node3 -->
<g id="node3" class="node">
<title>Node3</title>
<g id="a_node3"><a xlink:href="../../d7/db9/hill__cipher_8cpp.html#a04391124480d2a49f2dec900237b0712" target="_top" xlink:title="Self test 2 &#45; using 8x8 randomly generated key.">
<polygon fill="white" stroke="black" points="97,-148 97,-167 135,-167 135,-148 97,-148"/>
<text text-anchor="middle" x="116" y="-155" font-family="Helvetica,sans-Serif" font-size="10.00">test2</text>
</a>
</g>
</g>
<!-- Node1&#45;&gt;Node3 -->
<g id="edge2" class="edge">
<title>Node1&#45;&gt;Node3</title>
<path fill="none" stroke="midnightblue" d="M38.32,-172.84C51.99,-170.1 70.92,-166.32 86.55,-163.19"/>
<polygon fill="midnightblue" stroke="midnightblue" points="87.62,-166.55 96.74,-161.15 86.25,-159.68 87.62,-166.55"/>
</g>
<!-- Node4 -->
<g id="node4" class="node">
<title>Node4</title>
<g id="a_node4"><a target="_blank" xlink:href="http://en.cppreference.com/w/cpp/io/basic_ofstream/close.html#" xlink:title=" ">
<polygon fill="white" stroke="black" points="194,-301 194,-320 298,-320 298,-301 194,-301"/>
<text text-anchor="middle" x="246" y="-308" font-family="Helvetica,sans-Serif" font-size="10.00">std::ofstream::close</text>
</a>
</g>
</g>
<!-- Node3&#45;&gt;Node4 -->
<g id="edge3" class="edge">
<title>Node3&#45;&gt;Node4</title>
<path fill="none" stroke="midnightblue" d="M135.41,-162.35C143.33,-165.27 152.1,-169.78 158,-176.5 193.32,-216.76 157.15,-252.63 194,-291.5 195.39,-292.97 196.9,-294.32 198.51,-295.57"/>
<polygon fill="midnightblue" stroke="midnightblue" points="196.84,-298.65 207.18,-300.99 200.56,-292.72 196.84,-298.65"/>
</g>
<!-- Node5 -->
<g id="node5" class="node">
<title>Node5</title>
<g id="a_node5"><a target="_blank" xlink:href="http://en.cppreference.com/w/cpp/string/basic_string/compare.html#" xlink:title=" ">
<polygon fill="white" stroke="black" points="194,-263 194,-282 298,-282 298,-263 194,-263"/>
<text text-anchor="middle" x="246" y="-270" font-family="Helvetica,sans-Serif" font-size="10.00">std::string::compare</text>
</a>
</g>
</g>
<!-- Node3&#45;&gt;Node5 -->
<g id="edge4" class="edge">
<title>Node3&#45;&gt;Node5</title>
<path fill="none" stroke="midnightblue" d="M135,-162.72C142.84,-165.73 151.67,-170.19 158,-176.5 184.76,-203.17 166.23,-227.89 194,-253.5 195.69,-255.06 197.53,-256.5 199.46,-257.82"/>
<polygon fill="midnightblue" stroke="midnightblue" points="197.99,-261.01 208.42,-262.9 201.45,-254.92 197.99,-261.01"/>
</g>
<!-- Node6 -->
<g id="node6" class="node">
<title>Node6</title>
<g id="a_node6"><a xlink:href="../../d6/d26/classciphers_1_1_hill_cipher.html#a427acfac1dbff3f48a2b071d449d965b" target="_top" xlink:title="Decrypt a given text using a given key.">
<polygon fill="white" stroke="black" points="197.5,-213.5 197.5,-243.5 294.5,-243.5 294.5,-213.5 197.5,-213.5"/>
<text text-anchor="start" x="205.5" y="-231.5" font-family="Helvetica,sans-Serif" font-size="10.00">ciphers::HillCipher</text>
<text text-anchor="middle" x="246" y="-220.5" font-family="Helvetica,sans-Serif" font-size="10.00">::decrypt_text</text>
</a>
</g>
</g>
<!-- Node3&#45;&gt;Node6 -->
<g id="edge5" class="edge">
<title>Node3&#45;&gt;Node6</title>
<path fill="none" stroke="midnightblue" d="M135.01,-164.79C142.34,-168.02 150.77,-172.09 158,-176.5 175.31,-187.05 176.72,-193.9 194,-204.5 196.31,-205.91 198.71,-207.3 201.16,-208.66"/>
<polygon fill="midnightblue" stroke="midnightblue" points="199.68,-211.83 210.16,-213.37 202.93,-205.63 199.68,-211.83"/>
</g>
<!-- Node10 -->
<g id="node10" class="node">
<title>Node10</title>
<g id="a_node10"><a target="_blank" xlink:href="http://en.cppreference.com/w/cpp/string/basic_string/size.html#" xlink:title=" ">
<polygon fill="white" stroke="black" points="469.5,-126 469.5,-145 561.5,-145 561.5,-126 469.5,-126"/>
<text text-anchor="middle" x="515.5" y="-133" font-family="Helvetica,sans-Serif" font-size="10.00">std::string::length</text>
</a>
</g>
</g>
<!-- Node3&#45;&gt;Node10 -->
<g id="edge18" class="edge">
<title>Node3&#45;&gt;Node10</title>
<path fill="none" stroke="midnightblue" d="M135.11,-156.5C191.93,-153.35 368.25,-143.59 459.11,-138.57"/>
<polygon fill="midnightblue" stroke="midnightblue" points="459.44,-142.05 469.23,-138.01 459.05,-135.06 459.44,-142.05"/>
</g>
<!-- Node12 -->
<g id="node12" class="node">
<title>Node12</title>
<g id="a_node12"><a target="_blank" xlink:href="http://en.cppreference.com/w/cpp/container/vector/size.html#" xlink:title=" ">
<polygon fill="white" stroke="black" points="600,-164 600,-183 687,-183 687,-164 600,-164"/>
<text text-anchor="middle" x="643.5" y="-171" font-family="Helvetica,sans-Serif" font-size="10.00">std::vector::size</text>
</a>
</g>
</g>
<!-- Node3&#45;&gt;Node12 -->
<g id="edge19" class="edge">
<title>Node3&#45;&gt;Node12</title>
<path fill="none" stroke="midnightblue" d="M135.03,-150.85C196.71,-129.14 404.27,-64.63 564,-116.5 588.33,-124.4 611.42,-142.99 626.18,-156.8"/>
<polygon fill="midnightblue" stroke="midnightblue" points="623.86,-159.43 633.48,-163.89 628.74,-154.41 623.86,-159.43"/>
</g>
<!-- Node13 -->
<g id="node13" class="node">
<title>Node13</title>
<g id="a_node13"><a xlink:href="../../d6/d26/classciphers_1_1_hill_cipher.html#aa8bbb6e4a5749f6008b06602d5103917" target="_top" xlink:title="Encrypt a given text using a given key.">
<polygon fill="white" stroke="black" points="197.5,-164.5 197.5,-194.5 294.5,-194.5 294.5,-164.5 197.5,-164.5"/>
<text text-anchor="start" x="205.5" y="-182.5" font-family="Helvetica,sans-Serif" font-size="10.00">ciphers::HillCipher</text>
<text text-anchor="middle" x="246" y="-171.5" font-family="Helvetica,sans-Serif" font-size="10.00">::encrypt_text</text>
</a>
</g>
</g>
<!-- Node3&#45;&gt;Node13 -->
<g id="edge14" class="edge">
<title>Node3&#45;&gt;Node13</title>
<path fill="none" stroke="midnightblue" d="M135.07,-160.61C148.74,-162.95 168.31,-166.32 187.17,-169.56"/>
<polygon fill="midnightblue" stroke="midnightblue" points="186.78,-173.04 197.23,-171.29 187.97,-166.15 186.78,-173.04"/>
</g>
<!-- Node14 -->
<g id="node14" class="node">
<title>Node14</title>
<g id="a_node14"><a target="_blank" xlink:href="http://en.cppreference.com/w/cpp/io/manip/endl.html#" xlink:title=" ">
<polygon fill="white" stroke="black" points="219,-50 219,-69 273,-69 273,-50 219,-50"/>
<text text-anchor="middle" x="246" y="-57" font-family="Helvetica,sans-Serif" font-size="10.00">std::endl</text>
</a>
</g>
</g>
<!-- Node3&#45;&gt;Node14 -->
<g id="edge16" class="edge">
<title>Node3&#45;&gt;Node14</title>
<path fill="none" stroke="midnightblue" d="M125.18,-147.82C138.41,-132.61 165.9,-102.84 194,-83.5 199.34,-79.82 205.34,-76.44 211.29,-73.45"/>
<polygon fill="midnightblue" stroke="midnightblue" points="212.97,-76.53 220.51,-69.08 209.97,-70.2 212.97,-76.53"/>
</g>
<!-- Node15 -->
<g id="node15" class="node">
<title>Node15</title>
<g id="a_node15"><a xlink:href="../../d6/d26/classciphers_1_1_hill_cipher.html#a14bfcd14af6cd853130cbacd32e35c13" target="_top" xlink:title="Generate encryption and decryption key pair.">
<polygon fill="white" stroke="black" points="197.5,-0.5 197.5,-30.5 294.5,-30.5 294.5,-0.5 197.5,-0.5"/>
<text text-anchor="start" x="205.5" y="-18.5" font-family="Helvetica,sans-Serif" font-size="10.00">ciphers::HillCipher</text>
<text text-anchor="middle" x="246" y="-7.5" font-family="Helvetica,sans-Serif" font-size="10.00">::generate_keys</text>
</a>
</g>
</g>
<!-- Node3&#45;&gt;Node15 -->
<g id="edge17" class="edge">
<title>Node3&#45;&gt;Node15</title>
<path fill="none" stroke="midnightblue" d="M121.2,-147.77C131.04,-125.98 157.51,-72.65 194,-40.5 195.71,-38.99 197.53,-37.55 199.43,-36.18"/>
<polygon fill="midnightblue" stroke="midnightblue" points="201.59,-38.95 208.1,-30.6 197.8,-33.06 201.59,-38.95"/>
</g>
<!-- Node7 -->
<g id="node7" class="node">
<title>Node7</title>
<g id="a_node7"><a xlink:href="../../d6/d26/classciphers_1_1_hill_cipher.html#ad667fa0860977f6d6d443fa1dbcd80aa" target="_top" xlink:title="Convenience function to perform block cipher operations. The operations are identical for both encryp...">
<polygon fill="white" stroke="black" points="334,-183.5 334,-213.5 431,-213.5 431,-183.5 334,-183.5"/>
<text text-anchor="start" x="342" y="-201.5" font-family="Helvetica,sans-Serif" font-size="10.00">ciphers::HillCipher</text>
<text text-anchor="middle" x="382.5" y="-190.5" font-family="Helvetica,sans-Serif" font-size="10.00">::codec</text>
</a>
</g>
</g>
<!-- Node6&#45;&gt;Node7 -->
<g id="edge6" class="edge">
<title>Node6&#45;&gt;Node7</title>
<path fill="none" stroke="midnightblue" d="M294.8,-217.84C304.21,-215.74 314.18,-213.51 323.88,-211.35"/>
<polygon fill="midnightblue" stroke="midnightblue" points="324.86,-214.72 333.86,-209.13 323.33,-207.89 324.86,-214.72"/>
</g>
<!-- Node8 -->
<g id="node8" class="node">
<title>Node8</title>
<g id="a_node8"><a xlink:href="../../d6/d26/classciphers_1_1_hill_cipher.html#ae77cad522fa44b8c985779a7188d2f41" target="_top" xlink:title="Get the index of a character in the STRKEY.">
<polygon fill="white" stroke="black" points="467,-251.5 467,-281.5 564,-281.5 564,-251.5 467,-251.5"/>
<text text-anchor="start" x="475" y="-269.5" font-family="Helvetica,sans-Serif" font-size="10.00">ciphers::HillCipher</text>
<text text-anchor="middle" x="515.5" y="-258.5" font-family="Helvetica,sans-Serif" font-size="10.00">::get_char_idx</text>
</a>
</g>
</g>
<!-- Node7&#45;&gt;Node8 -->
<g id="edge7" class="edge">
<title>Node7&#45;&gt;Node8</title>
<path fill="none" stroke="midnightblue" d="M412.03,-213.69C428.14,-222.22 448.65,-233.03 467,-242.5 469.74,-243.92 472.58,-245.37 475.44,-246.83"/>
<polygon fill="midnightblue" stroke="midnightblue" points="474.06,-250.06 484.56,-251.47 477.23,-243.82 474.06,-250.06"/>
</g>
<!-- Node7&#45;&gt;Node10 -->
<g id="edge9" class="edge">
<title>Node7&#45;&gt;Node10</title>
<path fill="none" stroke="midnightblue" d="M414.88,-183.41C436.28,-173.12 464.42,-159.59 485.33,-149.53"/>
<polygon fill="midnightblue" stroke="midnightblue" points="486.88,-152.66 494.38,-145.18 483.85,-146.36 486.88,-152.66"/>
</g>
<!-- Node11 -->
<g id="node11" class="node">
<title>Node11</title>
<g id="a_node11"><a xlink:href="../../d6/d26/classciphers_1_1_hill_cipher.html#a40efd842a5cc44c233641ac2df13b0c0" target="_top" xlink:title="helper function to perform vector multiplication with encryption or decryption matrix">
<polygon fill="white" stroke="black" points="467,-202.5 467,-232.5 564,-232.5 564,-202.5 467,-202.5"/>
<text text-anchor="start" x="475" y="-220.5" font-family="Helvetica,sans-Serif" font-size="10.00">ciphers::HillCipher</text>
<text text-anchor="middle" x="515.5" y="-209.5" font-family="Helvetica,sans-Serif" font-size="10.00">::mat_mul</text>
</a>
</g>
</g>
<!-- Node7&#45;&gt;Node11 -->
<g id="edge10" class="edge">
<title>Node7&#45;&gt;Node11</title>
<path fill="none" stroke="midnightblue" d="M431.16,-205.41C439.47,-206.62 448.19,-207.88 456.74,-209.12"/>
<polygon fill="midnightblue" stroke="midnightblue" points="456.25,-212.59 466.65,-210.56 457.26,-205.66 456.25,-212.59"/>
</g>
<!-- Node7&#45;&gt;Node12 -->
<g id="edge13" class="edge">
<title>Node7&#45;&gt;Node12</title>
<path fill="none" stroke="midnightblue" d="M431,-193.91C475.81,-189.59 542.86,-183.12 589.4,-178.63"/>
<polygon fill="midnightblue" stroke="midnightblue" points="589.98,-182.09 599.6,-177.64 589.31,-175.12 589.98,-182.09"/>
</g>
<!-- Node9 -->
<g id="node9" class="node">
<title>Node9</title>
<g id="a_node9"><a target="_blank" xlink:href="http://en.cppreference.com/w/cpp/string/byte/strlen.html#" xlink:title=" ">
<polygon fill="white" stroke="black" points="613.5,-232 613.5,-251 673.5,-251 673.5,-232 613.5,-232"/>
<text text-anchor="middle" x="643.5" y="-239" font-family="Helvetica,sans-Serif" font-size="10.00">std::strlen</text>
</a>
</g>
</g>
<!-- Node8&#45;&gt;Node9 -->
<g id="edge8" class="edge">
<title>Node8&#45;&gt;Node9</title>
<path fill="none" stroke="midnightblue" d="M564.14,-257.05C577.09,-254.48 590.97,-251.72 603.4,-249.26"/>
<polygon fill="midnightblue" stroke="midnightblue" points="604.31,-252.64 613.44,-247.27 602.95,-245.78 604.31,-252.64"/>
</g>
<!-- Node11&#45;&gt;Node9 -->
<g id="edge12" class="edge">
<title>Node11&#45;&gt;Node9</title>
<path fill="none" stroke="midnightblue" d="M564.14,-226.57C577.09,-229.04 590.97,-231.69 603.4,-234.05"/>
<polygon fill="midnightblue" stroke="midnightblue" points="602.96,-237.53 613.44,-235.97 604.27,-230.66 602.96,-237.53"/>
</g>
<!-- Node11&#45;&gt;Node12 -->
<g id="edge11" class="edge">
<title>Node11&#45;&gt;Node12</title>
<path fill="none" stroke="midnightblue" d="M559.51,-202.48C574.45,-197.26 591.07,-191.46 605.49,-186.42"/>
<polygon fill="midnightblue" stroke="midnightblue" points="606.78,-189.68 615.07,-183.08 604.48,-183.07 606.78,-189.68"/>
</g>
<!-- Node13&#45;&gt;Node7 -->
<g id="edge15" class="edge">
<title>Node13&#45;&gt;Node7</title>
<path fill="none" stroke="midnightblue" d="M294.8,-186.25C304.21,-187.58 314.18,-188.99 323.88,-190.36"/>
<polygon fill="midnightblue" stroke="midnightblue" points="323.46,-193.84 333.86,-191.77 324.44,-186.91 323.46,-193.84"/>
</g>
</g>
</svg>
        <g id="navigator" transform="translate(0 0)" fill="#404254">
                <rect fill="#f2f5e9" fill-opacity="0.5" stroke="#606060" stroke-width=".5" x="0" y="0" width="60" height="60"/>
                <use id="zoomplus" xlink:href="#zoomPlus" x="17" y="9" onmousedown="handleZoom(evt,'in')"/>
                <use id="zoomminus" xlink:href="#zoomMin" x="42" y="9" onmousedown="handleZoom(evt,'out')"/>
                <use id="reset" xlink:href="#resetDef" x="30" y="36" onmousedown="handleReset()"/>
                <g id="arrowUp" xlink:href="#dirArrow" transform="translate(30 24)" onmousedown="handlePan(0,-1)">
                  <use xlink:href="#rim" fill="#404040">
                        <set attributeName="fill" to="#808080" begin="arrowUp.mouseover" end="arrowUp.mouseout"/>
                  </use>
                  <path fill="none" stroke="white" stroke-width="1.5" d="M0,-3.0v7 M-2.5,-0.5L0,-3.0L2.5,-0.5"/>
                </g>
                <g id="arrowRight" xlink:href="#dirArrow" transform="rotate(90) translate(36 -43)" onmousedown="handlePan(1,0)">
                  <use xlink:href="#rim" fill="#404040">
                        <set attributeName="fill" to="#808080" begin="arrowRight.mouseover" end="arrowRight.mouseout"/>
                  </use>
                  <path fill="none" stroke="white" stroke-width="1.5" d="M0,-3.0v7 M-2.5,-0.5L0,-3.0L2.5,-0.5"/>
                </g>
                <g id="arrowDown" xlink:href="#dirArrow" transform="rotate(180) translate(-30 -48)" onmousedown="handlePan(0,1)">
                  <use xlink:href="#rim" fill="#404040">
                        <set attributeName="fill" to="#808080" begin="arrowDown.mouseover" end="arrowDown.mouseout"/>
                  </use>
                  <path fill="none" stroke="white" stroke-width="1.5" d="M0,-3.0v7 M-2.5,-0.5L0,-3.0L2.5,-0.5"/>
                </g>
                <g id="arrowLeft" xlink:href="#dirArrow" transform="rotate(270) translate(-36 17)" onmousedown="handlePan(-1,0)">
                  <use xlink:href="#rim" fill="#404040">
                        <set attributeName="fill" to="#808080" begin="arrowLeft.mouseover" end="arrowLeft.mouseout"/>
                  </use>
                  <path fill="none" stroke="white" stroke-width="1.5" d="M0,-3.0v7 M-2.5,-0.5L0,-3.0L2.5,-0.5"/>
                </g>
        </g>
        <svg viewBox="0 0 15 15" width="100%" height="30px" preserveAspectRatio="xMaxYMin meet">
         <g id="arrow_out" transform="scale(0.3 0.3)">
          <a xlink:href="spirograph_8cpp_a3c04138a5bfe5d72780bb7e82a18e627_cgraph_org.svg" target="_base">
           <rect id="button" ry="5" rx="5" y="6" x="6" height="38" width="38"
                fill="#f2f5e9" fill-opacity="0.5" stroke="#606060" stroke-width="1.0"/>
           <path id="arrow"
             d="M 11.500037,31.436501 C 11.940474,20.09759 22.043105,11.32322 32.158766,21.979434 L 37.068811,17.246167 C 37.068811,17.246167 37.088388,32 37.088388,32 L 22.160133,31.978069 C 22.160133,31.978069 26.997745,27.140456 26.997745,27.140456 C 18.528582,18.264221 13.291696,25.230495 11.500037,31.436501 z"
             style="fill:#404040;"/>
          </a>
         </g>
        </svg>
</svg>
