<?xml version="1.0" encoding="UTF-8" standalone="no"?>
<!DOCTYPE svg PUBLIC "-//W3C//DTD SVG 1.1//EN"
 "http://www.w3.org/Graphics/SVG/1.1/DTD/svg11.dtd">
<!-- Generated by graphviz version 2.44.1 (20200629.0846)
 -->
<!-- Title: circle Pages: 1 -->
<svg width="369pt" height="180pt"
 viewBox="0.00 0.00 369.00 180.00" xmlns="http://www.w3.org/2000/svg" xmlns:xlink="http://www.w3.org/1999/xlink">
<g id="graph0" class="graph" transform="scale(1 1) rotate(0) translate(4 176)">
<title>circle</title>
<polygon fill="white" stroke="transparent" points="-4,4 -4,-176 365,-176 365,4 -4,4"/>
<!-- Node1 -->
<g id="node1" class="node">
<title>Node1</title>
<g id="a_node1"><a xlink:title=" ">
<polygon fill="#bfbfbf" stroke="black" points="0,-76.5 0,-95.5 40,-95.5 40,-76.5 0,-76.5"/>
<text text-anchor="middle" x="20" y="-83.5" font-family="Helvetica,sans-Serif" font-size="10.00">circle</text>
</a>
</g>
</g>
<!-- Node2 -->
<g id="node2" class="node">
<title>Node2</title>
<g id="a_node2"><a target="_blank" xlink:href="http://en.cppreference.com/w/cpp/io/manip/endl.html#" xlink:title=" ">
<polygon fill="white" stroke="black" points="85.5,-152.5 85.5,-171.5 139.5,-171.5 139.5,-152.5 85.5,-152.5"/>
<text text-anchor="middle" x="112.5" y="-159.5" font-family="Helvetica,sans-Serif" font-size="10.00">std::endl</text>
</a>
</g>
</g>
<!-- Node1&#45;&gt;Node2 -->
<g id="edge1" class="edge">
<title>Node1&#45;&gt;Node2</title>
<path fill="none" stroke="midnightblue" d="M30.3,-95.7C40.91,-106.54 58.98,-124.35 76,-138 79.69,-140.96 83.74,-143.93 87.74,-146.72"/>
<polygon fill="midnightblue" stroke="midnightblue" points="86.01,-149.78 96.26,-152.48 89.93,-143.98 86.01,-149.78"/>
</g>
<!-- Node3 -->
<g id="node3" class="node">
<title>Node3</title>
<g id="a_node3"><a xlink:href="../../d0/d01/smallest__circle_8cpp.html#a3cbebd6f4d2cdf227663c67fe41ba12a" target="_top" xlink:title=" ">
<polygon fill="white" stroke="black" points="196.5,-95.5 196.5,-114.5 260.5,-114.5 260.5,-95.5 196.5,-95.5"/>
<text text-anchor="middle" x="228.5" y="-102.5" font-family="Helvetica,sans-Serif" font-size="10.00">LenghtLine</text>
</a>
</g>
</g>
<!-- Node1&#45;&gt;Node3 -->
<g id="edge2" class="edge">
<title>Node1&#45;&gt;Node3</title>
<path fill="none" stroke="midnightblue" d="M40.19,-94.39C50.57,-98.48 63.75,-102.94 76,-105 112.89,-111.19 155.56,-110.5 186.19,-108.67"/>
<polygon fill="midnightblue" stroke="midnightblue" points="186.75,-112.14 196.49,-107.98 186.28,-105.16 186.75,-112.14"/>
</g>
<!-- Node5 -->
<g id="node5" class="node">
<title>Node5</title>
<g id="a_node5"><a xlink:href="../../d0/d01/smallest__circle_8cpp.html#aee6d48762c1dfb9f14627927f0c16fad" target="_top" xlink:title=" ">
<polygon fill="white" stroke="black" points="76,-76.5 76,-95.5 149,-95.5 149,-76.5 76,-76.5"/>
<text text-anchor="middle" x="112.5" y="-83.5" font-family="Helvetica,sans-Serif" font-size="10.00">PointInCircle</text>
</a>
</g>
</g>
<!-- Node1&#45;&gt;Node5 -->
<g id="edge4" class="edge">
<title>Node1&#45;&gt;Node5</title>
<path fill="none" stroke="midnightblue" d="M40.19,-86C47.73,-86 56.74,-86 65.77,-86"/>
<polygon fill="midnightblue" stroke="midnightblue" points="65.89,-89.5 75.89,-86 65.89,-82.5 65.89,-89.5"/>
</g>
<!-- Node6 -->
<g id="node6" class="node">
<title>Node6</title>
<g id="a_node6"><a target="_blank" xlink:href="http://en.cppreference.com/w/cpp/container/vector/size.html#" xlink:title=" ">
<polygon fill="white" stroke="black" points="185,-57.5 185,-76.5 272,-76.5 272,-57.5 185,-57.5"/>
<text text-anchor="middle" x="228.5" y="-64.5" font-family="Helvetica,sans-Serif" font-size="10.00">std::vector::size</text>
</a>
</g>
</g>
<!-- Node1&#45;&gt;Node6 -->
<g id="edge7" class="edge">
<title>Node1&#45;&gt;Node6</title>
<path fill="none" stroke="midnightblue" d="M40.19,-77.61C50.57,-73.52 63.75,-69.06 76,-67 108.48,-61.55 145.44,-61.43 174.72,-62.73"/>
<polygon fill="midnightblue" stroke="midnightblue" points="174.57,-66.23 184.74,-63.25 174.93,-59.24 174.57,-66.23"/>
</g>
<!-- Node7 -->
<g id="node7" class="node">
<title>Node7</title>
<g id="a_node7"><a xlink:href="../../d0/d01/smallest__circle_8cpp.html#a94682a4a70d5906857ca09de5b9fb2cc" target="_top" xlink:title=" ">
<polygon fill="white" stroke="black" points="77,-0.5 77,-19.5 148,-19.5 148,-0.5 77,-0.5"/>
<text text-anchor="middle" x="112.5" y="-7.5" font-family="Helvetica,sans-Serif" font-size="10.00">TriangleArea</text>
</a>
</g>
</g>
<!-- Node1&#45;&gt;Node7 -->
<g id="edge8" class="edge">
<title>Node1&#45;&gt;Node7</title>
<path fill="none" stroke="midnightblue" d="M30.3,-76.3C40.91,-65.46 58.98,-47.65 76,-34 79.69,-31.04 83.74,-28.07 87.74,-25.28"/>
<polygon fill="midnightblue" stroke="midnightblue" points="89.93,-28.02 96.26,-19.52 86.01,-22.22 89.93,-28.02"/>
</g>
<!-- Node4 -->
<g id="node4" class="node">
<title>Node4</title>
<g id="a_node4"><a target="_blank" xlink:href="http://en.cppreference.com/w/cpp/numeric/math/sqrt.html#" xlink:title=" ">
<polygon fill="white" stroke="black" points="308,-95.5 308,-114.5 361,-114.5 361,-95.5 308,-95.5"/>
<text text-anchor="middle" x="334.5" y="-102.5" font-family="Helvetica,sans-Serif" font-size="10.00">std::sqrt</text>
</a>
</g>
</g>
<!-- Node3&#45;&gt;Node4 -->
<g id="edge3" class="edge">
<title>Node3&#45;&gt;Node4</title>
<path fill="none" stroke="midnightblue" d="M260.7,-105C272.37,-105 285.7,-105 297.74,-105"/>
<polygon fill="midnightblue" stroke="midnightblue" points="297.91,-108.5 307.91,-105 297.91,-101.5 297.91,-108.5"/>
</g>
<!-- Node5&#45;&gt;Node3 -->
<g id="edge5" class="edge">
<title>Node5&#45;&gt;Node3</title>
<path fill="none" stroke="midnightblue" d="M149.26,-91.96C161.09,-93.93 174.35,-96.14 186.55,-98.17"/>
<polygon fill="midnightblue" stroke="midnightblue" points="186.05,-101.64 196.49,-99.83 187.2,-94.73 186.05,-101.64"/>
</g>
<!-- Node5&#45;&gt;Node6 -->
<g id="edge6" class="edge">
<title>Node5&#45;&gt;Node6</title>
<path fill="none" stroke="midnightblue" d="M149.26,-80.04C157.33,-78.7 166.07,-77.24 174.67,-75.8"/>
<polygon fill="midnightblue" stroke="midnightblue" points="175.38,-79.23 184.67,-74.14 174.23,-72.33 175.38,-79.23"/>
</g>
</g>
</svg>
