<?xml version="1.0" encoding="UTF-8" standalone="no"?>
<!DOCTYPE svg PUBLIC "-//W3C//DTD SVG 1.1//EN"
 "http://www.w3.org/Graphics/SVG/1.1/DTD/svg11.dtd">
<!-- Generated by graphviz version 2.44.1 (20200629.0846)
 -->
<!-- Title: test2 Pages: 1 -->
<svg width="519pt" height="180pt"
 viewBox="0.00 0.00 519.00 180.00" xmlns="http://www.w3.org/2000/svg" xmlns:xlink="http://www.w3.org/1999/xlink">
<g id="graph0" class="graph" transform="scale(1 1) rotate(0) translate(4 176)">
<title>test2</title>
<polygon fill="white" stroke="transparent" points="-4,4 -4,-176 515,-176 515,4 -4,4"/>
<!-- Node1 -->
<g id="node1" class="node">
<title>Node1</title>
<g id="a_node1"><a xlink:title=" ">
<polygon fill="#bfbfbf" stroke="black" points="0,-85.5 0,-104.5 38,-104.5 38,-85.5 0,-85.5"/>
<text text-anchor="middle" x="19" y="-92.5" font-family="Helvetica,sans-Serif" font-size="10.00">test2</text>
</a>
</g>
</g>
<!-- Node2 -->
<g id="node2" class="node">
<title>Node2</title>
<g id="a_node2"><a xlink:href="../../d0/d01/smallest__circle_8cpp.html#a0b0676df8e4da7a08c7ccaecea344903" target="_top" xlink:title=" ">
<polygon fill="white" stroke="black" points="112,-85.5 112,-104.5 152,-104.5 152,-85.5 112,-85.5"/>
<text text-anchor="middle" x="132" y="-92.5" font-family="Helvetica,sans-Serif" font-size="10.00">circle</text>
</a>
</g>
</g>
<!-- Node1&#45;&gt;Node2 -->
<g id="edge1" class="edge">
<title>Node1&#45;&gt;Node2</title>
<path fill="none" stroke="midnightblue" d="M38.33,-95C55.55,-95 81.62,-95 101.72,-95"/>
<polygon fill="midnightblue" stroke="midnightblue" points="101.9,-98.5 111.9,-95 101.9,-91.5 101.9,-98.5"/>
</g>
<!-- Node3 -->
<g id="node3" class="node">
<title>Node3</title>
<g id="a_node3"><a target="_blank" xlink:href="http://en.cppreference.com/w/cpp/io/manip/endl.html#" xlink:title=" ">
<polygon fill="white" stroke="black" points="235.5,-152.5 235.5,-171.5 289.5,-171.5 289.5,-152.5 235.5,-152.5"/>
<text text-anchor="middle" x="262.5" y="-159.5" font-family="Helvetica,sans-Serif" font-size="10.00">std::endl</text>
</a>
</g>
</g>
<!-- Node1&#45;&gt;Node3 -->
<g id="edge10" class="edge">
<title>Node1&#45;&gt;Node3</title>
<path fill="none" stroke="midnightblue" d="M38.36,-101.91C48.75,-105.71 62.02,-110.37 74,-114 126.02,-129.78 187.18,-144.78 225.15,-153.69"/>
<polygon fill="midnightblue" stroke="midnightblue" points="224.68,-157.18 235.21,-156.04 226.27,-150.36 224.68,-157.18"/>
</g>
<!-- Node9 -->
<g id="node9" class="node">
<title>Node9</title>
<g id="a_node9"><a target="_blank" xlink:href="http://en.cppreference.com/w/cpp/container/vector/push_back.html#" xlink:title=" ">
<polygon fill="white" stroke="black" points="74,-47.5 74,-66.5 190,-66.5 190,-47.5 74,-47.5"/>
<text text-anchor="middle" x="132" y="-54.5" font-family="Helvetica,sans-Serif" font-size="10.00">std::vector::push_back</text>
</a>
</g>
</g>
<!-- Node1&#45;&gt;Node9 -->
<g id="edge11" class="edge">
<title>Node1&#45;&gt;Node9</title>
<path fill="none" stroke="midnightblue" d="M38.47,-88.42C48.89,-84.72 62.15,-80.06 74,-76 79.96,-73.96 86.28,-71.82 92.45,-69.75"/>
<polygon fill="midnightblue" stroke="midnightblue" points="93.6,-73.06 101.97,-66.57 91.38,-66.42 93.6,-73.06"/>
</g>
<!-- Node2&#45;&gt;Node3 -->
<g id="edge2" class="edge">
<title>Node2&#45;&gt;Node3</title>
<path fill="none" stroke="midnightblue" d="M151.41,-104.6C173.07,-115.89 209.24,-134.75 234.17,-147.75"/>
<polygon fill="midnightblue" stroke="midnightblue" points="232.64,-150.9 243.12,-152.42 235.87,-144.69 232.64,-150.9"/>
</g>
<!-- Node4 -->
<g id="node4" class="node">
<title>Node4</title>
<g id="a_node4"><a xlink:href="../../d0/d01/smallest__circle_8cpp.html#a3cbebd6f4d2cdf227663c67fe41ba12a" target="_top" xlink:title=" ">
<polygon fill="white" stroke="black" points="346.5,-95.5 346.5,-114.5 410.5,-114.5 410.5,-95.5 346.5,-95.5"/>
<text text-anchor="middle" x="378.5" y="-102.5" font-family="Helvetica,sans-Serif" font-size="10.00">LenghtLine</text>
</a>
</g>
</g>
<!-- Node2&#45;&gt;Node4 -->
<g id="edge3" class="edge">
<title>Node2&#45;&gt;Node4</title>
<path fill="none" stroke="midnightblue" d="M152.19,-97.67C170.96,-100.14 200.38,-103.63 226,-105 263.24,-107 305.7,-106.78 336.18,-106.19"/>
<polygon fill="midnightblue" stroke="midnightblue" points="336.51,-109.69 346.43,-105.97 336.35,-102.69 336.51,-109.69"/>
</g>
<!-- Node6 -->
<g id="node6" class="node">
<title>Node6</title>
<g id="a_node6"><a xlink:href="../../d0/d01/smallest__circle_8cpp.html#aee6d48762c1dfb9f14627927f0c16fad" target="_top" xlink:title=" ">
<polygon fill="white" stroke="black" points="226,-76.5 226,-95.5 299,-95.5 299,-76.5 226,-76.5"/>
<text text-anchor="middle" x="262.5" y="-83.5" font-family="Helvetica,sans-Serif" font-size="10.00">PointInCircle</text>
</a>
</g>
</g>
<!-- Node2&#45;&gt;Node6 -->
<g id="edge5" class="edge">
<title>Node2&#45;&gt;Node6</title>
<path fill="none" stroke="midnightblue" d="M152.24,-93.65C168.98,-92.48 193.92,-90.73 215.74,-89.2"/>
<polygon fill="midnightblue" stroke="midnightblue" points="216.1,-92.69 225.83,-88.5 215.61,-85.71 216.1,-92.69"/>
</g>
<!-- Node7 -->
<g id="node7" class="node">
<title>Node7</title>
<g id="a_node7"><a target="_blank" xlink:href="http://en.cppreference.com/w/cpp/container/vector/size.html#" xlink:title=" ">
<polygon fill="white" stroke="black" points="335,-57.5 335,-76.5 422,-76.5 422,-57.5 335,-57.5"/>
<text text-anchor="middle" x="378.5" y="-64.5" font-family="Helvetica,sans-Serif" font-size="10.00">std::vector::size</text>
</a>
</g>
</g>
<!-- Node2&#45;&gt;Node7 -->
<g id="edge8" class="edge">
<title>Node2&#45;&gt;Node7</title>
<path fill="none" stroke="midnightblue" d="M152.23,-88.48C175.03,-80.89 211.74,-69.1 226,-67 258.59,-62.2 295.55,-62.1 324.8,-63.24"/>
<polygon fill="midnightblue" stroke="midnightblue" points="324.66,-66.74 334.81,-63.7 324.98,-59.75 324.66,-66.74"/>
</g>
<!-- Node8 -->
<g id="node8" class="node">
<title>Node8</title>
<g id="a_node8"><a xlink:href="../../d0/d01/smallest__circle_8cpp.html#a94682a4a70d5906857ca09de5b9fb2cc" target="_top" xlink:title=" ">
<polygon fill="white" stroke="black" points="227,-0.5 227,-19.5 298,-19.5 298,-0.5 227,-0.5"/>
<text text-anchor="middle" x="262.5" y="-7.5" font-family="Helvetica,sans-Serif" font-size="10.00">TriangleArea</text>
</a>
</g>
</g>
<!-- Node2&#45;&gt;Node8 -->
<g id="edge9" class="edge">
<title>Node2&#45;&gt;Node8</title>
<path fill="none" stroke="midnightblue" d="M152.12,-91.35C163.78,-88.49 178.57,-83.68 190,-76 210.4,-62.28 207.65,-50.36 226,-34 229.31,-31.05 233,-28.17 236.72,-25.49"/>
<polygon fill="midnightblue" stroke="midnightblue" points="238.99,-28.18 245.28,-19.66 235.05,-22.4 238.99,-28.18"/>
</g>
<!-- Node5 -->
<g id="node5" class="node">
<title>Node5</title>
<g id="a_node5"><a target="_blank" xlink:href="http://en.cppreference.com/w/cpp/numeric/math/sqrt.html#" xlink:title=" ">
<polygon fill="white" stroke="black" points="458,-95.5 458,-114.5 511,-114.5 511,-95.5 458,-95.5"/>
<text text-anchor="middle" x="484.5" y="-102.5" font-family="Helvetica,sans-Serif" font-size="10.00">std::sqrt</text>
</a>
</g>
</g>
<!-- Node4&#45;&gt;Node5 -->
<g id="edge4" class="edge">
<title>Node4&#45;&gt;Node5</title>
<path fill="none" stroke="midnightblue" d="M410.7,-105C422.37,-105 435.7,-105 447.74,-105"/>
<polygon fill="midnightblue" stroke="midnightblue" points="447.91,-108.5 457.91,-105 447.91,-101.5 447.91,-108.5"/>
</g>
<!-- Node6&#45;&gt;Node4 -->
<g id="edge6" class="edge">
<title>Node6&#45;&gt;Node4</title>
<path fill="none" stroke="midnightblue" d="M299.26,-91.96C311.09,-93.93 324.35,-96.14 336.55,-98.17"/>
<polygon fill="midnightblue" stroke="midnightblue" points="336.05,-101.64 346.49,-99.83 337.2,-94.73 336.05,-101.64"/>
</g>
<!-- Node6&#45;&gt;Node7 -->
<g id="edge7" class="edge">
<title>Node6&#45;&gt;Node7</title>
<path fill="none" stroke="midnightblue" d="M299.26,-80.04C307.33,-78.7 316.07,-77.24 324.67,-75.8"/>
<polygon fill="midnightblue" stroke="midnightblue" points="325.38,-79.23 334.67,-74.14 324.23,-72.33 325.38,-79.23"/>
</g>
</g>
</svg>
