<?xml version="1.0" encoding="UTF-8" standalone="no"?>
<!DOCTYPE svg PUBLIC "-//W3C//DTD SVG 1.1//EN"
 "http://www.w3.org/Graphics/SVG/1.1/DTD/svg11.dtd">
<!-- Generated by graphviz version 2.47.3 (20210619.1520)
 -->
<!-- Title: test Pages: 1 -->
<svg width="514pt" height="180pt"
 viewBox="0.00 0.00 514.00 180.00" xmlns="http://www.w3.org/2000/svg" xmlns:xlink="http://www.w3.org/1999/xlink">
<g id="graph0" class="graph" transform="scale(1 1) rotate(0) translate(4 176)">
<title>test</title>
<polygon fill="white" stroke="transparent" points="-4,4 -4,-176 510,-176 510,4 -4,4"/>
<!-- Node1 -->
<g id="node1" class="node">
<title>Node1</title>
<g id="a_node1"><a xlink:title=" ">
<polygon fill="#bfbfbf" stroke="black" points="0,-85.5 0,-104.5 33,-104.5 33,-85.5 0,-85.5"/>
<text text-anchor="middle" x="16.5" y="-92.5" font-family="Helvetica,sans-Serif" font-size="10.00">test</text>
</a>
</g>
</g>
<!-- Node2 -->
<g id="node2" class="node">
<title>Node2</title>
<g id="a_node2"><a xlink:href="../../d0/d01/smallest__circle_8cpp.html#a0b0676df8e4da7a08c7ccaecea344903" target="_top" xlink:title=" ">
<polygon fill="white" stroke="black" points="107,-85.5 107,-104.5 147,-104.5 147,-85.5 107,-85.5"/>
<text text-anchor="middle" x="127" y="-92.5" font-family="Helvetica,sans-Serif" font-size="10.00">circle</text>
</a>
</g>
</g>
<!-- Node1&#45;&gt;Node2 -->
<g id="edge1" class="edge">
<title>Node1&#45;&gt;Node2</title>
<path fill="none" stroke="midnightblue" d="M33.05,-95C49.61,-95 76.23,-95 96.74,-95"/>
<polygon fill="midnightblue" stroke="midnightblue" points="96.82,-98.5 106.82,-95 96.82,-91.5 96.82,-98.5"/>
</g>
<!-- Node3 -->
<g id="node3" class="node">
<title>Node3</title>
<g id="a_node3"><a target="_blank" xlink:href="http://en.cppreference.com/w/cpp/io/manip/endl.html#" xlink:title=" ">
<polygon fill="white" stroke="black" points="230.5,-152.5 230.5,-171.5 284.5,-171.5 284.5,-152.5 230.5,-152.5"/>
<text text-anchor="middle" x="257.5" y="-159.5" font-family="Helvetica,sans-Serif" font-size="10.00">std::endl</text>
</a>
</g>
</g>
<!-- Node1&#45;&gt;Node3 -->
<g id="edge10" class="edge">
<title>Node1&#45;&gt;Node3</title>
<path fill="none" stroke="midnightblue" d="M33.13,-101.24C43.27,-105.17 56.81,-110.2 69,-114 121.05,-130.22 182.44,-145.16 220.42,-153.93"/>
<polygon fill="midnightblue" stroke="midnightblue" points="219.96,-157.41 230.48,-156.23 221.52,-150.59 219.96,-157.41"/>
</g>
<!-- Node9 -->
<g id="node9" class="node">
<title>Node9</title>
<g id="a_node9"><a target="_blank" xlink:href="http://en.cppreference.com/w/cpp/container/vector/push_back.html#" xlink:title=" ">
<polygon fill="white" stroke="black" points="69,-47.5 69,-66.5 185,-66.5 185,-47.5 69,-47.5"/>
<text text-anchor="middle" x="127" y="-54.5" font-family="Helvetica,sans-Serif" font-size="10.00">std::vector::push_back</text>
</a>
</g>
</g>
<!-- Node1&#45;&gt;Node9 -->
<g id="edge11" class="edge">
<title>Node1&#45;&gt;Node9</title>
<path fill="none" stroke="midnightblue" d="M33.23,-89.05C43.41,-85.24 56.95,-80.23 69,-76 74.74,-73.99 80.82,-71.9 86.79,-69.89"/>
<polygon fill="midnightblue" stroke="midnightblue" points="88.28,-73.08 96.65,-66.59 86.06,-66.44 88.28,-73.08"/>
</g>
<!-- Node2&#45;&gt;Node3 -->
<g id="edge2" class="edge">
<title>Node2&#45;&gt;Node3</title>
<path fill="none" stroke="midnightblue" d="M146.41,-104.6C168.07,-115.89 204.24,-134.75 229.17,-147.75"/>
<polygon fill="midnightblue" stroke="midnightblue" points="227.64,-150.9 238.12,-152.42 230.87,-144.69 227.64,-150.9"/>
</g>
<!-- Node4 -->
<g id="node4" class="node">
<title>Node4</title>
<g id="a_node4"><a xlink:href="../../d0/d01/smallest__circle_8cpp.html#a3cbebd6f4d2cdf227663c67fe41ba12a" target="_top" xlink:title=" ">
<polygon fill="white" stroke="black" points="341.5,-95.5 341.5,-114.5 405.5,-114.5 405.5,-95.5 341.5,-95.5"/>
<text text-anchor="middle" x="373.5" y="-102.5" font-family="Helvetica,sans-Serif" font-size="10.00">LenghtLine</text>
</a>
</g>
</g>
<!-- Node2&#45;&gt;Node4 -->
<g id="edge3" class="edge">
<title>Node2&#45;&gt;Node4</title>
<path fill="none" stroke="midnightblue" d="M147.19,-97.67C165.96,-100.14 195.38,-103.63 221,-105 258.24,-107 300.7,-106.78 331.18,-106.19"/>
<polygon fill="midnightblue" stroke="midnightblue" points="331.51,-109.69 341.43,-105.97 331.35,-102.69 331.51,-109.69"/>
</g>
<!-- Node6 -->
<g id="node6" class="node">
<title>Node6</title>
<g id="a_node6"><a xlink:href="../../d0/d01/smallest__circle_8cpp.html#aee6d48762c1dfb9f14627927f0c16fad" target="_top" xlink:title=" ">
<polygon fill="white" stroke="black" points="221,-76.5 221,-95.5 294,-95.5 294,-76.5 221,-76.5"/>
<text text-anchor="middle" x="257.5" y="-83.5" font-family="Helvetica,sans-Serif" font-size="10.00">PointInCircle</text>
</a>
</g>
</g>
<!-- Node2&#45;&gt;Node6 -->
<g id="edge5" class="edge">
<title>Node2&#45;&gt;Node6</title>
<path fill="none" stroke="midnightblue" d="M147.24,-93.65C163.98,-92.48 188.92,-90.73 210.74,-89.2"/>
<polygon fill="midnightblue" stroke="midnightblue" points="211.1,-92.69 220.83,-88.5 210.61,-85.71 211.1,-92.69"/>
</g>
<!-- Node7 -->
<g id="node7" class="node">
<title>Node7</title>
<g id="a_node7"><a target="_blank" xlink:href="http://en.cppreference.com/w/cpp/container/vector/size.html#" xlink:title=" ">
<polygon fill="white" stroke="black" points="330,-57.5 330,-76.5 417,-76.5 417,-57.5 330,-57.5"/>
<text text-anchor="middle" x="373.5" y="-64.5" font-family="Helvetica,sans-Serif" font-size="10.00">std::vector::size</text>
</a>
</g>
</g>
<!-- Node2&#45;&gt;Node7 -->
<g id="edge8" class="edge">
<title>Node2&#45;&gt;Node7</title>
<path fill="none" stroke="midnightblue" d="M147.23,-88.48C170.03,-80.89 206.74,-69.1 221,-67 253.59,-62.2 290.55,-62.1 319.8,-63.24"/>
<polygon fill="midnightblue" stroke="midnightblue" points="319.66,-66.74 329.81,-63.7 319.98,-59.75 319.66,-66.74"/>
</g>
<!-- Node8 -->
<g id="node8" class="node">
<title>Node8</title>
<g id="a_node8"><a xlink:href="../../d0/d01/smallest__circle_8cpp.html#a94682a4a70d5906857ca09de5b9fb2cc" target="_top" xlink:title=" ">
<polygon fill="white" stroke="black" points="222,-0.5 222,-19.5 293,-19.5 293,-0.5 222,-0.5"/>
<text text-anchor="middle" x="257.5" y="-7.5" font-family="Helvetica,sans-Serif" font-size="10.00">TriangleArea</text>
</a>
</g>
</g>
<!-- Node2&#45;&gt;Node8 -->
<g id="edge9" class="edge">
<title>Node2&#45;&gt;Node8</title>
<path fill="none" stroke="midnightblue" d="M147.12,-91.35C158.78,-88.49 173.57,-83.68 185,-76 205.4,-62.28 202.65,-50.36 221,-34 224.31,-31.05 228,-28.17 231.72,-25.49"/>
<polygon fill="midnightblue" stroke="midnightblue" points="233.99,-28.18 240.28,-19.66 230.05,-22.4 233.99,-28.18"/>
</g>
<!-- Node5 -->
<g id="node5" class="node">
<title>Node5</title>
<g id="a_node5"><a target="_blank" xlink:href="http://en.cppreference.com/w/cpp/numeric/math/sqrt.html#" xlink:title=" ">
<polygon fill="white" stroke="black" points="453,-95.5 453,-114.5 506,-114.5 506,-95.5 453,-95.5"/>
<text text-anchor="middle" x="479.5" y="-102.5" font-family="Helvetica,sans-Serif" font-size="10.00">std::sqrt</text>
</a>
</g>
</g>
<!-- Node4&#45;&gt;Node5 -->
<g id="edge4" class="edge">
<title>Node4&#45;&gt;Node5</title>
<path fill="none" stroke="midnightblue" d="M405.7,-105C417.37,-105 430.7,-105 442.74,-105"/>
<polygon fill="midnightblue" stroke="midnightblue" points="442.91,-108.5 452.91,-105 442.91,-101.5 442.91,-108.5"/>
</g>
<!-- Node6&#45;&gt;Node4 -->
<g id="edge6" class="edge">
<title>Node6&#45;&gt;Node4</title>
<path fill="none" stroke="midnightblue" d="M294.26,-91.96C306.09,-93.93 319.35,-96.14 331.55,-98.17"/>
<polygon fill="midnightblue" stroke="midnightblue" points="331.05,-101.64 341.49,-99.83 332.2,-94.73 331.05,-101.64"/>
</g>
<!-- Node6&#45;&gt;Node7 -->
<g id="edge7" class="edge">
<title>Node6&#45;&gt;Node7</title>
<path fill="none" stroke="midnightblue" d="M294.26,-80.04C302.33,-78.7 311.07,-77.24 319.67,-75.8"/>
<polygon fill="midnightblue" stroke="midnightblue" points="320.38,-79.23 329.67,-74.14 319.23,-72.33 320.38,-79.23"/>
</g>
</g>
</svg>
