<?xml version="1.0" encoding="UTF-8" standalone="no"?>
<!DOCTYPE svg PUBLIC "-//W3C//DTD SVG 1.1//EN"
 "http://www.w3.org/Graphics/SVG/1.1/DTD/svg11.dtd">
<!-- Generated by graphviz version 2.47.3 (20210619.1520)
 -->
<!-- Title: main Pages: 1 -->
<svg width="593pt" height="213pt"
 viewBox="0.00 0.00 593.00 212.99" xmlns="http://www.w3.org/2000/svg" xmlns:xlink="http://www.w3.org/1999/xlink">
<g id="graph0" class="graph" transform="scale(1 1) rotate(0) translate(4 208.99)">
<title>main</title>
<polygon fill="white" stroke="transparent" points="-4,4 -4,-208.99 589,-208.99 589,4 -4,4"/>
<!-- Node1 -->
<g id="node1" class="node">
<title>Node1</title>
<g id="a_node1"><a xlink:title=" ">
<polygon fill="#bfbfbf" stroke="black" points="0,-133.5 0,-152.5 38,-152.5 38,-133.5 0,-133.5"/>
<text text-anchor="middle" x="19" y="-140.5" font-family="Helvetica,sans-Serif" font-size="10.00">main</text>
</a>
</g>
</g>
<!-- Node2 -->
<g id="node2" class="node">
<title>Node2</title>
<g id="a_node2"><a target="_blank" xlink:href="http://en.cppreference.com/w/cpp/io/manip/endl.html#" xlink:title=" ">
<polygon fill="white" stroke="black" points="309.5,-152.5 309.5,-171.5 363.5,-171.5 363.5,-152.5 309.5,-152.5"/>
<text text-anchor="middle" x="336.5" y="-159.5" font-family="Helvetica,sans-Serif" font-size="10.00">std::endl</text>
</a>
</g>
</g>
<!-- Node1&#45;&gt;Node2 -->
<g id="edge1" class="edge">
<title>Node1&#45;&gt;Node2</title>
<path fill="none" stroke="midnightblue" d="M30.68,-152.83C40.98,-161.7 57.4,-174.36 74,-181 152.54,-212.41 181.08,-208.69 264,-192 279.46,-188.89 295.74,-182.34 308.86,-176.16"/>
<polygon fill="midnightblue" stroke="midnightblue" points="310.77,-179.12 318.2,-171.56 307.68,-172.83 310.77,-179.12"/>
</g>
<!-- Node3 -->
<g id="node3" class="node">
<title>Node3</title>
<g id="a_node3"><a xlink:href="../../d0/d01/smallest__circle_8cpp.html#ae1a3968e7947464bee7714f6d43b7002" target="_top" xlink:title=" ">
<polygon fill="white" stroke="black" points="76.5,-76.5 76.5,-95.5 109.5,-95.5 109.5,-76.5 76.5,-76.5"/>
<text text-anchor="middle" x="93" y="-83.5" font-family="Helvetica,sans-Serif" font-size="10.00">test</text>
</a>
</g>
</g>
<!-- Node1&#45;&gt;Node3 -->
<g id="edge2" class="edge">
<title>Node1&#45;&gt;Node3</title>
<path fill="none" stroke="midnightblue" d="M32.21,-133.33C43.04,-124.76 59.05,-112.09 71.78,-102.01"/>
<polygon fill="midnightblue" stroke="midnightblue" points="74.3,-104.48 79.97,-95.53 69.95,-98.99 74.3,-104.48"/>
</g>
<!-- Node11 -->
<g id="node11" class="node">
<title>Node11</title>
<g id="a_node11"><a xlink:href="../../d0/d01/smallest__circle_8cpp.html#a0283886819c7c140a023582b7269e2d0" target="_top" xlink:title=" ">
<polygon fill="white" stroke="black" points="74,-152.5 74,-171.5 112,-171.5 112,-152.5 74,-152.5"/>
<text text-anchor="middle" x="93" y="-159.5" font-family="Helvetica,sans-Serif" font-size="10.00">test2</text>
</a>
</g>
</g>
<!-- Node1&#45;&gt;Node11 -->
<g id="edge14" class="edge">
<title>Node1&#45;&gt;Node11</title>
<path fill="none" stroke="midnightblue" d="M38.17,-147.79C45.95,-149.85 55.23,-152.3 63.87,-154.58"/>
<polygon fill="midnightblue" stroke="midnightblue" points="63.02,-157.97 73.59,-157.14 64.81,-151.21 63.02,-157.97"/>
</g>
<!-- Node12 -->
<g id="node12" class="node">
<title>Node12</title>
<g id="a_node12"><a xlink:href="../../d0/d01/smallest__circle_8cpp.html#a6d0455dd5c30adda100e95f0423c786e" target="_top" xlink:title=" ">
<polygon fill="white" stroke="black" points="74,-114.5 74,-133.5 112,-133.5 112,-114.5 74,-114.5"/>
<text text-anchor="middle" x="93" y="-121.5" font-family="Helvetica,sans-Serif" font-size="10.00">test3</text>
</a>
</g>
</g>
<!-- Node1&#45;&gt;Node12 -->
<g id="edge18" class="edge">
<title>Node1&#45;&gt;Node12</title>
<path fill="none" stroke="midnightblue" d="M38.17,-138.21C45.95,-136.15 55.23,-133.7 63.87,-131.42"/>
<polygon fill="midnightblue" stroke="midnightblue" points="64.81,-134.79 73.59,-128.86 63.02,-128.03 64.81,-134.79"/>
</g>
<!-- Node3&#45;&gt;Node2 -->
<g id="edge12" class="edge">
<title>Node3&#45;&gt;Node2</title>
<path fill="none" stroke="midnightblue" d="M109.72,-84.93C140.58,-83.42 210.76,-82.98 264,-105 285.83,-114.03 306.44,-131.82 319.87,-145.13"/>
<polygon fill="midnightblue" stroke="midnightblue" points="317.42,-147.64 326.9,-152.36 322.43,-142.75 317.42,-147.64"/>
</g>
<!-- Node4 -->
<g id="node4" class="node">
<title>Node4</title>
<g id="a_node4"><a xlink:href="../../d0/d01/smallest__circle_8cpp.html#a0b0676df8e4da7a08c7ccaecea344903" target="_top" xlink:title=" ">
<polygon fill="white" stroke="black" points="186,-38.5 186,-57.5 226,-57.5 226,-38.5 186,-38.5"/>
<text text-anchor="middle" x="206" y="-45.5" font-family="Helvetica,sans-Serif" font-size="10.00">circle</text>
</a>
</g>
</g>
<!-- Node3&#45;&gt;Node4 -->
<g id="edge3" class="edge">
<title>Node3&#45;&gt;Node4</title>
<path fill="none" stroke="midnightblue" d="M109.9,-80.56C127.19,-74.64 155.16,-65.06 176.31,-57.82"/>
<polygon fill="midnightblue" stroke="midnightblue" points="177.44,-61.13 185.77,-54.58 175.18,-54.51 177.44,-61.13"/>
</g>
<!-- Node10 -->
<g id="node10" class="node">
<title>Node10</title>
<g id="a_node10"><a target="_blank" xlink:href="http://en.cppreference.com/w/cpp/container/vector/push_back.html#" xlink:title=" ">
<polygon fill="white" stroke="black" points="148,-114.5 148,-133.5 264,-133.5 264,-114.5 148,-114.5"/>
<text text-anchor="middle" x="206" y="-121.5" font-family="Helvetica,sans-Serif" font-size="10.00">std::vector::push_back</text>
</a>
</g>
</g>
<!-- Node3&#45;&gt;Node10 -->
<g id="edge13" class="edge">
<title>Node3&#45;&gt;Node10</title>
<path fill="none" stroke="midnightblue" d="M109.9,-91.44C124.88,-96.57 147.88,-104.44 167.51,-111.16"/>
<polygon fill="midnightblue" stroke="midnightblue" points="166.52,-114.52 177.11,-114.45 168.78,-107.9 166.52,-114.52"/>
</g>
<!-- Node4&#45;&gt;Node2 -->
<g id="edge4" class="edge">
<title>Node4&#45;&gt;Node2</title>
<path fill="none" stroke="midnightblue" d="M226,-53.25C237.76,-57.13 252.7,-63.27 264,-72 284.82,-88.09 283.62,-98.41 300,-119 306.73,-127.46 314.34,-136.71 320.78,-144.47"/>
<polygon fill="midnightblue" stroke="midnightblue" points="318.12,-146.74 327.22,-152.18 323.5,-142.26 318.12,-146.74"/>
</g>
<!-- Node5 -->
<g id="node5" class="node">
<title>Node5</title>
<g id="a_node5"><a xlink:href="../../d0/d01/smallest__circle_8cpp.html#a3cbebd6f4d2cdf227663c67fe41ba12a" target="_top" xlink:title=" ">
<polygon fill="white" stroke="black" points="420.5,-0.5 420.5,-19.5 484.5,-19.5 484.5,-0.5 420.5,-0.5"/>
<text text-anchor="middle" x="452.5" y="-7.5" font-family="Helvetica,sans-Serif" font-size="10.00">LenghtLine</text>
</a>
</g>
</g>
<!-- Node4&#45;&gt;Node5 -->
<g id="edge5" class="edge">
<title>Node4&#45;&gt;Node5</title>
<path fill="none" stroke="midnightblue" d="M224.53,-38.42C242.77,-29.05 272.45,-15.41 300,-10 336.71,-2.79 379.39,-3.59 410.08,-5.73"/>
<polygon fill="midnightblue" stroke="midnightblue" points="410.16,-9.24 420.41,-6.53 410.71,-2.27 410.16,-9.24"/>
</g>
<!-- Node7 -->
<g id="node7" class="node">
<title>Node7</title>
<g id="a_node7"><a xlink:href="../../d0/d01/smallest__circle_8cpp.html#aee6d48762c1dfb9f14627927f0c16fad" target="_top" xlink:title=" ">
<polygon fill="white" stroke="black" points="300,-19.5 300,-38.5 373,-38.5 373,-19.5 300,-19.5"/>
<text text-anchor="middle" x="336.5" y="-26.5" font-family="Helvetica,sans-Serif" font-size="10.00">PointInCircle</text>
</a>
</g>
</g>
<!-- Node4&#45;&gt;Node7 -->
<g id="edge7" class="edge">
<title>Node4&#45;&gt;Node7</title>
<path fill="none" stroke="midnightblue" d="M226.24,-45.16C242.98,-42.68 267.92,-38.99 289.74,-35.77"/>
<polygon fill="midnightblue" stroke="midnightblue" points="290.45,-39.2 299.83,-34.27 289.43,-32.27 290.45,-39.2"/>
</g>
<!-- Node8 -->
<g id="node8" class="node">
<title>Node8</title>
<g id="a_node8"><a target="_blank" xlink:href="http://en.cppreference.com/w/cpp/container/vector/size.html#" xlink:title=" ">
<polygon fill="white" stroke="black" points="409,-66.5 409,-85.5 496,-85.5 496,-66.5 409,-66.5"/>
<text text-anchor="middle" x="452.5" y="-73.5" font-family="Helvetica,sans-Serif" font-size="10.00">std::vector::size</text>
</a>
</g>
</g>
<!-- Node4&#45;&gt;Node8 -->
<g id="edge10" class="edge">
<title>Node4&#45;&gt;Node8</title>
<path fill="none" stroke="midnightblue" d="M226.14,-56.04C252.23,-66.97 296.17,-85.25 300,-86 332.39,-92.36 369.35,-90.11 398.65,-86.14"/>
<polygon fill="midnightblue" stroke="midnightblue" points="399.29,-89.59 408.68,-84.68 398.28,-82.66 399.29,-89.59"/>
</g>
<!-- Node9 -->
<g id="node9" class="node">
<title>Node9</title>
<g id="a_node9"><a xlink:href="../../d0/d01/smallest__circle_8cpp.html#a94682a4a70d5906857ca09de5b9fb2cc" target="_top" xlink:title=" ">
<polygon fill="white" stroke="black" points="301,-57.5 301,-76.5 372,-76.5 372,-57.5 301,-57.5"/>
<text text-anchor="middle" x="336.5" y="-64.5" font-family="Helvetica,sans-Serif" font-size="10.00">TriangleArea</text>
</a>
</g>
</g>
<!-- Node4&#45;&gt;Node9 -->
<g id="edge11" class="edge">
<title>Node4&#45;&gt;Node9</title>
<path fill="none" stroke="midnightblue" d="M226.24,-50.84C243.22,-53.36 268.64,-57.11 290.69,-60.37"/>
<polygon fill="midnightblue" stroke="midnightblue" points="290.46,-63.88 300.86,-61.88 291.48,-56.95 290.46,-63.88"/>
</g>
<!-- Node6 -->
<g id="node6" class="node">
<title>Node6</title>
<g id="a_node6"><a target="_blank" xlink:href="http://en.cppreference.com/w/cpp/numeric/math/sqrt.html#" xlink:title=" ">
<polygon fill="white" stroke="black" points="532,-0.5 532,-19.5 585,-19.5 585,-0.5 532,-0.5"/>
<text text-anchor="middle" x="558.5" y="-7.5" font-family="Helvetica,sans-Serif" font-size="10.00">std::sqrt</text>
</a>
</g>
</g>
<!-- Node5&#45;&gt;Node6 -->
<g id="edge6" class="edge">
<title>Node5&#45;&gt;Node6</title>
<path fill="none" stroke="midnightblue" d="M484.7,-10C496.37,-10 509.7,-10 521.74,-10"/>
<polygon fill="midnightblue" stroke="midnightblue" points="521.91,-13.5 531.91,-10 521.91,-6.5 521.91,-13.5"/>
</g>
<!-- Node7&#45;&gt;Node5 -->
<g id="edge8" class="edge">
<title>Node7&#45;&gt;Node5</title>
<path fill="none" stroke="midnightblue" d="M373.26,-23.04C385.09,-21.07 398.35,-18.86 410.55,-16.83"/>
<polygon fill="midnightblue" stroke="midnightblue" points="411.2,-20.27 420.49,-15.17 410.05,-13.36 411.2,-20.27"/>
</g>
<!-- Node7&#45;&gt;Node8 -->
<g id="edge9" class="edge">
<title>Node7&#45;&gt;Node8</title>
<path fill="none" stroke="midnightblue" d="M360.57,-38.51C377.3,-45.41 400.17,-54.84 418.78,-62.51"/>
<polygon fill="midnightblue" stroke="midnightblue" points="417.49,-65.77 428.07,-66.34 420.16,-59.29 417.49,-65.77"/>
</g>
<!-- Node11&#45;&gt;Node2 -->
<g id="edge16" class="edge">
<title>Node11&#45;&gt;Node2</title>
<path fill="none" stroke="midnightblue" d="M112.27,-167.97C122.62,-171.04 135.89,-174.46 148,-176 199.14,-182.52 212.69,-180.98 264,-176 275.57,-174.88 288.04,-172.76 299.28,-170.5"/>
<polygon fill="midnightblue" stroke="midnightblue" points="300.13,-173.9 309.19,-168.41 298.69,-167.05 300.13,-173.9"/>
</g>
<!-- Node11&#45;&gt;Node4 -->
<g id="edge15" class="edge">
<title>Node11&#45;&gt;Node4</title>
<path fill="none" stroke="midnightblue" d="M103.17,-152.31C117.99,-136.65 145.78,-107.28 148,-105 161.32,-91.31 176.64,-76.01 188.04,-64.72"/>
<polygon fill="midnightblue" stroke="midnightblue" points="190.59,-67.12 195.24,-57.6 185.67,-62.15 190.59,-67.12"/>
</g>
<!-- Node11&#45;&gt;Node10 -->
<g id="edge17" class="edge">
<title>Node11&#45;&gt;Node10</title>
<path fill="none" stroke="midnightblue" d="M112.33,-155.73C127.26,-150.61 148.83,-143.23 167.4,-136.87"/>
<polygon fill="midnightblue" stroke="midnightblue" points="168.74,-140.11 177.07,-133.56 166.47,-133.49 168.74,-140.11"/>
</g>
<!-- Node12&#45;&gt;Node2 -->
<g id="edge20" class="edge">
<title>Node12&#45;&gt;Node2</title>
<path fill="none" stroke="midnightblue" d="M112.18,-131.61C122.51,-135.63 135.78,-140.27 148,-143 199.81,-154.57 261.26,-159.1 299.32,-160.88"/>
<polygon fill="midnightblue" stroke="midnightblue" points="299.27,-164.38 309.41,-161.31 299.57,-157.38 299.27,-164.38"/>
</g>
<!-- Node12&#45;&gt;Node4 -->
<g id="edge19" class="edge">
<title>Node12&#45;&gt;Node4</title>
<path fill="none" stroke="midnightblue" d="M108.06,-114.37C126.82,-101.53 160.28,-78.62 182.55,-63.37"/>
<polygon fill="midnightblue" stroke="midnightblue" points="184.78,-66.08 191.06,-57.55 180.83,-60.31 184.78,-66.08"/>
</g>
<!-- Node12&#45;&gt;Node10 -->
<g id="edge21" class="edge">
<title>Node12&#45;&gt;Node10</title>
<path fill="none" stroke="midnightblue" d="M112.33,-124C119.56,-124 128.36,-124 137.62,-124"/>
<polygon fill="midnightblue" stroke="midnightblue" points="137.79,-127.5 147.79,-124 137.79,-120.5 137.79,-127.5"/>
</g>
</g>
</svg>
