<?xml version="1.0" encoding="UTF-8" standalone="no"?>
<!DOCTYPE svg PUBLIC "-//W3C//DTD SVG 1.1//EN"
 "http://www.w3.org/Graphics/SVG/1.1/DTD/svg11.dtd">
<!-- Generated by graphviz version 2.44.0 (20200408.0750)
 -->
<!-- Title: test1 Pages: 1 -->
<svg width="759pt" height="634pt"
 viewBox="0.00 0.00 759.00 633.92" xmlns="http://www.w3.org/2000/svg" xmlns:xlink="http://www.w3.org/1999/xlink">
<g id="graph0" class="graph" transform="scale(1 1) rotate(0) translate(4 629.92)">
<title>test1</title>
<polygon fill="white" stroke="transparent" points="-4,4 -4,-629.92 755,-629.92 755,4 -4,4"/>
<!-- Node1 -->
<g id="node1" class="node">
<title>Node1</title>
<g id="a_node1"><a xlink:title="Self test 1 &#45; using 3x3 randomly generated key.">
<polygon fill="#bfbfbf" stroke="black" points="0,-182.5 0,-201.5 38,-201.5 38,-182.5 0,-182.5"/>
<text text-anchor="middle" x="19" y="-189.5" font-family="Helvetica,sans-Serif" font-size="10.00">test1</text>
</a>
</g>
</g>
<!-- Node2 -->
<g id="node2" class="node">
<title>Node2</title>
<g id="a_node2"><a target="_blank" xlink:href="http://en.cppreference.com/w/cpp/io/basic_ofstream/close.html#" xlink:title=" ">
<polygon fill="white" stroke="black" points="74,-300.5 74,-319.5 178,-319.5 178,-300.5 74,-300.5"/>
<text text-anchor="middle" x="126" y="-307.5" font-family="Helvetica,sans-Serif" font-size="10.00">std::ofstream::close</text>
</a>
</g>
</g>
<!-- Node1&#45;&gt;Node2 -->
<g id="edge1" class="edge">
<title>Node1&#45;&gt;Node2</title>
<path fill="none" stroke="midnightblue" d="M22.73,-201.62C28.75,-221.19 45,-265.87 74,-291 75.94,-292.68 78.04,-294.21 80.24,-295.62"/>
<polygon fill="midnightblue" stroke="midnightblue" points="78.69,-298.76 89.15,-300.41 82,-292.59 78.69,-298.76"/>
</g>
<!-- Node3 -->
<g id="node3" class="node">
<title>Node3</title>
<g id="a_node3"><a xlink:href="../../d6/d26/classciphers_1_1_hill_cipher.html#a427acfac1dbff3f48a2b071d449d965b" target="_top" xlink:title="Decrypt a given text using a given key.">
<polygon fill="white" stroke="black" points="77.5,-251 77.5,-281 174.5,-281 174.5,-251 77.5,-251"/>
<text text-anchor="start" x="85.5" y="-269" font-family="Helvetica,sans-Serif" font-size="10.00">ciphers::HillCipher</text>
<text text-anchor="middle" x="126" y="-258" font-family="Helvetica,sans-Serif" font-size="10.00">::decrypt_text</text>
</a>
</g>
</g>
<!-- Node1&#45;&gt;Node3 -->
<g id="edge2" class="edge">
<title>Node1&#45;&gt;Node3</title>
<path fill="none" stroke="midnightblue" d="M28.88,-201.53C39.07,-212.1 56.61,-229.2 74,-241 76.53,-242.72 79.19,-244.38 81.92,-245.99"/>
<polygon fill="midnightblue" stroke="midnightblue" points="80.34,-249.11 90.78,-250.89 83.72,-242.98 80.34,-249.11"/>
</g>
<!-- Node9 -->
<g id="node9" class="node">
<title>Node9</title>
<g id="a_node9"><a target="_blank" xlink:href="http://en.cppreference.com/w/cpp/container/vector/size.html#" xlink:title=" ">
<polygon fill="white" stroke="black" points="664,-210.5 664,-229.5 751,-229.5 751,-210.5 664,-210.5"/>
<text text-anchor="middle" x="707.5" y="-217.5" font-family="Helvetica,sans-Serif" font-size="10.00">std::vector::size</text>
</a>
</g>
</g>
<!-- Node1&#45;&gt;Node9 -->
<g id="edge32" class="edge">
<title>Node1&#45;&gt;Node9</title>
<path fill="none" stroke="midnightblue" d="M29.27,-182.1C60.79,-149.57 168.05,-48 278.5,-48 278.5,-48 278.5,-48 441.5,-48 480.09,-48 603.25,-101.22 628,-120 658.02,-142.77 682.92,-179.65 696.17,-201.69"/>
<polygon fill="midnightblue" stroke="midnightblue" points="693.2,-203.54 701.26,-210.4 699.24,-200 693.2,-203.54"/>
</g>
<!-- Node10 -->
<g id="node10" class="node">
<title>Node10</title>
<g id="a_node10"><a xlink:href="../../d6/d26/classciphers_1_1_hill_cipher.html#aa8bbb6e4a5749f6008b06602d5103917" target="_top" xlink:title="Encrypt a given text using a given key.">
<polygon fill="white" stroke="black" points="77.5,-202 77.5,-232 174.5,-232 174.5,-202 77.5,-202"/>
<text text-anchor="start" x="85.5" y="-220" font-family="Helvetica,sans-Serif" font-size="10.00">ciphers::HillCipher</text>
<text text-anchor="middle" x="126" y="-209" font-family="Helvetica,sans-Serif" font-size="10.00">::encrypt_text</text>
</a>
</g>
</g>
<!-- Node1&#45;&gt;Node10 -->
<g id="edge11" class="edge">
<title>Node1&#45;&gt;Node10</title>
<path fill="none" stroke="midnightblue" d="M38.29,-196.35C46.57,-198.33 56.85,-200.77 67.42,-203.29"/>
<polygon fill="midnightblue" stroke="midnightblue" points="66.61,-206.7 77.15,-205.61 68.23,-199.89 66.61,-206.7"/>
</g>
<!-- Node11 -->
<g id="node11" class="node">
<title>Node11</title>
<g id="a_node11"><a target="_blank" xlink:href="http://en.cppreference.com/w/cpp/io/manip/endl.html#" xlink:title=" ">
<polygon fill="white" stroke="black" points="99,-0.5 99,-19.5 153,-19.5 153,-0.5 99,-0.5"/>
<text text-anchor="middle" x="126" y="-7.5" font-family="Helvetica,sans-Serif" font-size="10.00">std::endl</text>
</a>
</g>
</g>
<!-- Node1&#45;&gt;Node11 -->
<g id="edge13" class="edge">
<title>Node1&#45;&gt;Node11</title>
<path fill="none" stroke="midnightblue" d="M20.74,-182.16C23.27,-155.15 33.78,-78.93 74,-34 78.33,-29.17 83.83,-25.23 89.61,-22.04"/>
<polygon fill="midnightblue" stroke="midnightblue" points="91.3,-25.12 98.8,-17.64 88.27,-18.81 91.3,-25.12"/>
</g>
<!-- Node12 -->
<g id="node12" class="node">
<title>Node12</title>
<g id="a_node12"><a xlink:href="../../d6/d26/classciphers_1_1_hill_cipher.html#a14bfcd14af6cd853130cbacd32e35c13" target="_top" xlink:title="Generate encryption and decryption key pair.">
<polygon fill="white" stroke="black" points="77.5,-153 77.5,-183 174.5,-183 174.5,-153 77.5,-153"/>
<text text-anchor="start" x="85.5" y="-171" font-family="Helvetica,sans-Serif" font-size="10.00">ciphers::HillCipher</text>
<text text-anchor="middle" x="126" y="-160" font-family="Helvetica,sans-Serif" font-size="10.00">::generate_keys</text>
</a>
</g>
</g>
<!-- Node1&#45;&gt;Node12 -->
<g id="edge14" class="edge">
<title>Node1&#45;&gt;Node12</title>
<path fill="none" stroke="midnightblue" d="M38.29,-187.82C46.48,-185.95 56.64,-183.62 67.09,-181.24"/>
<polygon fill="midnightblue" stroke="midnightblue" points="68.18,-184.58 77.15,-178.94 66.62,-177.75 68.18,-184.58"/>
</g>
<!-- Node4 -->
<g id="node4" class="node">
<title>Node4</title>
<g id="a_node4"><a xlink:href="../../d6/d26/classciphers_1_1_hill_cipher.html#ad667fa0860977f6d6d443fa1dbcd80aa" target="_top" xlink:title="Convenience function to perform block cipher operations. The operations are identical for both encryp...">
<polygon fill="white" stroke="black" points="231,-505 231,-535 328,-535 328,-505 231,-505"/>
<text text-anchor="start" x="239" y="-523" font-family="Helvetica,sans-Serif" font-size="10.00">ciphers::HillCipher</text>
<text text-anchor="middle" x="279.5" y="-512" font-family="Helvetica,sans-Serif" font-size="10.00">::codec</text>
</a>
</g>
</g>
<!-- Node3&#45;&gt;Node4 -->
<g id="edge3" class="edge">
<title>Node3&#45;&gt;Node4</title>
<path fill="none" stroke="midnightblue" d="M166.39,-281.12C170.69,-283.93 174.7,-287.2 178,-291 211.75,-329.82 193.66,-353.75 214,-401 228.68,-435.11 249.82,-472.45 263.84,-496.04"/>
<polygon fill="midnightblue" stroke="midnightblue" points="260.87,-497.89 269.02,-504.66 266.87,-494.29 260.87,-497.89"/>
</g>
<!-- Node5 -->
<g id="node5" class="node">
<title>Node5</title>
<g id="a_node5"><a xlink:href="../../d6/d26/classciphers_1_1_hill_cipher.html#ae77cad522fa44b8c985779a7188d2f41" target="_top" xlink:title="Get the index of a character in the STRKEY.">
<polygon fill="white" stroke="black" points="392,-481 392,-511 489,-511 489,-481 392,-481"/>
<text text-anchor="start" x="400" y="-499" font-family="Helvetica,sans-Serif" font-size="10.00">ciphers::HillCipher</text>
<text text-anchor="middle" x="440.5" y="-488" font-family="Helvetica,sans-Serif" font-size="10.00">::get_char_idx</text>
</a>
</g>
</g>
<!-- Node4&#45;&gt;Node5 -->
<g id="edge4" class="edge">
<title>Node4&#45;&gt;Node5</title>
<path fill="none" stroke="midnightblue" d="M328.21,-512.8C345.03,-510.26 364.12,-507.38 381.69,-504.73"/>
<polygon fill="midnightblue" stroke="midnightblue" points="382.46,-508.15 391.83,-503.2 381.42,-501.23 382.46,-508.15"/>
</g>
<!-- Node7 -->
<g id="node7" class="node">
<title>Node7</title>
<g id="a_node7"><a target="_blank" xlink:href="http://en.cppreference.com/w/cpp/string/basic_string/size.html#" xlink:title=" ">
<polygon fill="white" stroke="black" points="394.5,-579.5 394.5,-598.5 486.5,-598.5 486.5,-579.5 394.5,-579.5"/>
<text text-anchor="middle" x="440.5" y="-586.5" font-family="Helvetica,sans-Serif" font-size="10.00">std::string::length</text>
</a>
</g>
</g>
<!-- Node4&#45;&gt;Node7 -->
<g id="edge6" class="edge">
<title>Node4&#45;&gt;Node7</title>
<path fill="none" stroke="midnightblue" d="M308.15,-535.14C328.05,-545.7 355.74,-559.68 381,-570 386.38,-572.2 392.12,-574.32 397.82,-576.3"/>
<polygon fill="midnightblue" stroke="midnightblue" points="396.72,-579.62 407.31,-579.49 398.95,-572.99 396.72,-579.62"/>
</g>
<!-- Node8 -->
<g id="node8" class="node">
<title>Node8</title>
<g id="a_node8"><a xlink:href="../../d6/d26/classciphers_1_1_hill_cipher.html#a40efd842a5cc44c233641ac2df13b0c0" target="_top" xlink:title="helper function to perform vector multiplication with encryption or decryption matrix">
<polygon fill="white" stroke="black" points="392,-530 392,-560 489,-560 489,-530 392,-530"/>
<text text-anchor="start" x="400" y="-548" font-family="Helvetica,sans-Serif" font-size="10.00">ciphers::HillCipher</text>
<text text-anchor="middle" x="440.5" y="-537" font-family="Helvetica,sans-Serif" font-size="10.00">::mat_mul</text>
</a>
</g>
</g>
<!-- Node4&#45;&gt;Node8 -->
<g id="edge7" class="edge">
<title>Node4&#45;&gt;Node8</title>
<path fill="none" stroke="midnightblue" d="M328.21,-527.5C345.03,-530.15 364.12,-533.15 381.69,-535.91"/>
<polygon fill="midnightblue" stroke="midnightblue" points="381.41,-539.41 391.83,-537.5 382.49,-532.49 381.41,-539.41"/>
</g>
<!-- Node4&#45;&gt;Node9 -->
<g id="edge10" class="edge">
<title>Node4&#45;&gt;Node9</title>
<path fill="none" stroke="midnightblue" d="M291.76,-535.13C308.49,-556.19 342.14,-593.39 381,-608 489.67,-648.85 560.63,-617.55 628,-523 692.93,-431.86 704.2,-291.29 706.12,-239.78"/>
<polygon fill="midnightblue" stroke="midnightblue" points="709.62,-239.78 706.41,-229.68 702.62,-239.58 709.62,-239.78"/>
</g>
<!-- Node6 -->
<g id="node6" class="node">
<title>Node6</title>
<g id="a_node6"><a target="_blank" xlink:href="http://en.cppreference.com/w/cpp/string/byte/strlen.html#" xlink:title=" ">
<polygon fill="white" stroke="black" points="552,-456.5 552,-475.5 612,-475.5 612,-456.5 552,-456.5"/>
<text text-anchor="middle" x="582" y="-463.5" font-family="Helvetica,sans-Serif" font-size="10.00">std::strlen</text>
</a>
</g>
</g>
<!-- Node5&#45;&gt;Node6 -->
<g id="edge5" class="edge">
<title>Node5&#45;&gt;Node6</title>
<path fill="none" stroke="midnightblue" d="M489.12,-485.76C506.37,-482.05 525.65,-477.9 542.07,-474.37"/>
<polygon fill="midnightblue" stroke="midnightblue" points="542.84,-477.79 551.88,-472.26 541.37,-470.94 542.84,-477.79"/>
</g>
<!-- Node8&#45;&gt;Node6 -->
<g id="edge9" class="edge">
<title>Node8&#45;&gt;Node6</title>
<path fill="none" stroke="midnightblue" d="M481.35,-529.95C487.69,-527.19 494.1,-524.17 500,-521 521.61,-509.4 544.59,-493.4 560.53,-481.65"/>
<polygon fill="midnightblue" stroke="midnightblue" points="562.69,-484.4 568.61,-475.61 558.5,-478.8 562.69,-484.4"/>
</g>
<!-- Node8&#45;&gt;Node9 -->
<g id="edge8" class="edge">
<title>Node8&#45;&gt;Node9</title>
<path fill="none" stroke="midnightblue" d="M489.3,-541.86C531.34,-536.57 591.4,-522.47 628,-485 696.45,-414.94 705.65,-288.11 706.57,-239.6"/>
<polygon fill="midnightblue" stroke="midnightblue" points="710.07,-239.54 706.66,-229.51 703.07,-239.48 710.07,-239.54"/>
</g>
<!-- Node10&#45;&gt;Node4 -->
<g id="edge12" class="edge">
<title>Node10&#45;&gt;Node4</title>
<path fill="none" stroke="midnightblue" d="M168.45,-232.21C172.03,-234.73 175.31,-237.64 178,-241 223.61,-297.85 188.39,-332.76 214,-401 227.05,-435.77 248.56,-472.96 263.12,-496.33"/>
<polygon fill="midnightblue" stroke="midnightblue" points="260.22,-498.28 268.52,-504.87 266.13,-494.54 260.22,-498.28"/>
</g>
<!-- Node13 -->
<g id="node13" class="node">
<title>Node13</title>
<g id="a_node13"><a xlink:href="../../d1/dbe/lu__decomposition_8h.html#a3108d43bd32c6fb3b3c158476c51ba7f" target="_top" xlink:title=" ">
<polygon fill="white" stroke="black" points="400.5,-76.5 400.5,-95.5 480.5,-95.5 480.5,-76.5 400.5,-76.5"/>
<text text-anchor="middle" x="440.5" y="-83.5" font-family="Helvetica,sans-Serif" font-size="10.00">determinant_lu</text>
</a>
</g>
</g>
<!-- Node12&#45;&gt;Node13 -->
<g id="edge15" class="edge">
<title>Node12&#45;&gt;Node13</title>
<path fill="none" stroke="midnightblue" d="M154.07,-153C170.88,-144.25 193.17,-133.68 214,-127 273.18,-108.03 344.09,-96.95 390.38,-91.19"/>
<polygon fill="midnightblue" stroke="midnightblue" points="390.94,-94.65 400.45,-89.97 390.1,-87.7 390.94,-94.65"/>
</g>
<!-- Node15 -->
<g id="node15" class="node">
<title>Node15</title>
<g id="a_node15"><a xlink:href="../../d6/d26/classciphers_1_1_hill_cipher.html#abb2c4dc2b8a59d3dfe0fa22c2adc086b" target="_top" xlink:title="Generate decryption matrix from an encryption matrix key.">
<polygon fill="white" stroke="black" points="214,-175 214,-205 345,-205 345,-175 214,-175"/>
<text text-anchor="start" x="222" y="-193" font-family="Helvetica,sans-Serif" font-size="10.00">ciphers::HillCipher</text>
<text text-anchor="middle" x="279.5" y="-182" font-family="Helvetica,sans-Serif" font-size="10.00">::generate_decryption_key</text>
</a>
</g>
</g>
<!-- Node12&#45;&gt;Node15 -->
<g id="edge19" class="edge">
<title>Node12&#45;&gt;Node15</title>
<path fill="none" stroke="midnightblue" d="M174.52,-174.9C183.89,-176.26 193.94,-177.72 203.95,-179.17"/>
<polygon fill="midnightblue" stroke="midnightblue" points="203.54,-182.65 213.93,-180.62 204.54,-175.72 203.54,-182.65"/>
</g>
<!-- Node19 -->
<g id="node19" class="node">
<title>Node19</title>
<g id="a_node19"><a xlink:href="../../d6/d26/classciphers_1_1_hill_cipher.html#a7ca10cd1a0e8e3732391e0427d2d0213" target="_top" xlink:title="Generate encryption matrix of a given size. Larger size matrices are difficult to generate but provid...">
<polygon fill="white" stroke="black" points="214,-361 214,-391 345,-391 345,-361 214,-361"/>
<text text-anchor="start" x="222" y="-379" font-family="Helvetica,sans-Serif" font-size="10.00">ciphers::HillCipher</text>
<text text-anchor="middle" x="279.5" y="-368" font-family="Helvetica,sans-Serif" font-size="10.00">::generate_encryption_key</text>
</a>
</g>
</g>
<!-- Node12&#45;&gt;Node19 -->
<g id="edge26" class="edge">
<title>Node12&#45;&gt;Node19</title>
<path fill="none" stroke="midnightblue" d="M166,-183.1C170.32,-185.69 174.44,-188.65 178,-192 226.57,-237.73 257.1,-312.29 270.53,-350.96"/>
<polygon fill="midnightblue" stroke="midnightblue" points="267.36,-352.5 273.87,-360.86 273.99,-350.27 267.36,-352.5"/>
</g>
<!-- Node23 -->
<g id="node23" class="node">
<title>Node23</title>
<g id="a_node23"><a target="_blank" xlink:href="http://en.cppreference.com/w/cpp/utility/pair/make_pair.html#" xlink:title=" ">
<polygon fill="white" stroke="black" points="239,-136.5 239,-155.5 320,-155.5 320,-136.5 239,-136.5"/>
<text text-anchor="middle" x="279.5" y="-143.5" font-family="Helvetica,sans-Serif" font-size="10.00">std::make_pair</text>
</a>
</g>
</g>
<!-- Node12&#45;&gt;Node23 -->
<g id="edge31" class="edge">
<title>Node12&#45;&gt;Node23</title>
<path fill="none" stroke="midnightblue" d="M174.52,-161.1C191.78,-158.59 211.33,-155.75 228.78,-153.22"/>
<polygon fill="midnightblue" stroke="midnightblue" points="229.39,-156.67 238.78,-151.77 228.38,-149.74 229.39,-156.67"/>
</g>
<!-- Node13&#45;&gt;Node9 -->
<g id="edge18" class="edge">
<title>Node13&#45;&gt;Node9</title>
<path fill="none" stroke="midnightblue" d="M474.03,-95.53C482.58,-98.32 491.72,-101.55 500,-105 569.83,-134.12 646.19,-180.95 683.45,-204.87"/>
<polygon fill="midnightblue" stroke="midnightblue" points="681.76,-207.94 692.05,-210.43 685.56,-202.06 681.76,-207.94"/>
</g>
<!-- Node14 -->
<g id="node14" class="node">
<title>Node14</title>
<g id="a_node14"><a xlink:href="../../d1/dbe/lu__decomposition_8h.html#a75b8a228c6419ecda6077255d6d60509" target="_top" xlink:title=" ">
<polygon fill="white" stroke="black" points="536,-180.5 536,-199.5 628,-199.5 628,-180.5 536,-180.5"/>
<text text-anchor="middle" x="582" y="-187.5" font-family="Helvetica,sans-Serif" font-size="10.00">lu_decomposition</text>
</a>
</g>
</g>
<!-- Node13&#45;&gt;Node14 -->
<g id="edge16" class="edge">
<title>Node13&#45;&gt;Node14</title>
<path fill="none" stroke="midnightblue" d="M480.53,-95.58C487.3,-98.09 494.07,-101.2 500,-105 519.86,-117.72 519.75,-126.9 536,-144 545.19,-153.67 555.6,-164.33 564.09,-172.95"/>
<polygon fill="midnightblue" stroke="midnightblue" points="561.74,-175.56 571.26,-180.21 566.72,-170.64 561.74,-175.56"/>
</g>
<!-- Node14&#45;&gt;Node9 -->
<g id="edge17" class="edge">
<title>Node14&#45;&gt;Node9</title>
<path fill="none" stroke="midnightblue" d="M622.42,-199.57C633.44,-202.25 645.57,-205.2 657.1,-208"/>
<polygon fill="midnightblue" stroke="midnightblue" points="656.49,-211.45 667.04,-210.41 658.14,-204.65 656.49,-211.45"/>
</g>
<!-- Node15&#45;&gt;Node6 -->
<g id="edge25" class="edge">
<title>Node15&#45;&gt;Node6</title>
<path fill="none" stroke="midnightblue" d="M297.99,-205.27C317.27,-221.51 349.72,-247.14 381,-264 430.64,-290.76 457.82,-270.58 500,-308 543.3,-346.41 566.66,-413.48 576.03,-446.5"/>
<polygon fill="midnightblue" stroke="midnightblue" points="572.7,-447.56 578.69,-456.3 579.45,-445.73 572.7,-447.56"/>
</g>
<!-- Node15&#45;&gt;Node9 -->
<g id="edge24" class="edge">
<title>Node15&#45;&gt;Node9</title>
<path fill="none" stroke="midnightblue" d="M309.04,-205.12C328.67,-214.64 355.67,-226.03 381,-231 475.8,-249.59 589.05,-238.47 653.9,-229.01"/>
<polygon fill="midnightblue" stroke="midnightblue" points="654.51,-232.46 663.88,-227.51 653.47,-225.54 654.51,-232.46"/>
</g>
<!-- Node15&#45;&gt;Node13 -->
<g id="edge20" class="edge">
<title>Node15&#45;&gt;Node13</title>
<path fill="none" stroke="midnightblue" d="M329.99,-174.83C335.36,-172.05 340.5,-168.79 345,-165 368.78,-144.96 356.67,-124.37 381,-105 384.11,-102.53 387.55,-100.37 391.15,-98.49"/>
<polygon fill="midnightblue" stroke="midnightblue" points="392.68,-101.65 400.38,-94.37 389.82,-95.25 392.68,-101.65"/>
</g>
<!-- Node16 -->
<g id="node16" class="node">
<title>Node16</title>
<g id="a_node16"><a target="_blank" xlink:href="http://en.cppreference.com/w/cpp/utility/program/exit.html#" xlink:title=" ">
<polygon fill="white" stroke="black" points="414.5,-202.5 414.5,-221.5 466.5,-221.5 466.5,-202.5 414.5,-202.5"/>
<text text-anchor="middle" x="440.5" y="-209.5" font-family="Helvetica,sans-Serif" font-size="10.00">std::exit</text>
</a>
</g>
</g>
<!-- Node15&#45;&gt;Node16 -->
<g id="edge21" class="edge">
<title>Node15&#45;&gt;Node16</title>
<path fill="none" stroke="midnightblue" d="M345.17,-198.95C365.25,-201.73 386.64,-204.69 403.96,-207.08"/>
<polygon fill="midnightblue" stroke="midnightblue" points="403.79,-210.59 414.17,-208.5 404.75,-203.66 403.79,-210.59"/>
</g>
<!-- Node17 -->
<g id="node17" class="node">
<title>Node17</title>
<g id="a_node17"><a xlink:href="../../d6/d26/classciphers_1_1_hill_cipher.html#a5a4cdbd4d4dad9efe2ed309bd466dd4b" target="_top" xlink:title=" ">
<polygon fill="white" stroke="black" points="392,-153 392,-183 489,-183 489,-153 392,-153"/>
<text text-anchor="start" x="400" y="-171" font-family="Helvetica,sans-Serif" font-size="10.00">ciphers::HillCipher</text>
<text text-anchor="middle" x="440.5" y="-160" font-family="Helvetica,sans-Serif" font-size="10.00">::get_inverse</text>
</a>
</g>
</g>
<!-- Node15&#45;&gt;Node17 -->
<g id="edge22" class="edge">
<title>Node15&#45;&gt;Node17</title>
<path fill="none" stroke="midnightblue" d="M345.17,-181.05C357.27,-179.38 369.85,-177.64 381.73,-175.99"/>
<polygon fill="midnightblue" stroke="midnightblue" points="382.53,-179.42 391.96,-174.58 381.57,-172.48 382.53,-179.42"/>
</g>
<!-- Node18 -->
<g id="node18" class="node">
<title>Node18</title>
<g id="a_node18"><a target="_blank" xlink:href="http://en.cppreference.com/w/cpp/numeric/math/round.html#" xlink:title=" ">
<polygon fill="white" stroke="black" points="410.5,-114.5 410.5,-133.5 470.5,-133.5 470.5,-114.5 410.5,-114.5"/>
<text text-anchor="middle" x="440.5" y="-121.5" font-family="Helvetica,sans-Serif" font-size="10.00">std::round</text>
</a>
</g>
</g>
<!-- Node15&#45;&gt;Node18 -->
<g id="edge23" class="edge">
<title>Node15&#45;&gt;Node18</title>
<path fill="none" stroke="midnightblue" d="M322.61,-174.93C330.17,-171.88 337.89,-168.51 345,-165 361.81,-156.69 363.97,-150.84 381,-143 387.26,-140.12 394.07,-137.49 400.77,-135.16"/>
<polygon fill="midnightblue" stroke="midnightblue" points="402.03,-138.43 410.42,-131.97 399.83,-131.78 402.03,-138.43"/>
</g>
<!-- Node19&#45;&gt;Node6 -->
<g id="edge30" class="edge">
<title>Node19&#45;&gt;Node6</title>
<path fill="none" stroke="midnightblue" d="M301.78,-391.03C321.42,-404.17 351.87,-422.71 381,-433 434.72,-451.99 500.49,-460.16 541.58,-463.6"/>
<polygon fill="midnightblue" stroke="midnightblue" points="541.48,-467.1 551.72,-464.39 542.03,-460.12 541.48,-467.1"/>
</g>
<!-- Node20 -->
<g id="node20" class="node">
<title>Node20</title>
<g id="a_node20"><a xlink:href="../../d6/d26/classciphers_1_1_hill_cipher.html#a7760f3665651a0a37937c79c62f219c0" target="_top" xlink:title="Compute GCD of two integers using Euler&#39;s algorithm.">
<polygon fill="white" stroke="black" points="381,-404.5 381,-423.5 500,-423.5 500,-404.5 381,-404.5"/>
<text text-anchor="middle" x="440.5" y="-411.5" font-family="Helvetica,sans-Serif" font-size="10.00">ciphers::HillCipher::gcd</text>
</a>
</g>
</g>
<!-- Node19&#45;&gt;Node20 -->
<g id="edge27" class="edge">
<title>Node19&#45;&gt;Node20</title>
<path fill="none" stroke="midnightblue" d="M343.34,-391.02C358.72,-394.69 374.96,-398.58 389.63,-402.08"/>
<polygon fill="midnightblue" stroke="midnightblue" points="388.97,-405.52 399.51,-404.44 390.6,-398.71 388.97,-405.52"/>
</g>
<!-- Node21 -->
<g id="node21" class="node">
<title>Node21</title>
<g id="a_node21"><a target="_blank" xlink:href="http://en.cppreference.com/w/cpp/numeric/math/isfinite.html#" xlink:title=" ">
<polygon fill="white" stroke="black" points="408,-366.5 408,-385.5 473,-385.5 473,-366.5 408,-366.5"/>
<text text-anchor="middle" x="440.5" y="-373.5" font-family="Helvetica,sans-Serif" font-size="10.00">std::isfinite</text>
</a>
</g>
</g>
<!-- Node19&#45;&gt;Node21 -->
<g id="edge28" class="edge">
<title>Node19&#45;&gt;Node21</title>
<path fill="none" stroke="midnightblue" d="M345.17,-376C362.94,-376 381.74,-376 397.84,-376"/>
<polygon fill="midnightblue" stroke="midnightblue" points="397.99,-379.5 407.99,-376 397.99,-372.5 397.99,-379.5"/>
</g>
<!-- Node22 -->
<g id="node22" class="node">
<title>Node22</title>
<g id="a_node22"><a xlink:href="../../d6/d26/classciphers_1_1_hill_cipher.html#a629be41c1ab78850963e4ce14e1d11d9" target="_top" xlink:title="Function to generate a random integer in a given interval.">
<polygon fill="white" stroke="black" points="392,-317 392,-347 489,-347 489,-317 392,-317"/>
<text text-anchor="start" x="400" y="-335" font-family="Helvetica,sans-Serif" font-size="10.00">ciphers::HillCipher</text>
<text text-anchor="middle" x="440.5" y="-324" font-family="Helvetica,sans-Serif" font-size="10.00">::rand_range</text>
</a>
</g>
</g>
<!-- Node19&#45;&gt;Node22 -->
<g id="edge29" class="edge">
<title>Node19&#45;&gt;Node22</title>
<path fill="none" stroke="midnightblue" d="M334.77,-360.98C349.98,-356.77 366.55,-352.19 381.94,-347.93"/>
<polygon fill="midnightblue" stroke="midnightblue" points="383.15,-351.23 391.85,-345.19 381.28,-344.48 383.15,-351.23"/>
</g>
</g>
</svg>
