<?xml version="1.0" encoding="UTF-8" standalone="no"?>
<!DOCTYPE svg PUBLIC "-//W3C//DTD SVG 1.1//EN"
 "http://www.w3.org/Graphics/SVG/1.1/DTD/svg11.dtd">
<!-- Generated by graphviz version 2.44.0 (20200408.0750)
 -->
<!-- Title: test2 Pages: 1 -->
<!--zoomable 721 -->
<svg id="main" version="1.1" xmlns="http://www.w3.org/2000/svg" xmlns:xlink="http://www.w3.org/1999/xlink" xml:space="preserve" onload="init(evt)">
<style type="text/css"><![CDATA[
.edge:hover path { stroke: red; }
.edge:hover polygon { stroke: red; fill: red; }
]]></style>
<script type="text/javascript"><![CDATA[
var edges = document.getElementsByTagName('g');
if (edges && edges.length) {
  for (var i=0;i<edges.length;i++) {
    if (edges[i].id.substr(0,4)=='edge') {
      edges[i].setAttribute('class','edge');
    }
  }
}
]]></script>
        <defs>
                <circle id="rim" cx="0" cy="0" r="7"/>
                <circle id="rim2" cx="0" cy="0" r="3.5"/>
                <g id="zoomPlus">
                        <use xlink:href="#rim" fill="#404040">
                                <set attributeName="fill" to="#808080" begin="zoomplus.mouseover" end="zoomplus.mouseout"/>
                        </use>
                        <path d="M-4,0h8M0,-4v8" fill="none" stroke="white" stroke-width="1.5" pointer-events="none"/>
                </g>
                <g id="zoomMin">
                        <use xlink:href="#rim" fill="#404040">
                                <set attributeName="fill" to="#808080" begin="zoomminus.mouseover" end="zoomminus.mouseout"/>
                        </use>
                        <path d="M-4,0h8" fill="none" stroke="white" stroke-width="1.5" pointer-events="none"/>
                </g>
                <g id="dirArrow">
                        <path fill="none" stroke="white" stroke-width="1.5" d="M0,-3.0v7 M-2.5,-0.5L0,-3.0L2.5,-0.5"/>
                </g>
               <g id="resetDef">
                       <use xlink:href="#rim2" fill="#404040">
                               <set attributeName="fill" to="#808080" begin="reset.mouseover" end="reset.mouseout"/>
                       </use>
               </g>
        </defs>

<script type="text/javascript">
var viewWidth = 759;
var viewHeight = 721;
var sectionId = 'dynsection-4';
</script>
<script xlink:href="../../svgpan.js"/>
<svg id="graph" class="graph">
<g id="viewport">
<title>test2</title>
<polygon fill="white" stroke="transparent" points="-4,4 -4,-717 755,-717 755,4 -4,4"/>
<!-- Node1 -->
<g id="node1" class="node">
<title>Node1</title>
<g id="a_node1"><a xlink:title="Self test 2 &#45; using 8x8 randomly generated key.">
<polygon fill="#bfbfbf" stroke="black" points="0,-529.5 0,-548.5 38,-548.5 38,-529.5 0,-529.5"/>
<text text-anchor="middle" x="19" y="-536.5" font-family="Helvetica,sans-Serif" font-size="10.00">test2</text>
</a>
</g>
</g>
<!-- Node2 -->
<g id="node2" class="node">
<title>Node2</title>
<g id="a_node2"><a target="_blank" xlink:href="http://en.cppreference.com/w/cpp/io/basic_ofstream/close.html#" xlink:title=" ">
<polygon fill="white" stroke="black" points="74,-693.5 74,-712.5 178,-712.5 178,-693.5 74,-693.5"/>
<text text-anchor="middle" x="126" y="-700.5" font-family="Helvetica,sans-Serif" font-size="10.00">std::ofstream::close</text>
</a>
</g>
</g>
<!-- Node1&#45;&gt;Node2 -->
<g id="edge1" class="edge">
<title>Node1&#45;&gt;Node2</title>
<path fill="none" stroke="midnightblue" d="M20.86,-548.58C23.64,-574.14 34.68,-644.68 74,-684 75.45,-685.45 77.03,-686.8 78.69,-688.04"/>
<polygon fill="midnightblue" stroke="midnightblue" points="77.25,-691.26 87.62,-693.44 80.88,-685.27 77.25,-691.26"/>
</g>
<!-- Node3 -->
<g id="node3" class="node">
<title>Node3</title>
<g id="a_node3"><a target="_blank" xlink:href="http://en.cppreference.com/w/cpp/string/basic_string/compare.html#" xlink:title=" ">
<polygon fill="white" stroke="black" points="74,-655.5 74,-674.5 178,-674.5 178,-655.5 74,-655.5"/>
<text text-anchor="middle" x="126" y="-662.5" font-family="Helvetica,sans-Serif" font-size="10.00">std::string::compare</text>
</a>
</g>
</g>
<!-- Node1&#45;&gt;Node3 -->
<g id="edge2" class="edge">
<title>Node1&#45;&gt;Node3</title>
<path fill="none" stroke="midnightblue" d="M22.83,-548.72C29.03,-568.5 45.58,-613.89 74,-641 77.98,-644.8 82.68,-648.09 87.58,-650.91"/>
<polygon fill="midnightblue" stroke="midnightblue" points="86.02,-654.04 96.52,-655.48 89.21,-647.81 86.02,-654.04"/>
</g>
<!-- Node4 -->
<g id="node4" class="node">
<title>Node4</title>
<g id="a_node4"><a xlink:href="../../d6/d26/classciphers_1_1_hill_cipher.html#a427acfac1dbff3f48a2b071d449d965b" target="_top" xlink:title="Decrypt a given text using a given key.">
<polygon fill="white" stroke="black" points="77.5,-500 77.5,-530 174.5,-530 174.5,-500 77.5,-500"/>
<text text-anchor="start" x="85.5" y="-518" font-family="Helvetica,sans-Serif" font-size="10.00">ciphers::HillCipher</text>
<text text-anchor="middle" x="126" y="-507" font-family="Helvetica,sans-Serif" font-size="10.00">::decrypt_text</text>
</a>
</g>
</g>
<!-- Node1&#45;&gt;Node4 -->
<g id="edge3" class="edge">
<title>Node1&#45;&gt;Node4</title>
<path fill="none" stroke="midnightblue" d="M38.29,-534.82C46.48,-532.95 56.64,-530.62 67.09,-528.24"/>
<polygon fill="midnightblue" stroke="midnightblue" points="68.18,-531.58 77.15,-525.94 66.62,-524.75 68.18,-531.58"/>
</g>
<!-- Node8 -->
<g id="node8" class="node">
<title>Node8</title>
<g id="a_node8"><a target="_blank" xlink:href="http://en.cppreference.com/w/cpp/string/basic_string/size.html#" xlink:title=" ">
<polygon fill="white" stroke="black" points="394.5,-442.5 394.5,-461.5 486.5,-461.5 486.5,-442.5 394.5,-442.5"/>
<text text-anchor="middle" x="440.5" y="-449.5" font-family="Helvetica,sans-Serif" font-size="10.00">std::string::length</text>
</a>
</g>
</g>
<!-- Node1&#45;&gt;Node8 -->
<g id="edge33" class="edge">
<title>Node1&#45;&gt;Node8</title>
<path fill="none" stroke="midnightblue" d="M27.59,-529.31C37.08,-517.96 54.5,-499.63 74,-491 176.42,-445.69 310.18,-444.18 384.18,-447.7"/>
<polygon fill="midnightblue" stroke="midnightblue" points="384.05,-451.2 394.22,-448.23 384.42,-444.21 384.05,-451.2"/>
</g>
<!-- Node10 -->
<g id="node10" class="node">
<title>Node10</title>
<g id="a_node10"><a target="_blank" xlink:href="http://en.cppreference.com/w/cpp/container/vector/size.html#" xlink:title=" ">
<polygon fill="white" stroke="black" points="664,-305.5 664,-324.5 751,-324.5 751,-305.5 664,-305.5"/>
<text text-anchor="middle" x="707.5" y="-312.5" font-family="Helvetica,sans-Serif" font-size="10.00">std::vector::size</text>
</a>
</g>
</g>
<!-- Node1&#45;&gt;Node10 -->
<g id="edge34" class="edge">
<title>Node1&#45;&gt;Node10</title>
<path fill="none" stroke="midnightblue" d="M27.62,-548.84C37.15,-560.4 54.59,-579.25 74,-589 156.61,-630.48 186.06,-627 278.5,-627 278.5,-627 278.5,-627 441.5,-627 532.59,-627 566.71,-609.39 628,-542 683.77,-480.68 700.26,-377.73 704.85,-334.76"/>
<polygon fill="midnightblue" stroke="midnightblue" points="708.36,-334.83 705.83,-324.54 701.39,-334.16 708.36,-334.83"/>
</g>
<!-- Node11 -->
<g id="node11" class="node">
<title>Node11</title>
<g id="a_node11"><a xlink:href="../../d6/d26/classciphers_1_1_hill_cipher.html#aa8bbb6e4a5749f6008b06602d5103917" target="_top" xlink:title="Encrypt a given text using a given key.">
<polygon fill="white" stroke="black" points="77.5,-549 77.5,-579 174.5,-579 174.5,-549 77.5,-549"/>
<text text-anchor="start" x="85.5" y="-567" font-family="Helvetica,sans-Serif" font-size="10.00">ciphers::HillCipher</text>
<text text-anchor="middle" x="126" y="-556" font-family="Helvetica,sans-Serif" font-size="10.00">::encrypt_text</text>
</a>
</g>
</g>
<!-- Node1&#45;&gt;Node11 -->
<g id="edge12" class="edge">
<title>Node1&#45;&gt;Node11</title>
<path fill="none" stroke="midnightblue" d="M38.29,-543.35C46.57,-545.33 56.85,-547.77 67.42,-550.29"/>
<polygon fill="midnightblue" stroke="midnightblue" points="66.61,-553.7 77.15,-552.61 68.23,-546.89 66.61,-553.7"/>
</g>
<!-- Node12 -->
<g id="node12" class="node">
<title>Node12</title>
<g id="a_node12"><a target="_blank" xlink:href="http://en.cppreference.com/w/cpp/io/manip/endl.html#" xlink:title=" ">
<polygon fill="white" stroke="black" points="99,-316.5 99,-335.5 153,-335.5 153,-316.5 99,-316.5"/>
<text text-anchor="middle" x="126" y="-323.5" font-family="Helvetica,sans-Serif" font-size="10.00">std::endl</text>
</a>
</g>
</g>
<!-- Node1&#45;&gt;Node12 -->
<g id="edge14" class="edge">
<title>Node1&#45;&gt;Node12</title>
<path fill="none" stroke="midnightblue" d="M19.8,-529.5C19.66,-498.65 23.4,-400.11 74,-345 78.18,-340.45 83.54,-336.99 89.22,-334.35"/>
<polygon fill="midnightblue" stroke="midnightblue" points="90.82,-337.49 98.91,-330.65 88.32,-330.95 90.82,-337.49"/>
</g>
<!-- Node13 -->
<g id="node13" class="node">
<title>Node13</title>
<g id="a_node13"><a xlink:href="../../d6/d26/classciphers_1_1_hill_cipher.html#a14bfcd14af6cd853130cbacd32e35c13" target="_top" xlink:title="Generate encryption and decryption key pair.">
<polygon fill="white" stroke="black" points="77.5,-355 77.5,-385 174.5,-385 174.5,-355 77.5,-355"/>
<text text-anchor="start" x="85.5" y="-373" font-family="Helvetica,sans-Serif" font-size="10.00">ciphers::HillCipher</text>
<text text-anchor="middle" x="126" y="-362" font-family="Helvetica,sans-Serif" font-size="10.00">::generate_keys</text>
</a>
</g>
</g>
<!-- Node1&#45;&gt;Node13 -->
<g id="edge15" class="edge">
<title>Node1&#45;&gt;Node13</title>
<path fill="none" stroke="midnightblue" d="M25.35,-529.5C34.87,-512.69 55.47,-476.7 74,-447 85.35,-428.81 98.76,-408.6 108.98,-393.46"/>
<polygon fill="midnightblue" stroke="midnightblue" points="111.88,-395.42 114.59,-385.18 106.09,-391.5 111.88,-395.42"/>
</g>
<!-- Node5 -->
<g id="node5" class="node">
<title>Node5</title>
<g id="a_node5"><a xlink:href="../../d6/d26/classciphers_1_1_hill_cipher.html#ad667fa0860977f6d6d443fa1dbcd80aa" target="_top" xlink:title="Convenience function to perform block cipher operations. The operations are identical for both encryp...">
<polygon fill="white" stroke="black" points="231,-505 231,-535 328,-535 328,-505 231,-505"/>
<text text-anchor="start" x="239" y="-523" font-family="Helvetica,sans-Serif" font-size="10.00">ciphers::HillCipher</text>
<text text-anchor="middle" x="279.5" y="-512" font-family="Helvetica,sans-Serif" font-size="10.00">::codec</text>
</a>
</g>
</g>
<!-- Node4&#45;&gt;Node5 -->
<g id="edge4" class="edge">
<title>Node4&#45;&gt;Node5</title>
<path fill="none" stroke="midnightblue" d="M174.52,-516.57C189.11,-517.05 205.34,-517.59 220.55,-518.09"/>
<polygon fill="midnightblue" stroke="midnightblue" points="220.78,-521.6 230.89,-518.43 221.01,-514.6 220.78,-521.6"/>
</g>
<!-- Node6 -->
<g id="node6" class="node">
<title>Node6</title>
<g id="a_node6"><a xlink:href="../../d6/d26/classciphers_1_1_hill_cipher.html#ae77cad522fa44b8c985779a7188d2f41" target="_top" xlink:title="Get the index of a character in the STRKEY.">
<polygon fill="white" stroke="black" points="392,-481 392,-511 489,-511 489,-481 392,-481"/>
<text text-anchor="start" x="400" y="-499" font-family="Helvetica,sans-Serif" font-size="10.00">ciphers::HillCipher</text>
<text text-anchor="middle" x="440.5" y="-488" font-family="Helvetica,sans-Serif" font-size="10.00">::get_char_idx</text>
</a>
</g>
</g>
<!-- Node5&#45;&gt;Node6 -->
<g id="edge5" class="edge">
<title>Node5&#45;&gt;Node6</title>
<path fill="none" stroke="midnightblue" d="M328.21,-512.8C345.03,-510.26 364.12,-507.38 381.69,-504.73"/>
<polygon fill="midnightblue" stroke="midnightblue" points="382.46,-508.15 391.83,-503.2 381.42,-501.23 382.46,-508.15"/>
</g>
<!-- Node5&#45;&gt;Node8 -->
<g id="edge7" class="edge">
<title>Node5&#45;&gt;Node8</title>
<path fill="none" stroke="midnightblue" d="M310,-504.8C329.81,-494.86 356.65,-481.94 381,-472 387,-469.55 393.42,-467.15 399.74,-464.9"/>
<polygon fill="midnightblue" stroke="midnightblue" points="401.19,-468.1 409.49,-461.51 398.9,-461.48 401.19,-468.1"/>
</g>
<!-- Node9 -->
<g id="node9" class="node">
<title>Node9</title>
<g id="a_node9"><a xlink:href="../../d6/d26/classciphers_1_1_hill_cipher.html#a40efd842a5cc44c233641ac2df13b0c0" target="_top" xlink:title="helper function to perform vector multiplication with encryption or decryption matrix">
<polygon fill="white" stroke="black" points="392,-530 392,-560 489,-560 489,-530 392,-530"/>
<text text-anchor="start" x="400" y="-548" font-family="Helvetica,sans-Serif" font-size="10.00">ciphers::HillCipher</text>
<text text-anchor="middle" x="440.5" y="-537" font-family="Helvetica,sans-Serif" font-size="10.00">::mat_mul</text>
</a>
</g>
</g>
<!-- Node5&#45;&gt;Node9 -->
<g id="edge8" class="edge">
<title>Node5&#45;&gt;Node9</title>
<path fill="none" stroke="midnightblue" d="M328.21,-527.5C345.03,-530.15 364.12,-533.15 381.69,-535.91"/>
<polygon fill="midnightblue" stroke="midnightblue" points="381.41,-539.41 391.83,-537.5 382.49,-532.49 381.41,-539.41"/>
</g>
<!-- Node5&#45;&gt;Node10 -->
<g id="edge11" class="edge">
<title>Node5&#45;&gt;Node10</title>
<path fill="none" stroke="midnightblue" d="M303.29,-535.18C322.93,-547.3 352.54,-563.31 381,-570 432.49,-582.1 448.84,-583.4 500,-570 563.14,-553.46 584.38,-546.56 628,-498 672.19,-448.8 694.17,-370.94 702.46,-334.73"/>
<polygon fill="midnightblue" stroke="midnightblue" points="705.97,-335.04 704.68,-324.53 699.13,-333.55 705.97,-335.04"/>
</g>
<!-- Node7 -->
<g id="node7" class="node">
<title>Node7</title>
<g id="a_node7"><a target="_blank" xlink:href="http://en.cppreference.com/w/cpp/string/byte/strlen.html#" xlink:title=" ">
<polygon fill="white" stroke="black" points="552,-427.5 552,-446.5 612,-446.5 612,-427.5 552,-427.5"/>
<text text-anchor="middle" x="582" y="-434.5" font-family="Helvetica,sans-Serif" font-size="10.00">std::strlen</text>
</a>
</g>
</g>
<!-- Node6&#45;&gt;Node7 -->
<g id="edge6" class="edge">
<title>Node6&#45;&gt;Node7</title>
<path fill="none" stroke="midnightblue" d="M477.06,-480.96C499.18,-471.6 527.4,-459.67 548.85,-450.6"/>
<polygon fill="midnightblue" stroke="midnightblue" points="550.33,-453.77 558.18,-446.65 547.61,-447.32 550.33,-453.77"/>
</g>
<!-- Node9&#45;&gt;Node7 -->
<g id="edge10" class="edge">
<title>Node9&#45;&gt;Node7</title>
<path fill="none" stroke="midnightblue" d="M484.13,-529.97C489.66,-527.32 495.1,-524.33 500,-521 503.78,-518.43 542.54,-477.69 565.04,-453.91"/>
<polygon fill="midnightblue" stroke="midnightblue" points="567.65,-456.24 571.97,-446.57 562.56,-451.43 567.65,-456.24"/>
</g>
<!-- Node9&#45;&gt;Node10 -->
<g id="edge9" class="edge">
<title>Node9&#45;&gt;Node10</title>
<path fill="none" stroke="midnightblue" d="M489.38,-531.59C530.33,-518.1 588.71,-493.82 628,-456 664.85,-420.53 689.07,-363.93 699.93,-334.39"/>
<polygon fill="midnightblue" stroke="midnightblue" points="703.28,-335.41 703.32,-324.82 696.68,-333.07 703.28,-335.41"/>
</g>
<!-- Node11&#45;&gt;Node5 -->
<g id="edge13" class="edge">
<title>Node11&#45;&gt;Node5</title>
<path fill="none" stroke="midnightblue" d="M174.52,-550.2C189.26,-545.92 205.65,-541.16 220.99,-536.7"/>
<polygon fill="midnightblue" stroke="midnightblue" points="222.26,-539.98 230.89,-533.83 220.31,-533.26 222.26,-539.98"/>
</g>
<!-- Node14 -->
<g id="node14" class="node">
<title>Node14</title>
<g id="a_node14"><a xlink:href="../../d1/dbe/lu__decomposition_8h.html#a3108d43bd32c6fb3b3c158476c51ba7f" target="_top" xlink:title=" ">
<polygon fill="white" stroke="black" points="400.5,-38.5 400.5,-57.5 480.5,-57.5 480.5,-38.5 400.5,-38.5"/>
<text text-anchor="middle" x="440.5" y="-45.5" font-family="Helvetica,sans-Serif" font-size="10.00">determinant_lu</text>
</a>
</g>
</g>
<!-- Node13&#45;&gt;Node14 -->
<g id="edge16" class="edge">
<title>Node13&#45;&gt;Node14</title>
<path fill="none" stroke="midnightblue" d="M167.63,-354.78C171.56,-352.01 175.14,-348.77 178,-345 231.48,-274.4 159.68,-218.96 214,-149 257.28,-93.25 338.08,-67.44 390.29,-56.12"/>
<polygon fill="midnightblue" stroke="midnightblue" points="391.24,-59.49 400.33,-54.04 389.82,-52.64 391.24,-59.49"/>
</g>
<!-- Node16 -->
<g id="node16" class="node">
<title>Node16</title>
<g id="a_node16"><a xlink:href="../../d6/d26/classciphers_1_1_hill_cipher.html#abb2c4dc2b8a59d3dfe0fa22c2adc086b" target="_top" xlink:title="Generate decryption matrix from an encryption matrix key.">
<polygon fill="white" stroke="black" points="214,-159 214,-189 345,-189 345,-159 214,-159"/>
<text text-anchor="start" x="222" y="-177" font-family="Helvetica,sans-Serif" font-size="10.00">ciphers::HillCipher</text>
<text text-anchor="middle" x="279.5" y="-166" font-family="Helvetica,sans-Serif" font-size="10.00">::generate_decryption_key</text>
</a>
</g>
</g>
<!-- Node13&#45;&gt;Node16 -->
<g id="edge20" class="edge">
<title>Node13&#45;&gt;Node16</title>
<path fill="none" stroke="midnightblue" d="M164.33,-354.94C169.23,-352.06 173.95,-348.75 178,-345 223.51,-302.81 254.75,-235.28 269.26,-198.99"/>
<polygon fill="midnightblue" stroke="midnightblue" points="272.7,-199.81 273.06,-189.22 266.17,-197.27 272.7,-199.81"/>
</g>
<!-- Node20 -->
<g id="node20" class="node">
<title>Node20</title>
<g id="a_node20"><a xlink:href="../../d6/d26/classciphers_1_1_hill_cipher.html#a7ca10cd1a0e8e3732391e0427d2d0213" target="_top" xlink:title="Generate encryption matrix of a given size. Larger size matrices are difficult to generate but provid...">
<polygon fill="white" stroke="black" points="214,-333 214,-363 345,-363 345,-333 214,-333"/>
<text text-anchor="start" x="222" y="-351" font-family="Helvetica,sans-Serif" font-size="10.00">ciphers::HillCipher</text>
<text text-anchor="middle" x="279.5" y="-340" font-family="Helvetica,sans-Serif" font-size="10.00">::generate_encryption_key</text>
</a>
</g>
</g>
<!-- Node13&#45;&gt;Node20 -->
<g id="edge27" class="edge">
<title>Node13&#45;&gt;Node20</title>
<path fill="none" stroke="midnightblue" d="M174.52,-363.1C183.89,-361.74 193.94,-360.28 203.95,-358.83"/>
<polygon fill="midnightblue" stroke="midnightblue" points="204.54,-362.28 213.93,-357.38 203.54,-355.35 204.54,-362.28"/>
</g>
<!-- Node24 -->
<g id="node24" class="node">
<title>Node24</title>
<g id="a_node24"><a target="_blank" xlink:href="http://en.cppreference.com/w/cpp/utility/pair/make_pair.html#" xlink:title=" ">
<polygon fill="white" stroke="black" points="239,-382.5 239,-401.5 320,-401.5 320,-382.5 239,-382.5"/>
<text text-anchor="middle" x="279.5" y="-389.5" font-family="Helvetica,sans-Serif" font-size="10.00">std::make_pair</text>
</a>
</g>
</g>
<!-- Node13&#45;&gt;Node24 -->
<g id="edge32" class="edge">
<title>Node13&#45;&gt;Node24</title>
<path fill="none" stroke="midnightblue" d="M174.52,-376.9C191.78,-379.41 211.33,-382.25 228.78,-384.78"/>
<polygon fill="midnightblue" stroke="midnightblue" points="228.38,-388.26 238.78,-386.23 229.39,-381.33 228.38,-388.26"/>
</g>
<!-- Node14&#45;&gt;Node10 -->
<g id="edge19" class="edge">
<title>Node14&#45;&gt;Node10</title>
<path fill="none" stroke="midnightblue" d="M480.87,-41.78C522.26,-37.56 586.94,-37.89 628,-72 697.15,-129.44 706.01,-248.35 706.7,-295.31"/>
<polygon fill="midnightblue" stroke="midnightblue" points="703.2,-295.39 706.73,-305.38 710.2,-295.37 703.2,-295.39"/>
</g>
<!-- Node15 -->
<g id="node15" class="node">
<title>Node15</title>
<g id="a_node15"><a xlink:href="../../d1/dbe/lu__decomposition_8h.html#a75b8a228c6419ecda6077255d6d60509" target="_top" xlink:title=" ">
<polygon fill="white" stroke="black" points="536,-0.5 536,-19.5 628,-19.5 628,-0.5 536,-0.5"/>
<text text-anchor="middle" x="582" y="-7.5" font-family="Helvetica,sans-Serif" font-size="10.00">lu_decomposition</text>
</a>
</g>
</g>
<!-- Node14&#45;&gt;Node15 -->
<g id="edge17" class="edge">
<title>Node14&#45;&gt;Node15</title>
<path fill="none" stroke="midnightblue" d="M476.7,-38.41C494.71,-33.51 516.83,-27.48 536.06,-22.24"/>
<polygon fill="midnightblue" stroke="midnightblue" points="537.08,-25.59 545.81,-19.59 535.24,-18.84 537.08,-25.59"/>
</g>
<!-- Node15&#45;&gt;Node10 -->
<g id="edge18" class="edge">
<title>Node15&#45;&gt;Node10</title>
<path fill="none" stroke="midnightblue" d="M609.4,-19.59C616.28,-23.19 623.12,-27.92 628,-34 692.88,-114.79 704.2,-245.89 706.12,-295.31"/>
<polygon fill="midnightblue" stroke="midnightblue" points="702.63,-295.42 706.42,-305.31 709.62,-295.21 702.63,-295.42"/>
</g>
<!-- Node16&#45;&gt;Node7 -->
<g id="edge26" class="edge">
<title>Node16&#45;&gt;Node7</title>
<path fill="none" stroke="midnightblue" d="M303.74,-189.02C323.67,-201.44 353.44,-218.94 381,-231 431.86,-253.26 458.09,-232.59 500,-269 546.54,-309.43 568.66,-382.65 576.94,-417.52"/>
<polygon fill="midnightblue" stroke="midnightblue" points="573.55,-418.41 579.15,-427.41 580.38,-416.88 573.55,-418.41"/>
</g>
<!-- Node16&#45;&gt;Node10 -->
<g id="edge25" class="edge">
<title>Node16&#45;&gt;Node10</title>
<path fill="none" stroke="midnightblue" d="M299.42,-158.98C323.31,-140.37 363.41,-110.46 381,-105 431.51,-89.33 451.22,-84.56 500,-105 595.57,-145.06 669.25,-253.31 695.79,-296.67"/>
<polygon fill="midnightblue" stroke="midnightblue" points="692.85,-298.57 701,-305.34 698.85,-294.97 692.85,-298.57"/>
</g>
<!-- Node16&#45;&gt;Node14 -->
<g id="edge21" class="edge">
<title>Node16&#45;&gt;Node14</title>
<path fill="none" stroke="midnightblue" d="M293.9,-158.99C316.49,-133.93 361.6,-85.02 381,-72 386.88,-68.05 393.51,-64.57 400.14,-61.57"/>
<polygon fill="midnightblue" stroke="midnightblue" points="401.9,-64.63 409.76,-57.52 399.19,-58.18 401.9,-64.63"/>
</g>
<!-- Node17 -->
<g id="node17" class="node">
<title>Node17</title>
<g id="a_node17"><a target="_blank" xlink:href="http://en.cppreference.com/w/cpp/utility/program/exit.html#" xlink:title=" ">
<polygon fill="white" stroke="black" points="414.5,-164.5 414.5,-183.5 466.5,-183.5 466.5,-164.5 414.5,-164.5"/>
<text text-anchor="middle" x="440.5" y="-171.5" font-family="Helvetica,sans-Serif" font-size="10.00">std::exit</text>
</a>
</g>
</g>
<!-- Node16&#45;&gt;Node17 -->
<g id="edge22" class="edge">
<title>Node16&#45;&gt;Node17</title>
<path fill="none" stroke="midnightblue" d="M345.17,-174C365.25,-174 386.64,-174 403.96,-174"/>
<polygon fill="midnightblue" stroke="midnightblue" points="404.17,-177.5 414.17,-174 404.17,-170.5 404.17,-177.5"/>
</g>
<!-- Node18 -->
<g id="node18" class="node">
<title>Node18</title>
<g id="a_node18"><a xlink:href="../../d6/d26/classciphers_1_1_hill_cipher.html#a5a4cdbd4d4dad9efe2ed309bd466dd4b" target="_top" xlink:title=" ">
<polygon fill="white" stroke="black" points="392,-115 392,-145 489,-145 489,-115 392,-115"/>
<text text-anchor="start" x="400" y="-133" font-family="Helvetica,sans-Serif" font-size="10.00">ciphers::HillCipher</text>
<text text-anchor="middle" x="440.5" y="-122" font-family="Helvetica,sans-Serif" font-size="10.00">::get_inverse</text>
</a>
</g>
</g>
<!-- Node16&#45;&gt;Node18 -->
<g id="edge23" class="edge">
<title>Node16&#45;&gt;Node18</title>
<path fill="none" stroke="midnightblue" d="M334.77,-158.98C349.98,-154.77 366.55,-150.19 381.94,-145.93"/>
<polygon fill="midnightblue" stroke="midnightblue" points="383.15,-149.23 391.85,-143.19 381.28,-142.48 383.15,-149.23"/>
</g>
<!-- Node19 -->
<g id="node19" class="node">
<title>Node19</title>
<g id="a_node19"><a target="_blank" xlink:href="http://en.cppreference.com/w/cpp/numeric/math/round.html#" xlink:title=" ">
<polygon fill="white" stroke="black" points="410.5,-202.5 410.5,-221.5 470.5,-221.5 470.5,-202.5 410.5,-202.5"/>
<text text-anchor="middle" x="440.5" y="-209.5" font-family="Helvetica,sans-Serif" font-size="10.00">std::round</text>
</a>
</g>
</g>
<!-- Node16&#45;&gt;Node19 -->
<g id="edge24" class="edge">
<title>Node16&#45;&gt;Node19</title>
<path fill="none" stroke="midnightblue" d="M343.34,-189.02C362.46,-193.59 382.93,-198.48 400.05,-202.57"/>
<polygon fill="midnightblue" stroke="midnightblue" points="399.69,-206.08 410.23,-205 401.31,-199.28 399.69,-206.08"/>
</g>
<!-- Node20&#45;&gt;Node7 -->
<g id="edge31" class="edge">
<title>Node20&#45;&gt;Node7</title>
<path fill="none" stroke="midnightblue" d="M322.2,-363.05C329.88,-366.13 337.75,-369.51 345,-373 361.69,-381.04 363.73,-387.3 381,-394 434.61,-414.79 500.41,-426.48 541.53,-432.27"/>
<polygon fill="midnightblue" stroke="midnightblue" points="541.31,-435.77 551.69,-433.65 542.25,-428.83 541.31,-435.77"/>
</g>
<!-- Node21 -->
<g id="node21" class="node">
<title>Node21</title>
<g id="a_node21"><a xlink:href="../../d6/d26/classciphers_1_1_hill_cipher.html#a7760f3665651a0a37937c79c62f219c0" target="_top" xlink:title="Compute GCD of two integers using Euler&#39;s algorithm.">
<polygon fill="white" stroke="black" points="381,-316.5 381,-335.5 500,-335.5 500,-316.5 381,-316.5"/>
<text text-anchor="middle" x="440.5" y="-323.5" font-family="Helvetica,sans-Serif" font-size="10.00">ciphers::HillCipher::gcd</text>
</a>
</g>
</g>
<!-- Node20&#45;&gt;Node21 -->
<g id="edge28" class="edge">
<title>Node20&#45;&gt;Node21</title>
<path fill="none" stroke="midnightblue" d="M345.17,-339.05C353.64,-337.88 362.34,-336.68 370.86,-335.5"/>
<polygon fill="midnightblue" stroke="midnightblue" points="371.35,-338.96 380.77,-334.13 370.39,-332.03 371.35,-338.96"/>
</g>
<!-- Node22 -->
<g id="node22" class="node">
<title>Node22</title>
<g id="a_node22"><a target="_blank" xlink:href="http://en.cppreference.com/w/cpp/numeric/math/isfinite.html#" xlink:title=" ">
<polygon fill="white" stroke="black" points="408,-278.5 408,-297.5 473,-297.5 473,-278.5 408,-278.5"/>
<text text-anchor="middle" x="440.5" y="-285.5" font-family="Helvetica,sans-Serif" font-size="10.00">std::isfinite</text>
</a>
</g>
</g>
<!-- Node20&#45;&gt;Node22 -->
<g id="edge29" class="edge">
<title>Node20&#45;&gt;Node22</title>
<path fill="none" stroke="midnightblue" d="M315.6,-332.94C334.79,-324.9 359.06,-315.03 381,-307 386.72,-304.91 392.79,-302.81 398.78,-300.8"/>
<polygon fill="midnightblue" stroke="midnightblue" points="400.29,-303.99 408.69,-297.54 398.1,-297.34 400.29,-303.99"/>
</g>
<!-- Node23 -->
<g id="node23" class="node">
<title>Node23</title>
<g id="a_node23"><a xlink:href="../../d6/d26/classciphers_1_1_hill_cipher.html#a629be41c1ab78850963e4ce14e1d11d9" target="_top" xlink:title="Function to generate a random integer in a given interval.">
<polygon fill="white" stroke="black" points="392,-355 392,-385 489,-385 489,-355 392,-355"/>
<text text-anchor="start" x="400" y="-373" font-family="Helvetica,sans-Serif" font-size="10.00">ciphers::HillCipher</text>
<text text-anchor="middle" x="440.5" y="-362" font-family="Helvetica,sans-Serif" font-size="10.00">::rand_range</text>
</a>
</g>
</g>
<!-- Node20&#45;&gt;Node23 -->
<g id="edge30" class="edge">
<title>Node20&#45;&gt;Node23</title>
<path fill="none" stroke="midnightblue" d="M345.17,-356.95C357.27,-358.62 369.85,-360.36 381.73,-362.01"/>
<polygon fill="midnightblue" stroke="midnightblue" points="381.57,-365.52 391.96,-363.42 382.53,-358.58 381.57,-365.52"/>
</g>
</g>
</svg>
        <g id="navigator" transform="translate(0 0)" fill="#404254">
                <rect fill="#f2f5e9" fill-opacity="0.5" stroke="#606060" stroke-width=".5" x="0" y="0" width="60" height="60"/>
                <use id="zoomplus" xlink:href="#zoomPlus" x="17" y="9" onmousedown="handleZoom(evt,'in')"/>
                <use id="zoomminus" xlink:href="#zoomMin" x="42" y="9" onmousedown="handleZoom(evt,'out')"/>
                <use id="reset" xlink:href="#resetDef" x="30" y="36" onmousedown="handleReset()"/>
                <g id="arrowUp" xlink:href="#dirArrow" transform="translate(30 24)" onmousedown="handlePan(0,-1)">
                  <use xlink:href="#rim" fill="#404040">
                        <set attributeName="fill" to="#808080" begin="arrowUp.mouseover" end="arrowUp.mouseout"/>
                  </use>
                  <path fill="none" stroke="white" stroke-width="1.5" d="M0,-3.0v7 M-2.5,-0.5L0,-3.0L2.5,-0.5"/>
                </g>
                <g id="arrowRight" xlink:href="#dirArrow" transform="rotate(90) translate(36 -43)" onmousedown="handlePan(1,0)">
                  <use xlink:href="#rim" fill="#404040">
                        <set attributeName="fill" to="#808080" begin="arrowRight.mouseover" end="arrowRight.mouseout"/>
                  </use>
                  <path fill="none" stroke="white" stroke-width="1.5" d="M0,-3.0v7 M-2.5,-0.5L0,-3.0L2.5,-0.5"/>
                </g>
                <g id="arrowDown" xlink:href="#dirArrow" transform="rotate(180) translate(-30 -48)" onmousedown="handlePan(0,1)">
                  <use xlink:href="#rim" fill="#404040">
                        <set attributeName="fill" to="#808080" begin="arrowDown.mouseover" end="arrowDown.mouseout"/>
                  </use>
                  <path fill="none" stroke="white" stroke-width="1.5" d="M0,-3.0v7 M-2.5,-0.5L0,-3.0L2.5,-0.5"/>
                </g>
                <g id="arrowLeft" xlink:href="#dirArrow" transform="rotate(270) translate(-36 17)" onmousedown="handlePan(-1,0)">
                  <use xlink:href="#rim" fill="#404040">
                        <set attributeName="fill" to="#808080" begin="arrowLeft.mouseover" end="arrowLeft.mouseout"/>
                  </use>
                  <path fill="none" stroke="white" stroke-width="1.5" d="M0,-3.0v7 M-2.5,-0.5L0,-3.0L2.5,-0.5"/>
                </g>
        </g>
        <svg viewBox="0 0 15 15" width="100%" height="30px" preserveAspectRatio="xMaxYMin meet">
         <g id="arrow_out" transform="scale(0.3 0.3)">
          <a xlink:href="hill__cipher_8cpp_a04391124480d2a49f2dec900237b0712_cgraph_org.svg" target="_base">
           <rect id="button" ry="5" rx="5" y="6" x="6" height="38" width="38"
                fill="#f2f5e9" fill-opacity="0.5" stroke="#606060" stroke-width="1.0"/>
           <path id="arrow"
             d="M 11.500037,31.436501 C 11.940474,20.09759 22.043105,11.32322 32.158766,21.979434 L 37.068811,17.246167 C 37.068811,17.246167 37.088388,32 37.088388,32 L 22.160133,31.978069 C 22.160133,31.978069 26.997745,27.140456 26.997745,27.140456 C 18.528582,18.264221 13.291696,25.230495 11.500037,31.436501 z"
             style="fill:#404040;"/>
          </a>
         </g>
        </svg>
</svg>
