<?xml version="1.0" encoding="UTF-8" standalone="no"?>
<!DOCTYPE svg PUBLIC "-//W3C//DTD SVG 1.1//EN"
 "http://www.w3.org/Graphics/SVG/1.1/DTD/svg11.dtd">
<!-- Generated by graphviz version 2.44.0 (20200408.0750)
 -->
<!-- Title: main Pages: 1 -->
<svg width="855pt" height="711pt"
 viewBox="0.00 0.00 855.00 711.00" xmlns="http://www.w3.org/2000/svg" xmlns:xlink="http://www.w3.org/1999/xlink">
<g id="graph0" class="graph" transform="scale(1 1) rotate(0) translate(4 707)">
<title>main</title>
<polygon fill="white" stroke="transparent" points="-4,4 -4,-707 851,-707 851,4 -4,4"/>
<!-- Node1 -->
<g id="node1" class="node">
<title>Node1</title>
<g id="a_node1"><a xlink:title=" ">
<polygon fill="#bfbfbf" stroke="black" points="0,-228.5 0,-247.5 38,-247.5 38,-228.5 0,-228.5"/>
<text text-anchor="middle" x="19" y="-235.5" font-family="Helvetica,sans-Serif" font-size="10.00">main</text>
</a>
</g>
</g>
<!-- Node2 -->
<g id="node2" class="node">
<title>Node2</title>
<g id="a_node2"><a target="_blank" xlink:href="http://en.cppreference.com/w/cpp/numeric/random/srand.html#" xlink:title=" ">
<polygon fill="white" stroke="black" points="74,-328.5 74,-347.5 134,-347.5 134,-328.5 74,-328.5"/>
<text text-anchor="middle" x="104" y="-335.5" font-family="Helvetica,sans-Serif" font-size="10.00">std::srand</text>
</a>
</g>
</g>
<!-- Node1&#45;&gt;Node2 -->
<g id="edge1" class="edge">
<title>Node1&#45;&gt;Node2</title>
<path fill="none" stroke="midnightblue" d="M25.75,-247.72C34.91,-262.79 53.84,-292.3 74,-314 76.48,-316.67 79.25,-319.31 82.07,-321.81"/>
<polygon fill="midnightblue" stroke="midnightblue" points="80.03,-324.67 89.95,-328.4 84.52,-319.3 80.03,-324.67"/>
</g>
<!-- Node3 -->
<g id="node3" class="node">
<title>Node3</title>
<g id="a_node3"><a target="_blank" xlink:href="http://en.cppreference.com/w/cpp/string/byte/strlen.html#" xlink:title=" ">
<polygon fill="white" stroke="black" points="648,-251.5 648,-270.5 708,-270.5 708,-251.5 648,-251.5"/>
<text text-anchor="middle" x="678" y="-258.5" font-family="Helvetica,sans-Serif" font-size="10.00">std::strlen</text>
</a>
</g>
</g>
<!-- Node1&#45;&gt;Node3 -->
<g id="edge2" class="edge">
<title>Node1&#45;&gt;Node3</title>
<path fill="none" stroke="midnightblue" d="M38.09,-245.19C65.89,-255.78 121.06,-274.98 170,-281 215.88,-286.65 227.79,-282.15 274,-281 407.49,-277.69 565.63,-268.22 637.7,-263.6"/>
<polygon fill="midnightblue" stroke="midnightblue" points="637.94,-267.09 647.69,-262.95 637.49,-260.11 637.94,-267.09"/>
</g>
<!-- Node4 -->
<g id="node4" class="node">
<title>Node4</title>
<g id="a_node4"><a xlink:href="../../d7/db9/hill__cipher_8cpp.html#a3147ad576f8a94a2a6b66948672b452b" target="_top" xlink:title="Self test 1 &#45; using 3x3 randomly generated key.">
<polygon fill="white" stroke="black" points="85,-228.5 85,-247.5 123,-247.5 123,-228.5 85,-228.5"/>
<text text-anchor="middle" x="104" y="-235.5" font-family="Helvetica,sans-Serif" font-size="10.00">test1</text>
</a>
</g>
</g>
<!-- Node1&#45;&gt;Node4 -->
<g id="edge3" class="edge">
<title>Node1&#45;&gt;Node4</title>
<path fill="none" stroke="midnightblue" d="M38.01,-238C48.7,-238 62.5,-238 74.63,-238"/>
<polygon fill="midnightblue" stroke="midnightblue" points="74.74,-241.5 84.74,-238 74.74,-234.5 74.74,-241.5"/>
</g>
<!-- Node26 -->
<g id="node26" class="node">
<title>Node26</title>
<g id="a_node26"><a xlink:href="../../d7/db9/hill__cipher_8cpp.html#a04391124480d2a49f2dec900237b0712" target="_top" xlink:title="Self test 2 &#45; using 8x8 randomly generated key.">
<polygon fill="white" stroke="black" points="85,-187.5 85,-206.5 123,-206.5 123,-187.5 85,-187.5"/>
<text text-anchor="middle" x="104" y="-194.5" font-family="Helvetica,sans-Serif" font-size="10.00">test2</text>
</a>
</g>
</g>
<!-- Node1&#45;&gt;Node26 -->
<g id="edge36" class="edge">
<title>Node1&#45;&gt;Node26</title>
<path fill="none" stroke="midnightblue" d="M38.01,-229.1C49.03,-223.66 63.34,-216.59 75.73,-210.47"/>
<polygon fill="midnightblue" stroke="midnightblue" points="77.32,-213.59 84.74,-206.02 74.22,-207.31 77.32,-213.59"/>
</g>
<!-- Node28 -->
<g id="node28" class="node">
<title>Node28</title>
<g id="a_node28"><a target="_blank" xlink:href="http://en.cppreference.com/w/cpp/chrono/c/time.html#" xlink:title=" ">
<polygon fill="white" stroke="black" points="76.5,-149.5 76.5,-168.5 131.5,-168.5 131.5,-149.5 76.5,-149.5"/>
<text text-anchor="middle" x="104" y="-156.5" font-family="Helvetica,sans-Serif" font-size="10.00">std::time</text>
</a>
</g>
</g>
<!-- Node1&#45;&gt;Node28 -->
<g id="edge45" class="edge">
<title>Node1&#45;&gt;Node28</title>
<path fill="none" stroke="midnightblue" d="M27.37,-228.36C37.2,-215.89 55.49,-193.88 74,-178 75.35,-176.84 76.78,-175.7 78.24,-174.58"/>
<polygon fill="midnightblue" stroke="midnightblue" points="80.65,-177.16 86.82,-168.55 76.62,-171.44 80.65,-177.16"/>
</g>
<!-- Node5 -->
<g id="node5" class="node">
<title>Node5</title>
<g id="a_node5"><a target="_blank" xlink:href="http://en.cppreference.com/w/cpp/io/basic_ofstream/close.html#" xlink:title=" ">
<polygon fill="white" stroke="black" points="170,-252.5 170,-271.5 274,-271.5 274,-252.5 170,-252.5"/>
<text text-anchor="middle" x="222" y="-259.5" font-family="Helvetica,sans-Serif" font-size="10.00">std::ofstream::close</text>
</a>
</g>
</g>
<!-- Node4&#45;&gt;Node5 -->
<g id="edge4" class="edge">
<title>Node4&#45;&gt;Node5</title>
<path fill="none" stroke="midnightblue" d="M123.12,-241.75C134.52,-244.11 149.9,-247.29 165.08,-250.43"/>
<polygon fill="midnightblue" stroke="midnightblue" points="164.49,-253.88 174.99,-252.48 165.9,-247.03 164.49,-253.88"/>
</g>
<!-- Node6 -->
<g id="node6" class="node">
<title>Node6</title>
<g id="a_node6"><a xlink:href="../../d6/d26/classciphers_1_1_hill_cipher.html#a427acfac1dbff3f48a2b071d449d965b" target="_top" xlink:title="Decrypt a given text using a given key.">
<polygon fill="white" stroke="black" points="173.5,-115 173.5,-145 270.5,-145 270.5,-115 173.5,-115"/>
<text text-anchor="start" x="181.5" y="-133" font-family="Helvetica,sans-Serif" font-size="10.00">ciphers::HillCipher</text>
<text text-anchor="middle" x="222" y="-122" font-family="Helvetica,sans-Serif" font-size="10.00">::decrypt_text</text>
</a>
</g>
</g>
<!-- Node4&#45;&gt;Node6 -->
<g id="edge5" class="edge">
<title>Node4&#45;&gt;Node6</title>
<path fill="none" stroke="midnightblue" d="M119.8,-228.49C124.67,-224.93 129.88,-220.63 134,-216 154.93,-192.49 146.9,-176.38 170,-155 171.65,-153.48 173.4,-152.03 175.24,-150.65"/>
<polygon fill="midnightblue" stroke="midnightblue" points="177.27,-153.5 183.67,-145.07 173.4,-147.66 177.27,-153.5"/>
</g>
<!-- Node11 -->
<g id="node11" class="node">
<title>Node11</title>
<g id="a_node11"><a target="_blank" xlink:href="http://en.cppreference.com/w/cpp/container/vector/size.html#" xlink:title=" ">
<polygon fill="white" stroke="black" points="760,-529.5 760,-548.5 847,-548.5 847,-529.5 760,-529.5"/>
<text text-anchor="middle" x="803.5" y="-536.5" font-family="Helvetica,sans-Serif" font-size="10.00">std::vector::size</text>
</a>
</g>
</g>
<!-- Node4&#45;&gt;Node11 -->
<g id="edge35" class="edge">
<title>Node4&#45;&gt;Node11</title>
<path fill="none" stroke="midnightblue" d="M108.61,-247.84C117.75,-272.37 143,-338.05 170,-390 246.64,-537.44 208.33,-703 374.5,-703 374.5,-703 374.5,-703 537.5,-703 564.92,-703 683.31,-669.09 724,-640 755,-617.84 779.72,-580 792.64,-557.47"/>
<polygon fill="midnightblue" stroke="midnightblue" points="795.79,-559.01 797.58,-548.57 789.67,-555.61 795.79,-559.01"/>
</g>
<!-- Node12 -->
<g id="node12" class="node">
<title>Node12</title>
<g id="a_node12"><a xlink:href="../../d6/d26/classciphers_1_1_hill_cipher.html#aa8bbb6e4a5749f6008b06602d5103917" target="_top" xlink:title="Encrypt a given text using a given key.">
<polygon fill="white" stroke="black" points="173.5,-203 173.5,-233 270.5,-233 270.5,-203 173.5,-203"/>
<text text-anchor="start" x="181.5" y="-221" font-family="Helvetica,sans-Serif" font-size="10.00">ciphers::HillCipher</text>
<text text-anchor="middle" x="222" y="-210" font-family="Helvetica,sans-Serif" font-size="10.00">::encrypt_text</text>
</a>
</g>
</g>
<!-- Node4&#45;&gt;Node12 -->
<g id="edge14" class="edge">
<title>Node4&#45;&gt;Node12</title>
<path fill="none" stroke="midnightblue" d="M123.12,-234.88C134.1,-232.98 148.77,-230.45 163.4,-227.93"/>
<polygon fill="midnightblue" stroke="midnightblue" points="164.22,-231.34 173.48,-226.19 163.03,-224.44 164.22,-231.34"/>
</g>
<!-- Node13 -->
<g id="node13" class="node">
<title>Node13</title>
<g id="a_node13"><a target="_blank" xlink:href="http://en.cppreference.com/w/cpp/io/manip/endl.html#" xlink:title=" ">
<polygon fill="white" stroke="black" points="195,-164.5 195,-183.5 249,-183.5 249,-164.5 195,-164.5"/>
<text text-anchor="middle" x="222" y="-171.5" font-family="Helvetica,sans-Serif" font-size="10.00">std::endl</text>
</a>
</g>
</g>
<!-- Node4&#45;&gt;Node13 -->
<g id="edge16" class="edge">
<title>Node4&#45;&gt;Node13</title>
<path fill="none" stroke="midnightblue" d="M117.43,-228.36C130.14,-218.8 150.71,-204.15 170,-194 174.89,-191.43 180.19,-188.99 185.46,-186.76"/>
<polygon fill="midnightblue" stroke="midnightblue" points="186.85,-189.97 194.82,-182.99 184.24,-183.48 186.85,-189.97"/>
</g>
<!-- Node14 -->
<g id="node14" class="node">
<title>Node14</title>
<g id="a_node14"><a xlink:href="../../d6/d26/classciphers_1_1_hill_cipher.html#a14bfcd14af6cd853130cbacd32e35c13" target="_top" xlink:title="Generate encryption and decryption key pair.">
<polygon fill="white" stroke="black" points="173.5,-350 173.5,-380 270.5,-380 270.5,-350 173.5,-350"/>
<text text-anchor="start" x="181.5" y="-368" font-family="Helvetica,sans-Serif" font-size="10.00">ciphers::HillCipher</text>
<text text-anchor="middle" x="222" y="-357" font-family="Helvetica,sans-Serif" font-size="10.00">::generate_keys</text>
</a>
</g>
</g>
<!-- Node4&#45;&gt;Node14 -->
<g id="edge17" class="edge">
<title>Node4&#45;&gt;Node14</title>
<path fill="none" stroke="midnightblue" d="M113.72,-247.55C132.02,-267.58 174.86,-314.49 200.53,-342.59"/>
<polygon fill="midnightblue" stroke="midnightblue" points="197.95,-344.95 207.28,-349.98 203.12,-340.23 197.95,-344.95"/>
</g>
<!-- Node7 -->
<g id="node7" class="node">
<title>Node7</title>
<g id="a_node7"><a xlink:href="../../d6/d26/classciphers_1_1_hill_cipher.html#ad667fa0860977f6d6d443fa1dbcd80aa" target="_top" xlink:title="Convenience function to perform block cipher operations. The operations are identical for both encryp...">
<polygon fill="white" stroke="black" points="327,-134 327,-164 424,-164 424,-134 327,-134"/>
<text text-anchor="start" x="335" y="-152" font-family="Helvetica,sans-Serif" font-size="10.00">ciphers::HillCipher</text>
<text text-anchor="middle" x="375.5" y="-141" font-family="Helvetica,sans-Serif" font-size="10.00">::codec</text>
</a>
</g>
</g>
<!-- Node6&#45;&gt;Node7 -->
<g id="edge6" class="edge">
<title>Node6&#45;&gt;Node7</title>
<path fill="none" stroke="midnightblue" d="M270.52,-135.96C285.11,-137.79 301.34,-139.82 316.55,-141.73"/>
<polygon fill="midnightblue" stroke="midnightblue" points="316.53,-145.26 326.89,-143.03 317.4,-138.31 316.53,-145.26"/>
</g>
<!-- Node8 -->
<g id="node8" class="node">
<title>Node8</title>
<g id="a_node8"><a xlink:href="../../d6/d26/classciphers_1_1_hill_cipher.html#ae77cad522fa44b8c985779a7188d2f41" target="_top" xlink:title="Get the index of a character in the STRKEY.">
<polygon fill="white" stroke="black" points="488,-202 488,-232 585,-232 585,-202 488,-202"/>
<text text-anchor="start" x="496" y="-220" font-family="Helvetica,sans-Serif" font-size="10.00">ciphers::HillCipher</text>
<text text-anchor="middle" x="536.5" y="-209" font-family="Helvetica,sans-Serif" font-size="10.00">::get_char_idx</text>
</a>
</g>
</g>
<!-- Node7&#45;&gt;Node8 -->
<g id="edge7" class="edge">
<title>Node7&#45;&gt;Node8</title>
<path fill="none" stroke="midnightblue" d="M410.37,-164.07C429.82,-172.66 454.73,-183.56 477,-193 480.87,-194.64 484.88,-196.32 488.92,-198"/>
<polygon fill="midnightblue" stroke="midnightblue" points="487.73,-201.3 498.31,-201.89 490.41,-194.83 487.73,-201.3"/>
</g>
<!-- Node9 -->
<g id="node9" class="node">
<title>Node9</title>
<g id="a_node9"><a target="_blank" xlink:href="http://en.cppreference.com/w/cpp/string/basic_string/size.html#" xlink:title=" ">
<polygon fill="white" stroke="black" points="490.5,-76.5 490.5,-95.5 582.5,-95.5 582.5,-76.5 490.5,-76.5"/>
<text text-anchor="middle" x="536.5" y="-83.5" font-family="Helvetica,sans-Serif" font-size="10.00">std::string::length</text>
</a>
</g>
</g>
<!-- Node7&#45;&gt;Node9 -->
<g id="edge9" class="edge">
<title>Node7&#45;&gt;Node9</title>
<path fill="none" stroke="midnightblue" d="M414.58,-133.91C441.03,-123.43 475.95,-109.6 501.46,-99.49"/>
<polygon fill="midnightblue" stroke="midnightblue" points="503.07,-102.61 511.08,-95.68 500.49,-96.11 503.07,-102.61"/>
</g>
<!-- Node10 -->
<g id="node10" class="node">
<title>Node10</title>
<g id="a_node10"><a xlink:href="../../d6/d26/classciphers_1_1_hill_cipher.html#a40efd842a5cc44c233641ac2df13b0c0" target="_top" xlink:title="helper function to perform vector multiplication with encryption or decryption matrix">
<polygon fill="white" stroke="black" points="488,-153 488,-183 585,-183 585,-153 488,-153"/>
<text text-anchor="start" x="496" y="-171" font-family="Helvetica,sans-Serif" font-size="10.00">ciphers::HillCipher</text>
<text text-anchor="middle" x="536.5" y="-160" font-family="Helvetica,sans-Serif" font-size="10.00">::mat_mul</text>
</a>
</g>
</g>
<!-- Node7&#45;&gt;Node10 -->
<g id="edge10" class="edge">
<title>Node7&#45;&gt;Node10</title>
<path fill="none" stroke="midnightblue" d="M424.21,-154.7C441.03,-156.71 460.12,-158.99 477.69,-161.09"/>
<polygon fill="midnightblue" stroke="midnightblue" points="477.48,-164.59 487.83,-162.3 478.31,-157.64 477.48,-164.59"/>
</g>
<!-- Node7&#45;&gt;Node11 -->
<g id="edge13" class="edge">
<title>Node7&#45;&gt;Node11</title>
<path fill="none" stroke="midnightblue" d="M424.3,-136.39C500.3,-119.56 647.88,-100.64 724,-183 770.39,-233.2 794.38,-452.14 800.75,-519.32"/>
<polygon fill="midnightblue" stroke="midnightblue" points="797.27,-519.76 801.68,-529.4 804.24,-519.12 797.27,-519.76"/>
</g>
<!-- Node8&#45;&gt;Node3 -->
<g id="edge8" class="edge">
<title>Node8&#45;&gt;Node3</title>
<path fill="none" stroke="midnightblue" d="M585.12,-232.02C602.37,-237.46 621.65,-243.54 638.07,-248.72"/>
<polygon fill="midnightblue" stroke="midnightblue" points="637.29,-252.14 647.88,-251.81 639.39,-245.47 637.29,-252.14"/>
</g>
<!-- Node10&#45;&gt;Node3 -->
<g id="edge12" class="edge">
<title>Node10&#45;&gt;Node3</title>
<path fill="none" stroke="midnightblue" d="M577.32,-183.13C583.73,-186.1 590.17,-189.41 596,-193 619.98,-207.74 644.28,-229.2 659.92,-244.06"/>
<polygon fill="midnightblue" stroke="midnightblue" points="657.64,-246.72 667.27,-251.15 662.51,-241.69 657.64,-246.72"/>
</g>
<!-- Node10&#45;&gt;Node11 -->
<g id="edge11" class="edge">
<title>Node10&#45;&gt;Node11</title>
<path fill="none" stroke="midnightblue" d="M585.36,-174.69C627.75,-183.12 688.28,-201.74 724,-242 797.05,-324.34 803.34,-466.96 803.03,-519.14"/>
<polygon fill="midnightblue" stroke="midnightblue" points="799.53,-519.31 802.87,-529.36 806.53,-519.42 799.53,-519.31"/>
</g>
<!-- Node12&#45;&gt;Node7 -->
<g id="edge15" class="edge">
<title>Node12&#45;&gt;Node7</title>
<path fill="none" stroke="midnightblue" d="M256.25,-202.86C278.55,-192.7 308.11,-179.24 332.1,-168.31"/>
<polygon fill="midnightblue" stroke="midnightblue" points="333.68,-171.44 341.33,-164.11 330.78,-165.07 333.68,-171.44"/>
</g>
<!-- Node15 -->
<g id="node15" class="node">
<title>Node15</title>
<g id="a_node15"><a xlink:href="../../d1/dbe/lu__decomposition_8h.html#a3108d43bd32c6fb3b3c158476c51ba7f" target="_top" xlink:title=" ">
<polygon fill="white" stroke="black" points="496.5,-655.5 496.5,-674.5 576.5,-674.5 576.5,-655.5 496.5,-655.5"/>
<text text-anchor="middle" x="536.5" y="-662.5" font-family="Helvetica,sans-Serif" font-size="10.00">determinant_lu</text>
</a>
</g>
</g>
<!-- Node14&#45;&gt;Node15 -->
<g id="edge18" class="edge">
<title>Node14&#45;&gt;Node15</title>
<path fill="none" stroke="midnightblue" d="M225.9,-380.21C233.5,-416.42 257.22,-508.83 310,-564 358.23,-614.42 436.21,-641.54 486.66,-654.62"/>
<polygon fill="midnightblue" stroke="midnightblue" points="485.82,-658.01 496.37,-657.05 487.52,-651.22 485.82,-658.01"/>
</g>
<!-- Node17 -->
<g id="node17" class="node">
<title>Node17</title>
<g id="a_node17"><a xlink:href="../../d6/d26/classciphers_1_1_hill_cipher.html#abb2c4dc2b8a59d3dfe0fa22c2adc086b" target="_top" xlink:title="Generate decryption matrix from an encryption matrix key.">
<polygon fill="white" stroke="black" points="310,-524 310,-554 441,-554 441,-524 310,-524"/>
<text text-anchor="start" x="318" y="-542" font-family="Helvetica,sans-Serif" font-size="10.00">ciphers::HillCipher</text>
<text text-anchor="middle" x="375.5" y="-531" font-family="Helvetica,sans-Serif" font-size="10.00">::generate_decryption_key</text>
</a>
</g>
</g>
<!-- Node14&#45;&gt;Node17 -->
<g id="edge22" class="edge">
<title>Node14&#45;&gt;Node17</title>
<path fill="none" stroke="midnightblue" d="M236.18,-380.14C262.82,-410.73 323.19,-480.08 354.63,-516.18"/>
<polygon fill="midnightblue" stroke="midnightblue" points="352.04,-518.53 361.24,-523.77 357.32,-513.93 352.04,-518.53"/>
</g>
<!-- Node21 -->
<g id="node21" class="node">
<title>Node21</title>
<g id="a_node21"><a xlink:href="../../d6/d26/classciphers_1_1_hill_cipher.html#a7ca10cd1a0e8e3732391e0427d2d0213" target="_top" xlink:title="Generate encryption matrix of a given size. Larger size matrices are difficult to generate but provid...">
<polygon fill="white" stroke="black" points="310,-361 310,-391 441,-391 441,-361 310,-361"/>
<text text-anchor="start" x="318" y="-379" font-family="Helvetica,sans-Serif" font-size="10.00">ciphers::HillCipher</text>
<text text-anchor="middle" x="375.5" y="-368" font-family="Helvetica,sans-Serif" font-size="10.00">::generate_encryption_key</text>
</a>
</g>
</g>
<!-- Node14&#45;&gt;Node21 -->
<g id="edge29" class="edge">
<title>Node14&#45;&gt;Node21</title>
<path fill="none" stroke="midnightblue" d="M270.52,-368.45C279.89,-369.13 289.94,-369.86 299.95,-370.59"/>
<polygon fill="midnightblue" stroke="midnightblue" points="299.71,-374.08 309.93,-371.31 300.21,-367.1 299.71,-374.08"/>
</g>
<!-- Node25 -->
<g id="node25" class="node">
<title>Node25</title>
<g id="a_node25"><a target="_blank" xlink:href="http://en.cppreference.com/w/cpp/utility/pair/make_pair.html#" xlink:title=" ">
<polygon fill="white" stroke="black" points="335,-322.5 335,-341.5 416,-341.5 416,-322.5 335,-322.5"/>
<text text-anchor="middle" x="375.5" y="-329.5" font-family="Helvetica,sans-Serif" font-size="10.00">std::make_pair</text>
</a>
</g>
</g>
<!-- Node14&#45;&gt;Node25 -->
<g id="edge34" class="edge">
<title>Node14&#45;&gt;Node25</title>
<path fill="none" stroke="midnightblue" d="M270.52,-354.65C287.78,-350.89 307.33,-346.63 324.78,-342.83"/>
<polygon fill="midnightblue" stroke="midnightblue" points="325.75,-346.2 334.78,-340.65 324.26,-339.36 325.75,-346.2"/>
</g>
<!-- Node15&#45;&gt;Node11 -->
<g id="edge21" class="edge">
<title>Node15&#45;&gt;Node11</title>
<path fill="none" stroke="midnightblue" d="M576.59,-658.42C615.74,-650.68 676.79,-635.4 724,-609 748.97,-595.03 772.78,-571.94 787.5,-556.12"/>
<polygon fill="midnightblue" stroke="midnightblue" points="790.19,-558.36 794.32,-548.6 785.01,-553.66 790.19,-558.36"/>
</g>
<!-- Node16 -->
<g id="node16" class="node">
<title>Node16</title>
<g id="a_node16"><a xlink:href="../../d1/dbe/lu__decomposition_8h.html#a75b8a228c6419ecda6077255d6d60509" target="_top" xlink:title=" ">
<polygon fill="white" stroke="black" points="632,-580.5 632,-599.5 724,-599.5 724,-580.5 632,-580.5"/>
<text text-anchor="middle" x="678" y="-587.5" font-family="Helvetica,sans-Serif" font-size="10.00">lu_decomposition</text>
</a>
</g>
</g>
<!-- Node15&#45;&gt;Node16 -->
<g id="edge19" class="edge">
<title>Node15&#45;&gt;Node16</title>
<path fill="none" stroke="midnightblue" d="M572.5,-655.47C580.4,-652.82 588.63,-649.65 596,-646 618.37,-634.93 641.56,-618.28 657.37,-606.01"/>
<polygon fill="midnightblue" stroke="midnightblue" points="659.67,-608.66 665.34,-599.71 655.32,-603.16 659.67,-608.66"/>
</g>
<!-- Node16&#45;&gt;Node11 -->
<g id="edge20" class="edge">
<title>Node16&#45;&gt;Node11</title>
<path fill="none" stroke="midnightblue" d="M702.23,-580.41C721.38,-572.5 748.75,-561.2 770.06,-552.4"/>
<polygon fill="midnightblue" stroke="midnightblue" points="771.47,-555.6 779.37,-548.55 768.8,-549.13 771.47,-555.6"/>
</g>
<!-- Node17&#45;&gt;Node3 -->
<g id="edge28" class="edge">
<title>Node17&#45;&gt;Node3</title>
<path fill="none" stroke="midnightblue" d="M399.74,-523.98C419.67,-511.56 449.44,-494.06 477,-482 527.86,-459.74 554.69,-481.09 596,-444 645.9,-399.2 666.6,-317.91 673.77,-280.64"/>
<polygon fill="midnightblue" stroke="midnightblue" points="677.25,-281.03 675.57,-270.57 670.36,-279.8 677.25,-281.03"/>
</g>
<!-- Node17&#45;&gt;Node11 -->
<g id="edge27" class="edge">
<title>Node17&#45;&gt;Node11</title>
<path fill="none" stroke="midnightblue" d="M441.2,-539C525.63,-539 671.76,-539 749.8,-539"/>
<polygon fill="midnightblue" stroke="midnightblue" points="749.88,-542.5 759.88,-539 749.88,-535.5 749.88,-542.5"/>
</g>
<!-- Node17&#45;&gt;Node15 -->
<g id="edge23" class="edge">
<title>Node17&#45;&gt;Node15</title>
<path fill="none" stroke="midnightblue" d="M390.41,-554.21C416.76,-582.95 471.78,-642.69 477,-646 480.3,-648.1 483.86,-649.98 487.53,-651.67"/>
<polygon fill="midnightblue" stroke="midnightblue" points="486.22,-654.92 496.8,-655.49 488.89,-648.45 486.22,-654.92"/>
</g>
<!-- Node18 -->
<g id="node18" class="node">
<title>Node18</title>
<g id="a_node18"><a target="_blank" xlink:href="http://en.cppreference.com/w/cpp/utility/program/exit.html#" xlink:title=" ">
<polygon fill="white" stroke="black" points="510.5,-491.5 510.5,-510.5 562.5,-510.5 562.5,-491.5 510.5,-491.5"/>
<text text-anchor="middle" x="536.5" y="-498.5" font-family="Helvetica,sans-Serif" font-size="10.00">std::exit</text>
</a>
</g>
</g>
<!-- Node17&#45;&gt;Node18 -->
<g id="edge24" class="edge">
<title>Node17&#45;&gt;Node18</title>
<path fill="none" stroke="midnightblue" d="M439.34,-523.98C460.19,-519 482.64,-513.63 500.6,-509.34"/>
<polygon fill="midnightblue" stroke="midnightblue" points="501.43,-512.74 510.34,-507.01 499.8,-505.93 501.43,-512.74"/>
</g>
<!-- Node19 -->
<g id="node19" class="node">
<title>Node19</title>
<g id="a_node19"><a xlink:href="../../d6/d26/classciphers_1_1_hill_cipher.html#a5a4cdbd4d4dad9efe2ed309bd466dd4b" target="_top" xlink:title=" ">
<polygon fill="white" stroke="black" points="488,-606 488,-636 585,-636 585,-606 488,-606"/>
<text text-anchor="start" x="496" y="-624" font-family="Helvetica,sans-Serif" font-size="10.00">ciphers::HillCipher</text>
<text text-anchor="middle" x="536.5" y="-613" font-family="Helvetica,sans-Serif" font-size="10.00">::get_inverse</text>
</a>
</g>
</g>
<!-- Node17&#45;&gt;Node19 -->
<g id="edge25" class="edge">
<title>Node17&#45;&gt;Node19</title>
<path fill="none" stroke="midnightblue" d="M401.27,-554.08C421.36,-566.06 450.58,-582.91 477,-596 480.84,-597.9 484.86,-599.8 488.92,-601.66"/>
<polygon fill="midnightblue" stroke="midnightblue" points="487.83,-605 498.39,-605.88 490.68,-598.61 487.83,-605"/>
</g>
<!-- Node20 -->
<g id="node20" class="node">
<title>Node20</title>
<g id="a_node20"><a target="_blank" xlink:href="http://en.cppreference.com/w/cpp/numeric/math/round.html#" xlink:title=" ">
<polygon fill="white" stroke="black" points="506.5,-567.5 506.5,-586.5 566.5,-586.5 566.5,-567.5 506.5,-567.5"/>
<text text-anchor="middle" x="536.5" y="-574.5" font-family="Helvetica,sans-Serif" font-size="10.00">std::round</text>
</a>
</g>
</g>
<!-- Node17&#45;&gt;Node20 -->
<g id="edge26" class="edge">
<title>Node17&#45;&gt;Node20</title>
<path fill="none" stroke="midnightblue" d="M439.34,-554.02C458.46,-558.59 478.93,-563.48 496.05,-567.57"/>
<polygon fill="midnightblue" stroke="midnightblue" points="495.69,-571.08 506.23,-570 497.31,-564.28 495.69,-571.08"/>
</g>
<!-- Node21&#45;&gt;Node3 -->
<g id="edge33" class="edge">
<title>Node21&#45;&gt;Node3</title>
<path fill="none" stroke="midnightblue" d="M421.56,-360.93C428.27,-358.01 434.95,-354.69 441,-351 459.27,-339.84 458.26,-329.35 477,-319 528.79,-290.41 596.08,-274.67 637.9,-267.04"/>
<polygon fill="midnightblue" stroke="midnightblue" points="638.72,-270.45 647.96,-265.27 637.51,-263.55 638.72,-270.45"/>
</g>
<!-- Node22 -->
<g id="node22" class="node">
<title>Node22</title>
<g id="a_node22"><a xlink:href="../../d6/d26/classciphers_1_1_hill_cipher.html#a7760f3665651a0a37937c79c62f219c0" target="_top" xlink:title="Compute GCD of two integers using Euler&#39;s algorithm.">
<polygon fill="white" stroke="black" points="477,-415.5 477,-434.5 596,-434.5 596,-415.5 477,-415.5"/>
<text text-anchor="middle" x="536.5" y="-422.5" font-family="Helvetica,sans-Serif" font-size="10.00">ciphers::HillCipher::gcd</text>
</a>
</g>
</g>
<!-- Node21&#45;&gt;Node22 -->
<g id="edge30" class="edge">
<title>Node21&#45;&gt;Node22</title>
<path fill="none" stroke="midnightblue" d="M425.5,-391.1C447.72,-397.95 473.67,-405.95 494.79,-412.46"/>
<polygon fill="midnightblue" stroke="midnightblue" points="493.84,-415.82 504.43,-415.42 495.9,-409.13 493.84,-415.82"/>
</g>
<!-- Node23 -->
<g id="node23" class="node">
<title>Node23</title>
<g id="a_node23"><a target="_blank" xlink:href="http://en.cppreference.com/w/cpp/numeric/math/isfinite.html#" xlink:title=" ">
<polygon fill="white" stroke="black" points="504,-377.5 504,-396.5 569,-396.5 569,-377.5 504,-377.5"/>
<text text-anchor="middle" x="536.5" y="-384.5" font-family="Helvetica,sans-Serif" font-size="10.00">std::isfinite</text>
</a>
</g>
</g>
<!-- Node21&#45;&gt;Node23 -->
<g id="edge31" class="edge">
<title>Node21&#45;&gt;Node23</title>
<path fill="none" stroke="midnightblue" d="M441.17,-380.47C458.94,-381.7 477.74,-383 493.84,-384.12"/>
<polygon fill="midnightblue" stroke="midnightblue" points="493.77,-387.62 503.99,-384.82 494.26,-380.64 493.77,-387.62"/>
</g>
<!-- Node24 -->
<g id="node24" class="node">
<title>Node24</title>
<g id="a_node24"><a xlink:href="../../d6/d26/classciphers_1_1_hill_cipher.html#a629be41c1ab78850963e4ce14e1d11d9" target="_top" xlink:title="Function to generate a random integer in a given interval.">
<polygon fill="white" stroke="black" points="488,-328 488,-358 585,-358 585,-328 488,-328"/>
<text text-anchor="start" x="496" y="-346" font-family="Helvetica,sans-Serif" font-size="10.00">ciphers::HillCipher</text>
<text text-anchor="middle" x="536.5" y="-335" font-family="Helvetica,sans-Serif" font-size="10.00">::rand_range</text>
</a>
</g>
</g>
<!-- Node21&#45;&gt;Node24 -->
<g id="edge32" class="edge">
<title>Node21&#45;&gt;Node24</title>
<path fill="none" stroke="midnightblue" d="M441.17,-362.58C453.4,-360.04 466.11,-357.4 478.09,-354.92"/>
<polygon fill="midnightblue" stroke="midnightblue" points="478.88,-358.33 487.96,-352.87 477.45,-351.47 478.88,-358.33"/>
</g>
<!-- Node26&#45;&gt;Node5 -->
<g id="edge37" class="edge">
<title>Node26&#45;&gt;Node5</title>
<path fill="none" stroke="midnightblue" d="M117.73,-206.61C133.46,-218.37 159.43,-237.41 170,-243 173.76,-244.99 177.77,-246.86 181.83,-248.6"/>
<polygon fill="midnightblue" stroke="midnightblue" points="180.72,-251.93 191.3,-252.42 183.33,-245.44 180.72,-251.93"/>
</g>
<!-- Node26&#45;&gt;Node6 -->
<g id="edge39" class="edge">
<title>Node26&#45;&gt;Node6</title>
<path fill="none" stroke="midnightblue" d="M119.78,-187.32C137.36,-175.83 164.97,-157.84 170,-155 173.19,-153.19 176.53,-151.39 179.91,-149.61"/>
<polygon fill="midnightblue" stroke="midnightblue" points="181.56,-152.7 188.87,-145.03 178.37,-146.47 181.56,-152.7"/>
</g>
<!-- Node26&#45;&gt;Node9 -->
<g id="edge44" class="edge">
<title>Node26&#45;&gt;Node9</title>
<path fill="none" stroke="midnightblue" d="M123.04,-187.3C126.97,-184.64 130.88,-181.51 134,-178 157.78,-151.27 140.09,-125.63 170,-106 219.51,-73.5 390.64,-77.72 480.08,-82.42"/>
<polygon fill="midnightblue" stroke="midnightblue" points="480.13,-85.93 490.3,-82.98 480.51,-78.94 480.13,-85.93"/>
</g>
<!-- Node26&#45;&gt;Node11 -->
<g id="edge43" class="edge">
<title>Node26&#45;&gt;Node11</title>
<path fill="none" stroke="midnightblue" d="M123.04,-187.77C127.07,-185.05 131.02,-181.78 134,-178 163.27,-140.92 133.43,-107.9 170,-78 241.11,-19.85 282.64,-48 374.5,-48 374.5,-48 374.5,-48 537.5,-48 586.43,-48 715.28,-115.77 724,-127 772.76,-189.77 795.44,-445.12 801.07,-518.93"/>
<polygon fill="midnightblue" stroke="midnightblue" points="797.6,-519.45 801.82,-529.16 804.58,-518.93 797.6,-519.45"/>
</g>
<!-- Node26&#45;&gt;Node12 -->
<g id="edge40" class="edge">
<title>Node26&#45;&gt;Node12</title>
<path fill="none" stroke="midnightblue" d="M123.12,-200.28C134.1,-202.27 148.77,-204.92 163.4,-207.57"/>
<polygon fill="midnightblue" stroke="midnightblue" points="163.02,-211.06 173.48,-209.4 164.27,-204.17 163.02,-211.06"/>
</g>
<!-- Node26&#45;&gt;Node13 -->
<g id="edge41" class="edge">
<title>Node26&#45;&gt;Node13</title>
<path fill="none" stroke="midnightblue" d="M123.12,-193.41C139.59,-190.14 164.36,-185.23 184.86,-181.17"/>
<polygon fill="midnightblue" stroke="midnightblue" points="185.69,-184.57 194.82,-179.19 184.33,-177.7 185.69,-184.57"/>
</g>
<!-- Node26&#45;&gt;Node14 -->
<g id="edge42" class="edge">
<title>Node26&#45;&gt;Node14</title>
<path fill="none" stroke="midnightblue" d="M120.12,-206.71C124.9,-210.22 129.98,-214.45 134,-219 155.1,-242.87 153.73,-253.6 170,-281 182.13,-301.42 196.15,-324.48 206.41,-341.26"/>
<polygon fill="midnightblue" stroke="midnightblue" points="203.49,-343.18 211.7,-349.88 209.46,-339.52 203.49,-343.18"/>
</g>
<!-- Node27 -->
<g id="node27" class="node">
<title>Node27</title>
<g id="a_node27"><a target="_blank" xlink:href="http://en.cppreference.com/w/cpp/string/basic_string/compare.html#" xlink:title=" ">
<polygon fill="white" stroke="black" points="170,-0.5 170,-19.5 274,-19.5 274,-0.5 170,-0.5"/>
<text text-anchor="middle" x="222" y="-7.5" font-family="Helvetica,sans-Serif" font-size="10.00">std::string::compare</text>
</a>
</g>
</g>
<!-- Node26&#45;&gt;Node27 -->
<g id="edge38" class="edge">
<title>Node26&#45;&gt;Node27</title>
<path fill="none" stroke="midnightblue" d="M123.02,-188.18C127.14,-185.42 131.14,-182.02 134,-178 172.22,-124.23 128.11,-84.96 170,-34 172.95,-30.42 176.55,-27.34 180.47,-24.7"/>
<polygon fill="midnightblue" stroke="midnightblue" points="182.45,-27.59 189.41,-19.6 178.99,-21.51 182.45,-27.59"/>
</g>
</g>
</svg>
