<?xml version="1.0" encoding="UTF-8" standalone="no"?>
<!DOCTYPE svg PUBLIC "-//W3C//DTD SVG 1.1//EN"
 "http://www.w3.org/Graphics/SVG/1.1/DTD/svg11.dtd">
<!-- Generated by graphviz version 2.44.1 (20200629.0846)
 -->
<!-- Title: main Pages: 1 -->
<svg width="142pt" height="218pt"
 viewBox="0.00 0.00 142.00 218.00" xmlns="http://www.w3.org/2000/svg" xmlns:xlink="http://www.w3.org/1999/xlink">
<g id="graph0" class="graph" transform="scale(1 1) rotate(0) translate(4 214)">
<title>main</title>
<polygon fill="white" stroke="transparent" points="-4,4 -4,-214 138,-214 138,4 -4,4"/>
<!-- Node1 -->
<g id="node1" class="node">
<title>Node1</title>
<g id="a_node1"><a xlink:title=" ">
<polygon fill="#bfbfbf" stroke="black" points="0,-95.5 0,-114.5 38,-114.5 38,-95.5 0,-95.5"/>
<text text-anchor="middle" x="19" y="-102.5" font-family="Helvetica,sans-Serif" font-size="10.00">main</text>
</a>
</g>
</g>
<!-- Node2 -->
<g id="node2" class="node">
<title>Node2</title>
<g id="a_node2"><a target="_blank" xlink:href="http://en.cppreference.com/w/cpp/io/manip/endl.html#" xlink:title=" ">
<polygon fill="white" stroke="black" points="77,-190.5 77,-209.5 131,-209.5 131,-190.5 77,-190.5"/>
<text text-anchor="middle" x="104" y="-197.5" font-family="Helvetica,sans-Serif" font-size="10.00">std::endl</text>
</a>
</g>
</g>
<!-- Node1&#45;&gt;Node2 -->
<g id="edge1" class="edge">
<title>Node1&#45;&gt;Node2</title>
<path fill="none" stroke="midnightblue" d="M25.32,-114.75C34.04,-130.12 52.55,-160.34 74,-181 75.11,-182.07 76.29,-183.12 77.51,-184.13"/>
<polygon fill="midnightblue" stroke="midnightblue" points="75.82,-187.23 85.95,-190.34 79.97,-181.6 75.82,-187.23"/>
</g>
<!-- Node3 -->
<g id="node3" class="node">
<title>Node3</title>
<g id="a_node3"><a target="_blank" xlink:href="http://en.cppreference.com/w/cpp/numeric/random/srand.html#" xlink:title=" ">
<polygon fill="white" stroke="black" points="74,-152.5 74,-171.5 134,-171.5 134,-152.5 74,-152.5"/>
<text text-anchor="middle" x="104" y="-159.5" font-family="Helvetica,sans-Serif" font-size="10.00">std::srand</text>
</a>
</g>
</g>
<!-- Node1&#45;&gt;Node3 -->
<g id="edge2" class="edge">
<title>Node1&#45;&gt;Node3</title>
<path fill="none" stroke="midnightblue" d="M33.67,-114.81C44.54,-122.56 60.15,-133.6 74,-143 75.86,-144.26 77.8,-145.56 79.75,-146.86"/>
<polygon fill="midnightblue" stroke="midnightblue" points="77.91,-149.84 88.18,-152.43 81.76,-144 77.91,-149.84"/>
</g>
<!-- Node4 -->
<g id="node4" class="node">
<title>Node4</title>
<g id="a_node4"><a xlink:href="../../d5/db0/adaline__learning_8cpp.html#a52053d88ea1bcbbed9aca67ab4eeb499" target="_top" xlink:title=" ">
<polygon fill="white" stroke="black" points="85,-114.5 85,-133.5 123,-133.5 123,-114.5 85,-114.5"/>
<text text-anchor="middle" x="104" y="-121.5" font-family="Helvetica,sans-Serif" font-size="10.00">test1</text>
</a>
</g>
</g>
<!-- Node1&#45;&gt;Node4 -->
<g id="edge3" class="edge">
<title>Node1&#45;&gt;Node4</title>
<path fill="none" stroke="midnightblue" d="M38.01,-109.12C48.7,-111.57 62.5,-114.73 74.63,-117.51"/>
<polygon fill="midnightblue" stroke="midnightblue" points="74.21,-121 84.74,-119.82 75.77,-114.18 74.21,-121"/>
</g>
<!-- Node5 -->
<g id="node5" class="node">
<title>Node5</title>
<g id="a_node5"><a xlink:href="../../d5/db0/adaline__learning_8cpp.html#a379f7488a305f2571f2932b319931f82" target="_top" xlink:title=" ">
<polygon fill="white" stroke="black" points="85,-76.5 85,-95.5 123,-95.5 123,-76.5 85,-76.5"/>
<text text-anchor="middle" x="104" y="-83.5" font-family="Helvetica,sans-Serif" font-size="10.00">test2</text>
</a>
</g>
</g>
<!-- Node1&#45;&gt;Node5 -->
<g id="edge4" class="edge">
<title>Node1&#45;&gt;Node5</title>
<path fill="none" stroke="midnightblue" d="M38.01,-100.88C48.7,-98.43 62.5,-95.27 74.63,-92.49"/>
<polygon fill="midnightblue" stroke="midnightblue" points="75.77,-95.82 84.74,-90.18 74.21,-89 75.77,-95.82"/>
</g>
<!-- Node6 -->
<g id="node6" class="node">
<title>Node6</title>
<g id="a_node6"><a xlink:href="../../d5/db0/adaline__learning_8cpp.html#a992bdf1fdb0b9d414bcf7981d2d87aa9" target="_top" xlink:title=" ">
<polygon fill="white" stroke="black" points="85,-38.5 85,-57.5 123,-57.5 123,-38.5 85,-38.5"/>
<text text-anchor="middle" x="104" y="-45.5" font-family="Helvetica,sans-Serif" font-size="10.00">test3</text>
</a>
</g>
</g>
<!-- Node1&#45;&gt;Node6 -->
<g id="edge5" class="edge">
<title>Node1&#45;&gt;Node6</title>
<path fill="none" stroke="midnightblue" d="M33.67,-95.19C44.54,-87.44 60.15,-76.4 74,-67 75.86,-65.74 77.8,-64.44 79.75,-63.14"/>
<polygon fill="midnightblue" stroke="midnightblue" points="81.76,-66 88.18,-57.57 77.91,-60.16 81.76,-66"/>
</g>
<!-- Node7 -->
<g id="node7" class="node">
<title>Node7</title>
<g id="a_node7"><a target="_blank" xlink:href="http://en.cppreference.com/w/cpp/chrono/c/time.html#" xlink:title=" ">
<polygon fill="white" stroke="black" points="76.5,-0.5 76.5,-19.5 131.5,-19.5 131.5,-0.5 76.5,-0.5"/>
<text text-anchor="middle" x="104" y="-7.5" font-family="Helvetica,sans-Serif" font-size="10.00">std::time</text>
</a>
</g>
</g>
<!-- Node1&#45;&gt;Node7 -->
<g id="edge6" class="edge">
<title>Node1&#45;&gt;Node7</title>
<path fill="none" stroke="midnightblue" d="M25.32,-95.25C34.04,-79.88 52.55,-49.66 74,-29 75.11,-27.93 76.29,-26.88 77.51,-25.87"/>
<polygon fill="midnightblue" stroke="midnightblue" points="79.97,-28.4 85.95,-19.66 75.82,-22.77 79.97,-28.4"/>
</g>
</g>
</svg>
