<?xml version="1.0" encoding="UTF-8" standalone="no"?>
<!DOCTYPE svg PUBLIC "-//W3C//DTD SVG 1.1//EN"
 "http://www.w3.org/Graphics/SVG/1.1/DTD/svg11.dtd">
<!-- Generated by graphviz version 2.44.1 (20200629.0846)
 -->
<!-- Title: test_1 Pages: 1 -->
<svg width="496pt" height="366pt"
 viewBox="0.00 0.00 496.00 366.00" xmlns="http://www.w3.org/2000/svg" xmlns:xlink="http://www.w3.org/1999/xlink">
<g id="graph0" class="graph" transform="scale(1 1) rotate(0) translate(4 362)">
<title>test_1</title>
<polygon fill="white" stroke="transparent" points="-4,4 -4,-362 492,-362 492,4 -4,4"/>
<!-- Node1 -->
<g id="node1" class="node">
<title>Node1</title>
<g id="a_node1"><a xlink:title=" ">
<polygon fill="#bfbfbf" stroke="black" points="0,-169.5 0,-188.5 44,-188.5 44,-169.5 0,-169.5"/>
<text text-anchor="middle" x="22" y="-176.5" font-family="Helvetica,sans-Serif" font-size="10.00">test_1</text>
</a>
</g>
</g>
<!-- Node2 -->
<g id="node2" class="node">
<title>Node2</title>
<g id="a_node2"><a xlink:href="../../d1/d51/classrange__queries_1_1heavy__light__decomposition_1_1_tree.html#a79ab4601c4a95c0902ac04e779e5f54d" target="_top" xlink:title="Adds an undirected edge from node u to node v in the tree.">
<polygon fill="white" stroke="black" points="80,-272.5 80,-313.5 190,-313.5 190,-272.5 80,-272.5"/>
<text text-anchor="start" x="88" y="-301.5" font-family="Helvetica,sans-Serif" font-size="10.00">range_queries::heavy</text>
<text text-anchor="start" x="88" y="-290.5" font-family="Helvetica,sans-Serif" font-size="10.00">_light_decomposition</text>
<text text-anchor="middle" x="135" y="-279.5" font-family="Helvetica,sans-Serif" font-size="10.00">::Tree::add_edge</text>
</a>
</g>
</g>
<!-- Node1&#45;&gt;Node2 -->
<g id="edge1" class="edge">
<title>Node1&#45;&gt;Node2</title>
<path fill="none" stroke="midnightblue" d="M32.46,-188.72C48.71,-205.41 82.5,-240.1 106.63,-264.89"/>
<polygon fill="midnightblue" stroke="midnightblue" points="104.3,-267.51 113.78,-272.24 109.31,-262.63 104.3,-267.51"/>
</g>
<!-- Node4 -->
<g id="node4" class="node">
<title>Node4</title>
<g id="a_node4"><a xlink:href="../../d2/d8a/classrange__queries_1_1heavy__light__decomposition_1_1_h_l_d.html#ae9e979edd69678b85665c01e2ee97828" target="_top" xlink:title="This function must be called after the tree adjacency list and node values are populated The function...">
<polygon fill="white" stroke="black" points="80,-158.5 80,-199.5 190,-199.5 190,-158.5 80,-158.5"/>
<text text-anchor="start" x="88" y="-187.5" font-family="Helvetica,sans-Serif" font-size="10.00">range_queries::heavy</text>
<text text-anchor="start" x="88" y="-176.5" font-family="Helvetica,sans-Serif" font-size="10.00">_light_decomposition</text>
<text text-anchor="middle" x="135" y="-165.5" font-family="Helvetica,sans-Serif" font-size="10.00">::HLD::init</text>
</a>
</g>
</g>
<!-- Node1&#45;&gt;Node4 -->
<g id="edge3" class="edge">
<title>Node1&#45;&gt;Node4</title>
<path fill="none" stroke="midnightblue" d="M44.14,-179C51.62,-179 60.48,-179 69.67,-179"/>
<polygon fill="midnightblue" stroke="midnightblue" points="69.72,-182.5 79.72,-179 69.72,-175.5 69.72,-182.5"/>
</g>
<!-- Node12 -->
<g id="node12" class="node">
<title>Node12</title>
<g id="a_node12"><a xlink:href="../../d1/d51/classrange__queries_1_1heavy__light__decomposition_1_1_tree.html#a04cd96efaba147b19d3afc769b90ff70" target="_top" xlink:title="Set the values for all the nodes.">
<polygon fill="white" stroke="black" points="80,-44.5 80,-85.5 190,-85.5 190,-44.5 80,-44.5"/>
<text text-anchor="start" x="88" y="-73.5" font-family="Helvetica,sans-Serif" font-size="10.00">range_queries::heavy</text>
<text text-anchor="start" x="88" y="-62.5" font-family="Helvetica,sans-Serif" font-size="10.00">_light_decomposition</text>
<text text-anchor="middle" x="135" y="-51.5" font-family="Helvetica,sans-Serif" font-size="10.00">::Tree::set_node_val</text>
</a>
</g>
</g>
<!-- Node1&#45;&gt;Node12 -->
<g id="edge11" class="edge">
<title>Node1&#45;&gt;Node12</title>
<path fill="none" stroke="midnightblue" d="M32.46,-169.28C48.71,-152.59 82.5,-117.9 106.63,-93.11"/>
<polygon fill="midnightblue" stroke="midnightblue" points="109.31,-95.37 113.78,-85.76 104.3,-90.49 109.31,-95.37"/>
</g>
<!-- Node3 -->
<g id="node3" class="node">
<title>Node3</title>
<g id="a_node3"><a target="_blank" xlink:href="http://en.cppreference.com/w/cpp/container/vector/push_back.html#" xlink:title=" ">
<polygon fill="white" stroke="black" points="226,-338.5 226,-357.5 342,-357.5 342,-338.5 226,-338.5"/>
<text text-anchor="middle" x="284" y="-345.5" font-family="Helvetica,sans-Serif" font-size="10.00">std::vector::push_back</text>
</a>
</g>
</g>
<!-- Node2&#45;&gt;Node3 -->
<g id="edge2" class="edge">
<title>Node2&#45;&gt;Node3</title>
<path fill="none" stroke="midnightblue" d="M185.78,-313.52C198.81,-318.72 212.88,-324.2 226,-329 231.65,-331.07 237.64,-333.17 243.54,-335.18"/>
<polygon fill="midnightblue" stroke="midnightblue" points="242.71,-338.59 253.3,-338.47 244.94,-331.96 242.71,-338.59"/>
</g>
<!-- Node5 -->
<g id="node5" class="node">
<title>Node5</title>
<g id="a_node5"><a xlink:href="../../d9/d35/classrange__queries_1_1heavy__light__decomposition_1_1_s_g.html#a41c733f5f5e262b308f7cb95c88c1e74" target="_top" xlink:title="Function that specifies the type of operation involved when segments are combined.">
<polygon fill="white" stroke="black" points="229,-278.5 229,-319.5 339,-319.5 339,-278.5 229,-278.5"/>
<text text-anchor="start" x="237" y="-307.5" font-family="Helvetica,sans-Serif" font-size="10.00">range_queries::heavy</text>
<text text-anchor="start" x="237" y="-296.5" font-family="Helvetica,sans-Serif" font-size="10.00">_light_decomposition</text>
<text text-anchor="middle" x="284" y="-285.5" font-family="Helvetica,sans-Serif" font-size="10.00">::SG::combine</text>
</a>
</g>
</g>
<!-- Node4&#45;&gt;Node5 -->
<g id="edge4" class="edge">
<title>Node4&#45;&gt;Node5</title>
<path fill="none" stroke="midnightblue" d="M153.44,-199.74C170.55,-219.23 198.07,-248.42 226,-269 227.83,-270.35 229.73,-271.67 231.67,-272.96"/>
<polygon fill="midnightblue" stroke="midnightblue" points="230.08,-276.1 240.42,-278.43 233.79,-270.16 230.08,-276.1"/>
</g>
<!-- Node6 -->
<g id="node6" class="node">
<title>Node6</title>
<g id="a_node6"><a xlink:href="../../d2/d8a/classrange__queries_1_1heavy__light__decomposition_1_1_h_l_d.html#af64848d6630c39d0f09ce2359cc7c4f8" target="_top" xlink:title="Utility function to assign heavy child to each node (&#45;1 for a leaf node)">
<polygon fill="white" stroke="black" points="229,-218.5 229,-259.5 339,-259.5 339,-218.5 229,-218.5"/>
<text text-anchor="start" x="237" y="-247.5" font-family="Helvetica,sans-Serif" font-size="10.00">range_queries::heavy</text>
<text text-anchor="start" x="237" y="-236.5" font-family="Helvetica,sans-Serif" font-size="10.00">_light_decomposition</text>
<text text-anchor="middle" x="284" y="-225.5" font-family="Helvetica,sans-Serif" font-size="10.00">::HLD::dfs_hc</text>
</a>
</g>
</g>
<!-- Node4&#45;&gt;Node6 -->
<g id="edge5" class="edge">
<title>Node4&#45;&gt;Node6</title>
<path fill="none" stroke="midnightblue" d="M186.59,-199.65C198.25,-204.41 210.77,-209.52 222.8,-214.43"/>
<polygon fill="midnightblue" stroke="midnightblue" points="221.74,-217.77 232.32,-218.31 224.38,-211.29 221.74,-217.77"/>
</g>
<!-- Node7 -->
<g id="node7" class="node">
<title>Node7</title>
<g id="a_node7"><a xlink:href="../../d2/d8a/classrange__queries_1_1heavy__light__decomposition_1_1_h_l_d.html#a0579062b384e54b611b80c6337c7f2c8" target="_top" xlink:title="Utility function to lable the nodes so that heavy chains have a contigous lable.">
<polygon fill="white" stroke="black" points="229,-158.5 229,-199.5 339,-199.5 339,-158.5 229,-158.5"/>
<text text-anchor="start" x="237" y="-187.5" font-family="Helvetica,sans-Serif" font-size="10.00">range_queries::heavy</text>
<text text-anchor="start" x="237" y="-176.5" font-family="Helvetica,sans-Serif" font-size="10.00">_light_decomposition</text>
<text text-anchor="middle" x="284" y="-165.5" font-family="Helvetica,sans-Serif" font-size="10.00">::HLD::dfs_labels</text>
</a>
</g>
</g>
<!-- Node4&#45;&gt;Node7 -->
<g id="edge6" class="edge">
<title>Node4&#45;&gt;Node7</title>
<path fill="none" stroke="midnightblue" d="M190.32,-179C199.57,-179 209.25,-179 218.73,-179"/>
<polygon fill="midnightblue" stroke="midnightblue" points="218.9,-182.5 228.9,-179 218.9,-175.5 218.9,-182.5"/>
</g>
<!-- Node8 -->
<g id="node8" class="node">
<title>Node8</title>
<g id="a_node8"><a xlink:href="../../d2/d8a/classrange__queries_1_1heavy__light__decomposition_1_1_h_l_d.html#a2dfbda148aad0bfaba2ebfda9ebc915a" target="_top" xlink:title="Utility function to assign highest parent that can be reached though heavy chains.">
<polygon fill="white" stroke="black" points="229,-98.5 229,-139.5 339,-139.5 339,-98.5 229,-98.5"/>
<text text-anchor="start" x="237" y="-127.5" font-family="Helvetica,sans-Serif" font-size="10.00">range_queries::heavy</text>
<text text-anchor="start" x="237" y="-116.5" font-family="Helvetica,sans-Serif" font-size="10.00">_light_decomposition</text>
<text text-anchor="middle" x="284" y="-105.5" font-family="Helvetica,sans-Serif" font-size="10.00">::HLD::dfs_par</text>
</a>
</g>
</g>
<!-- Node4&#45;&gt;Node8 -->
<g id="edge7" class="edge">
<title>Node4&#45;&gt;Node8</title>
<path fill="none" stroke="midnightblue" d="M186.59,-158.35C198.25,-153.59 210.77,-148.48 222.8,-143.57"/>
<polygon fill="midnightblue" stroke="midnightblue" points="224.38,-146.71 232.32,-139.69 221.74,-140.23 224.38,-146.71"/>
</g>
<!-- Node9 -->
<g id="node9" class="node">
<title>Node9</title>
<g id="a_node9"><a xlink:href="../../d1/d51/classrange__queries_1_1heavy__light__decomposition_1_1_tree.html#ad22d760a5a33545a70e7ea5e1786c8dc" target="_top" xlink:title="This function must be called after the tree adjacency list and node values are populated The function...">
<polygon fill="white" stroke="black" points="229,-38.5 229,-79.5 339,-79.5 339,-38.5 229,-38.5"/>
<text text-anchor="start" x="237" y="-67.5" font-family="Helvetica,sans-Serif" font-size="10.00">range_queries::heavy</text>
<text text-anchor="start" x="237" y="-56.5" font-family="Helvetica,sans-Serif" font-size="10.00">_light_decomposition</text>
<text text-anchor="middle" x="284" y="-45.5" font-family="Helvetica,sans-Serif" font-size="10.00">::Tree::init</text>
</a>
</g>
</g>
<!-- Node4&#45;&gt;Node9 -->
<g id="edge8" class="edge">
<title>Node4&#45;&gt;Node9</title>
<path fill="none" stroke="midnightblue" d="M153.44,-158.26C170.55,-138.77 198.07,-109.58 226,-89 227.83,-87.65 229.73,-86.33 231.67,-85.04"/>
<polygon fill="midnightblue" stroke="midnightblue" points="233.79,-87.84 240.42,-79.57 230.08,-81.9 233.79,-87.84"/>
</g>
<!-- Node10 -->
<g id="node10" class="node">
<title>Node10</title>
<g id="a_node10"><a xlink:href="../../d1/d51/classrange__queries_1_1heavy__light__decomposition_1_1_tree.html#ae8de7aefcb6635d3dacdd174cd4890c4" target="_top" xlink:title="Utility function to populate the t_par vector.">
<polygon fill="white" stroke="black" points="378,-68.5 378,-109.5 488,-109.5 488,-68.5 378,-68.5"/>
<text text-anchor="start" x="386" y="-97.5" font-family="Helvetica,sans-Serif" font-size="10.00">range_queries::heavy</text>
<text text-anchor="start" x="386" y="-86.5" font-family="Helvetica,sans-Serif" font-size="10.00">_light_decomposition</text>
<text text-anchor="middle" x="433" y="-75.5" font-family="Helvetica,sans-Serif" font-size="10.00">::Tree::dfs_lca</text>
</a>
</g>
</g>
<!-- Node9&#45;&gt;Node10 -->
<g id="edge9" class="edge">
<title>Node9&#45;&gt;Node10</title>
<path fill="none" stroke="midnightblue" d="M339.32,-70.09C348.67,-71.99 358.46,-73.99 368.03,-75.95"/>
<polygon fill="midnightblue" stroke="midnightblue" points="367.41,-79.39 377.9,-77.96 368.81,-72.53 367.41,-79.39"/>
</g>
<!-- Node11 -->
<g id="node11" class="node">
<title>Node11</title>
<g id="a_node11"><a xlink:href="../../d1/d51/classrange__queries_1_1heavy__light__decomposition_1_1_tree.html#aa339c31ec74cd86a4842a8b09653d460" target="_top" xlink:title="Utility function to compute sub&#45;tree sizes.">
<polygon fill="white" stroke="black" points="378,-8.5 378,-49.5 488,-49.5 488,-8.5 378,-8.5"/>
<text text-anchor="start" x="386" y="-37.5" font-family="Helvetica,sans-Serif" font-size="10.00">range_queries::heavy</text>
<text text-anchor="start" x="386" y="-26.5" font-family="Helvetica,sans-Serif" font-size="10.00">_light_decomposition</text>
<text text-anchor="middle" x="433" y="-15.5" font-family="Helvetica,sans-Serif" font-size="10.00">::Tree::dfs_size</text>
</a>
</g>
</g>
<!-- Node9&#45;&gt;Node11 -->
<g id="edge10" class="edge">
<title>Node9&#45;&gt;Node11</title>
<path fill="none" stroke="midnightblue" d="M339.32,-47.91C348.67,-46.01 358.46,-44.01 368.03,-42.05"/>
<polygon fill="midnightblue" stroke="midnightblue" points="368.81,-45.47 377.9,-40.04 367.41,-38.61 368.81,-45.47"/>
</g>
<!-- Node13 -->
<g id="node13" class="node">
<title>Node13</title>
<g id="a_node13"><a target="_blank" xlink:href="http://en.cppreference.com/w/cpp/container/vector/size.html#" xlink:title=" ">
<polygon fill="white" stroke="black" points="240.5,-0.5 240.5,-19.5 327.5,-19.5 327.5,-0.5 240.5,-0.5"/>
<text text-anchor="middle" x="284" y="-7.5" font-family="Helvetica,sans-Serif" font-size="10.00">std::vector::size</text>
</a>
</g>
</g>
<!-- Node12&#45;&gt;Node13 -->
<g id="edge12" class="edge">
<title>Node12&#45;&gt;Node13</title>
<path fill="none" stroke="midnightblue" d="M185.78,-44.48C198.81,-39.28 212.88,-33.8 226,-29 231.65,-26.93 237.64,-24.83 243.54,-22.82"/>
<polygon fill="midnightblue" stroke="midnightblue" points="244.94,-26.04 253.3,-19.53 242.71,-19.41 244.94,-26.04"/>
</g>
</g>
</svg>
