<?xml version="1.0" encoding="UTF-8" standalone="no"?>
<!DOCTYPE svg PUBLIC "-//W3C//DTD SVG 1.1//EN"
 "http://www.w3.org/Graphics/SVG/1.1/DTD/svg11.dtd">
<!-- Generated by graphviz version 2.44.0 (20200408.0750)
 -->
<!-- Title: range_queries/mo.cpp Pages: 1 -->
<svg width="136pt" height="84pt"
 viewBox="0.00 0.00 136.00 84.00" xmlns="http://www.w3.org/2000/svg" xmlns:xlink="http://www.w3.org/1999/xlink">
<g id="graph0" class="graph" transform="scale(1 1) rotate(0) translate(4 80)">
<title>range_queries/mo.cpp</title>
<polygon fill="white" stroke="transparent" points="-4,4 -4,-80 132,-80 132,4 -4,4"/>
<!-- Node1 -->
<g id="node1" class="node">
<title>Node1</title>
<g id="a_node1"><a xlink:title="A C++ Program to compute unique elements of ranges for different range queries.">
<polygon fill="#bfbfbf" stroke="black" points="7.5,-56.5 7.5,-75.5 120.5,-75.5 120.5,-56.5 7.5,-56.5"/>
<text text-anchor="middle" x="64" y="-63.5" font-family="Helvetica,sans-Serif" font-size="10.00">range_queries/mo.cpp</text>
</a>
</g>
</g>
<!-- Node2 -->
<g id="node2" class="node">
<title>Node2</title>
<g id="a_node2"><a xlink:title=" ">
<polygon fill="white" stroke="#bfbfbf" points="0,-0.5 0,-19.5 56,-19.5 56,-0.5 0,-0.5"/>
<text text-anchor="middle" x="28" y="-7.5" font-family="Helvetica,sans-Serif" font-size="10.00">algorithm</text>
</a>
</g>
</g>
<!-- Node1&#45;&gt;Node2 -->
<g id="edge1" class="edge">
<title>Node1&#45;&gt;Node2</title>
<path fill="none" stroke="midnightblue" d="M58.06,-56.08C53.02,-48.53 45.66,-37.49 39.49,-28.23"/>
<polygon fill="midnightblue" stroke="midnightblue" points="42.29,-26.13 33.83,-19.75 36.47,-30.01 42.29,-26.13"/>
</g>
<!-- Node3 -->
<g id="node3" class="node">
<title>Node3</title>
<g id="a_node3"><a xlink:title=" ">
<polygon fill="white" stroke="#bfbfbf" points="74,-0.5 74,-19.5 128,-19.5 128,-0.5 74,-0.5"/>
<text text-anchor="middle" x="101" y="-7.5" font-family="Helvetica,sans-Serif" font-size="10.00">iostream</text>
</a>
</g>
</g>
<!-- Node1&#45;&gt;Node3 -->
<g id="edge2" class="edge">
<title>Node1&#45;&gt;Node3</title>
<path fill="none" stroke="midnightblue" d="M70.11,-56.08C75.28,-48.53 82.85,-37.49 89.19,-28.23"/>
<polygon fill="midnightblue" stroke="midnightblue" points="92.24,-29.98 95,-19.75 86.46,-26.02 92.24,-29.98"/>
</g>
</g>
</svg>
