<?xml version="1.0" encoding="UTF-8" standalone="no"?>
<!DOCTYPE svg PUBLIC "-//W3C//DTD SVG 1.1//EN"
 "http://www.w3.org/Graphics/SVG/1.1/DTD/svg11.dtd">
<!-- Generated by graphviz version 2.47.3 (20210619.1520)
 -->
<!-- Title: main Pages: 1 -->
<svg width="632pt" height="218pt"
 viewBox="0.00 0.00 632.00 218.00" xmlns="http://www.w3.org/2000/svg" xmlns:xlink="http://www.w3.org/1999/xlink">
<g id="graph0" class="graph" transform="scale(1 1) rotate(0) translate(4 214)">
<title>main</title>
<polygon fill="white" stroke="transparent" points="-4,4 -4,-214 628,-214 628,4 -4,4"/>
<!-- Node1 -->
<g id="node1" class="node">
<title>Node1</title>
<g id="a_node1"><a xlink:title=" ">
<polygon fill="#bfbfbf" stroke="black" points="0,-95.5 0,-114.5 38,-114.5 38,-95.5 0,-95.5"/>
<text text-anchor="middle" x="19" y="-102.5" font-family="Helvetica,sans-Serif" font-size="10.00">main</text>
</a>
</g>
</g>
<!-- Node2 -->
<g id="node2" class="node">
<title>Node2</title>
<g id="a_node2"><a xlink:href="../../de/d75/qr__eigen__values_8cpp.html#a33cb0a68c36aa26fd599c7c66da86ed7" target="_top" xlink:title=" ">
<polygon fill="white" stroke="black" points="74,-190.5 74,-209.5 150,-209.5 150,-190.5 74,-190.5"/>
<text text-anchor="middle" x="112" y="-197.5" font-family="Helvetica,sans-Serif" font-size="10.00">create_matrix</text>
</a>
</g>
</g>
<!-- Node1&#45;&gt;Node2 -->
<g id="edge1" class="edge">
<title>Node1&#45;&gt;Node2</title>
<path fill="none" stroke="midnightblue" d="M25.75,-114.56C34.76,-129.03 53.34,-156.83 74,-176 77.37,-179.13 81.21,-182.12 85.09,-184.85"/>
<polygon fill="midnightblue" stroke="midnightblue" points="83.25,-187.83 93.53,-190.39 87.09,-181.98 83.25,-187.83"/>
</g>
<!-- Node3 -->
<g id="node3" class="node">
<title>Node3</title>
<g id="a_node3"><a xlink:href="../../d2/d3b/namespaceqr__algorithm.html#a763896dbb4a7e95c4a1e614ac0819d66" target="_top" xlink:title=" ">
<polygon fill="white" stroke="black" points="186,-115 186,-145 285,-145 285,-115 186,-115"/>
<text text-anchor="start" x="194" y="-133" font-family="Helvetica,sans-Serif" font-size="10.00">qr_algorithm::eigen</text>
<text text-anchor="middle" x="235.5" y="-122" font-family="Helvetica,sans-Serif" font-size="10.00">_values</text>
</a>
</g>
</g>
<!-- Node1&#45;&gt;Node3 -->
<g id="edge2" class="edge">
<title>Node1&#45;&gt;Node3</title>
<path fill="none" stroke="midnightblue" d="M29.71,-114.69C39.79,-124 56.51,-137.46 74,-143 106.57,-153.31 144.61,-150.82 175.48,-145.39"/>
<polygon fill="midnightblue" stroke="midnightblue" points="176.49,-148.76 185.66,-143.46 175.18,-141.89 176.49,-148.76"/>
</g>
<!-- Node9 -->
<g id="node9" class="node">
<title>Node9</title>
<g id="a_node9"><a target="_blank" xlink:href="http://en.cppreference.com/w/cpp/numeric/random/srand.html#" xlink:title=" ">
<polygon fill="white" stroke="black" points="82,-38.5 82,-57.5 142,-57.5 142,-38.5 82,-38.5"/>
<text text-anchor="middle" x="112" y="-45.5" font-family="Helvetica,sans-Serif" font-size="10.00">std::srand</text>
</a>
</g>
</g>
<!-- Node1&#45;&gt;Node9 -->
<g id="edge8" class="edge">
<title>Node1&#45;&gt;Node9</title>
<path fill="none" stroke="midnightblue" d="M32.54,-95.43C43.27,-87.41 59.29,-75.9 74,-67 76.63,-65.41 79.42,-63.82 82.23,-62.28"/>
<polygon fill="midnightblue" stroke="midnightblue" points="83.93,-65.33 91.14,-57.56 80.66,-59.14 83.93,-65.33"/>
</g>
<!-- Node10 -->
<g id="node10" class="node">
<title>Node10</title>
<g id="a_node10"><a xlink:href="../../de/d75/qr__eigen__values_8cpp.html#a1440a7779ac56f47a3f355ce4a8c7da0" target="_top" xlink:title=" ">
<polygon fill="white" stroke="black" points="93,-114.5 93,-133.5 131,-133.5 131,-114.5 93,-114.5"/>
<text text-anchor="middle" x="112" y="-121.5" font-family="Helvetica,sans-Serif" font-size="10.00">test1</text>
</a>
</g>
</g>
<!-- Node1&#45;&gt;Node10 -->
<g id="edge9" class="edge">
<title>Node1&#45;&gt;Node10</title>
<path fill="none" stroke="midnightblue" d="M38.42,-108.84C51.2,-111.51 68.48,-115.12 82.97,-118.15"/>
<polygon fill="midnightblue" stroke="midnightblue" points="82.42,-121.61 92.92,-120.23 83.85,-114.76 82.42,-121.61"/>
</g>
<!-- Node12 -->
<g id="node12" class="node">
<title>Node12</title>
<g id="a_node12"><a xlink:href="../../de/d75/qr__eigen__values_8cpp.html#a0283886819c7c140a023582b7269e2d0" target="_top" xlink:title=" ">
<polygon fill="white" stroke="black" points="93,-76.5 93,-95.5 131,-95.5 131,-76.5 93,-76.5"/>
<text text-anchor="middle" x="112" y="-83.5" font-family="Helvetica,sans-Serif" font-size="10.00">test2</text>
</a>
</g>
</g>
<!-- Node1&#45;&gt;Node12 -->
<g id="edge12" class="edge">
<title>Node1&#45;&gt;Node12</title>
<path fill="none" stroke="midnightblue" d="M38.42,-101.16C51.2,-98.49 68.48,-94.88 82.97,-91.85"/>
<polygon fill="midnightblue" stroke="midnightblue" points="83.85,-95.24 92.92,-89.77 82.42,-88.39 83.85,-95.24"/>
</g>
<!-- Node13 -->
<g id="node13" class="node">
<title>Node13</title>
<g id="a_node13"><a target="_blank" xlink:href="http://en.cppreference.com/w/cpp/chrono/c/time.html#" xlink:title=" ">
<polygon fill="white" stroke="black" points="84.5,-0.5 84.5,-19.5 139.5,-19.5 139.5,-0.5 84.5,-0.5"/>
<text text-anchor="middle" x="112" y="-7.5" font-family="Helvetica,sans-Serif" font-size="10.00">std::time</text>
</a>
</g>
</g>
<!-- Node1&#45;&gt;Node13 -->
<g id="edge15" class="edge">
<title>Node1&#45;&gt;Node13</title>
<path fill="none" stroke="midnightblue" d="M24.8,-95.48C33.05,-79.9 51.24,-48.71 74,-29 75.69,-27.54 77.5,-26.16 79.39,-24.85"/>
<polygon fill="midnightblue" stroke="midnightblue" points="81.26,-27.82 88,-19.64 77.63,-21.83 81.26,-27.82"/>
</g>
<!-- Node4 -->
<g id="node4" class="node">
<title>Node4</title>
<g id="a_node4"><a xlink:href="../../de/d75/qr__eigen__values_8cpp.html#a7558fd7779bf207157ced66f275951a0" target="_top" xlink:title=" ">
<polygon fill="white" stroke="black" points="364,-139.5 364,-158.5 418,-158.5 418,-139.5 364,-139.5"/>
<text text-anchor="middle" x="391" y="-146.5" font-family="Helvetica,sans-Serif" font-size="10.00">mat_mul</text>
</a>
</g>
</g>
<!-- Node3&#45;&gt;Node4 -->
<g id="edge3" class="edge">
<title>Node3&#45;&gt;Node4</title>
<path fill="none" stroke="midnightblue" d="M285.07,-136.01C307.21,-138.75 332.98,-141.94 353.44,-144.48"/>
<polygon fill="midnightblue" stroke="midnightblue" points="353.26,-147.98 363.61,-145.73 354.12,-141.03 353.26,-147.98"/>
</g>
<!-- Node5 -->
<g id="node5" class="node">
<title>Node5</title>
<g id="a_node5"><a xlink:href="../../d2/d3b/namespaceqr__algorithm.html#ab1ac74497ffb2101040cc1efe3546de8" target="_top" xlink:title=" ">
<polygon fill="white" stroke="black" points="321,-101.5 321,-120.5 461,-120.5 461,-101.5 321,-101.5"/>
<text text-anchor="middle" x="391" y="-108.5" font-family="Helvetica,sans-Serif" font-size="10.00">qr_algorithm::qr_decompose</text>
</a>
</g>
</g>
<!-- Node3&#45;&gt;Node5 -->
<g id="edge4" class="edge">
<title>Node3&#45;&gt;Node5</title>
<path fill="none" stroke="midnightblue" d="M285.07,-123.99C293.36,-122.96 302.17,-121.87 311.02,-120.78"/>
<polygon fill="midnightblue" stroke="midnightblue" points="311.5,-124.24 321,-119.54 310.64,-117.3 311.5,-124.24"/>
</g>
<!-- Node6 -->
<g id="node6" class="node">
<title>Node6</title>
<g id="a_node6"><a xlink:href="../../d8/d77/namespacemachine__learning.html#a5305cc18d11943d3dc0d66e70d7e9c44" target="_top" xlink:title=" ">
<polygon fill="white" stroke="black" points="502,-139.5 502,-158.5 619,-158.5 619,-139.5 502,-139.5"/>
<text text-anchor="middle" x="560.5" y="-146.5" font-family="Helvetica,sans-Serif" font-size="10.00">machine_learning::sum</text>
</a>
</g>
</g>
<!-- Node5&#45;&gt;Node6 -->
<g id="edge5" class="edge">
<title>Node5&#45;&gt;Node6</title>
<path fill="none" stroke="midnightblue" d="M434.27,-120.59C456.57,-125.65 484.12,-131.9 507.7,-137.25"/>
<polygon fill="midnightblue" stroke="midnightblue" points="507.01,-140.68 517.54,-139.48 508.56,-133.85 507.01,-140.68"/>
</g>
<!-- Node7 -->
<g id="node7" class="node">
<title>Node7</title>
<g id="a_node7"><a xlink:href="../../d2/d3b/namespaceqr__algorithm.html#ad16da2183db22378435042f26af43d5f" target="_top" xlink:title=" ">
<polygon fill="white" stroke="black" points="497,-101.5 497,-120.5 624,-120.5 624,-101.5 497,-101.5"/>
<text text-anchor="middle" x="560.5" y="-108.5" font-family="Helvetica,sans-Serif" font-size="10.00">qr_algorithm::vector_mag</text>
</a>
</g>
</g>
<!-- Node5&#45;&gt;Node7 -->
<g id="edge6" class="edge">
<title>Node5&#45;&gt;Node7</title>
<path fill="none" stroke="midnightblue" d="M461.1,-111C469.49,-111 478.08,-111 486.53,-111"/>
<polygon fill="midnightblue" stroke="midnightblue" points="486.74,-114.5 496.74,-111 486.74,-107.5 486.74,-114.5"/>
</g>
<!-- Node8 -->
<g id="node8" class="node">
<title>Node8</title>
<g id="a_node8"><a xlink:href="../../d2/d3b/namespaceqr__algorithm.html#a5422c76bfa322620de611083bd518d71" target="_top" xlink:title=" ">
<polygon fill="white" stroke="black" points="498.5,-63.5 498.5,-82.5 622.5,-82.5 622.5,-63.5 498.5,-63.5"/>
<text text-anchor="middle" x="560.5" y="-70.5" font-family="Helvetica,sans-Serif" font-size="10.00">qr_algorithm::vector_proj</text>
</a>
</g>
</g>
<!-- Node5&#45;&gt;Node8 -->
<g id="edge7" class="edge">
<title>Node5&#45;&gt;Node8</title>
<path fill="none" stroke="midnightblue" d="M434.27,-101.41C456.57,-96.35 484.12,-90.1 507.7,-84.75"/>
<polygon fill="midnightblue" stroke="midnightblue" points="508.56,-88.15 517.54,-82.52 507.01,-81.32 508.56,-88.15"/>
</g>
<!-- Node10&#45;&gt;Node3 -->
<g id="edge10" class="edge">
<title>Node10&#45;&gt;Node3</title>
<path fill="none" stroke="midnightblue" d="M131.19,-124.9C143.2,-125.49 159.66,-126.3 175.91,-127.11"/>
<polygon fill="midnightblue" stroke="midnightblue" points="175.81,-130.61 185.97,-127.6 176.15,-123.61 175.81,-130.61"/>
</g>
<!-- Node11 -->
<g id="node11" class="node">
<title>Node11</title>
<g id="a_node11"><a target="_blank" xlink:href="http://en.cppreference.com/w/cpp/io/manip/endl.html#" xlink:title=" ">
<polygon fill="white" stroke="black" points="208.5,-76.5 208.5,-95.5 262.5,-95.5 262.5,-76.5 208.5,-76.5"/>
<text text-anchor="middle" x="235.5" y="-83.5" font-family="Helvetica,sans-Serif" font-size="10.00">std::endl</text>
</a>
</g>
</g>
<!-- Node10&#45;&gt;Node11 -->
<g id="edge11" class="edge">
<title>Node10&#45;&gt;Node11</title>
<path fill="none" stroke="midnightblue" d="M131.19,-118.31C148.87,-112.78 176.22,-104.23 198.34,-97.31"/>
<polygon fill="midnightblue" stroke="midnightblue" points="199.58,-100.59 208.08,-94.26 197.49,-93.91 199.58,-100.59"/>
</g>
<!-- Node12&#45;&gt;Node3 -->
<g id="edge13" class="edge">
<title>Node12&#45;&gt;Node3</title>
<path fill="none" stroke="midnightblue" d="M131.19,-92.59C145.06,-97.61 164.87,-104.78 183.45,-111.51"/>
<polygon fill="midnightblue" stroke="midnightblue" points="182.41,-114.86 193.01,-114.97 184.8,-108.28 182.41,-114.86"/>
</g>
<!-- Node12&#45;&gt;Node11 -->
<g id="edge14" class="edge">
<title>Node12&#45;&gt;Node11</title>
<path fill="none" stroke="midnightblue" d="M131.19,-86C148.79,-86 175.97,-86 198.04,-86"/>
<polygon fill="midnightblue" stroke="midnightblue" points="198.08,-89.5 208.08,-86 198.08,-82.5 198.08,-89.5"/>
</g>
</g>
</svg>
