<?xml version="1.0" encoding="UTF-8" standalone="no"?>
<!DOCTYPE svg PUBLIC "-//W3C//DTD SVG 1.1//EN"
 "http://www.w3.org/Graphics/SVG/1.1/DTD/svg11.dtd">
<!-- Generated by graphviz version 2.47.3 (20210619.1520)
 -->
<!-- Title: test2 Pages: 1 -->
<svg width="385pt" height="176pt"
 viewBox="0.00 0.00 385.00 176.00" xmlns="http://www.w3.org/2000/svg" xmlns:xlink="http://www.w3.org/1999/xlink">
<g id="graph0" class="graph" transform="scale(1 1) rotate(0) translate(4 172)">
<title>test2</title>
<polygon fill="white" stroke="transparent" points="-4,4 -4,-172 381,-172 381,4 -4,4"/>
<!-- Node1 -->
<g id="node1" class="node">
<title>Node1</title>
<g id="a_node1"><a xlink:title="simple test to insert continuous number of range [0, n), and print the tree">
<polygon fill="#bfbfbf" stroke="black" points="0,-72 0,-91 38,-91 38,-72 0,-72"/>
<text text-anchor="middle" x="19" y="-79" font-family="Helvetica,sans-Serif" font-size="10.00">test2</text>
</a>
</g>
</g>
<!-- Node2 -->
<g id="node2" class="node">
<title>Node2</title>
<g id="a_node2"><a xlink:href="../../d3/d95/classdata__structures_1_1tree__234_1_1_tree234.html#a6749ebb40710c9752a2771eda03c6b3e" target="_top" xlink:title="Insert item to tree.">
<polygon fill="white" stroke="black" points="80.5,-137.5 80.5,-167.5 190.5,-167.5 190.5,-137.5 80.5,-137.5"/>
<text text-anchor="start" x="88.5" y="-155.5" font-family="Helvetica,sans-Serif" font-size="10.00">data_structures::tree</text>
<text text-anchor="middle" x="135.5" y="-144.5" font-family="Helvetica,sans-Serif" font-size="10.00">_234::Tree234::Insert</text>
</a>
</g>
</g>
<!-- Node1&#45;&gt;Node2 -->
<g id="edge1" class="edge">
<title>Node1&#45;&gt;Node2</title>
<path fill="none" stroke="midnightblue" d="M29.16,-91.24C39.33,-101.59 56.59,-117.9 74,-128.5 76.62,-130.09 79.36,-131.62 82.17,-133.07"/>
<polygon fill="midnightblue" stroke="midnightblue" points="80.79,-136.29 91.31,-137.47 83.82,-129.98 80.79,-136.29"/>
</g>
<!-- Node4 -->
<g id="node4" class="node">
<title>Node4</title>
<g id="a_node4"><a xlink:href="../../d3/d95/classdata__structures_1_1tree__234_1_1_tree234.html#a2e9a9db7792cf5383f4c4cc418255165" target="_top" xlink:title="Print tree into a dot file.">
<polygon fill="white" stroke="black" points="82,-88.5 82,-118.5 189,-118.5 189,-88.5 82,-88.5"/>
<text text-anchor="start" x="90" y="-106.5" font-family="Helvetica,sans-Serif" font-size="10.00">data_structures::tree</text>
<text text-anchor="middle" x="135.5" y="-95.5" font-family="Helvetica,sans-Serif" font-size="10.00">_234::Tree234::Print</text>
</a>
</g>
</g>
<!-- Node1&#45;&gt;Node4 -->
<g id="edge3" class="edge">
<title>Node1&#45;&gt;Node4</title>
<path fill="none" stroke="midnightblue" d="M38.14,-84.99C47.5,-86.78 59.52,-89.09 71.88,-91.47"/>
<polygon fill="midnightblue" stroke="midnightblue" points="71.34,-94.93 81.82,-93.38 72.66,-88.05 71.34,-94.93"/>
</g>
<!-- Node7 -->
<g id="node7" class="node">
<title>Node7</title>
<g id="a_node7"><a target="_blank" xlink:href="http://en.cppreference.com/w/cpp/string/basic_string/to_string.html#" xlink:title=" ">
<polygon fill="white" stroke="black" points="98.5,-50 98.5,-69 172.5,-69 172.5,-50 98.5,-50"/>
<text text-anchor="middle" x="135.5" y="-57" font-family="Helvetica,sans-Serif" font-size="10.00">std::to_string</text>
</a>
</g>
</g>
<!-- Node1&#45;&gt;Node7 -->
<g id="edge6" class="edge">
<title>Node1&#45;&gt;Node7</title>
<path fill="none" stroke="midnightblue" d="M38.14,-78.01C51.64,-75.42 70.68,-71.76 88.29,-68.38"/>
<polygon fill="midnightblue" stroke="midnightblue" points="89.27,-71.75 98.43,-66.43 87.95,-64.88 89.27,-71.75"/>
</g>
<!-- Node8 -->
<g id="node8" class="node">
<title>Node8</title>
<g id="a_node8"><a xlink:href="../../d3/d95/classdata__structures_1_1tree__234_1_1_tree234.html#a84ab7b4fe7442b5e2eeed8c050bb86bd" target="_top" xlink:title="In&#45;order traverse.">
<polygon fill="white" stroke="black" points="74,-0.5 74,-30.5 197,-30.5 197,-0.5 74,-0.5"/>
<text text-anchor="start" x="82" y="-18.5" font-family="Helvetica,sans-Serif" font-size="10.00">data_structures::tree</text>
<text text-anchor="middle" x="135.5" y="-7.5" font-family="Helvetica,sans-Serif" font-size="10.00">_234::Tree234::Traverse</text>
</a>
</g>
</g>
<!-- Node1&#45;&gt;Node8 -->
<g id="edge7" class="edge">
<title>Node1&#45;&gt;Node8</title>
<path fill="none" stroke="midnightblue" d="M30.99,-71.8C41.5,-62.86 58.07,-49.63 74,-40.5 77.4,-38.55 80.98,-36.68 84.62,-34.89"/>
<polygon fill="midnightblue" stroke="midnightblue" points="86.19,-38.02 93.78,-30.63 83.24,-31.67 86.19,-38.02"/>
</g>
<!-- Node3 -->
<g id="node3" class="node">
<title>Node3</title>
<g id="a_node3"><a xlink:href="../../d3/d95/classdata__structures_1_1tree__234_1_1_tree234.html#a07811b3c564a3a443b106c9aa717629d" target="_top" xlink:title="A insert implementation of pre&#45;split.">
<polygon fill="white" stroke="black" points="233,-137.5 233,-167.5 377,-167.5 377,-137.5 233,-137.5"/>
<text text-anchor="start" x="241" y="-155.5" font-family="Helvetica,sans-Serif" font-size="10.00">data_structures::tree</text>
<text text-anchor="middle" x="305" y="-144.5" font-family="Helvetica,sans-Serif" font-size="10.00">_234::Tree234::InsertPreSplit</text>
</a>
</g>
</g>
<!-- Node2&#45;&gt;Node3 -->
<g id="edge2" class="edge">
<title>Node2&#45;&gt;Node3</title>
<path fill="none" stroke="midnightblue" d="M190.88,-152.5C201.02,-152.5 211.81,-152.5 222.55,-152.5"/>
<polygon fill="midnightblue" stroke="midnightblue" points="222.81,-156 232.81,-152.5 222.81,-149 222.81,-156"/>
</g>
<!-- Node5 -->
<g id="node5" class="node">
<title>Node5</title>
<g id="a_node5"><a target="_blank" xlink:href="http://en.cppreference.com/w/cpp/io/manip/endl.html#" xlink:title=" ">
<polygon fill="white" stroke="black" points="278,-31 278,-50 332,-50 332,-31 278,-31"/>
<text text-anchor="middle" x="305" y="-38" font-family="Helvetica,sans-Serif" font-size="10.00">std::endl</text>
</a>
</g>
</g>
<!-- Node4&#45;&gt;Node5 -->
<g id="edge4" class="edge">
<title>Node4&#45;&gt;Node5</title>
<path fill="none" stroke="midnightblue" d="M176.62,-88.41C204.81,-77.81 242.14,-63.77 269.1,-53.63"/>
<polygon fill="midnightblue" stroke="midnightblue" points="270.39,-56.88 278.52,-50.08 267.93,-50.33 270.39,-56.88"/>
</g>
<!-- Node6 -->
<g id="node6" class="node">
<title>Node6</title>
<g id="a_node6"><a target="_blank" xlink:href="http://en.cppreference.com/w/cpp/io/basic_ofstream/open.html#" xlink:title=" ">
<polygon fill="white" stroke="black" points="254.5,-94 254.5,-113 355.5,-113 355.5,-94 254.5,-94"/>
<text text-anchor="middle" x="305" y="-101" font-family="Helvetica,sans-Serif" font-size="10.00">std::ofstream::open</text>
</a>
</g>
</g>
<!-- Node4&#45;&gt;Node6 -->
<g id="edge5" class="edge">
<title>Node4&#45;&gt;Node6</title>
<path fill="none" stroke="midnightblue" d="M189.04,-103.5C206.52,-103.5 226.13,-103.5 244.12,-103.5"/>
<polygon fill="midnightblue" stroke="midnightblue" points="244.22,-107 254.22,-103.5 244.22,-100 244.22,-107"/>
</g>
<!-- Node8&#45;&gt;Node5 -->
<g id="edge8" class="edge">
<title>Node8&#45;&gt;Node5</title>
<path fill="none" stroke="midnightblue" d="M197.45,-24.6C221.02,-28.12 247.21,-32.02 267.73,-35.09"/>
<polygon fill="midnightblue" stroke="midnightblue" points="267.48,-38.59 277.89,-36.6 268.52,-31.67 267.48,-38.59"/>
</g>
</g>
</svg>
