<?xml version="1.0" encoding="UTF-8" standalone="no"?>
<!DOCTYPE svg PUBLIC "-//W3C//DTD SVG 1.1//EN"
 "http://www.w3.org/Graphics/SVG/1.1/DTD/svg11.dtd">
<!-- Generated by graphviz version 2.44.1 (20200629.0846)
 -->
<!-- Title: main Pages: 1 -->
<svg width="879pt" height="480pt"
 viewBox="0.00 0.00 879.00 480.00" xmlns="http://www.w3.org/2000/svg" xmlns:xlink="http://www.w3.org/1999/xlink">
<g id="graph0" class="graph" transform="scale(1 1) rotate(0) translate(4 476)">
<title>main</title>
<polygon fill="white" stroke="transparent" points="-4,4 -4,-476 875,-476 875,4 -4,4"/>
<!-- Node1 -->
<g id="node1" class="node">
<title>Node1</title>
<g id="a_node1"><a xlink:title="Main function.">
<polygon fill="#bfbfbf" stroke="black" points="0,-147 0,-166 38,-166 38,-147 0,-147"/>
<text text-anchor="middle" x="19" y="-154" font-family="Helvetica,sans-Serif" font-size="10.00">main</text>
</a>
</g>
</g>
<!-- Node2 -->
<g id="node2" class="node">
<title>Node2</title>
<g id="a_node2"><a target="_blank" xlink:href="http://en.cppreference.com/w/cpp/string/basic_string/stol.html#" xlink:title=" ">
<polygon fill="white" stroke="black" points="74,-185 74,-204 126,-204 126,-185 74,-185"/>
<text text-anchor="middle" x="100" y="-192" font-family="Helvetica,sans-Serif" font-size="10.00">std::stoi</text>
</a>
</g>
</g>
<!-- Node1&#45;&gt;Node2 -->
<g id="edge1" class="edge">
<title>Node1&#45;&gt;Node2</title>
<path fill="none" stroke="midnightblue" d="M38.32,-165.31C47.68,-169.81 59.28,-175.39 69.82,-180.47"/>
<polygon fill="midnightblue" stroke="midnightblue" points="68.59,-183.75 79.12,-184.94 71.62,-177.45 68.59,-183.75"/>
</g>
<!-- Node3 -->
<g id="node3" class="node">
<title>Node3</title>
<g id="a_node3"><a xlink:href="../../db/dbc/tree__234_8cpp.html#ae7880ce913f3058a35ff106d5be9e243" target="_top" xlink:title="simple test to insert a given array and delete some item, and print the tree">
<polygon fill="white" stroke="black" points="81,-147 81,-166 119,-166 119,-147 81,-147"/>
<text text-anchor="middle" x="100" y="-154" font-family="Helvetica,sans-Serif" font-size="10.00">test1</text>
</a>
</g>
</g>
<!-- Node1&#45;&gt;Node3 -->
<g id="edge2" class="edge">
<title>Node1&#45;&gt;Node3</title>
<path fill="none" stroke="midnightblue" d="M38.32,-156.5C47.89,-156.5 59.82,-156.5 70.56,-156.5"/>
<polygon fill="midnightblue" stroke="midnightblue" points="70.78,-160 80.78,-156.5 70.78,-153 70.78,-160"/>
</g>
<!-- Node24 -->
<g id="node24" class="node">
<title>Node24</title>
<g id="a_node24"><a xlink:href="../../db/dbc/tree__234_8cpp.html#af1ac73779b0fcfbbdce3976c0ca57342" target="_top" xlink:title="simple test to insert continuous number of range [0, n), and print the tree">
<polygon fill="white" stroke="black" points="81,-104 81,-123 119,-123 119,-104 81,-104"/>
<text text-anchor="middle" x="100" y="-111" font-family="Helvetica,sans-Serif" font-size="10.00">test2</text>
</a>
</g>
</g>
<!-- Node1&#45;&gt;Node24 -->
<g id="edge23" class="edge">
<title>Node1&#45;&gt;Node24</title>
<path fill="none" stroke="midnightblue" d="M37.53,-146.96C47.86,-141.33 61.13,-134.11 72.7,-127.82"/>
<polygon fill="midnightblue" stroke="midnightblue" points="74.41,-130.87 81.52,-123.02 71.06,-124.72 74.41,-130.87"/>
</g>
<!-- Node4 -->
<g id="node4" class="node">
<title>Node4</title>
<g id="a_node4"><a xlink:href="../../d3/d95/classdata__structures_1_1tree__234_1_1_tree234.html#a6749ebb40710c9752a2771eda03c6b3e" target="_top" xlink:title="Insert item to tree.">
<polygon fill="white" stroke="black" points="168.5,-147.5 168.5,-177.5 278.5,-177.5 278.5,-147.5 168.5,-147.5"/>
<text text-anchor="start" x="176.5" y="-165.5" font-family="Helvetica,sans-Serif" font-size="10.00">data_structures::tree</text>
<text text-anchor="middle" x="223.5" y="-154.5" font-family="Helvetica,sans-Serif" font-size="10.00">_234::Tree234::Insert</text>
</a>
</g>
</g>
<!-- Node3&#45;&gt;Node4 -->
<g id="edge3" class="edge">
<title>Node3&#45;&gt;Node4</title>
<path fill="none" stroke="midnightblue" d="M119.19,-157.4C129.74,-157.92 143.72,-158.61 157.99,-159.31"/>
<polygon fill="midnightblue" stroke="midnightblue" points="158.22,-162.83 168.38,-159.83 158.57,-155.84 158.22,-162.83"/>
</g>
<!-- Node6 -->
<g id="node6" class="node">
<title>Node6</title>
<g id="a_node6"><a xlink:href="../../d3/d95/classdata__structures_1_1tree__234_1_1_tree234.html#a2e9a9db7792cf5383f4c4cc418255165" target="_top" xlink:title="Print tree into a dot file.">
<polygon fill="white" stroke="black" points="170,-98.5 170,-128.5 277,-128.5 277,-98.5 170,-98.5"/>
<text text-anchor="start" x="178" y="-116.5" font-family="Helvetica,sans-Serif" font-size="10.00">data_structures::tree</text>
<text text-anchor="middle" x="223.5" y="-105.5" font-family="Helvetica,sans-Serif" font-size="10.00">_234::Tree234::Print</text>
</a>
</g>
</g>
<!-- Node3&#45;&gt;Node6 -->
<g id="edge5" class="edge">
<title>Node3&#45;&gt;Node6</title>
<path fill="none" stroke="midnightblue" d="M119.19,-150.06C132.83,-145.23 152.23,-138.37 170.54,-131.89"/>
<polygon fill="midnightblue" stroke="midnightblue" points="171.72,-135.19 179.98,-128.55 169.38,-128.59 171.72,-135.19"/>
</g>
<!-- Node9 -->
<g id="node9" class="node">
<title>Node9</title>
<g id="a_node9"><a xlink:href="../../d3/d95/classdata__structures_1_1tree__234_1_1_tree234.html#a5da1be3f5b5d967ebb36a201f3ebad11" target="_top" xlink:title="Remove item from tree.">
<polygon fill="white" stroke="black" points="162.5,-196.5 162.5,-226.5 284.5,-226.5 284.5,-196.5 162.5,-196.5"/>
<text text-anchor="start" x="170.5" y="-214.5" font-family="Helvetica,sans-Serif" font-size="10.00">data_structures::tree</text>
<text text-anchor="middle" x="223.5" y="-203.5" font-family="Helvetica,sans-Serif" font-size="10.00">_234::Tree234::Remove</text>
</a>
</g>
</g>
<!-- Node3&#45;&gt;Node9 -->
<g id="edge8" class="edge">
<title>Node3&#45;&gt;Node9</title>
<path fill="none" stroke="midnightblue" d="M119,-165.74C131.07,-171.84 147.37,-179.89 162,-186.5 166.37,-188.47 170.93,-190.47 175.52,-192.44"/>
<polygon fill="midnightblue" stroke="midnightblue" points="174.33,-195.74 184.9,-196.41 177.05,-189.29 174.33,-195.74"/>
</g>
<!-- Node5 -->
<g id="node5" class="node">
<title>Node5</title>
<g id="a_node5"><a xlink:href="../../d3/d95/classdata__structures_1_1tree__234_1_1_tree234.html#a07811b3c564a3a443b106c9aa717629d" target="_top" xlink:title="A insert implementation of pre&#45;split.">
<polygon fill="white" stroke="black" points="331,-147.5 331,-177.5 475,-177.5 475,-147.5 331,-147.5"/>
<text text-anchor="start" x="339" y="-165.5" font-family="Helvetica,sans-Serif" font-size="10.00">data_structures::tree</text>
<text text-anchor="middle" x="403" y="-154.5" font-family="Helvetica,sans-Serif" font-size="10.00">_234::Tree234::InsertPreSplit</text>
</a>
</g>
</g>
<!-- Node4&#45;&gt;Node5 -->
<g id="edge4" class="edge">
<title>Node4&#45;&gt;Node5</title>
<path fill="none" stroke="midnightblue" d="M278.72,-162.5C291.93,-162.5 306.35,-162.5 320.51,-162.5"/>
<polygon fill="midnightblue" stroke="midnightblue" points="320.77,-166 330.77,-162.5 320.77,-159 320.77,-166"/>
</g>
<!-- Node7 -->
<g id="node7" class="node">
<title>Node7</title>
<g id="a_node7"><a target="_blank" xlink:href="http://en.cppreference.com/w/cpp/io/manip/endl.html#" xlink:title=" ">
<polygon fill="white" stroke="black" points="376,-41 376,-60 430,-60 430,-41 376,-41"/>
<text text-anchor="middle" x="403" y="-48" font-family="Helvetica,sans-Serif" font-size="10.00">std::endl</text>
</a>
</g>
</g>
<!-- Node6&#45;&gt;Node7 -->
<g id="edge6" class="edge">
<title>Node6&#45;&gt;Node7</title>
<path fill="none" stroke="midnightblue" d="M267.02,-98.41C297.29,-87.66 337.53,-73.38 366.17,-63.22"/>
<polygon fill="midnightblue" stroke="midnightblue" points="367.53,-66.45 375.79,-59.8 365.19,-59.85 367.53,-66.45"/>
</g>
<!-- Node8 -->
<g id="node8" class="node">
<title>Node8</title>
<g id="a_node8"><a target="_blank" xlink:href="http://en.cppreference.com/w/cpp/io/basic_ofstream/open.html#" xlink:title=" ">
<polygon fill="white" stroke="black" points="352.5,-104 352.5,-123 453.5,-123 453.5,-104 352.5,-104"/>
<text text-anchor="middle" x="403" y="-111" font-family="Helvetica,sans-Serif" font-size="10.00">std::ofstream::open</text>
</a>
</g>
</g>
<!-- Node6&#45;&gt;Node8 -->
<g id="edge7" class="edge">
<title>Node6&#45;&gt;Node8</title>
<path fill="none" stroke="midnightblue" d="M277.28,-113.5C297.74,-113.5 321.27,-113.5 342.34,-113.5"/>
<polygon fill="midnightblue" stroke="midnightblue" points="342.47,-117 352.47,-113.5 342.47,-110 342.47,-117"/>
</g>
<!-- Node10 -->
<g id="node10" class="node">
<title>Node10</title>
<g id="a_node10"><a xlink:href="../../d3/d95/classdata__structures_1_1tree__234_1_1_tree234.html#a61dd051a74e5f36c8dc03dae8dca6ef4" target="_top" xlink:title="Main function implement the pre&#45;merge remove operation.">
<polygon fill="white" stroke="black" points="321,-196.5 321,-226.5 485,-226.5 485,-196.5 321,-196.5"/>
<text text-anchor="start" x="329" y="-214.5" font-family="Helvetica,sans-Serif" font-size="10.00">data_structures::tree</text>
<text text-anchor="middle" x="403" y="-203.5" font-family="Helvetica,sans-Serif" font-size="10.00">_234::Tree234::RemovePreMerge</text>
</a>
</g>
</g>
<!-- Node9&#45;&gt;Node10 -->
<g id="edge9" class="edge">
<title>Node9&#45;&gt;Node10</title>
<path fill="none" stroke="midnightblue" d="M284.59,-211.5C293.07,-211.5 301.94,-211.5 310.84,-211.5"/>
<polygon fill="midnightblue" stroke="midnightblue" points="310.88,-215 320.88,-211.5 310.88,-208 310.88,-215"/>
</g>
<!-- Node11 -->
<g id="node11" class="node">
<title>Node11</title>
<g id="a_node11"><a xlink:href="../../d3/d95/classdata__structures_1_1tree__234_1_1_tree234.html#ac85ba5abfd6d34dcd908b2afe6464657" target="_top" xlink:title="Get the max item of the tree.">
<polygon fill="white" stroke="black" points="521,-392.5 521,-422.5 679,-422.5 679,-392.5 521,-392.5"/>
<text text-anchor="start" x="529" y="-410.5" font-family="Helvetica,sans-Serif" font-size="10.00">data_structures::tree</text>
<text text-anchor="middle" x="600" y="-399.5" font-family="Helvetica,sans-Serif" font-size="10.00">_234::Tree234::GetTreeMaxItem</text>
</a>
</g>
</g>
<!-- Node10&#45;&gt;Node11 -->
<g id="edge10" class="edge">
<title>Node10&#45;&gt;Node11</title>
<path fill="none" stroke="midnightblue" d="M410.11,-226.68C424.36,-260.15 463.04,-340.71 521,-383.5 523.04,-385.01 525.19,-386.43 527.4,-387.75"/>
<polygon fill="midnightblue" stroke="midnightblue" points="525.78,-390.85 536.25,-392.45 529.06,-384.67 525.78,-390.85"/>
</g>
<!-- Node14 -->
<g id="node14" class="node">
<title>Node14</title>
<g id="a_node14"><a xlink:href="../../d3/d95/classdata__structures_1_1tree__234_1_1_tree234.html#a65a1235659356166a3e9b451c64fcc36" target="_top" xlink:title="Get the min item of the tree.">
<polygon fill="white" stroke="black" points="522.5,-343.5 522.5,-373.5 677.5,-373.5 677.5,-343.5 522.5,-343.5"/>
<text text-anchor="start" x="530.5" y="-361.5" font-family="Helvetica,sans-Serif" font-size="10.00">data_structures::tree</text>
<text text-anchor="middle" x="600" y="-350.5" font-family="Helvetica,sans-Serif" font-size="10.00">_234::Tree234::GetTreeMinItem</text>
</a>
</g>
</g>
<!-- Node10&#45;&gt;Node14 -->
<g id="edge13" class="edge">
<title>Node10&#45;&gt;Node14</title>
<path fill="none" stroke="midnightblue" d="M414.47,-226.56C433.04,-252.18 474.2,-304.28 521,-333.5 524.36,-335.6 527.92,-337.54 531.59,-339.33"/>
<polygon fill="midnightblue" stroke="midnightblue" points="530.33,-342.6 540.89,-343.47 533.18,-336.21 530.33,-342.6"/>
</g>
<!-- Node17 -->
<g id="node17" class="node">
<title>Node17</title>
<g id="a_node17"><a xlink:href="../../dd/d40/classdata__structures_1_1tree__234_1_1_node.html#afd9f83e2d5d7f22f79c1348e98914631" target="_top" xlink:title="Check if node is a 2&#45;node.">
<polygon fill="white" stroke="black" points="545,-294.5 545,-324.5 655,-324.5 655,-294.5 545,-294.5"/>
<text text-anchor="start" x="553" y="-312.5" font-family="Helvetica,sans-Serif" font-size="10.00">data_structures::tree</text>
<text text-anchor="middle" x="600" y="-301.5" font-family="Helvetica,sans-Serif" font-size="10.00">_234::Node::Is2Node</text>
</a>
</g>
</g>
<!-- Node10&#45;&gt;Node17 -->
<g id="edge16" class="edge">
<title>Node10&#45;&gt;Node17</title>
<path fill="none" stroke="midnightblue" d="M424.67,-226.61C447.38,-242.67 485.38,-267.99 521,-284.5 525.92,-286.78 531.1,-288.93 536.36,-290.95"/>
<polygon fill="midnightblue" stroke="midnightblue" points="535.28,-294.28 545.87,-294.43 537.69,-287.71 535.28,-294.28"/>
</g>
<!-- Node18 -->
<g id="node18" class="node">
<title>Node18</title>
<g id="a_node18"><a xlink:href="../../dd/d40/classdata__structures_1_1tree__234_1_1_node.html#a6c5f929afcbad5219646990edee22e18" target="_top" xlink:title="Check if node is a 3&#45;node or 4&#45;node, this is useful when we delete item from 2&#45;3&#45;4 tree.">
<polygon fill="white" stroke="black" points="542.5,-245.5 542.5,-275.5 657.5,-275.5 657.5,-245.5 542.5,-245.5"/>
<text text-anchor="start" x="550.5" y="-263.5" font-family="Helvetica,sans-Serif" font-size="10.00">data_structures::tree</text>
<text text-anchor="middle" x="600" y="-252.5" font-family="Helvetica,sans-Serif" font-size="10.00">_234::Node::Is34Node</text>
</a>
</g>
</g>
<!-- Node10&#45;&gt;Node18 -->
<g id="edge17" class="edge">
<title>Node10&#45;&gt;Node18</title>
<path fill="none" stroke="midnightblue" d="M463.83,-226.53C485.58,-232 510.28,-238.21 532.57,-243.81"/>
<polygon fill="midnightblue" stroke="midnightblue" points="531.73,-247.21 542.28,-246.25 533.44,-240.42 531.73,-247.21"/>
</g>
<!-- Node19 -->
<g id="node19" class="node">
<title>Node19</title>
<g id="a_node19"><a xlink:href="../../d3/d95/classdata__structures_1_1tree__234_1_1_tree234.html#ae58dca20f08eaf9313f6e7b0869c2d0e" target="_top" xlink:title="Do the actual left rotate operation.">
<polygon fill="white" stroke="black" points="534.5,-196.5 534.5,-226.5 665.5,-226.5 665.5,-196.5 534.5,-196.5"/>
<text text-anchor="start" x="542.5" y="-214.5" font-family="Helvetica,sans-Serif" font-size="10.00">data_structures::tree</text>
<text text-anchor="middle" x="600" y="-203.5" font-family="Helvetica,sans-Serif" font-size="10.00">_234::Tree234::LeftRotate</text>
</a>
</g>
</g>
<!-- Node10&#45;&gt;Node19 -->
<g id="edge18" class="edge">
<title>Node10&#45;&gt;Node19</title>
<path fill="none" stroke="midnightblue" d="M485,-211.5C497.97,-211.5 511.33,-211.5 524.14,-211.5"/>
<polygon fill="midnightblue" stroke="midnightblue" points="524.28,-215 534.28,-211.5 524.28,-208 524.28,-215"/>
</g>
<!-- Node20 -->
<g id="node20" class="node">
<title>Node20</title>
<g id="a_node20"><a xlink:href="../../d3/d95/classdata__structures_1_1tree__234_1_1_tree234.html#a36f4d5f603f7edb7db7c73fb53ba14e9" target="_top" xlink:title="Merge the item at index of the parent node, and its left and right child.">
<polygon fill="white" stroke="black" points="544,-147.5 544,-177.5 656,-177.5 656,-147.5 544,-147.5"/>
<text text-anchor="start" x="552" y="-165.5" font-family="Helvetica,sans-Serif" font-size="10.00">data_structures::tree</text>
<text text-anchor="middle" x="600" y="-154.5" font-family="Helvetica,sans-Serif" font-size="10.00">_234::Tree234::Merge</text>
</a>
</g>
</g>
<!-- Node10&#45;&gt;Node20 -->
<g id="edge19" class="edge">
<title>Node10&#45;&gt;Node20</title>
<path fill="none" stroke="midnightblue" d="M463.83,-196.47C486.07,-190.88 511.39,-184.51 534.06,-178.82"/>
<polygon fill="midnightblue" stroke="midnightblue" points="535.09,-182.17 543.93,-176.34 533.38,-175.38 535.09,-182.17"/>
</g>
<!-- Node21 -->
<g id="node21" class="node">
<title>Node21</title>
<g id="a_node21"><a xlink:href="../../d3/d95/classdata__structures_1_1tree__234_1_1_tree234.html#ae68f8e62be02657c1287def6b38d7cc9" target="_top" xlink:title="Do the actual right rotate operation.">
<polygon fill="white" stroke="black" points="531.5,-98.5 531.5,-128.5 668.5,-128.5 668.5,-98.5 531.5,-98.5"/>
<text text-anchor="start" x="539.5" y="-116.5" font-family="Helvetica,sans-Serif" font-size="10.00">data_structures::tree</text>
<text text-anchor="middle" x="600" y="-105.5" font-family="Helvetica,sans-Serif" font-size="10.00">_234::Tree234::RightRotate</text>
</a>
</g>
</g>
<!-- Node10&#45;&gt;Node21 -->
<g id="edge20" class="edge">
<title>Node10&#45;&gt;Node21</title>
<path fill="none" stroke="midnightblue" d="M467.37,-196.37C473.6,-193.6 479.6,-190.34 485,-186.5 507.02,-170.84 498.97,-153.15 521,-137.5 523.12,-135.99 525.34,-134.58 527.63,-133.25"/>
<polygon fill="midnightblue" stroke="midnightblue" points="529.48,-136.23 536.78,-128.55 526.28,-130.01 529.48,-136.23"/>
</g>
<!-- Node22 -->
<g id="node22" class="node">
<title>Node22</title>
<g id="a_node22"><a xlink:href="../../d3/d95/classdata__structures_1_1tree__234_1_1_tree234.html#ac5361479dd996eb331759f33808657d9" target="_top" xlink:title="A handy function to try if we can do a left rotate to the target node.">
<polygon fill="white" stroke="black" points="527.5,-49.5 527.5,-79.5 672.5,-79.5 672.5,-49.5 527.5,-49.5"/>
<text text-anchor="start" x="535.5" y="-67.5" font-family="Helvetica,sans-Serif" font-size="10.00">data_structures::tree</text>
<text text-anchor="middle" x="600" y="-56.5" font-family="Helvetica,sans-Serif" font-size="10.00">_234::Tree234::TryLeftRotate</text>
</a>
</g>
</g>
<!-- Node10&#45;&gt;Node22 -->
<g id="edge21" class="edge">
<title>Node10&#45;&gt;Node22</title>
<path fill="none" stroke="midnightblue" d="M471.35,-196.36C476.31,-193.61 480.94,-190.35 485,-186.5 518.66,-154.56 487.32,-120.42 521,-88.5 522.12,-87.43 523.3,-86.42 524.51,-85.44"/>
<polygon fill="midnightblue" stroke="midnightblue" points="526.72,-88.17 533.02,-79.65 522.78,-82.38 526.72,-88.17"/>
</g>
<!-- Node23 -->
<g id="node23" class="node">
<title>Node23</title>
<g id="a_node23"><a xlink:href="../../d3/d95/classdata__structures_1_1tree__234_1_1_tree234.html#aec0642d1d151521ca7c70ea85cdb15d3" target="_top" xlink:title="A handy function to try if we can do a right rotate to the target node.">
<polygon fill="white" stroke="black" points="524,-0.5 524,-30.5 676,-30.5 676,-0.5 524,-0.5"/>
<text text-anchor="start" x="532" y="-18.5" font-family="Helvetica,sans-Serif" font-size="10.00">data_structures::tree</text>
<text text-anchor="middle" x="600" y="-7.5" font-family="Helvetica,sans-Serif" font-size="10.00">_234::Tree234::TryRightRotate</text>
</a>
</g>
</g>
<!-- Node10&#45;&gt;Node23 -->
<g id="edge22" class="edge">
<title>Node10&#45;&gt;Node23</title>
<path fill="none" stroke="midnightblue" d="M472.59,-196.39C477.15,-193.62 481.37,-190.36 485,-186.5 531.13,-137.55 474.84,-88.43 521,-39.5 521.9,-38.54 522.84,-37.62 523.81,-36.74"/>
<polygon fill="midnightblue" stroke="midnightblue" points="525.99,-39.49 531.86,-30.66 521.77,-33.9 525.99,-39.49"/>
</g>
<!-- Node12 -->
<g id="node12" class="node">
<title>Node12</title>
<g id="a_node12"><a xlink:href="../../dd/d40/classdata__structures_1_1tree__234_1_1_node.html#a2753b6053b8c86c5bd987a44fdfa0a57" target="_top" xlink:title="Get max item (rightmost) in the current node.">
<polygon fill="white" stroke="black" points="729.5,-441.5 729.5,-471.5 856.5,-471.5 856.5,-441.5 729.5,-441.5"/>
<text text-anchor="start" x="737.5" y="-459.5" font-family="Helvetica,sans-Serif" font-size="10.00">data_structures::tree</text>
<text text-anchor="middle" x="793" y="-448.5" font-family="Helvetica,sans-Serif" font-size="10.00">_234::Node::GetMaxItem</text>
</a>
</g>
</g>
<!-- Node11&#45;&gt;Node12 -->
<g id="edge11" class="edge">
<title>Node11&#45;&gt;Node12</title>
<path fill="none" stroke="midnightblue" d="M659.6,-422.53C679.86,-427.73 702.74,-433.6 723.71,-438.98"/>
<polygon fill="midnightblue" stroke="midnightblue" points="722.95,-442.4 733.51,-441.49 724.69,-435.62 722.95,-442.4"/>
</g>
<!-- Node13 -->
<g id="node13" class="node">
<title>Node13</title>
<g id="a_node13"><a xlink:href="../../dd/d40/classdata__structures_1_1tree__234_1_1_node.html#abe9725b6422fd974642f9c9618b0f3be" target="_top" xlink:title="Get rightmose child of the current node.">
<polygon fill="white" stroke="black" points="715,-392.5 715,-422.5 871,-422.5 871,-392.5 715,-392.5"/>
<text text-anchor="start" x="723" y="-410.5" font-family="Helvetica,sans-Serif" font-size="10.00">data_structures::tree</text>
<text text-anchor="middle" x="793" y="-399.5" font-family="Helvetica,sans-Serif" font-size="10.00">_234::Node::GetRightmostChild</text>
</a>
</g>
</g>
<!-- Node11&#45;&gt;Node13 -->
<g id="edge12" class="edge">
<title>Node11&#45;&gt;Node13</title>
<path fill="none" stroke="midnightblue" d="M679.24,-407.5C687.59,-407.5 696.12,-407.5 704.57,-407.5"/>
<polygon fill="midnightblue" stroke="midnightblue" points="704.81,-411 714.81,-407.5 704.81,-404 704.81,-411"/>
</g>
<!-- Node15 -->
<g id="node15" class="node">
<title>Node15</title>
<g id="a_node15"><a xlink:href="../../dd/d40/classdata__structures_1_1tree__234_1_1_node.html#a692a971c577511abdf7027e7e92a031b" target="_top" xlink:title="Get leftmose child of the current node.">
<polygon fill="white" stroke="black" points="718.5,-343.5 718.5,-373.5 867.5,-373.5 867.5,-343.5 718.5,-343.5"/>
<text text-anchor="start" x="726.5" y="-361.5" font-family="Helvetica,sans-Serif" font-size="10.00">data_structures::tree</text>
<text text-anchor="middle" x="793" y="-350.5" font-family="Helvetica,sans-Serif" font-size="10.00">_234::Node::GetLeftmostChild</text>
</a>
</g>
</g>
<!-- Node14&#45;&gt;Node15 -->
<g id="edge14" class="edge">
<title>Node14&#45;&gt;Node15</title>
<path fill="none" stroke="midnightblue" d="M677.59,-358.5C687.63,-358.5 697.96,-358.5 708.11,-358.5"/>
<polygon fill="midnightblue" stroke="midnightblue" points="708.19,-362 718.19,-358.5 708.19,-355 708.19,-362"/>
</g>
<!-- Node16 -->
<g id="node16" class="node">
<title>Node16</title>
<g id="a_node16"><a xlink:href="../../dd/d40/classdata__structures_1_1tree__234_1_1_node.html#a5438d0a47850f520b2262b5a42f75b71" target="_top" xlink:title="get min item (leftmost) in the current node">
<polygon fill="white" stroke="black" points="731,-294.5 731,-324.5 855,-324.5 855,-294.5 731,-294.5"/>
<text text-anchor="start" x="739" y="-312.5" font-family="Helvetica,sans-Serif" font-size="10.00">data_structures::tree</text>
<text text-anchor="middle" x="793" y="-301.5" font-family="Helvetica,sans-Serif" font-size="10.00">_234::Node::GetMinItem</text>
</a>
</g>
</g>
<!-- Node14&#45;&gt;Node16 -->
<g id="edge15" class="edge">
<title>Node14&#45;&gt;Node16</title>
<path fill="none" stroke="midnightblue" d="M659.6,-343.47C679.86,-338.27 702.74,-332.4 723.71,-327.02"/>
<polygon fill="midnightblue" stroke="midnightblue" points="724.69,-330.38 733.51,-324.51 722.95,-323.6 724.69,-330.38"/>
</g>
<!-- Node24&#45;&gt;Node4 -->
<g id="edge24" class="edge">
<title>Node24&#45;&gt;Node4</title>
<path fill="none" stroke="midnightblue" d="M119.19,-120.84C134.1,-126.85 155.87,-135.63 175.59,-143.58"/>
<polygon fill="midnightblue" stroke="midnightblue" points="174.48,-146.91 185.07,-147.4 177.1,-140.42 174.48,-146.91"/>
</g>
<!-- Node24&#45;&gt;Node6 -->
<g id="edge25" class="edge">
<title>Node24&#45;&gt;Node6</title>
<path fill="none" stroke="midnightblue" d="M119.19,-113.5C130.16,-113.5 144.86,-113.5 159.72,-113.5"/>
<polygon fill="midnightblue" stroke="midnightblue" points="159.98,-117 169.98,-113.5 159.98,-110 159.98,-117"/>
</g>
<!-- Node25 -->
<g id="node25" class="node">
<title>Node25</title>
<g id="a_node25"><a target="_blank" xlink:href="http://en.cppreference.com/w/cpp/string/basic_string/to_string.html#" xlink:title=" ">
<polygon fill="white" stroke="black" points="186.5,-60 186.5,-79 260.5,-79 260.5,-60 186.5,-60"/>
<text text-anchor="middle" x="223.5" y="-67" font-family="Helvetica,sans-Serif" font-size="10.00">std::to_string</text>
</a>
</g>
</g>
<!-- Node24&#45;&gt;Node25 -->
<g id="edge26" class="edge">
<title>Node24&#45;&gt;Node25</title>
<path fill="none" stroke="midnightblue" d="M119.26,-105.54C131.3,-100.41 147.47,-93.75 162,-88.5 167.98,-86.34 174.34,-84.19 180.61,-82.15"/>
<polygon fill="midnightblue" stroke="midnightblue" points="181.84,-85.43 190.3,-79.06 179.71,-78.76 181.84,-85.43"/>
</g>
<!-- Node26 -->
<g id="node26" class="node">
<title>Node26</title>
<g id="a_node26"><a xlink:href="../../d3/d95/classdata__structures_1_1tree__234_1_1_tree234.html#a84ab7b4fe7442b5e2eeed8c050bb86bd" target="_top" xlink:title="In&#45;order traverse.">
<polygon fill="white" stroke="black" points="162,-10.5 162,-40.5 285,-40.5 285,-10.5 162,-10.5"/>
<text text-anchor="start" x="170" y="-28.5" font-family="Helvetica,sans-Serif" font-size="10.00">data_structures::tree</text>
<text text-anchor="middle" x="223.5" y="-17.5" font-family="Helvetica,sans-Serif" font-size="10.00">_234::Tree234::Traverse</text>
</a>
</g>
</g>
<!-- Node24&#45;&gt;Node26 -->
<g id="edge27" class="edge">
<title>Node24&#45;&gt;Node26</title>
<path fill="none" stroke="midnightblue" d="M108.29,-103.76C118.85,-90.24 139.58,-65.73 162,-50.5 164.73,-48.65 167.61,-46.89 170.58,-45.24"/>
<polygon fill="midnightblue" stroke="midnightblue" points="172.38,-48.25 179.69,-40.58 169.2,-42.02 172.38,-48.25"/>
</g>
<!-- Node26&#45;&gt;Node7 -->
<g id="edge28" class="edge">
<title>Node26&#45;&gt;Node7</title>
<path fill="none" stroke="midnightblue" d="M285.09,-34.03C311.91,-37.81 342.57,-42.13 365.75,-45.39"/>
<polygon fill="midnightblue" stroke="midnightblue" points="365.45,-48.89 375.84,-46.82 366.43,-41.96 365.45,-48.89"/>
</g>
</g>
</svg>
